<?xml version="1.0" encoding="UTF-8"?>
<svg id="Layer_1" data-name="Layer 1" xmlns="http://www.w3.org/2000/svg" viewBox="0 0 1000 1000">
  <defs>
    <style>
      .cls-1 {
        fill: #003baf;
      }
    </style>
  </defs>
  <path class="cls-1" d="M994.81,486.8c-3.29-126.76-54.25-241.63-135.57-327.39-6.1-6.38-12.28-12.57-18.76-18.66-73.2-69.33-167.58-116.61-272.5-131.11-3.39-.39-6.38,2.42-6.09,5.9l3.77,49.6c.19,2.22,1.84,4.16,3.96,4.74,72.82,21.08,136.73,74.45,182.76,148.42,3.48,5.51,6.77,11.12,10.06,16.82.68,1.16,1.26,2.32,1.84,3.48,3.29,5.9,6.48,11.89,9.48,17.99,30.75,61.88,50.09,134.78,54.06,213.39.19,3.19-2.52,5.9-5.8,5.71l-34.71-2.22-193.2-12.47.09-.1,106.27-153.73c3.38-5.03-2.61-11.02-7.64-7.64l-153.65,106.16-.19.19-18.66-290.55-3.57-54.73-3.19-50.38c-.19-2.9-2.52-5.12-5.32-5.12-2.8-.09-5.51-.09-8.22-.09v.09c-4.45,0-8.8.1-13.15.19-126.77,3.29-241.65,54.24-327.32,135.56-6.48,6-12.67,12.28-18.76,18.66C70.56,233.57,22.99,329.29,9.16,435.75c-.39,3.39,2.42,6.38,5.9,6.09l156.17-12.09c2.61-.19,4.64-2.22,4.93-4.74,7.93-61.4,25.24-118.44,50.09-168.34,3-6.19,6.19-12.28,9.57-18.27.58-1.16,1.26-2.22,1.94-3.39,3.19-5.7,6.48-11.22,9.86-16.73,55.7-89.34,137.31-148.61,229.37-157.12,3.29-.29,6.1,2.42,5.9,5.8l-3.19,48.44-18.66,290.55-.19-.19-153.65-106.16c-5.02-3.48-11.02,2.61-7.64,7.54l106.27,153.83.09.1-193.2,12.38-40.81,2.61-161.68,10.44c-2.9.19-5.12,2.51-5.12,5.32-.1,2.71-.1,5.42-.1,8.22,0,4.45.1,8.8.19,13.15,3.29,126.76,54.25,241.63,135.57,327.39,6.1,6.38,12.28,12.57,18.76,18.66,73.2,69.33,167.57,116.61,272.49,131.11,3.39.39,6.38-2.42,6.09-5.9l-3.77-49.6c-.19-2.22-1.84-4.16-3.97-4.74-72.82-21.08-136.73-74.45-182.76-148.42-3.48-5.51-6.77-11.12-10.06-16.82-.68-1.16-1.26-2.32-1.84-3.48-3.29-5.9-6.48-11.89-9.48-17.99-30.75-61.88-50.09-134.78-54.06-213.39-.19-3.19,2.52-5.9,5.8-5.7l34.72,2.22,193.2,12.47-.09.09-106.27,153.74c-3.38,5.03,2.62,11.02,7.64,7.64l153.65-106.16.19-.19,18.66,290.55,3.57,54.73,3.19,50.37c.19,2.9,2.52,5.12,5.32,5.12,2.8.1,5.51.1,8.22.1v-.1c4.45,0,8.8-.1,13.15-.19,126.77-3.29,241.65-54.24,327.32-135.56,6.48-5.99,12.66-12.28,18.76-18.66,70.2-74.06,117.78-169.79,131.6-276.24.39-3.39-2.42-6.38-5.9-6.09l-156.17,12.09c-2.61.19-4.65,2.22-4.93,4.74-7.93,61.4-25.24,118.44-50.09,168.34-2.99,6.19-6.19,12.28-9.57,18.28-.58,1.16-1.26,2.22-1.94,3.38-3.19,5.71-6.48,11.22-9.86,16.73-55.7,89.34-137.31,148.61-229.37,157.12-3.29.29-6.09-2.42-5.9-5.8l3.19-48.44,18.66-290.55.19.19,153.65,106.16c5.03,3.48,11.02-2.61,7.64-7.54l-106.27-153.83-.09-.1,193.2-12.38,40.8-2.61,161.68-10.44c2.9-.19,5.12-2.51,5.12-5.32.1-2.71.1-5.41.1-8.22,0-4.45-.1-8.8-.19-13.15ZM500,535.34c-19.53,0-35.3-15.76-35.3-35.29s15.77-35.39,35.3-35.39,35.29,15.76,35.29,35.29-15.77,35.39-35.29,35.39Z"/>
</svg>