<?xml version="1.0" encoding="UTF-8"?>
<svg id="Layer_1" data-name="Layer 1" xmlns="http://www.w3.org/2000/svg" viewBox="0 0 2089.93 1687.01">
  <g>
    <path d="M220.95,1468.76c-11.54-10.68-24.73-18.9-39.58-24.67-14.85-5.76-30.62-8.65-47.31-8.65-20.62,0-38.91,3.56-54.86,10.68-15.96,7.12-29.27,16.7-39.95,28.72-10.68,12.03-18.78,25.72-24.3,41.05-5.52,15.34-8.28,31.36-8.28,48.05,0,18.17,3.37,34.67,10.12,49.52,6.75,14.85,15.89,27.61,27.43,38.29,11.54,10.68,24.73,18.9,39.58,24.67,14.85,5.76,30.5,8.65,46.94,8.65,20.86,0,39.27-3.56,55.23-10.68,15.95-7.12,29.27-16.69,39.95-28.72,10.68-12.02,18.78-25.77,24.3-41.24,5.52-15.46,8.29-31.42,8.29-47.86,0-18.16-3.38-34.67-10.13-49.52-6.75-14.85-15.89-27.61-27.43-38.29ZM205.3,1624.32c-5.77,14.24-14.36,25.35-25.77,33.32-11.42,7.98-25.72,11.97-42.89,11.97-14.49,0-27.06-3.37-37.74-10.13-10.68-6.75-19.58-15.95-26.69-27.61-7.12-11.65-12.4-24.85-15.83-39.58-3.44-14.73-5.15-30.43-5.15-47.13,0-18.65,2.88-34.98,8.65-48.97,5.77-13.99,14.36-24.91,25.77-32.77,11.41-7.85,25.46-11.78,42.16-11.78,14.48,0,27.12,3.26,37.92,9.76,10.8,6.51,19.76,15.59,26.88,27.25,7.12,11.66,12.46,24.85,16.02,39.58,3.55,14.73,5.34,30.32,5.34,46.76,0,18.66-2.89,35.1-8.65,49.34Z"/>
    <path d="M399.52,1528.78c-3.44-2.58-8.35-3.87-14.73-3.87-4.91,0-10.07,1.29-15.46,3.87-5.4,2.58-10.49,5.95-15.28,10.12-4.79,4.18-9.15,8.72-13.07,13.62-.49,0-.74-.49-.74-1.47,0-3.68.12-7.48.37-11.41.24-3.92.43-7.48.55-10.68.12-3.19.18-5.27.18-6.26,0-1.96-.86-2.95-2.58-2.95-.49,0-1.35.25-2.58.74-1.23.49-2.58,1.23-4.05,2.21-4.91,2.7-11.29,5.83-19.14,9.39-7.86,3.56-15.22,6.32-22.09,8.29-2.46.74-3.68,2.46-3.68,5.15,0,1.47.43,2.7,1.29,3.68.86.98,1.78,1.6,2.76,1.84,5.64,1.23,9.33,3.99,11.05,8.29,1.71,4.3,2.58,9.51,2.58,15.65v81c0,3.68-1.05,6.63-3.13,8.84-2.09,2.21-5.71,3.93-10.86,5.16-2.46.74-4.48,1.54-6.08,2.39-1.6.86-2.39,2.27-2.39,4.23,0,1.47.67,2.58,2.03,3.31,1.35.74,3.13,1.11,5.34,1.11,4.91,0,9.08-.18,12.52-.55,3.43-.37,6.75-.67,9.94-.92,3.19-.24,6.87-.37,11.05-.37,6.38,0,12.21.31,17.49.92,5.28.61,11.6.92,18.96.92,4.66,0,7-1.47,7-4.42,0-1.71-.74-3-2.21-3.87-1.47-.86-3.56-1.66-6.26-2.39-6.39-1.96-11.17-4.05-14.36-6.26-3.19-2.21-4.79-5.27-4.79-9.2v-69.22c0-12.76,2.58-21.36,7.73-25.77,5.16-4.42,10.8-6.63,16.94-6.63,1.96,0,3.99.43,6.08,1.29,2.08.86,4.11,1.78,6.08,2.76,2.21.98,4.29,1.9,6.26,2.76,1.96.86,3.8,1.29,5.52,1.29,2.95,0,5.71-1.29,8.28-3.87,2.58-2.58,4.66-5.64,6.26-9.21,1.59-3.55,2.39-6.68,2.39-9.39,0-4.17-1.72-7.55-5.15-10.12Z"/>
    <path d="M494.32,1672.37c-1.6-.86-3.38-1.53-5.34-2.03-5.65-1.47-9.82-3.19-12.52-5.15-2.7-1.96-4.05-4.91-4.05-8.84v-83.95c0-5.89.3-12.27.92-19.15.61-6.87,1.22-13.25,1.84-19.14.61-5.89.92-10.18.92-12.89,0-1.96-.98-2.95-2.95-2.95-1.23,0-3.19.86-5.89,2.58-3.93,2.46-9.76,5.71-17.49,9.76-7.73,4.05-17,7.31-27.8,9.76-2.21.25-3.31,1.84-3.31,4.79,0,1.72.3,3.01.92,3.87.61.86,1.53,1.42,2.76,1.66,6.13.98,10.43,3.74,12.89,8.28,2.45,4.55,3.68,10.49,3.68,17.86v79.53c0,4.42-1.35,7.49-4.05,9.2-2.7,1.72-6.87,3.31-12.52,4.79-1.97.49-3.75,1.17-5.34,2.03-1.6.86-2.39,2.27-2.39,4.23,0,1.47.67,2.58,2.03,3.31,1.35.74,3,1.11,4.97,1.11,4.91,0,9.02-.18,12.33-.55,3.31-.37,6.68-.67,10.12-.92,3.43-.24,7.24-.37,11.41-.37,4.42,0,8.28.13,11.6.37,3.31.25,6.81.55,10.49.92,3.68.37,7.85.55,12.52.55,4.42,0,6.63-1.47,6.63-4.42,0-1.96-.8-3.37-2.39-4.23Z"/>
    <path d="M454.74,1492.88c6.38,0,11.78-2.15,16.2-6.44,4.42-4.29,6.63-9.51,6.63-15.65s-2.21-11.72-6.63-16.02c-4.42-4.29-9.82-6.44-16.2-6.44s-11.36,2.15-15.65,6.44c-4.3,4.3-6.44,9.64-6.44,16.02s2.15,11.36,6.44,15.65c4.29,4.3,9.51,6.44,15.65,6.44Z"/>
    <path d="M636.62,1535.4c-11.78-7-24.92-10.49-39.4-10.49-11.54,0-22.34,2.39-32.4,7.18-10.07,4.79-18.9,11.23-26.51,19.33-7.61,8.1-13.5,17.18-17.67,27.25-4.18,10.07-6.26,20.5-6.26,31.3,0,14.49,3.31,27.37,9.94,38.66,6.63,11.29,15.65,20.19,27.06,26.69,11.42,6.5,24.12,9.76,38.11,9.76,18.9,0,34.67-3.99,47.31-11.97,12.64-7.97,22.15-18.47,28.53-31.48,6.38-13.01,9.57-26.88,9.57-41.6,0-13.5-3.44-25.89-10.31-37.19-6.87-11.29-16.2-20.43-27.98-27.43ZM635.7,1634.08c-1.11,8.23-3.13,15.16-6.08,20.8-3.19,5.89-7.61,10.25-13.26,13.07-5.65,2.83-12.03,4.23-19.14,4.23-8.84,0-16.63-3.43-23.38-10.31-6.75-6.87-12.09-15.71-16.02-26.51-3.93-10.8-5.89-22.09-5.89-33.87,0-10.55.74-20.31,2.21-29.27,1.47-8.96,4.54-16.26,9.2-21.91,3.68-4.42,7.79-7.55,12.33-9.39,4.54-1.84,9.63-2.76,15.28-2.76,9.33,0,17.43,3.31,24.3,9.94,6.87,6.63,12.27,15.34,16.2,26.14,3.92,10.8,5.89,22.34,5.89,34.61,0,8.6-.55,17-1.66,25.22Z"/>
    <path d="M875.57,1672.55c-1.72-.98-3.56-1.84-5.52-2.58-3.68-1.23-7.18-2.58-10.49-4.05-3.31-1.47-4.97-4.66-4.97-9.57v-79.53c0-15.22-4.05-27.61-12.15-37.19-8.1-9.57-18.29-14.36-30.56-14.36-11.54,0-21.91,2.09-31.11,6.26-9.2,4.18-18.1,10.31-26.69,18.41-.25-.24-.43-.86-.55-1.84-.13-.98-.18-1.96-.18-2.95,0-3.43.3-7.61.92-12.52.61-4.91.92-8.22.92-9.94,0-.98-.18-1.78-.55-2.39-.37-.61-1.05-.92-2.02-.92-.74,0-1.54.25-2.39.74-.86.49-1.66.98-2.39,1.47-5.89,3.93-12.33,7.49-19.33,10.68-6.99,3.19-14.79,5.89-23.38,8.1-2.21.25-3.31,1.97-3.31,5.15,0,1.47.37,2.64,1.1,3.5.74.86,1.6,1.42,2.58,1.66,5.89,1.47,9.51,4.36,10.86,8.65,1.35,4.3,2.03,9.51,2.03,15.65v81c0,4.91-1.6,8.23-4.79,9.94-3.19,1.72-6.63,3.07-10.31,4.05-2.46.74-4.48,1.54-6.08,2.39-1.6.86-2.39,2.27-2.39,4.23,0,1.47.74,2.58,2.21,3.31s3.19,1.11,5.16,1.11c4.91,0,9.08-.18,12.52-.55,3.43-.37,6.75-.67,9.94-.92,3.19-.24,6.87-.37,11.05-.37,4.42,0,8.04.13,10.86.37,2.82.25,5.89.55,9.2.92,3.31.37,7.42.55,12.33.55,2.21,0,3.92-.37,5.16-1.11,1.22-.74,1.84-1.84,1.84-3.31,0-2.7-2.7-4.91-8.1-6.63-3.44-.98-6.75-2.27-9.94-3.87-3.19-1.59-4.79-4.84-4.79-9.76v-88.37c0-1.22.24-2.58.74-4.05.49-1.47,1.23-2.7,2.21-3.68,4.91-3.92,10.24-7.05,16.02-9.39,5.77-2.33,12.46-3.5,20.07-3.5,8.84.25,16.02,3.19,21.54,8.84,5.52,5.65,8.28,13.62,8.28,23.93v76.21c0,4.91-1.6,8.1-4.79,9.57-3.19,1.47-6.63,2.83-10.31,4.05-1.97.74-3.81,1.6-5.52,2.58-1.72.98-2.58,2.46-2.58,4.42,0,1.72.86,2.83,2.58,3.31,1.72.49,3.19.74,4.42.74,4.91,0,9.02-.18,12.33-.55,3.31-.37,6.56-.67,9.76-.92,3.19-.24,6.87-.37,11.04-.37,4.42,0,8.16.13,11.23.37,3.07.25,6.26.55,9.57.92,3.31.37,7.42.55,12.33.55,1.47,0,3-.25,4.6-.74,1.59-.49,2.39-1.59,2.39-3.31,0-1.96-.86-3.43-2.58-4.42Z"/>
    <path d="M1147.29,1455.32c-.25-5.64-.61-10.31-1.1-13.99-.25-1.71-1.23-2.88-2.95-3.5-1.72-.61-3.31-.92-4.79-.92-4.67,0-10.37.62-17.12,1.84-6.75,1.23-14.42,1.84-23.01,1.84h-53.02c-7.36,0-14.12-.12-20.25-.37-6.14-.24-12.33-.49-18.59-.74-6.26-.24-13.44-.37-21.54-.37-2.7,0-4.97.43-6.81,1.29-1.84.86-2.76,2.03-2.76,3.5,0,1.72.86,3.19,2.58,4.42,1.71,1.23,4.54,2.21,8.47,2.95,9.08,1.72,15.03,5.16,17.86,10.31,2.82,5.15,4.23,12.89,4.23,23.2v158.69c0,8.6-1.72,14.73-5.16,18.41-3.44,3.68-9.82,6.39-19.14,8.1-7.12,1.47-10.68,3.81-10.68,6.99,0,1.72.86,2.89,2.58,3.5,1.71.61,3.92.92,6.63.92,6.38,0,12.21-.18,17.49-.55,5.28-.37,10.49-.74,15.65-1.1,5.16-.37,10.43-.55,15.83-.55,4.91,0,9.45.18,13.62.55,4.17.37,8.65.74,13.44,1.1,4.79.37,10.37.55,16.75.55,2.7,0,4.91-.37,6.63-1.11,1.71-.74,2.58-1.84,2.58-3.31,0-1.96-.86-3.43-2.58-4.42-1.72-.98-4.42-1.84-8.1-2.58-9.57-1.72-16.14-4.66-19.7-8.84-3.56-4.17-5.47-10.18-5.71-18.04-.49-12.02-.8-23.93-.92-35.71-.13-11.78-.18-23.2-.18-34.24,0-3.19.79-5.46,2.39-6.81,1.59-1.35,3.62-2.15,6.08-2.39,3.92-.24,7.79-.37,11.6-.37h11.6c2.95,0,5.95.06,9.02.18,3.07.13,6.08.18,9.02.18,3.44,0,6.81,1.1,10.13,3.31,3.31,2.21,5.83,6.39,7.55,12.52.49,1.72,1.47,3.62,2.95,5.71,1.47,2.09,3.31,3.13,5.52,3.13,1.47,0,2.45-.67,2.95-2.02.49-1.35.74-3.25.74-5.71-.5-5.4-.86-9.88-1.11-13.44-.25-3.56-.37-7.42-.37-11.6,0-3.19.18-6.56.55-10.13.37-3.55.67-7.67.92-12.33.24-1.96-.18-3.56-1.29-4.79-1.11-1.22-2.27-1.84-3.5-1.84-.98,0-2.21.74-3.68,2.21-1.47,1.47-2.58,2.83-3.31,4.05-1.72,4.67-4.36,8.59-7.92,11.78-3.56,3.19-8.28,4.79-14.18,4.79-4.67,0-10.74.13-18.23.37-7.49.25-14.79.37-21.91.37-1.97,0-3.38-.79-4.23-2.39-.86-1.59-1.29-3.5-1.29-5.71v-69.96c.24-5.15,1.35-9.45,3.31-12.89,1.96-3.43,5.89-5.15,11.78-5.15h40.13c5.15,0,9.81.68,13.99,2.02,4.17,1.35,7.98,3.87,11.42,7.55,2.21,2.46,4.11,5.52,5.71,9.21,1.59,3.68,3,7.86,4.23,12.52.49,1.47,1.35,2.7,2.58,3.68,1.22.98,2.45,1.47,3.68,1.47,2.45,0,3.68-2.58,3.68-7.73,0-2.45-.06-6.26-.18-11.41-.13-5.15-.31-10.55-.55-16.2Z"/>
    <path d="M1205.46,1492.88c6.38,0,11.78-2.15,16.2-6.44,4.42-4.29,6.63-9.51,6.63-15.65s-2.21-11.72-6.63-16.02c-4.42-4.29-9.82-6.44-16.2-6.44s-11.36,2.15-15.65,6.44c-4.3,4.3-6.44,9.64-6.44,16.02s2.14,11.36,6.44,15.65c4.29,4.3,9.51,6.44,15.65,6.44Z"/>
    <path d="M1245.04,1672.37c-1.6-.86-3.38-1.53-5.34-2.03-5.65-1.47-9.82-3.19-12.52-5.15-2.7-1.96-4.05-4.91-4.05-8.84v-83.95c0-5.89.3-12.27.92-19.15.61-6.87,1.22-13.25,1.84-19.14.61-5.89.92-10.18.92-12.89,0-1.96-.98-2.95-2.95-2.95-1.23,0-3.19.86-5.89,2.58-3.93,2.46-9.76,5.71-17.49,9.76-7.73,4.05-17,7.31-27.8,9.76-2.21.25-3.31,1.84-3.31,4.79,0,1.72.3,3.01.92,3.87.61.86,1.53,1.42,2.76,1.66,6.13.98,10.43,3.74,12.89,8.28,2.45,4.55,3.68,10.49,3.68,17.86v79.53c0,4.42-1.35,7.49-4.05,9.2-2.7,1.72-6.87,3.31-12.52,4.79-1.97.49-3.75,1.17-5.34,2.03-1.6.86-2.39,2.27-2.39,4.23,0,1.47.67,2.58,2.03,3.31,1.35.74,3,1.11,4.97,1.11,4.91,0,9.02-.18,12.33-.55,3.31-.37,6.68-.67,10.13-.92,3.43-.24,7.24-.37,11.41-.37,4.42,0,8.28.13,11.6.37,3.31.25,6.81.55,10.49.92,3.68.37,7.85.55,12.52.55,4.42,0,6.63-1.47,6.63-4.42,0-1.96-.8-3.37-2.39-4.23Z"/>
    <path d="M1442.94,1672.55c-1.72-.98-3.56-1.84-5.52-2.58-3.68-1.23-7.18-2.58-10.49-4.05-3.31-1.47-4.97-4.66-4.97-9.57v-79.53c0-15.22-4.05-27.61-12.15-37.19-8.1-9.57-18.29-14.36-30.56-14.36-11.54,0-21.91,2.09-31.11,6.26-9.2,4.18-18.11,10.31-26.7,18.41-.25-.24-.43-.86-.55-1.84-.13-.98-.18-1.96-.18-2.95,0-3.43.3-7.61.92-12.52.61-4.91.92-8.22.92-9.94,0-.98-.18-1.78-.55-2.39-.37-.61-1.05-.92-2.03-.92-.74,0-1.54.25-2.39.74-.86.49-1.66.98-2.39,1.47-5.89,3.93-12.33,7.49-19.33,10.68-7,3.19-14.79,5.89-23.38,8.1-2.21.25-3.31,1.97-3.31,5.15,0,1.47.37,2.64,1.11,3.5.74.86,1.59,1.42,2.58,1.66,5.89,1.47,9.51,4.36,10.86,8.65,1.34,4.3,2.03,9.51,2.03,15.65v81c0,4.91-1.6,8.23-4.79,9.94-3.19,1.72-6.63,3.07-10.31,4.05-2.46.74-4.48,1.54-6.08,2.39-1.6.86-2.39,2.27-2.39,4.23,0,1.47.74,2.58,2.21,3.31s3.19,1.11,5.16,1.11c4.91,0,9.08-.18,12.52-.55,3.43-.37,6.75-.67,9.94-.92,3.19-.24,6.87-.37,11.05-.37,4.42,0,8.04.13,10.86.37,2.82.25,5.89.55,9.2.92,3.31.37,7.42.55,12.33.55,2.21,0,3.92-.37,5.15-1.11,1.22-.74,1.84-1.84,1.84-3.31,0-2.7-2.7-4.91-8.1-6.63-3.44-.98-6.75-2.27-9.94-3.87-3.19-1.59-4.79-4.84-4.79-9.76v-88.37c0-1.22.24-2.58.74-4.05.49-1.47,1.23-2.7,2.21-3.68,4.91-3.92,10.24-7.05,16.02-9.39,5.76-2.33,12.46-3.5,20.07-3.5,8.84.25,16.02,3.19,21.54,8.84,5.52,5.65,8.28,13.62,8.28,23.93v76.21c0,4.91-1.6,8.1-4.79,9.57-3.19,1.47-6.63,2.83-10.31,4.05-1.97.74-3.81,1.6-5.52,2.58-1.72.98-2.58,2.46-2.58,4.42,0,1.72.86,2.83,2.58,3.31,1.72.49,3.19.74,4.42.74,4.91,0,9.02-.18,12.33-.55,3.31-.37,6.56-.67,9.76-.92,3.19-.24,6.87-.37,11.04-.37,4.42,0,8.16.13,11.23.37,3.07.25,6.26.55,9.57.92s7.42.55,12.33.55c1.47,0,3-.25,4.6-.74,1.59-.49,2.39-1.59,2.39-3.31,0-1.96-.86-3.43-2.58-4.42Z"/>
    <path d="M1600.88,1658.56c-.74,0-1.6.49-2.58,1.47-3.19,2.95-7.61,4.42-13.26,4.42-3.68,0-6.75-1.71-9.2-5.16-2.46-3.43-3.56-7.85-3.31-13.25l1.84-83.21c.49-11.05-2.52-20.07-9.02-27.06-6.51-6.99-14.91-10.49-25.22-10.49-5.16,0-11.11,1.1-17.86,3.31-6.75,2.21-13.62,5.34-20.62,9.39-6.99,4.05-13.44,8.65-19.33,13.81-5.15,4.42-9.02,8.78-11.6,13.07-2.58,4.3-3.86,8.41-3.86,12.33,0,1.47.43,2.64,1.29,3.5.86.86,2.03,1.29,3.5,1.29,2.95,0,6.56-.86,10.86-2.58,4.29-1.71,8.1-3.62,11.41-5.71,3.31-2.08,4.97-3.87,4.97-5.34,0-.98-.06-2.27-.18-3.87-.13-1.59-.18-3-.18-4.23,0-1.96.18-3.8.55-5.52.37-1.71,1.16-3.07,2.39-4.05,2.21-1.71,5.09-3.25,8.65-4.6,3.55-1.35,7.05-2.02,10.49-2.02,6.63,0,11.66,2.21,15.1,6.63,3.43,4.42,5.03,9.94,4.79,16.57l-.74,22.46c-.25,4.91-.86,8.16-1.84,9.76-.98,1.6-3.93,3.38-8.84,5.34l-35.71,15.1c-9.57,3.93-16.63,8.35-21.17,13.25-4.55,4.91-6.81,11.41-6.81,19.51,0,4.91,1.59,9.88,4.79,14.91,3.19,5.03,7.24,9.2,12.15,12.52,4.91,3.31,9.94,4.97,15.1,4.97,7.6,0,14.97-1.6,22.09-4.79,7.12-3.19,14.73-8.22,22.83-15.09h1.1c7.36,13.25,17.18,19.88,29.45,19.88,4.42,0,9.02-1.17,13.81-3.5,4.79-2.33,9.26-5.58,13.44-9.76,3.43-3.19,5.16-6.26,5.16-9.2,0-1.23-.43-2.21-1.29-2.95-.86-.74-1.9-1.1-3.13-1.1ZM1539.39,1623.22l-.74,20.99c-.25,3.93-.68,6.81-1.29,8.65-.62,1.84-1.54,3.38-2.76,4.6-2.21,2.46-4.73,4.36-7.55,5.71-2.83,1.35-6.32,2.03-10.49,2.03-3.93,0-7.67-1.53-11.23-4.6-3.56-3.07-5.34-7.92-5.34-14.54,0-5.4,2.21-10.37,6.63-14.91,4.42-4.54,12.15-8.9,23.2-13.07,1.71-.74,3.07-1.23,4.05-1.47.98-.24,1.72-.37,2.21-.37,1.47,0,2.45.55,2.95,1.66.49,1.1.61,2.89.37,5.34Z"/>
    <path d="M1794.18,1672.55c-1.72-.98-3.56-1.84-5.52-2.58-3.68-1.23-7.18-2.58-10.49-4.05-3.31-1.47-4.97-4.66-4.97-9.57v-79.53c0-15.22-4.05-27.61-12.15-37.19-8.1-9.57-18.29-14.36-30.56-14.36-11.54,0-21.91,2.09-31.11,6.26-9.2,4.18-18.11,10.31-26.69,18.41-.25-.24-.43-.86-.55-1.84-.13-.98-.18-1.96-.18-2.95,0-3.43.3-7.61.92-12.52.61-4.91.92-8.22.92-9.94,0-.98-.18-1.78-.55-2.39-.37-.61-1.05-.92-2.03-.92-.74,0-1.54.25-2.39.74-.86.49-1.66.98-2.39,1.47-5.89,3.93-12.33,7.49-19.33,10.68-7,3.19-14.79,5.89-23.38,8.1-2.21.25-3.31,1.97-3.31,5.15,0,1.47.37,2.64,1.1,3.5.74.86,1.59,1.42,2.58,1.66,5.89,1.47,9.51,4.36,10.86,8.65,1.35,4.3,2.03,9.51,2.03,15.65v81c0,4.91-1.6,8.23-4.79,9.94-3.19,1.72-6.63,3.07-10.31,4.05-2.46.74-4.48,1.54-6.08,2.39-1.6.86-2.39,2.27-2.39,4.23,0,1.47.74,2.58,2.21,3.31,1.47.74,3.19,1.11,5.16,1.11,4.91,0,9.08-.18,12.52-.55,3.43-.37,6.75-.67,9.94-.92,3.19-.24,6.87-.37,11.04-.37,4.42,0,8.04.13,10.86.37,2.82.25,5.89.55,9.2.92,3.31.37,7.42.55,12.33.55,2.21,0,3.92-.37,5.16-1.11,1.22-.74,1.84-1.84,1.84-3.31,0-2.7-2.7-4.91-8.1-6.63-3.44-.98-6.75-2.27-9.94-3.87-3.19-1.59-4.79-4.84-4.79-9.76v-88.37c0-1.22.24-2.58.74-4.05.49-1.47,1.22-2.7,2.21-3.68,4.91-3.92,10.25-7.05,16.02-9.39,5.77-2.33,12.46-3.5,20.07-3.5,8.84.25,16.02,3.19,21.54,8.84,5.52,5.65,8.29,13.62,8.29,23.93v76.21c0,4.91-1.6,8.1-4.79,9.57-3.19,1.47-6.63,2.83-10.31,4.05-1.97.74-3.81,1.6-5.52,2.58-1.72.98-2.58,2.46-2.58,4.42,0,1.72.86,2.83,2.58,3.31,1.71.49,3.19.74,4.42.74,4.91,0,9.02-.18,12.33-.55s6.56-.67,9.76-.92c3.19-.24,6.87-.37,11.05-.37,4.42,0,8.16.13,11.23.37,3.07.25,6.26.55,9.57.92,3.31.37,7.42.55,12.33.55,1.47,0,3-.25,4.6-.74,1.59-.49,2.39-1.59,2.39-3.31,0-1.96-.86-3.43-2.58-4.42Z"/>
    <path d="M1882.54,1540.74c4.66,0,10.25,1.78,16.75,5.34,6.5,3.56,12.7,7.67,18.59,12.33,1.47,1.23,3,2.34,4.6,3.31,1.59.98,3.13,1.47,4.6,1.47,2.21,0,4.6-.92,7.18-2.76,2.58-1.84,4.78-4.05,6.63-6.63,1.84-2.58,2.76-4.72,2.76-6.44,0-2.21-1.35-4.54-4.05-6.99-12.52-10.06-27.49-15.1-44.92-15.1-14.49,0-27.74,3.81-39.77,11.41-12.03,7.61-21.6,17.92-28.72,30.93-7.12,13.01-10.68,27.49-10.68,43.45,0,13.99,2.95,26.64,8.84,37.92,5.89,11.29,13.87,20.19,23.93,26.69,10.06,6.5,21.36,9.76,33.87,9.76,8.59,0,16.57-1.35,23.93-4.05,7.36-2.7,13.86-6.32,19.51-10.86,5.64-4.54,10.18-9.26,13.62-14.18,1.47-2.21,2.58-4.23,3.31-6.08.74-1.84,1.1-3.37,1.1-4.6,0-3.68-1.35-5.52-4.05-5.52-.74,0-1.54.25-2.39.74-.86.49-1.66.98-2.39,1.47-5.89,5.65-11.48,9.64-16.75,11.97-5.28,2.34-11.48,3.5-18.59,3.5-10.31,0-19.46-2.58-27.43-7.73-7.98-5.15-14.24-12.27-18.78-21.36-4.55-9.08-6.81-19.51-6.81-31.3,0-17.91,3.25-31.85,9.76-41.79,6.5-9.94,15.28-14.91,26.32-14.91Z"/>
    <path d="M2083.57,1639.05c-.74,0-1.41.25-2.03.74-.61.49-1.29,1.23-2.02,2.21-5.16,5.15-10.74,9.15-16.75,11.97-6.02,2.83-12.7,4.23-20.07,4.23-9.82,0-18.78-2.7-26.88-8.1-8.1-5.4-14.61-12.58-19.51-21.54-4.91-8.96-7.36-18.84-7.36-29.64,0-5.15.74-8.71,2.21-10.68,1.47-1.96,3.92-2.95,7.36-2.95h76.22c7.6,0,11.41-4.05,11.41-12.15,0-9.33-2.27-17.61-6.81-24.85-4.55-7.24-10.8-12.89-18.78-16.94-7.98-4.05-17-6.08-27.06-6.08-13.5,0-25.9,3.62-37.19,10.86-11.29,7.24-20.31,16.88-27.06,28.9-6.75,12.03-10.12,25.28-10.12,39.77,0,15.96,2.95,30.01,8.84,42.16,5.89,12.15,13.93,21.6,24.12,28.35,10.18,6.75,21.91,10.12,35.16,10.12,8.34,0,16.02-1.29,23.01-3.86,6.99-2.58,13.13-6.01,18.41-10.31,5.27-4.29,9.63-9.02,13.07-14.17,3.43-5.4,5.15-10.06,5.15-13.99,0-2.7-1.1-4.05-3.31-4.05ZM1999.25,1553.81c3.43-4.79,7.79-8.77,13.07-11.97,5.28-3.19,10.61-4.79,16.02-4.79,7.85,0,14.6,2.39,20.25,7.18,5.64,4.79,8.47,10.62,8.47,17.49,0,2.46-.25,4.48-.74,6.08-.49,1.6-1.35,2.64-2.58,3.13-3.19.74-6.63,1.23-10.31,1.47-3.68.25-8.72.37-15.1.37h-29.46c-2.95,0-4.42-1.47-4.42-4.42-.25-4.91,1.35-9.76,4.79-14.54Z"/>
  </g>
  <path d="M1671.53,614.18c-4.16-160.05-68.5-305.08-171.18-413.37-7.7-8.06-15.51-15.87-23.69-23.56-92.43-87.53-211.59-147.23-344.06-165.54-4.27-.49-8.06,3.05-7.69,7.45l4.76,62.63c.24,2.81,2.32,5.25,5,5.98,91.94,26.61,172.64,94,230.76,187.39,4.4,6.96,8.55,14.04,12.7,21.24.86,1.47,1.59,2.93,2.32,4.4,4.16,7.45,8.19,15.02,11.96,22.71,38.83,78.13,63.25,170.18,68.25,269.43.24,4.03-3.18,7.45-7.33,7.2l-43.83-2.81-243.94-15.75.12-.12,134.18-194.11c4.27-6.35-3.3-13.92-9.65-9.64l-194.01,134.05-.24.24-23.57-366.86-4.51-69.1-4.03-63.61c-.24-3.66-3.18-6.47-6.72-6.47-3.54-.12-6.96-.12-10.37-.12v.12c-5.62,0-11.11.13-16.61.24-160.06,4.15-305.11,68.49-413.28,171.16-8.19,7.57-15.99,15.5-23.69,23.56-88.64,93.51-148.71,214.37-166.17,348.79-.49,4.27,3.05,8.06,7.45,7.69l197.19-15.26c3.29-.24,5.86-2.81,6.22-5.98,10.01-77.52,31.86-149.55,63.25-212.55,3.79-7.81,7.81-15.5,12.08-23.07.73-1.46,1.59-2.81,2.44-4.27,4.03-7.2,8.18-14.16,12.45-21.12,70.32-112.8,173.37-187.64,289.6-198.38,4.16-.37,7.7,3.05,7.45,7.33l-4.03,61.16-23.57,366.86-.24-.24-194.01-134.05c-6.34-4.4-13.91,3.29-9.65,9.52l134.18,194.23.12.12-243.94,15.63-51.53,3.3-204.14,13.18c-3.66.24-6.47,3.17-6.47,6.72-.13,3.42-.13,6.84-.13,10.38,0,5.62.13,11.11.24,16.6,4.16,160.05,68.5,305.08,171.18,413.37,7.7,8.06,15.51,15.87,23.69,23.56,92.42,87.54,211.58,147.23,344.06,165.54,4.27.49,8.06-3.05,7.69-7.45l-4.76-62.63c-.24-2.81-2.33-5.25-5.01-5.98-91.94-26.61-172.64-94-230.76-187.4-4.39-6.96-8.55-14.04-12.7-21.24-.85-1.46-1.59-2.93-2.32-4.39-4.16-7.45-8.18-15.02-11.96-22.71-38.83-78.13-63.25-170.18-68.25-269.44-.24-4.03,3.18-7.45,7.33-7.2l43.84,2.81,243.94,15.75-.12.12-134.18,194.11c-4.27,6.35,3.3,13.92,9.65,9.64l194.01-134.05.24-.24,23.57,366.86,4.51,69.1,4.03,63.6c.24,3.66,3.18,6.47,6.72,6.47,3.54.12,6.96.12,10.38.12v-.12c5.62,0,11.11-.12,16.6-.24,160.06-4.15,305.11-68.49,413.29-171.16,8.18-7.57,15.99-15.5,23.69-23.56,88.64-93.51,148.71-214.38,166.17-348.79.49-4.27-3.05-8.06-7.45-7.69l-197.18,15.26c-3.3.24-5.87,2.81-6.23,5.98-10.01,77.52-31.86,149.55-63.25,212.54-3.78,7.81-7.81,15.5-12.08,23.08-.73,1.46-1.59,2.81-2.44,4.27-4.02,7.2-8.18,14.16-12.45,21.12-70.32,112.8-173.37,187.64-289.6,198.38-4.15.37-7.69-3.05-7.45-7.32l4.03-61.16,23.57-366.86.24.24,194.01,134.05c6.35,4.39,13.91-3.3,9.65-9.52l-134.18-194.23-.12-.12,243.94-15.63,51.52-3.3,204.14-13.19c3.66-.24,6.47-3.17,6.47-6.72.13-3.42.13-6.83.13-10.38,0-5.62-.13-11.11-.24-16.6ZM1046.77,675.47c-24.66,0-44.57-19.9-44.57-44.56s19.91-44.68,44.57-44.68,44.56,19.9,44.56,44.56-19.91,44.68-44.56,44.68Z"/>
</svg>