<?xml version="1.0" encoding="UTF-8"?>
<svg id="Layer_1" data-name="Layer 1" xmlns="http://www.w3.org/2000/svg" viewBox="0 0 7433.64 1000">
  <defs>
    <style>
      .cls-1 {
        fill: #fff;
      }
    </style>
  </defs>
  <g>
    <path class="cls-1" d="M2058.06,235.97c-33.24-30.75-71.23-54.43-113.99-71.05-42.78-16.6-88.19-24.92-136.26-24.92-59.38,0-112.05,10.26-157.99,30.75-45.96,20.51-84.3,48.08-115.06,82.71-30.75,34.64-54.08,74.06-69.99,118.23-15.91,44.19-23.86,90.32-23.86,138.38,0,52.32,9.71,99.86,29.16,142.62,19.44,42.78,45.76,79.53,79,110.28,33.22,30.75,71.21,54.44,113.99,71.04,42.76,16.6,87.83,24.92,135.2,24.92,60.08,0,113.1-10.26,159.06-30.75,45.94-20.49,84.3-48.06,115.05-82.71,30.75-34.63,54.08-74.23,69.99-118.76,15.91-44.54,23.86-90.48,23.86-137.85,0-52.31-9.73-99.84-29.16-142.62-19.45-42.76-45.78-79.53-78.99-110.28ZM2012.99,683.98c-16.62,41.01-41.35,73-74.22,95.96-32.88,22.98-74.06,34.46-123.54,34.46-41.72,0-77.94-9.71-108.69-29.16-30.75-19.44-56.38-45.95-76.88-79.53-20.51-33.57-35.7-71.57-45.6-113.99-9.91-42.41-14.84-87.64-14.84-135.73,0-53.71,8.3-100.74,24.92-141.03,16.6-40.29,41.36-71.74,74.23-94.37,32.87-22.62,73.33-33.93,121.42-33.93,41.7,0,78.1,9.38,109.22,28.1,31.1,18.74,56.9,44.9,77.41,78.47,20.5,33.59,35.87,71.58,46.13,113.99,10.24,42.41,15.37,87.32,15.37,134.67,0,53.73-8.32,101.1-24.92,142.09Z"/>
    <path class="cls-1" d="M2572.34,408.81c-9.91-7.42-24.04-11.14-42.42-11.14-14.15,0-29,3.71-44.54,11.14-15.55,7.42-30.22,17.15-44.01,29.16-13.78,12.03-26.34,25.1-37.64,39.24-1.42,0-2.12-1.41-2.12-4.24,0-10.6.35-21.55,1.06-32.87.7-11.3,1.23-21.55,1.59-30.75.35-9.18.53-15.19.53-18.03,0-5.65-2.48-8.48-7.42-8.48-1.42,0-3.89.71-7.42,2.12-3.55,1.42-7.42,3.55-11.67,6.36-14.15,7.78-32.52,16.8-55.14,27.04-22.63,10.26-43.84,18.21-63.62,23.86-7.07,2.12-10.6,7.07-10.6,14.84,0,4.24,1.23,7.79,3.71,10.6,2.47,2.83,5.12,4.61,7.96,5.3,16.25,3.55,26.86,11.5,31.81,23.86,4.94,12.37,7.42,27.4,7.42,45.07v233.28c0,10.6-3.01,19.09-9.01,25.45-6.01,6.36-16.43,11.32-31.28,14.85-7.07,2.12-12.91,4.42-17.5,6.89-4.6,2.48-6.89,6.54-6.89,12.19,0,4.24,1.94,7.42,5.83,9.54,3.88,2.12,9.01,3.18,15.37,3.18,14.14,0,26.14-.53,36.06-1.59,9.89-1.06,19.43-1.94,28.63-2.65,9.18-.7,19.78-1.06,31.81-1.06,18.37,0,35.16.9,50.37,2.65,15.19,1.76,33.4,2.65,54.61,2.65,13.42,0,20.15-4.24,20.15-12.73,0-4.94-2.12-8.65-6.37-11.13-4.24-2.47-10.26-4.77-18.03-6.89-18.39-5.65-32.17-11.66-41.35-18.03-9.19-6.36-13.78-15.19-13.78-26.51v-199.35c0-36.75,7.42-61.5,22.27-74.23,14.85-12.72,31.1-19.09,48.78-19.09,5.65,0,11.48,1.24,17.5,3.71,6,2.49,11.83,5.14,17.5,7.95,6.36,2.83,12.36,5.48,18.03,7.95,5.65,2.49,10.95,3.71,15.91,3.71,8.48,0,16.43-3.71,23.86-11.13,7.42-7.42,13.42-16.25,18.03-26.51,4.59-10.24,6.89-19.25,6.89-27.04,0-12.01-4.96-21.74-14.84-29.16Z"/>
    <path class="cls-1" d="M2845.38,822.36c-4.6-2.47-9.73-4.41-15.37-5.83-16.27-4.24-28.28-9.18-36.06-14.84-7.78-5.65-11.66-14.14-11.66-25.45v-241.77c0-16.96.87-35.34,2.65-55.14,1.76-19.78,3.53-38.17,5.3-55.14,1.76-16.97,2.65-29.33,2.65-37.12,0-5.65-2.83-8.48-8.48-8.48-3.55,0-9.19,2.49-16.96,7.42-11.32,7.07-28.1,16.44-50.37,28.1-22.27,11.66-48.96,21.04-80.06,28.1-6.36.71-9.54,5.3-9.54,13.78,0,4.96.88,8.67,2.65,11.13,1.76,2.49,4.41,4.08,7.96,4.77,17.66,2.83,30.04,10.78,37.11,23.86,7.06,13.09,10.6,30.22,10.6,51.43v229.04c0,12.73-3.89,21.57-11.66,26.51-7.78,4.96-19.8,9.54-36.05,13.78-5.67,1.42-10.79,3.36-15.37,5.83-4.61,2.48-6.9,6.54-6.9,12.19,0,4.24,1.94,7.42,5.83,9.54,3.88,2.12,8.65,3.18,14.32,3.18,14.13,0,25.98-.53,35.52-1.59,9.54-1.06,19.25-1.94,29.16-2.65,9.89-.7,20.84-1.06,32.87-1.06,12.73,0,23.86.37,33.4,1.06,9.55.71,19.62,1.59,30.22,2.65,10.6,1.06,22.62,1.59,36.05,1.59,12.73,0,19.09-4.24,19.09-12.73,0-5.65-2.31-9.71-6.9-12.19Z"/>
    <path class="cls-1" d="M2731.39,305.42c18.38,0,33.93-6.18,46.66-18.56,12.72-12.36,19.09-27.39,19.09-45.07s-6.37-33.75-19.09-46.13c-12.73-12.36-28.28-18.56-46.66-18.56s-32.7,6.2-45.07,18.56c-12.37,12.38-18.55,27.75-18.55,46.13s6.18,32.71,18.55,45.07c12.36,12.38,27.39,18.56,45.07,18.56Z"/>
    <path class="cls-1" d="M3255.21,427.89c-33.93-20.15-71.76-30.22-113.46-30.22-33.24,0-64.34,6.89-93.32,20.68-28.99,13.79-54.44,32.34-76.35,55.67-21.92,23.33-38.89,49.49-50.9,78.47-12.03,28.99-18.03,59.03-18.03,90.13,0,41.72,9.54,78.83,28.63,111.34,19.09,32.52,45.07,58.15,77.94,76.88,32.88,18.72,69.46,28.1,109.75,28.1,54.43,0,99.85-11.5,136.26-34.47,36.4-22.96,63.79-53.18,82.18-90.66,18.37-37.46,27.57-77.41,27.57-119.82,0-38.87-9.91-74.58-29.69-107.1-19.8-32.51-46.66-58.85-80.59-79ZM3252.56,712.08c-3.19,23.69-9.02,43.66-17.5,59.91-9.2,16.97-21.92,29.52-38.18,37.64-16.27,8.14-34.65,12.19-55.14,12.19-25.45,0-47.9-9.89-67.34-29.69-19.45-19.78-34.83-45.23-46.12-76.35-11.32-31.1-16.96-63.62-16.96-97.55,0-30.39,2.12-58.49,6.36-84.3,4.24-25.8,13.07-46.82,26.51-63.09,10.6-12.72,22.44-21.74,35.52-27.04,13.07-5.3,27.73-7.95,44.01-7.95,26.86,0,50.19,9.54,69.99,28.63,19.78,19.09,35.34,44.19,46.66,75.29,11.3,31.12,16.97,64.34,16.97,99.68,0,24.75-1.59,48.96-4.77,72.64Z"/>
    <path class="cls-1" d="M3943.38,822.89c-4.96-2.82-10.26-5.3-15.91-7.42-10.6-3.53-20.68-7.42-30.22-11.67-9.55-4.24-14.32-13.42-14.32-27.57v-229.04c0-43.82-11.66-79.53-34.99-107.1-23.33-27.57-52.67-41.35-88.01-41.35-33.24,0-63.09,6.01-89.6,18.03-26.51,12.03-52.14,29.69-76.88,53.02-.71-.7-1.24-2.47-1.59-5.3-.37-2.81-.53-5.65-.53-8.48,0-9.89.87-21.9,2.65-36.05,1.76-14.13,2.65-23.67,2.65-28.63,0-2.82-.53-5.12-1.6-6.89-1.06-1.76-3.01-2.65-5.83-2.65-2.12,0-4.42.71-6.89,2.12-2.49,1.42-4.78,2.83-6.89,4.24-16.97,11.32-35.52,21.57-55.67,30.75-20.14,9.19-42.59,16.96-67.33,23.33-6.37.71-9.55,5.67-9.55,14.84,0,4.24,1.06,7.61,3.18,10.07,2.12,2.49,4.59,4.08,7.42,4.77,16.97,4.24,27.39,12.56,31.28,24.92,3.88,12.37,5.83,27.4,5.83,45.07v233.28c0,14.15-4.6,23.69-13.78,28.63-9.19,4.96-19.09,8.85-29.69,11.67-7.08,2.12-12.91,4.42-17.5,6.89-4.6,2.48-6.89,6.54-6.89,12.19,0,4.24,2.12,7.42,6.36,9.54s9.18,3.18,14.85,3.18c14.13,0,26.14-.53,36.05-1.59,9.89-1.06,19.43-1.94,28.63-2.65,9.18-.7,19.78-1.06,31.81-1.06,12.72,0,23.14.37,31.28,1.06,8.12.71,16.96,1.59,26.51,2.65,9.54,1.06,21.37,1.59,35.52,1.59,6.37,0,11.3-1.06,14.85-3.18,3.53-2.12,5.3-5.3,5.3-9.54,0-7.77-7.79-14.13-23.33-19.08-9.91-2.82-19.45-6.53-28.63-11.14-9.2-4.59-13.79-13.95-13.79-28.1v-254.49c0-3.53.7-7.42,2.12-11.66,1.41-4.24,3.53-7.77,6.37-10.6,14.13-11.3,29.51-20.31,46.12-27.04,16.6-6.71,35.87-10.07,57.79-10.07,25.45.71,46.13,9.2,62.03,25.45,15.91,16.27,23.86,39.23,23.86,68.92v219.5c0,14.15-4.6,23.33-13.78,27.57-9.19,4.24-19.09,8.14-29.69,11.67-5.67,2.12-10.97,4.6-15.91,7.42-4.95,2.83-7.42,7.08-7.42,12.72,0,4.95,2.47,8.14,7.42,9.54,4.94,1.41,9.18,2.12,12.73,2.12,14.13,0,25.98-.53,35.52-1.59,9.54-1.06,18.9-1.94,28.1-2.65,9.17-.7,19.78-1.06,31.81-1.06,12.73,0,23.5.37,32.34,1.06,8.83.71,18.02,1.59,27.57,2.65,9.55,1.06,21.37,1.59,35.52,1.59,4.24,0,8.65-.71,13.25-2.12,4.59-1.41,6.89-4.59,6.89-9.54,0-5.65-2.48-9.89-7.42-12.72Z"/>
    <path class="cls-1" d="M4725.93,197.26c-.71-16.25-1.77-29.69-3.18-40.3-.71-4.94-3.55-8.3-8.48-10.07-4.96-1.76-9.55-2.65-13.78-2.65-13.44,0-29.88,1.77-49.31,5.3-19.45,3.55-41.54,5.3-66.27,5.3h-152.7c-21.21,0-40.66-.35-58.32-1.06-17.68-.7-35.52-1.41-53.55-2.12-18.03-.7-38.7-1.06-62.03-1.06-7.78,0-14.31,1.24-19.62,3.71-5.3,2.49-7.95,5.83-7.95,10.07,0,4.95,2.47,9.19,7.42,12.72,4.94,3.55,13.07,6.36,24.39,8.48,26.14,4.96,43.29,14.85,51.43,29.69,8.12,14.85,12.19,37.11,12.19,66.81v457.02c0,24.75-4.96,42.42-14.85,53.02-9.91,10.6-28.28,18.39-55.14,23.33-20.52,4.24-30.75,10.97-30.75,20.14,0,4.95,2.47,8.32,7.42,10.07,4.94,1.76,11.3,2.65,19.09,2.65,18.37,0,35.16-.53,50.37-1.59,15.19-1.06,30.22-2.12,45.07-3.18,14.85-1.06,30.04-1.59,45.6-1.59,14.14,0,27.21.53,39.24,1.59,12.01,1.06,24.92,2.12,38.7,3.18,13.78,1.06,29.86,1.59,48.25,1.59,7.77,0,14.14-1.06,19.09-3.18,4.94-2.12,7.42-5.3,7.42-9.54,0-5.65-2.49-9.89-7.42-12.72-4.95-2.82-12.72-5.3-23.33-7.42-27.57-4.94-46.49-13.42-56.73-25.45-10.26-12.01-15.74-29.32-16.44-51.96-1.42-34.63-2.3-68.93-2.65-102.86-.37-33.93-.53-66.81-.53-98.61,0-9.18,2.29-15.72,6.89-19.62,4.59-3.88,10.42-6.18,17.5-6.89,11.3-.7,22.43-1.06,33.4-1.06h33.4c8.48,0,17.14.18,25.98.53,8.83.36,17.5.53,25.98.53,9.9,0,19.62,3.18,29.16,9.54,9.54,6.36,16.78,18.39,21.74,36.05,1.41,4.95,4.24,10.44,8.48,16.44,4.24,6.01,9.55,9.01,15.91,9.01,4.24,0,7.06-1.94,8.48-5.83,1.4-3.88,2.12-9.36,2.12-16.44-1.43-15.54-2.49-28.45-3.19-38.7-.71-10.24-1.06-21.37-1.06-33.4,0-9.18.53-18.91,1.59-29.16,1.06-10.24,1.94-22.09,2.65-35.52.69-5.65-.53-10.24-3.71-13.79-3.19-3.53-6.55-5.3-10.08-5.3-2.83,0-6.36,2.12-10.6,6.36-4.24,4.24-7.42,8.14-9.54,11.67-4.96,13.44-12.56,24.75-22.8,33.93-10.26,9.2-23.86,13.79-40.83,13.79-13.44,0-30.93.36-52.49,1.06-21.57.71-42.6,1.06-63.09,1.06-5.66,0-9.73-2.29-12.19-6.89-2.48-4.59-3.71-10.07-3.71-16.44v-201.47c.7-14.85,3.88-27.21,9.55-37.11,5.65-9.89,16.96-14.84,33.93-14.84h115.59c14.84,0,28.26,1.95,40.29,5.83,12.01,3.89,22.97,11.14,32.88,21.74,6.36,7.08,11.83,15.91,16.43,26.51,4.59,10.6,8.65,22.63,12.19,36.05,1.41,4.24,3.88,7.79,7.42,10.6,3.53,2.83,7.06,4.24,10.6,4.24,7.06,0,10.6-7.42,10.6-22.27,0-7.06-.19-18.03-.53-32.87-.37-14.85-.89-30.39-1.59-46.66Z"/>
    <path class="cls-1" d="M4893.45,305.42c18.38,0,33.93-6.18,46.66-18.56,12.72-12.36,19.09-27.39,19.09-45.07s-6.37-33.75-19.09-46.13c-12.73-12.36-28.28-18.56-46.66-18.56s-32.7,6.2-45.07,18.56c-12.38,12.38-18.55,27.75-18.55,46.13s6.18,32.71,18.55,45.07c12.36,12.38,27.39,18.56,45.07,18.56Z"/>
    <path class="cls-1" d="M5007.44,822.36c-4.6-2.47-9.73-4.41-15.37-5.83-16.27-4.24-28.28-9.18-36.06-14.84-7.78-5.65-11.66-14.14-11.66-25.45v-241.77c0-16.96.88-35.34,2.65-55.14,1.76-19.78,3.53-38.17,5.3-55.14,1.76-16.97,2.65-29.33,2.65-37.12,0-5.65-2.83-8.48-8.48-8.48-3.55,0-9.2,2.49-16.96,7.42-11.32,7.07-28.11,16.44-50.37,28.1-22.27,11.66-48.96,21.04-80.06,28.1-6.36.71-9.54,5.3-9.54,13.78,0,4.96.88,8.67,2.65,11.13,1.76,2.49,4.4,4.08,7.96,4.77,17.66,2.83,30.04,10.78,37.11,23.86,7.06,13.09,10.6,30.22,10.6,51.43v229.04c0,12.73-3.89,21.57-11.66,26.51-7.78,4.96-19.8,9.54-36.05,13.78-5.67,1.42-10.79,3.36-15.38,5.83-4.6,2.48-6.89,6.54-6.89,12.19,0,4.24,1.94,7.42,5.83,9.54,3.88,2.12,8.65,3.18,14.32,3.18,14.13,0,25.98-.53,35.52-1.59,9.55-1.06,19.25-1.94,29.16-2.65,9.89-.7,20.84-1.06,32.87-1.06,12.73,0,23.86.37,33.4,1.06,9.55.71,19.61,1.59,30.22,2.65,10.6,1.06,22.61,1.59,36.05,1.59,12.73,0,19.09-4.24,19.09-12.73,0-5.65-2.3-9.71-6.89-12.19Z"/>
    <path class="cls-1" d="M5577.39,822.89c-4.96-2.82-10.26-5.3-15.91-7.42-10.6-3.53-20.68-7.42-30.22-11.67-9.55-4.24-14.32-13.42-14.32-27.57v-229.04c0-43.82-11.66-79.53-34.99-107.1-23.33-27.57-52.67-41.35-88.01-41.35-33.24,0-63.1,6.01-89.6,18.03-26.51,12.03-52.14,29.69-76.88,53.02-.71-.7-1.24-2.47-1.59-5.3-.37-2.81-.53-5.65-.53-8.48,0-9.89.88-21.9,2.65-36.05,1.75-14.13,2.65-23.67,2.65-28.63,0-2.82-.53-5.12-1.59-6.89-1.06-1.76-3.02-2.65-5.83-2.65-2.12,0-4.42.71-6.89,2.12-2.48,1.42-4.77,2.83-6.89,4.24-16.96,11.32-35.52,21.57-55.67,30.75-20.15,9.19-42.6,16.96-67.34,23.33-6.36.71-9.55,5.67-9.55,14.84,0,4.24,1.06,7.61,3.19,10.07,2.12,2.49,4.59,4.08,7.42,4.77,16.97,4.24,27.39,12.56,31.29,24.92,3.87,12.37,5.83,27.4,5.83,45.07v233.28c0,14.15-4.61,23.69-13.79,28.63-9.19,4.96-19.09,8.85-29.69,11.67-7.07,2.12-12.91,4.42-17.5,6.89-4.6,2.48-6.89,6.54-6.89,12.19,0,4.24,2.12,7.42,6.36,9.54s9.18,3.18,14.85,3.18c14.13,0,26.14-.53,36.06-1.59,9.89-1.06,19.43-1.94,28.63-2.65,9.18-.7,19.78-1.06,31.81-1.06,12.73,0,23.14.37,31.28,1.06,8.12.71,16.96,1.59,26.51,2.65,9.55,1.06,21.37,1.59,35.52,1.59,6.36,0,11.3-1.06,14.84-3.18,3.53-2.12,5.3-5.3,5.3-9.54,0-7.77-7.79-14.13-23.33-19.08-9.91-2.82-19.45-6.53-28.63-11.14-9.2-4.59-13.78-13.95-13.78-28.1v-254.49c0-3.53.69-7.42,2.12-11.66,1.41-4.24,3.53-7.77,6.37-10.6,14.13-11.3,29.51-20.31,46.13-27.04,16.6-6.71,35.87-10.07,57.79-10.07,25.45.71,46.12,9.2,62.03,25.45,15.91,16.27,23.86,39.23,23.86,68.92v219.5c0,14.15-4.6,23.33-13.78,27.57-9.19,4.24-19.09,8.14-29.69,11.67-5.66,2.12-10.97,4.6-15.91,7.42-4.95,2.83-7.42,7.08-7.42,12.72,0,4.95,2.47,8.14,7.42,9.54,4.94,1.41,9.18,2.12,12.73,2.12,14.14,0,25.98-.53,35.52-1.59,9.54-1.06,18.9-1.94,28.1-2.65,9.18-.7,19.78-1.06,31.81-1.06,12.73,0,23.5.37,32.34,1.06,8.83.71,18.02,1.59,27.57,2.65,9.55,1.06,21.37,1.59,35.52,1.59,4.24,0,8.65-.71,13.26-2.12,4.59-1.41,6.89-4.59,6.89-9.54,0-5.65-2.49-9.89-7.42-12.72Z"/>
    <path class="cls-1" d="M6032.27,782.59c-2.12,0-4.6,1.42-7.42,4.24-9.2,8.48-21.92,12.73-38.18,12.73-10.6,0-19.45-4.94-26.51-14.85-7.07-9.89-10.25-22.62-9.54-38.17l5.3-239.65c1.41-31.81-7.26-57.79-25.98-77.94-18.74-20.14-42.94-30.22-72.63-30.22-14.85,0-31.99,3.18-51.43,9.54-19.45,6.36-39.23,15.37-59.38,27.04-20.14,11.66-38.7,24.92-55.67,39.76-14.84,12.73-25.98,25.29-33.4,37.64-7.42,12.38-11.13,24.23-11.13,35.52,0,4.24,1.22,7.6,3.71,10.07,2.47,2.49,5.83,3.71,10.08,3.71,8.48,0,18.91-2.47,31.28-7.42,12.36-4.94,23.33-10.42,32.87-16.44,9.54-6,14.32-11.14,14.32-15.37,0-2.82-.19-6.53-.53-11.14-.37-4.59-.53-8.65-.53-12.19,0-5.65.53-10.95,1.59-15.9,1.06-4.94,3.35-8.83,6.89-11.67,6.36-4.94,14.66-9.36,24.92-13.26,10.24-3.88,20.31-5.83,30.22-5.83,19.09,0,33.57,6.36,43.47,19.09,9.89,12.72,14.48,28.63,13.79,47.72l-2.12,64.69c-.71,14.15-2.49,23.51-5.3,28.1-2.83,4.61-11.32,9.73-25.45,15.38l-102.86,43.47c-27.57,11.32-47.9,24.04-60.97,38.17-13.09,14.15-19.62,32.87-19.62,56.2,0,14.15,4.59,28.47,13.78,42.95,9.18,14.5,20.84,26.51,34.99,36.05,14.14,9.55,28.63,14.32,43.48,14.32,21.9,0,43.11-4.6,63.62-13.79,20.5-9.18,42.42-23.67,65.75-43.47h3.18c21.21,38.17,49.47,57.26,84.83,57.26,12.73,0,25.98-3.36,39.77-10.07,13.78-6.71,26.67-16.07,38.7-28.1,9.89-9.18,14.85-18.03,14.85-26.51,0-3.53-1.24-6.37-3.71-8.48-2.48-2.12-5.48-3.18-9.01-3.18ZM5855.19,680.8l-2.12,60.44c-.71,11.32-1.96,19.62-3.71,24.92-1.78,5.3-4.42,9.72-7.96,13.25-6.36,7.08-13.62,12.56-21.74,16.44-8.14,3.89-18.21,5.83-30.22,5.83-11.32,0-22.1-4.41-32.34-13.26-10.25-8.83-15.37-22.8-15.37-41.88,0-15.54,6.37-29.86,19.09-42.94,12.73-13.07,34.99-25.62,66.81-37.65,4.94-2.12,8.83-3.53,11.66-4.24,2.82-.69,4.94-1.06,6.37-1.06,4.24,0,7.06,1.59,8.48,4.77,1.41,3.18,1.76,8.32,1.06,15.37Z"/>
    <path class="cls-1" d="M6588.97,822.89c-4.96-2.82-10.25-5.3-15.91-7.42-10.6-3.53-20.68-7.42-30.22-11.67-9.55-4.24-14.32-13.42-14.32-27.57v-229.04c0-43.82-11.66-79.53-34.99-107.1-23.33-27.57-52.67-41.35-88.01-41.35-33.24,0-63.09,6.01-89.6,18.03-26.51,12.03-52.14,29.69-76.88,53.02-.71-.7-1.24-2.47-1.59-5.3-.37-2.81-.53-5.65-.53-8.48,0-9.89.88-21.9,2.65-36.05,1.76-14.13,2.65-23.67,2.65-28.63,0-2.82-.53-5.12-1.59-6.89-1.06-1.76-3.01-2.65-5.83-2.65-2.12,0-4.42.71-6.89,2.12-2.48,1.42-4.77,2.83-6.89,4.24-16.96,11.32-35.52,21.57-55.67,30.75-20.15,9.19-42.6,16.96-67.33,23.33-6.37.71-9.55,5.67-9.55,14.84,0,4.24,1.06,7.61,3.18,10.07,2.12,2.49,4.59,4.08,7.42,4.77,16.96,4.24,27.39,12.56,31.28,24.92,3.88,12.37,5.83,27.4,5.83,45.07v233.28c0,14.15-4.61,23.69-13.79,28.63-9.19,4.96-19.08,8.85-29.69,11.67-7.08,2.12-12.91,4.42-17.5,6.89-4.6,2.48-6.89,6.54-6.89,12.19,0,4.24,2.12,7.42,6.37,9.54,4.24,2.12,9.18,3.18,14.85,3.18,14.13,0,26.14-.53,36.05-1.59,9.89-1.06,19.43-1.94,28.63-2.65,9.17-.7,19.78-1.06,31.81-1.06,12.73,0,23.15.37,31.28,1.06,8.12.71,16.97,1.59,26.51,2.65,9.55,1.06,21.37,1.59,35.52,1.59,6.37,0,11.3-1.06,14.85-3.18,3.53-2.12,5.3-5.3,5.3-9.54,0-7.77-7.79-14.13-23.33-19.08-9.91-2.82-19.45-6.53-28.63-11.14-9.19-4.59-13.78-13.95-13.78-28.1v-254.49c0-3.53.7-7.42,2.12-11.66,1.4-4.24,3.53-7.77,6.36-10.6,14.13-11.3,29.51-20.31,46.13-27.04,16.6-6.71,35.87-10.07,57.79-10.07,25.45.71,46.13,9.2,62.03,25.45,15.91,16.27,23.86,39.23,23.86,68.92v219.5c0,14.15-4.6,23.33-13.78,27.57-9.19,4.24-19.09,8.14-29.7,11.67-5.66,2.12-10.97,4.6-15.9,7.42-4.96,2.83-7.42,7.08-7.42,12.72,0,4.95,2.47,8.14,7.42,9.54,4.94,1.41,9.17,2.12,12.72,2.12,14.14,0,25.98-.53,35.52-1.59,9.55-1.06,18.91-1.94,28.1-2.65,9.18-.7,19.78-1.06,31.81-1.06,12.73,0,23.5.37,32.34,1.06,8.83.71,18.03,1.59,27.57,2.65,9.54,1.06,21.37,1.59,35.52,1.59,4.24,0,8.65-.71,13.25-2.12,4.59-1.41,6.89-4.59,6.89-9.54,0-5.65-2.49-9.89-7.42-12.72Z"/>
    <path class="cls-1" d="M6843.45,443.27c13.42,0,29.51,5.14,48.25,15.38,18.72,10.26,36.58,22.1,53.55,35.52,4.24,3.54,8.65,6.73,13.25,9.54,4.59,2.83,9.01,4.24,13.25,4.24,6.36,0,13.26-2.65,20.68-7.95,7.42-5.3,13.78-11.67,19.08-19.09,5.3-7.42,7.96-13.6,7.96-18.56,0-6.36-3.89-13.07-11.66-20.14-36.06-28.98-79.18-43.47-129.37-43.47-41.72,0-79.9,10.97-114.52,32.87-34.65,21.92-62.22,51.61-82.71,89.07-20.51,37.48-30.75,79.18-30.75,125.13,0,40.29,8.48,76.71,25.45,109.22,16.97,32.52,39.93,58.15,68.93,76.88,28.98,18.72,61.5,28.1,97.55,28.1,24.74,0,47.72-3.89,68.93-11.66,21.21-7.77,39.93-18.19,56.2-31.28,16.26-13.07,29.33-26.68,39.24-40.83,4.24-6.36,7.42-12.19,9.55-17.5s3.18-9.71,3.18-13.25c0-10.6-3.89-15.91-11.66-15.91-2.12,0-4.43.71-6.9,2.12-2.48,1.42-4.77,2.83-6.89,4.24-16.97,16.27-33.06,27.75-48.25,34.46-15.21,6.73-33.06,10.07-53.55,10.07-29.69,0-56.04-7.42-79-22.27-22.98-14.85-41.01-35.34-54.08-61.5-13.09-26.15-19.62-56.2-19.62-90.13,0-51.59,9.36-91.72,28.1-120.35,18.72-28.63,44.01-42.95,75.81-42.95Z"/>
    <path class="cls-1" d="M7422.41,726.39c-2.12,0-4.07.71-5.83,2.12-1.77,1.42-3.71,3.55-5.83,6.37-14.85,14.85-30.93,26.34-48.25,34.46-17.34,8.14-36.59,12.19-57.8,12.19-28.28,0-54.08-7.77-77.41-23.33-23.33-15.54-42.07-36.22-56.2-62.03-14.15-25.8-21.2-54.25-21.2-85.36,0-14.85,2.12-25.08,6.36-30.75,4.24-5.65,11.3-8.48,21.21-8.48h219.5c21.9,0,32.87-11.67,32.87-34.99,0-26.86-6.55-50.72-19.62-71.58-13.09-20.84-31.11-37.11-54.08-48.77-22.98-11.67-48.96-17.5-77.94-17.5-38.89,0-74.59,10.44-107.1,31.28-32.52,20.86-58.5,48.61-77.94,83.24-19.45,34.65-29.16,72.82-29.16,114.52,0,45.96,8.48,86.42,25.45,121.41,16.96,34.99,40.11,62.22,69.46,81.65,29.32,19.44,63.09,29.16,101.27,29.16,24.02,0,46.13-3.71,66.27-11.13,20.14-7.42,37.81-17.32,53.02-29.69,15.19-12.36,27.73-25.98,37.64-40.82,9.89-15.54,14.84-28.98,14.84-40.29,0-7.77-3.18-11.67-9.54-11.67ZM7179.59,480.91c9.89-13.79,22.43-25.27,37.64-34.46,15.19-9.18,30.57-13.78,46.13-13.78,22.62,0,42.05,6.89,58.32,20.68,16.25,13.78,24.39,30.59,24.39,50.37,0,7.08-.71,12.91-2.12,17.5-1.42,4.61-3.89,7.61-7.42,9.02-9.19,2.12-19.09,3.54-29.69,4.24-10.6.71-25.1,1.06-43.47,1.06h-84.83c-8.48,0-12.73-4.24-12.73-12.73-.71-14.13,3.88-28.1,13.79-41.88Z"/>
  </g>
  <path class="cls-1" d="M1011.7,486.8c-3.29-126.76-54.25-241.63-135.57-327.39-6.1-6.38-12.28-12.57-18.76-18.66-73.2-69.33-167.58-116.61-272.5-131.11-3.39-.39-6.38,2.42-6.09,5.9l3.77,49.6c.19,2.22,1.84,4.16,3.96,4.74,72.82,21.08,136.73,74.45,182.76,148.42,3.48,5.51,6.77,11.12,10.06,16.82.68,1.16,1.26,2.32,1.84,3.48,3.29,5.9,6.48,11.89,9.48,17.99,30.75,61.88,50.09,134.78,54.06,213.39.19,3.19-2.52,5.9-5.8,5.71l-34.71-2.22-193.2-12.47.09-.1,106.27-153.73c3.38-5.03-2.61-11.02-7.64-7.64l-153.65,106.16-.19.19-18.66-290.55-3.57-54.73-3.19-50.38c-.19-2.9-2.52-5.12-5.32-5.12-2.8-.09-5.51-.09-8.22-.09v.09c-4.45,0-8.8.1-13.15.19-126.77,3.29-241.65,54.24-327.32,135.56-6.48,6-12.67,12.28-18.76,18.66C87.46,233.57,39.89,329.29,26.06,435.75c-.39,3.39,2.42,6.38,5.9,6.09l156.17-12.09c2.61-.19,4.64-2.22,4.93-4.74,7.93-61.4,25.24-118.44,50.09-168.34,3-6.19,6.19-12.28,9.57-18.27.58-1.16,1.26-2.22,1.94-3.39,3.19-5.7,6.48-11.22,9.86-16.73,55.7-89.34,137.31-148.61,229.37-157.12,3.29-.29,6.1,2.42,5.9,5.8l-3.19,48.44-18.66,290.55-.19-.19-153.65-106.16c-5.02-3.48-11.02,2.61-7.64,7.54l106.27,153.83.09.1-193.2,12.38-40.81,2.61-161.68,10.44c-2.9.19-5.12,2.51-5.12,5.32-.1,2.71-.1,5.42-.1,8.22,0,4.45.1,8.8.19,13.15,3.29,126.76,54.25,241.63,135.57,327.39,6.1,6.38,12.28,12.57,18.76,18.66,73.2,69.33,167.57,116.61,272.49,131.11,3.39.39,6.38-2.42,6.09-5.9l-3.77-49.6c-.19-2.22-1.84-4.16-3.97-4.74-72.82-21.08-136.73-74.45-182.76-148.42-3.48-5.51-6.77-11.12-10.06-16.82-.68-1.16-1.26-2.32-1.84-3.48-3.29-5.9-6.48-11.89-9.48-17.99-30.75-61.88-50.09-134.78-54.06-213.39-.19-3.19,2.52-5.9,5.8-5.7l34.72,2.22,193.2,12.47-.09.09-106.27,153.74c-3.38,5.03,2.62,11.02,7.64,7.64l153.65-106.16.19-.19,18.66,290.55,3.57,54.73,3.19,50.37c.19,2.9,2.52,5.12,5.32,5.12,2.8.1,5.51.1,8.22.1v-.1c4.45,0,8.8-.1,13.15-.19,126.77-3.29,241.65-54.24,327.32-135.56,6.48-5.99,12.66-12.28,18.76-18.66,70.2-74.06,117.78-169.79,131.6-276.24.39-3.39-2.42-6.38-5.9-6.09l-156.17,12.09c-2.61.19-4.65,2.22-4.93,4.74-7.93,61.4-25.24,118.44-50.09,168.34-2.99,6.19-6.19,12.28-9.57,18.28-.58,1.16-1.26,2.22-1.94,3.38-3.19,5.71-6.48,11.22-9.86,16.73-55.7,89.34-137.31,148.61-229.37,157.12-3.29.29-6.09-2.42-5.9-5.8l3.19-48.44,18.66-290.55.19.19,153.65,106.16c5.03,3.48,11.02-2.61,7.64-7.54l-106.27-153.83-.09-.1,193.2-12.38,40.8-2.61,161.68-10.44c2.9-.19,5.12-2.51,5.12-5.32.1-2.71.1-5.41.1-8.22,0-4.45-.1-8.8-.19-13.15ZM516.9,535.34c-19.53,0-35.3-15.76-35.3-35.29s15.77-35.39,35.3-35.39,35.29,15.76,35.29,35.29-15.77,35.39-35.29,35.39Z"/>
</svg>