<svg width="1680" height="484" viewBox="0 0 1680 484" fill="none" xmlns="http://www.w3.org/2000/svg">
<path fill-rule="evenodd" clip-rule="evenodd" d="M97.0577 147H261.362V173.589H123.621V206.386H260.751V337H97V310.411H234.187V280.384H97.0577V147ZM234.187 253.795V232.975H123.621V253.795H234.187ZM296.11 147H322.673V236.949H443.316V147H469.879V263.538H396.276V337H369.713V263.538H296.11V147ZM506.287 147H680.057V337H653.493V173.589H607.71V258.895H581.146V173.589H532.851V337H506.287V147ZM715.358 147H883.594V337H715.358V147ZM741.922 173.589V229.582L857.03 229.582V173.589H741.922ZM857.03 256.171L741.922 256.171V310.411H857.03V256.171ZM925.914 337V147H952.477V337H925.914ZM994.797 147H1163.03V337H994.797V147ZM1021.36 173.589V310.411H1136.47V173.589H1021.36ZM1251.17 173.589H1189.6V147H1336.8V173.589H1277.74V337H1251.17V173.589ZM1370.14 337V147H1396.7V337H1370.14ZM1429.05 147H1584V173.589H1455.61V310.411H1584V337H1429.05V147Z" fill="black"/>
</svg>
