<svg width="1680" height="618" viewBox="0 0 1680 618" fill="none" xmlns="http://www.w3.org/2000/svg">
<g clip-path="url(#clip0_0_6)">
<path d="M1680 0.5H0V617.5H1680V0.5Z" fill="black"/>
<path fill-rule="evenodd" clip-rule="evenodd" d="M291.043 239.5H412.365V259.092H310.657V283.258H411.913V379.5H291V359.908H392.299V337.783H291.043V239.5ZM392.299 318.191V302.85H310.657V318.191H392.299ZM438.022 239.5H457.637V305.778H546.719V239.5H566.334V325.37H511.985V379.5H492.371V325.37H438.022V239.5ZM593.217 239.5H721.529V379.5H701.914V259.092H668.108V321.949H648.493V259.092H612.832V379.5H593.217V239.5ZM747.595 239.5H871.82V379.5H747.595V239.5ZM767.21 259.092V300.35H852.206V259.092H767.21ZM852.206 319.942H767.21V359.908H852.206V319.942ZM903.069 379.5V239.5H922.684V379.5H903.069ZM953.933 239.5H1078.16V379.5H953.933V239.5ZM973.547 259.092V359.908H1058.54V259.092H973.547ZM1143.24 259.092H1097.77V239.5H1206.47V259.092H1162.86V379.5H1143.24V259.092ZM1231.08 379.5V239.5H1250.7V379.5H1231.08ZM1274.58 239.5H1389V259.092H1294.2V359.908H1389V379.5H1274.58V239.5Z" fill="#C0FD5C"/>
</g>
<defs>
<clipPath id="clip0_0_6">
<rect width="1680" height="617" fill="white" transform="translate(0 0.5)"/>
</clipPath>
</defs>
</svg>
