<svg width="231" height="228" viewBox="0 0 231 228" fill="none" xmlns="http://www.w3.org/2000/svg">
<path d="M109.639 104.494C110.895 107.837 111.986 111.297 111.938 114.868C111.776 126.847 104.382 138.059 92.4863 142.51C76.9999 148.306 59.7476 140.45 53.9522 124.963C48.1568 109.477 56.0129 92.2244 71.4994 86.429C71.778 86.3248 72.0573 86.2249 72.337 86.1294L80.6142 107.73C80.2683 107.802 79.9234 107.9 79.5823 108.028C76.0247 109.359 74.22 113.323 75.5513 116.88C76.8826 120.438 80.8459 122.243 84.4034 120.911C87.961 119.58 89.7657 115.617 88.4344 112.059C88.3993 111.965 88.3623 111.872 88.3235 111.781L74.5683 75.8688L74.4877 75.9092L73.3169 72.6877C62.9666 44.8385 77.1089 13.8521 104.949 3.43351C132.829 -6.99954 163.887 7.14335 174.32 35.0226L174.86 36.4659C184.925 63.3622 172.063 93.4189 145.656 104.707C136.98 108.416 127.619 110.203 118.215 109.962L109.064 86.183L116.453 86.7826C123.332 87.3408 130.244 86.2146 136.591 83.5015C151.664 77.0581 159.006 59.9015 153.261 44.5489L152.721 43.1055C146.752 27.1551 128.983 19.0636 113.032 25.0326C97.0819 31.0016 88.9904 48.7708 94.9594 64.7212L97.7476 72.3926L97.7295 72.382L98.2249 73.706L102.568 85.6559L109.639 104.494Z" fill="#1A1A1A"/>
<path d="M64.1257 227.047C60.1426 227.047 56.7052 226.065 53.8134 224.1C50.9215 222.136 48.6845 219.517 47.1022 216.243C45.5744 212.915 44.8105 209.259 44.8105 205.276C44.8105 201.13 45.6835 197.419 47.4295 194.146C49.2301 190.817 51.7673 188.198 55.041 186.289C58.3693 184.324 62.3251 183.342 66.9084 183.342C71.437 183.342 75.2837 184.324 78.4483 186.289C81.6675 188.198 84.1228 190.817 85.8143 194.146C87.5602 197.419 88.4333 201.075 88.4333 205.113V226.065H79.0212V218.29H78.8575C78.0391 219.817 76.9751 221.263 75.6656 222.627C74.3561 223.937 72.7465 225.001 70.8369 225.819C68.9272 226.638 66.6901 227.047 64.1257 227.047ZM66.6628 219.026C69.1181 219.026 71.2461 218.426 73.0466 217.226C74.9018 215.971 76.3204 214.306 77.3025 212.233C78.3392 210.105 78.8575 207.732 78.8575 205.113C78.8575 202.494 78.3665 200.175 77.3843 198.156C76.4022 196.083 75.0109 194.446 73.2103 193.245C71.4098 191.99 69.2545 191.363 66.7447 191.363C64.1257 191.363 61.8886 191.99 60.0335 193.245C58.1784 194.446 56.7597 196.083 55.7776 198.156C54.7955 200.229 54.3044 202.576 54.3044 205.195C54.3044 207.759 54.7955 210.105 55.7776 212.233C56.7597 214.306 58.1511 215.971 59.9516 217.226C61.8068 218.426 64.0438 219.026 66.6628 219.026Z" fill="#1A1A1A"/>
<path d="M95.2734 226.065V196.192C95.2734 192.482 96.3101 189.59 98.3835 187.517C100.511 185.389 103.431 184.325 107.141 184.325H117.208V192.345H108.859C107.55 192.345 106.513 192.727 105.749 193.491C105.04 194.255 104.685 195.292 104.685 196.601V226.065H95.2734Z" fill="#1A1A1A"/>
<path d="M140.845 226.065C136.152 226.065 132.033 225.192 128.486 223.446C124.994 221.645 122.266 219.19 120.302 216.08C118.338 212.915 117.355 209.287 117.355 205.195C117.355 200.884 118.228 197.092 119.974 193.818C121.72 190.545 124.121 187.98 127.177 186.125C130.232 184.27 133.752 183.342 137.735 183.342C142.209 183.342 145.892 184.297 148.783 186.207C151.675 188.117 153.803 190.681 155.167 193.9C156.586 197.119 157.295 200.72 157.295 204.703C157.295 205.249 157.268 205.877 157.213 206.586C157.159 207.295 157.077 207.841 156.968 208.223H127.34C127.668 210.405 128.459 212.233 129.714 213.706C130.969 215.125 132.551 216.216 134.461 216.98C136.371 217.689 138.498 218.044 140.845 218.044H152.057V226.065H140.845ZM127.259 201.839H147.883C147.829 200.802 147.665 199.766 147.392 198.729C147.174 197.692 146.792 196.71 146.246 195.783C145.755 194.855 145.101 194.064 144.282 193.409C143.518 192.7 142.591 192.154 141.499 191.772C140.408 191.336 139.153 191.117 137.735 191.117C136.098 191.117 134.652 191.445 133.397 192.1C132.142 192.7 131.078 193.518 130.205 194.555C129.332 195.537 128.65 196.683 128.159 197.992C127.722 199.247 127.422 200.529 127.259 201.839Z" fill="#1A1A1A"/>
<path d="M175.496 226.186C171.785 226.186 168.866 225.122 166.738 222.994C164.665 220.866 163.628 217.974 163.628 214.319V173.97H172.958V213.909C172.958 215.164 173.34 216.201 174.104 217.02C174.868 217.783 175.877 218.165 177.132 218.165H185.89V226.186H175.496ZM156.953 192.466V184.446H185.972V192.466H156.953Z" fill="#1A1A1A"/>
<path d="M208.209 227.047C203.898 227.047 200.079 226.092 196.751 224.182C193.422 222.218 190.776 219.599 188.812 216.325C186.902 212.997 185.947 209.287 185.947 205.195C185.947 201.102 186.902 197.419 188.812 194.146C190.776 190.817 193.422 188.198 196.751 186.289C200.079 184.324 203.898 183.342 208.209 183.342C212.465 183.342 216.257 184.324 219.585 186.289C222.913 188.198 225.532 190.79 227.442 194.064C229.406 197.338 230.388 201.048 230.388 205.195C230.388 209.287 229.406 212.997 227.442 216.325C225.532 219.599 222.913 222.218 219.585 224.182C216.257 226.092 212.465 227.047 208.209 227.047ZM208.209 219.026C210.773 219.026 213.01 218.426 214.92 217.226C216.83 215.971 218.303 214.306 219.34 212.233C220.376 210.16 220.895 207.814 220.895 205.195C220.895 202.63 220.376 200.311 219.34 198.238C218.303 196.11 216.83 194.446 214.92 193.245C213.01 191.99 210.773 191.363 208.209 191.363C205.59 191.363 203.325 191.99 201.416 193.245C199.561 194.446 198.087 196.083 196.996 198.156C195.959 200.229 195.441 202.576 195.441 205.195C195.441 207.759 195.959 210.105 196.996 212.233C198.087 214.306 199.561 215.971 201.416 217.226C203.325 218.426 205.59 219.026 208.209 219.026Z" fill="#1A1A1A"/>
<path d="M0.908203 225.988V168.698H24.9703C28.6259 168.698 31.9543 169.543 34.9552 171.235C38.0107 172.872 40.4387 175.191 42.2393 178.192C44.0398 181.138 44.9401 184.575 44.9401 188.504C44.9401 192.378 44.0398 195.815 42.2393 198.816C40.4933 201.817 38.0925 204.163 35.037 205.855C32.0361 207.492 28.6532 208.31 24.8884 208.31H10.6476V225.988H0.908203ZM10.6476 199.717H23.7426C25.8705 199.717 27.7802 199.28 29.4717 198.407C31.2177 197.534 32.5817 196.252 33.5639 194.56C34.6005 192.869 35.1189 190.877 35.1189 188.586C35.1189 186.185 34.6005 184.166 33.5639 182.529C32.5817 180.838 31.2177 179.556 29.4717 178.683C27.7802 177.755 25.8978 177.291 23.8244 177.291H10.6476V199.717Z" fill="#1A1A1A"/>
</svg>
