<svg width="1241" height="200" viewBox="0 0 1241 200" fill="none" xmlns="http://www.w3.org/2000/svg">
<g clip-path="url(#clip0_515_219)">
<path d="M188.009 139.435C171.62 150.296 140.046 157.782 103.481 158.23C101.574 158.249 100.018 156.587 100.018 154.536V141.048C100.018 139.027 98.4995 137.374 96.6199 137.355H96.5365C96.2588 137.355 95.9717 137.355 95.6939 137.345C94.5458 137.325 93.4069 137.305 92.268 137.275C92.2032 137.275 92.1291 137.275 92.0643 137.275C90.981 137.245 89.8976 137.205 88.8236 137.165C88.555 137.155 88.2865 137.145 88.018 137.136C86.8976 137.086 85.7773 137.036 84.6662 136.976C84.5643 136.976 84.4625 136.966 84.3606 136.956C83.3236 136.897 82.2958 136.837 81.2773 136.767C81.0273 136.747 80.7773 136.737 80.5273 136.717C79.4254 136.638 78.3328 136.558 77.2495 136.469C77.1199 136.459 76.9902 136.449 76.8699 136.439C75.8791 136.359 74.8976 136.269 73.9162 136.17C73.6847 136.15 73.4532 136.13 73.231 136.1C72.1569 135.991 71.0921 135.881 70.0365 135.762C69.8976 135.742 69.7588 135.732 69.6199 135.712C68.6569 135.602 67.7032 135.483 66.7495 135.364C66.555 135.334 66.3513 135.314 66.1569 135.294C65.1106 135.155 64.0643 135.015 63.0365 134.866C62.8976 134.846 62.7588 134.826 62.6199 134.806C61.6754 134.667 60.7495 134.527 59.8143 134.378C59.6476 134.348 59.4902 134.328 59.3236 134.298C58.2958 134.139 57.2865 133.97 56.2773 133.791C56.1476 133.771 56.018 133.741 55.8884 133.721C54.9532 133.552 54.0365 133.383 53.1199 133.213C52.9995 133.193 52.8791 133.164 52.7588 133.144C51.7588 132.955 50.7773 132.755 49.7958 132.546C49.6754 132.526 49.5643 132.497 49.4439 132.477C48.518 132.278 47.6013 132.079 46.6939 131.879C46.6199 131.86 46.5458 131.85 46.481 131.83C45.5088 131.611 44.555 131.382 43.6013 131.153C43.4995 131.133 43.4069 131.103 43.305 131.083C42.3791 130.854 41.4625 130.625 40.5643 130.386C40.5365 130.386 40.518 130.376 40.4902 130.366C39.555 130.117 38.6384 129.859 37.7217 129.6C37.6384 129.58 37.555 129.55 37.4625 129.53C35.6476 129.003 33.8791 128.465 32.1754 127.898C32.1106 127.878 32.0458 127.858 31.981 127.828C30.2588 127.25 28.5921 126.663 26.9902 126.046C26.9439 126.026 26.8976 126.006 26.8513 125.996C25.2402 125.379 23.6847 124.732 22.1939 124.075C22.1569 124.065 22.1291 124.045 22.0921 124.035C20.5921 123.368 19.1662 122.681 17.7958 121.975C17.7773 121.965 17.7588 121.955 17.731 121.945C16.3606 121.238 15.0643 120.511 13.8328 119.765C13.8236 119.765 13.805 119.755 13.7958 119.745C12.5643 118.998 11.4069 118.232 10.3236 117.445C10.3236 117.445 10.3236 117.445 10.305 117.435C9.22172 116.649 8.21246 115.842 7.28653 115.026C5.11986 113.274 3.58283 111.074 2.47172 108.964C1.80505 107.689 0.00875289 108.167 0.00875289 109.631V122.482C0.00875289 141.864 42.9347 157.652 96.5643 158.299C98.4532 158.319 99.981 159.962 99.981 161.992V175.501C99.981 177.532 98.4439 179.164 96.555 179.144H96.518C96.2402 179.144 95.9532 179.144 95.6754 179.134C94.5273 179.115 93.3884 179.095 92.2495 179.065C92.1847 179.065 92.1106 179.065 92.0458 179.065C90.9625 179.035 89.8791 178.995 88.8051 178.955C88.5365 178.945 88.268 178.935 87.9995 178.925C86.8791 178.876 85.7588 178.826 84.6476 178.766C84.5458 178.766 84.4439 178.756 84.3421 178.746C83.305 178.686 82.2773 178.627 81.2588 178.557C81.0088 178.537 80.7588 178.527 80.5088 178.507C79.4069 178.428 78.3143 178.348 77.231 178.258C77.1013 178.248 76.9717 178.238 76.8513 178.229C75.8606 178.149 74.8791 178.059 73.8976 177.96C73.6662 177.94 73.4347 177.92 73.2125 177.89C72.1384 177.781 71.0736 177.671 70.018 177.552C69.8791 177.532 69.7402 177.522 69.6013 177.502C68.6384 177.392 67.6847 177.273 66.731 177.153C66.5365 177.124 66.3328 177.104 66.1384 177.084C65.0921 176.944 64.0458 176.805 63.018 176.656C62.8791 176.636 62.7402 176.616 62.6013 176.596C61.6569 176.457 60.731 176.317 59.7958 176.168C59.6291 176.138 59.4717 176.118 59.3051 176.088C58.2773 175.929 57.268 175.76 56.2587 175.581C56.1291 175.561 55.9995 175.531 55.8699 175.511C54.9347 175.342 54.018 175.172 53.1013 175.003C52.981 174.983 52.8606 174.953 52.7402 174.934C51.7402 174.744 50.7587 174.545 49.7773 174.336C49.6569 174.316 49.5458 174.286 49.4254 174.267C48.4995 174.067 47.5828 173.868 46.6754 173.669C46.6013 173.649 46.5273 173.639 46.4625 173.62C45.4902 173.401 44.5365 173.172 43.5828 172.943C43.481 172.923 43.3884 172.893 43.2865 172.873C42.3606 172.644 41.4439 172.415 40.5458 172.176C40.518 172.176 40.4995 172.166 40.4717 172.156C39.5365 171.907 38.6199 171.648 37.7032 171.39C37.6199 171.37 37.5365 171.34 37.4439 171.32C35.6291 170.792 33.8606 170.255 32.1569 169.687C32.0921 169.668 32.0273 169.648 31.9625 169.618C30.2402 169.04 28.5736 168.453 26.9717 167.836C26.9254 167.816 26.8791 167.796 26.8328 167.786C25.2217 167.169 23.6662 166.522 22.1754 165.865C22.1384 165.855 22.1106 165.835 22.0736 165.825C20.5736 165.158 19.1476 164.471 17.7773 163.764C17.7588 163.754 17.7402 163.744 17.7125 163.734C16.3421 163.028 15.0458 162.301 13.8143 161.554C13.805 161.554 13.7865 161.544 13.7773 161.535C12.5458 160.788 11.3884 160.021 10.305 159.235C10.305 159.235 10.305 159.235 10.2865 159.225C9.2032 158.439 8.19394 157.632 7.26801 156.816C5.10135 155.064 3.56431 152.864 2.4532 150.754C1.78653 149.479 -0.00976562 149.957 -0.00976562 151.421V164.272C-0.00976562 183.644 42.8976 199.432 96.5088 200.089C98.4162 200.109 99.9902 198.466 99.9902 196.416V182.917C99.9902 180.896 101.499 179.244 103.379 179.224C159.879 178.567 194.416 161.604 194.416 149.38C194.416 146.284 192.203 142.889 187.981 139.525L188.009 139.435Z" fill="black"/>
<path d="M11.9918 60.5921C28.39 49.7315 59.9733 42.2456 96.5566 41.7976C98.4548 41.7777 100.001 43.4401 100.001 45.4709V58.9993C100.001 61.0201 101.52 62.6726 103.399 62.6925H103.483C103.76 62.6925 104.047 62.6925 104.325 62.7025C105.473 62.7224 106.612 62.7423 107.751 62.7722C107.816 62.7722 107.89 62.7722 107.955 62.7722C109.038 62.802 110.121 62.8418 111.196 62.8817C111.464 62.8916 111.733 62.9016 112.001 62.9115C113.121 62.9613 114.242 63.0111 115.353 63.0708C115.455 63.0708 115.557 63.0808 115.659 63.0907C116.696 63.1504 117.723 63.2102 118.742 63.2799C118.992 63.2998 119.242 63.3097 119.492 63.3296C120.594 63.4093 121.686 63.4889 122.77 63.5785C122.899 63.5885 123.029 63.5984 123.149 63.6084C124.14 63.688 125.121 63.7776 126.103 63.8771C126.334 63.897 126.566 63.917 126.788 63.9468C127.862 64.0563 128.927 64.1658 129.983 64.2853C130.121 64.3052 130.26 64.3151 130.399 64.335C131.362 64.4445 132.316 64.564 133.27 64.6835C133.464 64.7133 133.668 64.7332 133.862 64.7532C134.909 64.8925 135.955 65.0319 136.983 65.1812C137.121 65.2011 137.26 65.221 137.399 65.2409C138.344 65.3803 139.27 65.5197 140.205 65.669C140.371 65.6988 140.529 65.7188 140.696 65.7486C141.723 65.9079 142.733 66.0771 143.742 66.2563C143.871 66.2762 144.001 66.3061 144.131 66.326C145.066 66.4952 145.983 66.6645 146.899 66.8337C147.02 66.8536 147.14 66.8835 147.26 66.9034C148.26 67.0925 149.242 67.2916 150.223 67.5006C150.344 67.5206 150.455 67.5504 150.575 67.5703C151.501 67.7694 152.418 67.9685 153.325 68.1676C153.399 68.1875 153.473 68.1975 153.538 68.2174C154.51 68.4364 155.464 68.6653 156.418 68.8943C156.52 68.9142 156.612 68.9441 156.714 68.964C157.64 69.1929 158.557 69.4219 159.455 69.6608C159.483 69.6608 159.501 69.6708 159.529 69.6807C160.464 69.9296 161.381 70.1884 162.297 70.4472C162.381 70.4671 162.464 70.497 162.557 70.5169C164.371 71.0445 166.14 71.5821 167.844 72.1495C167.909 72.1694 167.973 72.1893 168.038 72.2192C169.76 72.7966 171.427 73.3839 173.029 74.0011C173.075 74.021 173.121 74.0409 173.168 74.0508C174.779 74.668 176.334 75.3151 177.825 75.9721C177.862 75.9821 177.89 76.002 177.927 76.0119C179.427 76.6789 180.853 77.3658 182.223 78.0725C182.242 78.0825 182.26 78.0925 182.288 78.1024C183.658 78.8092 184.964 79.5359 186.186 80.2825C186.196 80.2825 186.205 80.2924 186.223 80.3024C187.455 81.049 188.612 81.8155 189.696 82.6019C189.696 82.6019 189.705 82.6019 189.714 82.6119C190.797 83.3983 191.807 84.2046 192.733 85.0209C194.908 86.7829 196.455 88.9929 197.557 91.1132C198.214 92.3775 200.01 91.8698 200.01 90.4263V77.5649C200.01 58.183 157.066 42.3949 103.418 41.7478C101.538 41.7279 100.02 40.0953 100.02 38.0745V24.5262C100.02 22.4855 101.566 20.8429 103.464 20.8728H103.501C103.779 20.8728 104.066 20.8728 104.344 20.8828C105.492 20.9027 106.631 20.9226 107.77 20.9524C107.834 20.9524 107.908 20.9524 107.973 20.9524C109.057 20.9823 110.14 21.0221 111.214 21.0619C111.483 21.0719 111.751 21.0819 112.02 21.0918C113.14 21.1416 114.26 21.1914 115.371 21.2511C115.473 21.2511 115.575 21.261 115.677 21.271C116.714 21.3307 117.742 21.3904 118.76 21.4601C119.01 21.48 119.26 21.49 119.51 21.5099C120.612 21.5895 121.705 21.6692 122.788 21.7588C122.918 21.7687 123.047 21.7787 123.168 21.7886C124.159 21.8683 125.14 21.9579 126.121 22.0574C126.353 22.0773 126.584 22.0972 126.807 22.1271C127.881 22.2366 128.946 22.3461 130.001 22.4656C130.14 22.4855 130.279 22.4954 130.418 22.5153C131.381 22.6248 132.334 22.7443 133.288 22.8637C133.483 22.8936 133.686 22.9135 133.881 22.9334C134.927 23.0728 135.973 23.2122 137.001 23.3615C137.14 23.3814 137.279 23.4013 137.418 23.4212C138.362 23.5606 139.288 23.6999 140.223 23.8493C140.39 23.8791 140.547 23.899 140.714 23.9289C141.742 24.0882 142.751 24.2574 143.76 24.4366C143.89 24.4565 144.02 24.4864 144.149 24.5063C145.084 24.6755 146.001 24.8447 146.918 25.014C147.038 25.0339 147.158 25.0637 147.279 25.0836C148.279 25.2728 149.26 25.4719 150.242 25.6809C150.362 25.7008 150.473 25.7307 150.594 25.7506C151.52 25.9497 152.436 26.1488 153.344 26.3479C153.418 26.3678 153.492 26.3778 153.557 26.3977C154.529 26.6167 155.483 26.8456 156.436 27.0746C156.538 27.0945 156.631 27.1244 156.733 27.1443C157.659 27.3732 158.575 27.6022 159.473 27.8411C159.501 27.8411 159.52 27.8511 159.547 27.861C160.483 28.1099 161.399 28.3687 162.316 28.6275C162.399 28.6474 162.483 28.6773 162.575 28.6972C164.39 29.2248 166.158 29.7624 167.862 30.3298C167.927 30.3497 167.992 30.3696 168.057 30.3995C169.779 30.9768 171.446 31.5642 173.047 32.1814C173.094 32.2013 173.14 32.2212 173.186 32.2311C174.797 32.8483 176.353 33.4954 177.844 34.1524C177.881 34.1623 177.908 34.1822 177.946 34.1922C179.446 34.8592 180.871 35.546 182.242 36.2528C182.26 36.2628 182.279 36.2727 182.307 36.2827C183.677 36.9895 184.983 37.7162 186.205 38.4628C186.214 38.4628 186.223 38.4727 186.242 38.4827C187.473 39.2293 188.631 39.9958 189.714 40.7822C189.714 40.7822 189.723 40.7822 189.733 40.7922C190.816 41.5786 191.825 42.3849 192.751 43.2012C194.927 44.9632 196.473 47.1731 197.575 49.2935C198.233 50.5577 200.029 50.0501 200.029 48.5967V35.7352C200.029 16.3633 157.121 0.575158 103.51 -0.0818522C101.603 -0.101762 100.029 1.54076 100.029 3.59143V17.1298C100.029 19.1407 98.5289 20.7832 96.6585 20.8031C40.1122 21.5497 5.55664 38.5125 5.55664 50.7369C5.55664 53.8328 7.7696 57.2274 11.9918 60.5921Z" fill="black"/>
<path d="M101.398 86.5359H99.731C98.6569 86.5359 97.5828 86.5359 96.518 86.516C96.2402 86.516 95.9532 86.516 95.6754 86.506C94.5273 86.4861 93.3884 86.4662 92.2495 86.4363C92.1847 86.4363 92.1106 86.4363 92.0458 86.4363C90.9625 86.4065 89.8791 86.3666 88.8051 86.3268C88.5365 86.3169 88.268 86.3069 87.9995 86.297C86.8791 86.2472 85.7588 86.1974 84.6476 86.1377C84.5458 86.1377 84.4439 86.1277 84.3514 86.1178C83.3143 86.0581 82.2865 85.9983 81.268 85.9286C81.018 85.9087 80.768 85.8988 80.518 85.8789C79.4162 85.7992 78.3236 85.7196 77.2402 85.63C77.1106 85.62 76.981 85.6101 76.8606 85.6001C75.8699 85.5205 74.8884 85.4309 73.9069 85.3314C73.6754 85.3114 73.4439 85.2915 73.2217 85.2617C72.1476 85.1522 71.0828 85.0427 70.0273 84.9232C69.8884 84.9033 69.7495 84.8934 69.6106 84.8734C68.6476 84.7639 67.6939 84.6445 66.7402 84.525C66.5458 84.4952 66.3421 84.4752 66.1476 84.4553C65.1014 84.316 64.0551 84.1766 63.0273 84.0273C62.8884 84.0074 62.7495 83.9875 62.6014 83.9676C61.6569 83.8282 60.731 83.6888 59.7958 83.5395C59.6291 83.5096 59.4717 83.4897 59.3051 83.4599C58.2773 83.3006 57.268 83.1314 56.2588 82.9522C56.1291 82.9323 55.9995 82.9024 55.8699 82.8825C54.9347 82.7133 54.018 82.544 53.1013 82.3748C52.981 82.3549 52.8606 82.325 52.7402 82.3051C51.7402 82.116 50.7588 81.9169 49.7773 81.7078C49.6569 81.6879 49.5458 81.6581 49.4254 81.6382C48.4995 81.4391 47.5828 81.24 46.6754 81.0409C46.6013 81.021 46.5273 81.011 46.4625 80.9911C45.4902 80.7721 44.5365 80.5431 43.5828 80.3142C43.481 80.2943 43.3884 80.2644 43.2865 80.2445C42.3606 80.0155 41.4532 79.7866 40.5458 79.5477C40.518 79.5477 40.4995 79.5377 40.4717 79.5278C39.5365 79.2789 38.6106 79.0201 37.7032 78.7613C37.6199 78.7413 37.5365 78.7115 37.4439 78.6916C35.6291 78.164 33.8606 77.6264 32.1569 77.059C32.0921 77.0391 32.0273 77.0192 31.9625 76.9893C30.2402 76.4119 28.5736 75.8246 26.9717 75.2074C26.9254 75.1875 26.8791 75.1676 26.8328 75.1576C25.2217 74.5405 23.6662 73.8934 22.1754 73.2364C22.1384 73.2264 22.1106 73.2065 22.0736 73.1966C20.5736 72.5296 19.1476 71.8427 17.7773 71.1359C17.7588 71.126 17.7402 71.116 17.7125 71.1061C16.3421 70.3993 15.0365 69.6726 13.8143 68.926C13.8051 68.926 13.7958 68.916 13.7773 68.9061C12.5458 68.1595 11.3884 67.393 10.305 66.6066C10.305 66.6066 10.2958 66.6066 10.2865 66.5966C9.2032 65.8102 8.19394 65.0038 7.26801 64.1876C5.09209 62.4256 3.54579 60.2057 2.44394 58.0953C1.78653 56.831 -0.00976562 57.3387 -0.00976562 58.7822V77.6165C-0.00976562 97.4064 44.7588 113.453 99.9902 113.453V113.443C101.157 113.453 102.314 113.463 103.472 113.483C103.75 113.483 104.037 113.483 104.314 113.493C105.462 113.513 106.601 113.533 107.74 113.563C107.805 113.563 107.879 113.563 107.944 113.563C109.027 113.593 110.111 113.633 111.185 113.672C111.453 113.682 111.722 113.692 111.99 113.702C113.111 113.752 114.231 113.802 115.342 113.862C115.444 113.862 115.546 113.872 115.648 113.881C116.685 113.941 117.712 114.001 118.731 114.071C118.981 114.09 119.231 114.1 119.481 114.12C120.583 114.2 121.675 114.28 122.759 114.369C122.888 114.379 123.018 114.389 123.138 114.399C124.129 114.479 125.111 114.568 126.092 114.668C126.324 114.688 126.546 114.708 126.777 114.738C127.851 114.847 128.916 114.957 129.972 115.076C130.111 115.096 130.25 115.106 130.388 115.126C131.351 115.235 132.305 115.355 133.259 115.474C133.453 115.504 133.657 115.524 133.851 115.544C134.898 115.683 135.944 115.823 136.972 115.972C137.111 115.992 137.249 116.012 137.388 116.032C138.333 116.171 139.268 116.31 140.194 116.46C140.361 116.49 140.518 116.509 140.685 116.539C141.712 116.699 142.722 116.868 143.731 117.047C143.861 117.067 143.99 117.097 144.12 117.117C145.055 117.286 145.972 117.455 146.888 117.624C147.009 117.644 147.129 117.674 147.249 117.694C148.249 117.883 149.231 118.082 150.212 118.291C150.333 118.311 150.444 118.341 150.564 118.361C151.49 118.56 152.407 118.759 153.314 118.958C153.388 118.978 153.462 118.988 153.527 119.008C154.499 119.227 155.453 119.456 156.407 119.685C156.509 119.705 156.601 119.735 156.703 119.755C157.629 119.984 158.546 120.213 159.444 120.452C159.472 120.452 159.49 120.462 159.518 120.471C160.453 120.72 161.37 120.979 162.287 121.238C162.37 121.258 162.462 121.288 162.546 121.308C164.361 121.835 166.129 122.373 167.833 122.94C167.898 122.96 167.962 122.98 168.027 123.01C169.749 123.587 171.416 124.175 173.018 124.792C173.064 124.812 173.111 124.832 173.157 124.842C174.768 125.459 176.324 126.106 177.814 126.763C177.851 126.773 177.879 126.793 177.916 126.803C179.416 127.47 180.842 128.157 182.212 128.863C182.231 128.873 182.249 128.883 182.277 128.893C183.648 129.6 184.944 130.327 186.175 131.073C186.185 131.073 186.203 131.083 186.212 131.093C187.444 131.84 188.601 132.606 189.685 133.393C189.685 133.393 189.685 133.393 189.703 133.403C190.787 134.189 191.796 134.995 192.722 135.812C194.898 137.574 196.444 139.784 197.546 141.904C198.203 143.168 199.999 142.66 199.999 141.217V122.383C199.999 102.762 155.981 86.8246 101.388 86.5558L101.398 86.5359Z" fill="black"/>
</g>
<path d="M1240.27 33.3262V53.4645H1180.05V89.6352H1224.62V109.578H1180.05V146.531H1240.27V166.669H1158.34V33.3262H1240.27Z" fill="black"/>
<path d="M1131.57 166.669H1045.15V148.877L1105.17 55.4197V53.4645H1048.47V33.3262H1130.59V51.7048L1070.76 144.576V146.531H1131.57V166.669Z" fill="black"/>
<path d="M1018.14 166.669H996.434V33.3262H1018.14V166.669Z" fill="black"/>
<path d="M859.658 166.669H837.955V33.3262H859.658V166.669Z" fill="black"/>
<path d="M812.543 166.669H788.494L759.166 117.79H745.284V166.669H723.582V33.3262H768.551C797.292 33.3262 812.151 47.2079 812.151 75.1669V75.949C812.151 98.8246 802.18 112.12 783.019 116.421V118.181L812.543 166.669ZM790.84 75.949V75.1669C790.84 59.1345 786.148 53.4645 768.551 53.4645H745.284V97.847H768.551C786.148 97.847 790.84 91.7859 790.84 75.949Z" fill="black"/>
<path d="M647.637 168.624H646.464C619.874 168.624 602.668 152.983 602.668 123.264V33.3262H624.37V123.264C624.37 142.621 630.236 149.073 646.464 149.073H647.637C663.865 149.073 669.731 142.621 669.731 123.264V33.3262H691.433V123.264C691.433 152.983 674.227 168.624 647.637 168.624Z" fill="black"/>
<path d="M530.381 168.626H529.208C502.617 168.626 483.848 152.398 483.848 119.747V80.2524C483.848 47.601 502.617 31.373 529.208 31.373H530.381C556.971 31.373 575.741 47.601 575.741 80.2524H554.038C554.038 57.9634 546.609 50.9248 530.381 50.9248H529.208C512.98 50.9248 505.55 57.9634 505.55 80.2524V119.747C505.55 142.036 512.98 149.075 529.208 149.075H530.381C546.609 149.075 554.038 142.036 554.038 119.747H575.741C575.741 152.398 556.971 168.626 530.381 168.626Z" fill="black"/>
<path d="M463.736 33.3262V53.4645H403.517V89.6352H448.095V109.578H403.517V146.531H463.736V166.669H381.814V33.3262H463.736Z" fill="black"/>
<path d="M311.315 168.626H310.142C282.77 168.626 264 155.331 264 125.613H285.507C285.507 143.991 293.132 149.075 310.142 149.075H311.315C327.543 149.075 334.973 144.187 334.973 130.891C334.973 115.25 316.399 111.731 302.126 106.843C279.055 99.0221 266.151 88.6597 266.346 67.3483C266.737 43.6907 284.529 31.373 307.6 31.373H308.774C335.168 31.373 353.352 44.6682 353.352 74.5824H331.845C331.845 56.0083 324.806 50.9248 308.774 50.9248H307.6C294.892 50.9248 288.244 56.0083 288.244 67.3483C288.244 80.839 299.975 84.9449 313.27 89.0507C337.71 96.6759 356.48 106.061 356.48 130.891C356.48 156.309 338.101 168.626 311.315 168.626Z" fill="black"/>
<path d="M881.205 33.3262H975.052V53.4642H938.882V166.667H917.375V65.0252L925.968 56.6101C927.142 55.4598 926.328 53.4642 924.684 53.4642H881.205V33.3262Z" fill="black"/>
<defs>
<clipPath id="clip0_515_219">
<rect width="200" height="200" fill="white"/>
</clipPath>
</defs>
</svg>
