<svg width="269" height="102" viewBox="0 0 269 102" fill="none" xmlns="http://www.w3.org/2000/svg">
<path d="M63.1015 3.51693L53.211 0.875732L44.8761 31.8766L37.3512 3.8888L27.4604 6.53001L35.5906 36.7687L15.3402 16.5872L8.09974 23.803L30.3119 45.9399L2.65019 38.5531L0 48.4101L30.2239 56.4811C29.8778 54.9936 29.6948 53.4438 29.6948 51.8513C29.6948 40.5794 38.8636 31.4417 50.1739 31.4417C61.4843 31.4417 70.6531 40.5794 70.6531 51.8513C70.6531 53.4335 70.4723 54.9738 70.1305 56.4525L97.5984 63.7875L100.248 53.9305L69.9044 45.8274L97.568 38.4401L94.9177 28.5831L64.5749 36.6857L84.8252 16.5043L77.5847 9.28842L55.6807 31.1182L63.1015 3.51693Z" fill="#39BEB7"/>
<path d="M70.1016 56.5673C69.2536 60.1401 67.4633 63.3499 65.0069 65.9215L84.9062 85.7534L92.1467 78.5375L70.1016 56.5673Z" fill="#39BEB7"/>
<path d="M64.8061 66.1288C62.32 68.6594 59.1783 70.5478 55.6551 71.521L62.8961 98.4528L72.7866 95.8115L64.8061 66.1288Z" fill="#39BEB7"/>
<path d="M55.2857 71.6195C53.6511 72.0383 51.9378 72.2608 50.1722 72.2608C48.2806 72.2608 46.4488 72.0052 44.7099 71.5268L37.4624 98.4831L47.3529 101.124L55.2857 71.6195Z" fill="#39BEB7"/>
<path d="M44.3602 71.4274C40.8908 70.4059 37.805 68.4934 35.3697 65.9556L15.4214 85.8361L22.6619 93.052L44.3602 71.4274Z" fill="#39BEB7"/>
<path d="M35.2053 65.7798C32.8118 63.226 31.0683 60.0591 30.2384 56.5414L2.68083 63.9004L5.331 73.7574L35.2053 65.7798Z" fill="#39BEB7"/>
<path d="M120.298 53.7763V6.43323H129.706L150.159 39.3028V6.43323H158.817V53.7763H149.409L129.024 20.9743V53.7763H120.298Z" fill="#09090B"/>
<path d="M198.58 35.583C198.58 36.8004 198.511 38.2883 198.443 38.9647H172.946C173.696 44.1048 177.036 47.1483 181.945 47.1483C185.967 47.1483 188.831 45.2545 189.717 41.9405L197.761 44.1048C195.853 50.5299 189.853 54.3174 181.809 54.3174C170.423 54.3174 164.356 45.5927 164.356 36.7328C164.356 27.8729 169.946 19.1482 181.331 19.1482C192.921 19.1482 198.58 27.67 198.58 35.583ZM173.15 32.7424H189.376C188.967 28.6845 186.308 25.641 181.331 25.641C177.104 25.641 174.105 28.1434 173.15 32.7424Z" fill="#09090B"/>
<path d="M215.38 54.3174C207.063 54.3174 202.086 49.2449 200.381 44.24L207.403 41.3995C208.426 44.8487 211.085 47.6893 215.38 47.6893C218.584 47.6893 220.698 45.9985 220.698 43.8342C220.698 37.4091 201.949 41.6024 201.949 28.6845C201.949 23.3415 206.654 19.1482 214.153 19.1482C220.834 19.1482 226.492 22.5299 227.992 27.4671L221.038 30.3753C220.084 27.1289 217.084 25.4381 214.289 25.4381C211.562 25.4381 209.721 26.5878 209.721 28.5492C209.721 34.5685 228.606 29.7666 228.606 43.699C228.606 49.583 223.288 54.3174 215.38 54.3174Z" fill="#09090B"/>
<path d="M253.36 53.4381C251.656 54.0468 249.815 54.3174 247.838 54.3174C240.884 54.3174 235.703 50.5975 235.703 42.6169V26.8584H229.908V19.6893H235.703V9.67961H244.293V19.6893H252.951V26.8584H244.293V41.8053C244.293 45.0516 246.066 46.8101 248.724 46.8101C250.02 46.8101 251.52 46.6072 252.747 45.9985L253.36 53.4381Z" fill="#09090B"/>
<path d="M129.153 90.9556C127.928 90.9556 126.837 90.6882 125.879 90.1536C124.943 89.5966 124.219 88.8392 123.707 87.8813L123.606 90.5546H120.298V66.8291H123.84V75.2834C124.308 74.5037 124.999 73.8242 125.912 73.245C126.848 72.6658 127.928 72.3762 129.153 72.3762C130.691 72.3762 132.027 72.7549 133.163 73.5123C134.299 74.2698 135.168 75.3502 135.77 76.7537C136.394 78.1349 136.705 79.7723 136.705 81.6659C136.705 83.5595 136.394 85.208 135.77 86.6115C135.168 87.9927 134.299 89.062 133.163 89.8194C132.027 90.5768 130.691 90.9556 129.153 90.9556ZM128.585 87.8813C129.944 87.8813 131.025 87.3355 131.827 86.2439C132.629 85.13 133.03 83.604 133.03 81.6659C133.03 79.7277 132.629 78.2129 131.827 77.1213C131.025 76.0074 129.955 75.4505 128.619 75.4505C127.616 75.4505 126.759 75.6955 126.046 76.1856C125.333 76.6757 124.787 77.3886 124.408 78.3243C124.03 79.2376 123.84 80.3515 123.84 81.6659C123.84 82.9357 124.03 84.0384 124.408 84.9741C124.787 85.9097 125.333 86.6337 126.046 87.1461C126.759 87.6362 127.605 87.8813 128.585 87.8813Z" fill="black" fill-opacity="0.6"/>
<path d="M140.75 95.567V92.6598H142.922C143.523 92.6598 143.969 92.5707 144.259 92.3925C144.548 92.2142 144.771 91.9135 144.927 91.4902L145.495 90.0199H144.392L137.976 72.7772H141.719L146.598 86.7451L151.242 72.7772H155.019L147.934 92.6264C147.578 93.6511 147.043 94.3974 146.33 94.8653C145.64 95.3331 144.671 95.567 143.423 95.567H140.75Z" fill="black" fill-opacity="0.6"/>
<path d="M166.711 90.5546V66.8291H175.566C178.284 66.8291 180.4 67.4863 181.915 68.8007C183.43 70.0927 184.187 71.8972 184.187 74.2141C184.187 75.7512 183.842 77.0879 183.152 78.224C182.461 79.3379 181.47 80.1956 180.177 80.7971C178.908 81.3763 177.371 81.6659 175.566 81.6659H170.32V90.5546H166.711ZM170.32 78.3911H175.466C177.092 78.3911 178.328 78.0458 179.175 77.3552C180.022 76.6423 180.445 75.5953 180.445 74.2141C180.445 72.8551 180.022 71.8415 179.175 71.1732C178.328 70.4826 177.092 70.1373 175.466 70.1373H170.32V78.3911Z" fill="black" fill-opacity="0.6"/>
<path d="M192.181 90.5546C191.023 90.5546 190.087 90.2538 189.375 89.6523C188.662 89.0508 188.305 88.0929 188.305 86.7785V66.8291H191.847V86.4444C191.847 86.8454 191.948 87.1461 192.148 87.3466C192.371 87.5471 192.683 87.6474 193.084 87.6474H194.487V90.5546H192.181Z" fill="black" fill-opacity="0.6"/>
<path d="M203.29 90.9556C201.508 90.9556 200.082 90.3652 199.013 89.1845C197.966 87.9815 197.442 86.3219 197.442 84.2055V72.7772H200.985V83.3033C200.985 84.9072 201.263 86.0879 201.82 86.8454C202.377 87.6028 203.223 87.9815 204.36 87.9815C205.652 87.9815 206.654 87.5694 207.367 86.7451C208.102 85.8986 208.47 84.7179 208.47 83.203V72.7772H212.012V90.5546H208.704L208.637 85.9097L209.138 86.1102C208.826 87.6696 208.169 88.8726 207.167 89.7192C206.164 90.5434 204.872 90.9556 203.29 90.9556Z" fill="black" fill-opacity="0.6"/>
<path d="M217.022 90.5546V72.7772H220.264L220.364 77.1881L219.963 77.0544C220.163 76.0742 220.509 75.2388 220.999 74.5482C221.511 73.8576 222.135 73.323 222.87 72.9443C223.605 72.5655 224.407 72.3762 225.276 72.3762C226.791 72.3762 228.027 72.8106 228.985 73.6794C229.943 74.526 230.545 75.6955 230.79 77.1881H230.222C230.422 76.1411 230.756 75.2722 231.224 74.5816C231.714 73.8688 232.338 73.323 233.095 72.9443C233.853 72.5655 234.71 72.3762 235.668 72.3762C236.916 72.3762 237.974 72.6435 238.843 73.1782C239.734 73.6906 240.402 74.448 240.848 75.4505C241.316 76.453 241.55 77.6782 241.55 79.1262V90.5546H238.008V79.9951C238.008 78.4579 237.729 77.2995 237.172 76.5198C236.615 75.7401 235.769 75.3502 234.633 75.3502C233.897 75.3502 233.251 75.5396 232.694 75.9183C232.137 76.297 231.703 76.8428 231.391 77.5557C231.102 78.2686 230.957 79.1262 230.957 80.1287V90.5546H227.582V80.1287C227.582 78.6139 227.326 77.4443 226.813 76.62C226.323 75.7735 225.476 75.3502 224.273 75.3502C223.516 75.3502 222.859 75.5396 222.302 75.9183C221.767 76.297 221.344 76.8539 221.032 77.5891C220.72 78.302 220.564 79.1485 220.564 80.1287V90.5546H217.022Z" fill="black" fill-opacity="0.6"/>
<path d="M253.514 90.9556C251.777 90.9556 250.273 90.5768 249.003 89.8194C247.755 89.062 246.786 87.9815 246.096 86.578C245.427 85.1746 245.093 83.5372 245.093 81.6659C245.093 79.7946 245.427 78.1683 246.096 76.7871C246.786 75.3836 247.755 74.3032 249.003 73.5457C250.251 72.766 251.721 72.3762 253.414 72.3762C255.018 72.3762 256.433 72.7549 257.658 73.5123C258.883 74.2475 259.83 75.3168 260.498 76.7203C261.189 78.1238 261.534 79.8168 261.534 81.7995V82.7018H248.769C248.858 84.4394 249.315 85.7426 250.139 86.6115C250.986 87.4803 252.122 87.9147 253.548 87.9147C254.595 87.9147 255.463 87.6696 256.154 87.1795C256.845 86.6894 257.324 86.0323 257.591 85.208L261.267 85.4419C260.799 87.0904 259.874 88.4271 258.493 89.4518C257.134 90.4543 255.475 90.9556 253.514 90.9556ZM248.769 80.0285H257.791C257.68 78.4468 257.223 77.2772 256.421 76.5198C255.642 75.7624 254.639 75.3836 253.414 75.3836C252.144 75.3836 251.097 75.7846 250.273 76.5866C249.471 77.3663 248.97 78.5136 248.769 80.0285Z" fill="black" fill-opacity="0.6"/>
</svg>
