<svg width="100" height="100" viewBox="0 0 100 100" fill="none" xmlns="http://www.w3.org/2000/svg">
<path d="M62.9451 2.63465L53.0791 0L44.7649 30.924L37.2586 3.0056L27.3923 5.64026L35.5024 35.804L15.3022 15.6725L8.07966 22.8705L30.2368 44.9525L2.64362 37.584L0 47.4165L30.149 55.4675C29.8038 53.9838 29.6212 52.4378 29.6212 50.8493C29.6212 39.6053 38.7672 30.4902 50.0496 30.4902C61.3319 30.4902 70.478 39.6053 70.478 50.8493C70.478 52.4275 70.2976 53.964 69.9567 55.439L97.3565 62.7558L100 52.9233L69.7312 44.8403L97.3262 37.4713L94.6824 27.6387L64.4149 35.7213L84.615 15.5898L77.3924 8.39184L55.5427 30.1675L62.9451 2.63465Z" fill="#39BEB7"/>
<path d="M69.9278 55.5535C69.082 59.1175 67.2962 62.3193 64.8458 64.8846L84.6958 84.6674L91.9183 77.4693L69.9278 55.5535Z" fill="#39BEB7"/>
<path d="M64.6454 65.0914C62.1655 67.6156 59.0316 69.4994 55.5172 70.4701L62.7402 97.3352L72.6062 94.7004L64.6454 65.0914Z" fill="#39BEB7"/>
<path d="M55.1487 70.5684C53.5181 70.9862 51.8091 71.2082 50.0478 71.2082C48.1609 71.2082 46.3337 70.9532 44.5991 70.4759L37.3695 97.3655L47.2355 100L55.1487 70.5684Z" fill="#39BEB7"/>
<path d="M44.2502 70.3768C40.7895 69.3578 37.7113 67.4501 35.282 64.9185L15.3832 84.7498L22.6057 91.9479L44.2502 70.3768Z" fill="#39BEB7"/>
<path d="M35.118 64.7432C32.7304 62.1957 30.9913 59.0367 30.1635 55.5277L2.67418 62.8685L5.31779 72.701L35.118 64.7432Z" fill="#39BEB7"/>
</svg>
