<svg width="300" height="300" viewBox="0 0 300 300" fill="none" xmlns="http://www.w3.org/2000/svg">
<path fill-rule="evenodd" clip-rule="evenodd" d="M106.25 189.72V235.898C106.25 238.298 103.658 239.802 101.574 238.612L21.899 193.083C19.9517 191.97 18.7499 189.899 18.7499 187.656V90.4182C18.7499 88.0187 21.342 86.5145 23.4253 87.7049L62.4998 110.033V163.158L106.25 189.72Z" fill="#3864FF" fill-opacity="0.25"/>
<path fill-rule="evenodd" clip-rule="evenodd" d="M193.75 189.72V235.898C193.75 238.298 196.342 239.802 198.426 238.612L278.101 193.083C280.048 191.97 281.25 189.899 281.25 187.656V90.4182C281.25 88.0187 278.658 86.5145 276.575 87.7049L237.5 110.033V163.158L193.75 189.72Z" fill="#3864FF" fill-opacity="0.25"/>
<path d="M62.5001 65.4186C62.5001 63.0192 65.0923 61.5149 67.1756 62.7054L148.45 109.148C149.41 109.697 150.59 109.697 151.551 109.148L232.825 62.7054C234.908 61.5149 237.5 63.0192 237.5 65.4186V163.159L151.622 215.299C150.625 215.904 149.375 215.904 148.378 215.299L62.5001 163.159V65.4186Z" fill="url(#paint0_linear_14_1121)"/>
<defs>
<linearGradient id="paint0_linear_14_1121" x1="75.0001" y1="180.847" x2="237.5" y2="58.9717" gradientUnits="userSpaceOnUse">
<stop offset="0.16" stop-color="#3864FF"/>
<stop offset="0.56" stop-color="#6083FF"/>
<stop offset="1" stop-color="#3864FF"/>
</linearGradient>
</defs>
</svg>
