<svg width="300" height="300" viewBox="0 0 300 300" fill="none" xmlns="http://www.w3.org/2000/svg">
<path fill-rule="evenodd" clip-rule="evenodd" d="M106.249 191.037V238.876C106.249 241.327 103.592 242.856 101.473 241.624L21.9119 195.379C19.954 194.24 18.7493 192.147 18.7493 189.882V90.9877C18.7493 88.5366 21.4063 87.0077 23.5254 88.2395L63.2523 111.331V164.932L106.249 191.037Z" fill="white" fill-opacity="0.45"/>
<path fill-rule="evenodd" clip-rule="evenodd" d="M193.75 193.778V238.876C193.75 241.327 196.407 242.856 198.526 241.624L278.087 195.379C280.045 194.24 281.25 192.147 281.25 189.882V90.9877C281.25 88.5366 278.593 87.0077 276.474 88.2395L241.261 108.707V164.932L193.75 193.778Z" fill="white" fill-opacity="0.45"/>
<path d="M63.2512 65.5112C63.2512 63.0705 65.8879 61.5404 68.007 62.7513L150.679 109.992C151.656 110.551 152.856 110.551 153.833 109.992L236.504 62.7513C238.623 61.5404 241.26 63.0705 241.26 65.5112V164.932L153.905 217.969C152.892 218.584 151.62 218.584 150.606 217.969L63.2512 164.932V65.5112Z" fill="url(#paint0_linear_14_1130)"/>
<defs>
<linearGradient id="paint0_linear_14_1130" x1="75.9662" y1="182.924" x2="241.26" y2="58.9534" gradientUnits="userSpaceOnUse">
<stop offset="0.16" stop-color="white"/>
<stop offset="0.56" stop-color="white" stop-opacity="0.7"/>
<stop offset="1" stop-color="white"/>
</linearGradient>
</defs>
</svg>
