<svg width="852" height="317" viewBox="0 0 852 317" fill="none" xmlns="http://www.w3.org/2000/svg">
<path fill-rule="evenodd" clip-rule="evenodd" d="M158.57 185.051H132.191H105.811V132.241V105.836H184.948V132.24H211.328V105.835H184.95V79.4314H79.4316V185.051H105.811V211.456H184.95V132.241H132.191V158.646H158.57V185.051ZM105.811 211.458H79.4316V237.863H105.811V211.458ZM635.564 202.327V112.813H649.018V202.327H635.564ZM359.034 147.7H344.694L344.65 147.353C343.772 140.385 341.336 135.205 336.963 131.756C332.582 128.3 326.195 126.534 317.313 126.534C307.196 126.534 300.076 129.424 295.473 134.962C290.858 140.515 288.711 148.802 288.711 159.725C288.711 170.525 290.733 178.811 295.301 184.395C299.856 189.962 307.005 192.916 317.439 192.916C327.239 192.916 333.808 190.152 338.132 185.854C342.362 181.651 344.492 175.933 345.351 169.754H309.826V159.329H358.861V202.327H346.293V186.305C341.766 197.442 331.052 204.482 315.54 204.482C301.261 204.482 290.918 199.628 284.151 191.571C277.393 183.525 274.245 172.333 274.245 159.725C274.245 147.175 277.586 135.98 284.727 127.918C291.876 119.849 302.787 114.968 317.819 114.968C330.851 114.968 340.575 117.831 347.334 123.327C354.1 128.828 357.837 136.921 358.985 147.26L359.034 147.7ZM390.345 165.418L406.173 162.756C409.197 162.252 411.329 161.536 412.704 160.444C414.048 159.377 414.706 157.917 414.706 155.796C414.706 153.016 413.969 150.744 411.975 149.15C409.958 147.538 406.586 146.559 401.174 146.559C396.027 146.559 392.298 147.597 389.784 149.565C387.282 151.523 385.924 154.448 385.613 158.362L385.585 158.727H372.157L372.161 158.327C372.225 151.503 374.803 145.904 379.67 142.019C384.526 138.144 391.62 136.008 400.667 136.008C409.458 136.008 416.078 138.016 420.508 141.544C424.95 145.081 427.147 150.113 427.147 156.049V187.482C427.147 192.161 427.273 195.952 427.779 201.897L427.815 202.327H415.505L415.468 201.971C415.035 197.741 414.786 193.972 414.723 189.796C411.649 197.173 404.647 203.975 392.183 203.975C385.658 203.975 380.3 202.213 376.569 198.933C372.831 195.647 370.768 190.875 370.768 184.947C370.768 179.81 372.053 175.517 375.182 172.206C378.302 168.904 383.21 166.63 390.345 165.418ZM414.706 168.095C411.353 170.36 407.489 171.318 403.923 172.151L395.185 174.179C391.284 175.061 388.546 176.246 386.787 177.886C385.046 179.508 384.222 181.613 384.222 184.44C384.222 187.377 385.287 189.604 387.116 191.105C388.956 192.614 391.611 193.423 394.842 193.423C401.382 193.423 406.332 190.966 409.654 186.975C412.984 182.975 414.706 177.401 414.706 171.132V168.095ZM498.553 138.162H485.099V165.302C485.099 174.703 483.301 181.646 480.151 186.228C477.015 190.789 472.518 193.043 467.008 193.043C462.803 193.043 459.222 192.255 456.688 189.901C454.159 187.551 452.589 183.562 452.589 176.962V138.162H439.135V178.103C439.135 186.447 440.819 193.024 444.692 197.516C448.574 202.02 454.591 204.355 463.082 204.355C469.112 204.355 473.883 202.684 477.616 199.821C480.86 197.333 483.299 193.961 485.099 190.047V202.327H498.553V138.162ZM572.375 202.327H558.922V163.527C558.922 156.924 557.413 152.931 555.005 150.582C552.597 148.232 549.209 147.446 545.262 147.446C539.151 147.446 534.475 149.406 531.306 153.794C528.118 158.209 526.411 165.142 526.411 175.188V202.327H512.957V138.162H526.411V150.849C528.269 146.853 530.772 143.38 534.099 140.811C537.91 137.87 542.777 136.134 548.934 136.134C557.426 136.134 563.319 138.469 567.076 142.978C570.82 147.472 572.375 154.048 572.375 162.387V202.327ZM579.421 139.273V148.714H591.45V183.299C591.45 189.654 592.397 194.448 595.371 197.638C598.35 200.835 603.272 202.327 610.966 202.327H623.897V191.395H604.904V148.714H625.163V138.162H604.904V123.84H597.919L591.578 138.185L579.421 139.273ZM723.192 182.396H710.789L710.71 182.69C709.842 185.917 708.176 188.778 705.336 190.837C702.493 192.898 698.435 194.184 692.732 194.184C687.339 194.184 682.704 192.991 679.291 189.882C675.941 186.831 673.704 181.874 673.149 174.19H722.954L723.006 173.854C723.264 172.176 723.264 170.629 723.264 168.989V168.977C723.264 159.843 720.647 151.631 715.458 145.696C710.262 139.755 702.519 136.134 692.352 136.134C681.427 136.134 673.303 139.943 667.916 146.125C662.536 152.298 659.92 160.795 659.92 170.118C659.92 179.558 662.31 188.121 667.58 194.329C672.86 200.548 680.988 204.355 692.352 204.355C703.571 204.355 710.984 201.227 715.741 196.95C720.493 192.677 722.554 187.291 723.134 182.844L723.192 182.396ZM705.305 150.706C708.216 153.604 709.927 158.018 710.294 164.145H673.295C674.09 157.416 676.226 153.001 679.41 150.249C682.665 147.437 687.083 146.306 692.479 146.306C698.047 146.306 702.332 147.745 705.305 150.706ZM726.826 148.714V139.273L738.983 138.185L745.325 123.84H752.309V138.162H772.569V148.714H752.309V191.395H771.302V202.327H758.371C750.677 202.327 745.756 200.835 742.776 197.638C739.802 194.448 738.855 189.654 738.855 183.299V148.714H726.826ZM672.737 173.967C672.741 174.036 672.746 174.105 672.751 174.173L672.743 174.061L672.737 173.967Z" fill="#FBFAFF"/>
</svg>
