<svg width="852" height="317" viewBox="0 0 852 317" fill="none" xmlns="http://www.w3.org/2000/svg">
<path fill-rule="evenodd" clip-rule="evenodd" d="M132.191 185.051H158.57V158.646H132.191V132.241H184.95V211.456H105.811V185.051H79.4316V79.4314H184.95V105.836H105.811V132.241V185.051H132.191Z" fill="#7180F5"/>
<path d="M211.328 105.835H184.948V132.24H211.328V105.835Z" fill="#FF8099"/>
<path d="M105.811 211.458H79.4316V237.862H105.811V211.458Z" fill="#1E1C2D"/>
<path d="M344.694 147.7H359.034L358.985 147.26C357.838 136.921 354.1 128.828 347.335 123.327C340.576 117.831 330.851 114.968 317.819 114.968C302.788 114.968 291.876 119.849 284.728 127.918C277.587 135.98 274.245 147.174 274.245 159.725C274.245 172.333 277.394 183.524 284.151 191.571C290.918 199.628 301.262 204.482 315.54 204.482C331.052 204.482 341.766 197.442 346.294 186.305V202.327H358.861V159.329H309.826V169.753H345.351C344.493 175.933 342.362 181.651 338.133 185.854C333.808 190.152 327.239 192.916 317.44 192.916C307.005 192.916 299.856 189.962 295.302 184.395C290.733 178.811 288.712 170.525 288.712 159.725C288.712 148.802 290.859 140.515 295.474 134.962C300.077 129.424 307.196 126.533 317.313 126.533C326.195 126.533 332.582 128.3 336.964 131.756C341.336 135.205 343.773 140.385 344.651 147.353L344.694 147.7Z" fill="#1E1C2D"/>
<path fill-rule="evenodd" clip-rule="evenodd" d="M406.173 162.756L390.345 165.418C383.21 166.63 378.303 168.903 375.182 172.206C372.053 175.517 370.769 179.81 370.769 184.947C370.769 190.875 372.832 195.647 376.569 198.933C380.301 202.213 385.658 203.975 392.184 203.975C404.647 203.975 411.649 197.173 414.723 189.796C414.787 193.972 415.035 197.741 415.469 201.971L415.505 202.327H427.816L427.779 201.897C427.274 195.952 427.148 192.161 427.148 187.482V156.049C427.148 150.113 424.951 145.081 420.509 141.544C416.078 138.016 409.459 136.008 400.667 136.008C391.62 136.008 384.527 138.144 379.67 142.019C374.803 145.904 372.226 151.503 372.161 158.327L372.158 158.727H385.585L385.614 158.362C385.924 154.448 387.282 151.522 389.784 149.564C392.298 147.597 396.027 146.559 401.174 146.559C406.586 146.559 409.958 147.538 411.975 149.15C413.969 150.744 414.707 153.015 414.707 155.796C414.707 157.917 414.048 159.377 412.704 160.444C411.33 161.536 409.197 162.252 406.173 162.756ZM403.923 172.151C407.489 171.318 411.354 170.36 414.707 168.095V171.132C414.707 177.401 412.984 182.975 409.654 186.975C406.332 190.965 401.382 193.423 394.843 193.423C391.611 193.423 388.956 192.614 387.116 191.105C385.287 189.604 384.222 187.377 384.222 184.44C384.222 181.612 385.046 179.508 386.787 177.886C388.547 176.246 391.285 175.061 395.185 174.179L403.923 172.151Z" fill="#1E1C2D"/>
<path d="M498.553 138.162H485.1V165.302C485.1 174.703 483.302 181.646 480.152 186.228C477.016 190.789 472.518 193.043 467.008 193.043C462.803 193.043 459.223 192.255 456.689 189.901C454.159 187.551 452.589 183.562 452.589 176.962V138.162H439.135V178.103C439.135 186.447 440.82 193.024 444.692 197.516C448.575 202.02 454.591 204.355 463.083 204.355C469.112 204.355 473.884 202.684 477.616 199.821C480.86 197.333 483.299 193.96 485.1 190.047V202.327H498.553V138.162Z" fill="#1E1C2D"/>
<path d="M558.922 202.327H572.376V162.386C572.376 154.048 570.82 147.472 567.076 142.978C563.32 138.469 557.426 136.134 548.935 136.134C542.777 136.134 537.91 137.87 534.1 140.811C530.772 143.38 528.27 146.852 526.411 150.849V138.162H512.958V202.327H526.411V175.188C526.411 165.142 528.118 158.209 531.306 153.794C534.475 149.406 539.152 147.446 545.262 147.446C549.209 147.446 552.597 148.232 555.005 150.582C557.413 152.931 558.922 156.924 558.922 163.527V202.327Z" fill="#1E1C2D"/>
<path d="M579.421 139.273V148.714H591.45V183.299C591.45 189.654 592.397 194.448 595.371 197.638C598.351 200.835 603.272 202.327 610.966 202.327H623.898V191.395H604.904V148.714H625.164V138.162H604.904V123.84H597.92L591.578 138.185L579.421 139.273Z" fill="#1E1C2D"/>
<path d="M635.565 112.813V202.327H649.018V112.813H635.565Z" fill="#1E1C2D"/>
<path fill-rule="evenodd" clip-rule="evenodd" d="M723.193 182.396H710.789L710.71 182.689C709.842 185.916 708.176 188.778 705.336 190.837C702.494 192.898 698.435 194.184 692.732 194.184C687.34 194.184 682.704 192.991 679.291 189.882C675.941 186.831 673.704 181.874 673.149 174.19H722.955L723.006 173.854C723.264 172.176 723.264 170.629 723.264 168.989V168.977C723.264 159.842 720.648 151.63 715.458 145.696C710.262 139.755 702.52 136.134 692.352 136.134C681.427 136.134 673.304 139.943 667.916 146.124C662.536 152.297 659.921 160.795 659.921 170.118C659.921 179.558 662.31 188.121 667.581 194.329C672.86 200.548 680.988 204.355 692.352 204.355C703.571 204.355 710.985 201.227 715.741 196.95C720.494 192.676 722.555 187.291 723.134 182.844L723.193 182.396ZM672.726 173.793C672.734 173.921 672.742 174.047 672.751 174.173C672.749 174.136 672.746 174.098 672.743 174.06C672.737 173.972 672.731 173.883 672.726 173.793ZM722.725 182.918C722.717 182.977 722.709 183.037 722.7 183.097C722.708 183.043 722.715 182.989 722.723 182.936L722.725 182.918ZM705.305 150.706C708.216 153.604 709.927 158.018 710.295 164.145H673.295C674.091 157.416 676.226 153.001 679.41 150.249C682.666 147.437 687.083 146.306 692.479 146.306C698.048 146.306 702.332 147.745 705.305 150.706Z" fill="#1E1C2D"/>
<path d="M726.826 139.273V148.714H738.856V183.299C738.856 189.654 739.803 194.448 742.777 197.638C745.756 200.835 750.678 202.327 758.371 202.327H771.303V191.395H752.309V148.714H772.569V138.162H752.309V123.84H745.325L738.984 138.185L726.826 139.273Z" fill="#1E1C2D"/>
</svg>
