<svg width="32" height="32" viewBox="0 0 32 32" fill="none" xmlns="http://www.w3.org/2000/svg"><path opacity="0.3" d="m3.341 15.228 10.784 14.859c0.911 1.263 2.794 1.257 3.698 -0.012l10.638 -15.554a2.276 2.276 0 0 0 -0.023 -2.669l-5.585 -7.897a2.274 2.274 0 0 0 -2.913 -0.65l-15.836 8.592c-1.207 0.653 -1.564 2.218 -0.762 3.331" fill="#00B4FE"/><path d="M31.899 20.866 27.52 5.213a1.3 1.3 0 0 0 -0.754 -0.85L16.471 0.099a1.3 1.3 0 0 0 -0.995 0l-10.295 4.264a1.3 1.3 0 0 0 -0.754 0.85L0.048 20.866a1.3 1.3 0 0 0 0.18 1.085l4.121 6.008a1.3 1.3 0 0 0 0.665 0.5l10.553 3.475a1.296 1.296 0 0 0 0.813 0l10.553 -3.475a1.3 1.3 0 0 0 0.665 -0.5l4.121 -6.008a1.3 1.3 0 0 0 0.18 -1.085zm-3.44 -6.345 -10.638 15.554c-0.903 1.269 -2.786 1.275 -3.698 0.011L3.34 15.226c-0.802 -1.113 -0.445 -2.677 0.762 -3.331l15.836 -8.592a2.274 2.274 0 0 1 2.913 0.65l5.585 7.897a2.276 2.276 0 0 1 0.023 2.67" fill="#00B4FE"/></svg>