<svg width="160" height="160" viewBox="0 0 160 160" fill="none" xmlns="http://www.w3.org/2000/svg">
<path opacity="0.3" d="M16.7043 76.1387L70.6217 150.436C75.1779 156.751 84.5939 156.723 89.11 150.378L142.3 72.6083C145.148 68.6024 145.102 63.2209 142.185 59.2608L114.258 19.7741C110.894 15.2122 104.681 13.8253 99.6952 16.5246L20.5154 59.4843C14.4807 62.751 12.6926 70.5738 16.7043 76.1387Z" fill="#00B4FE"/>
<path d="M159.493 104.329L137.6 26.0661C137.062 24.1462 135.675 22.5759 133.829 21.8137L82.3532 0.4943C80.76 -0.164767 78.9719 -0.164767 77.3787 0.4943L25.9027 21.8137C24.0573 22.5759 22.6704 24.1462 22.1317 26.0661L0.239197 104.329C-0.276595 106.18 0.0500729 108.169 1.13897 109.756L21.742 139.798C22.55 140.973 23.7134 141.85 25.066 142.297L77.8315 159.673C79.1496 160.109 80.5766 160.109 81.8947 159.673L134.66 142.297C136.013 141.85 137.182 140.973 137.984 139.798L158.587 109.756C159.676 108.169 160.003 106.186 159.487 104.329H159.493ZM142.294 72.602L89.1044 150.372C84.5883 156.716 75.1723 156.745 70.6161 150.429L16.6987 76.1323C12.687 70.5675 14.475 62.7446 20.5098 59.4779L99.6895 16.5182C104.676 13.8189 110.888 15.2058 114.252 19.7677L142.179 59.2544C145.096 63.2088 145.142 68.596 142.294 72.602Z" fill="#00B4FE"/>
</svg>
