<?xml version="1.0" encoding="UTF-8"?><svg id="Layer_1" xmlns="http://www.w3.org/2000/svg" viewBox="0 0 2038.53 552.44"><defs><style>.cls-1,.cls-2{fill:#00b4fe;}.cls-2{opacity:.5;}</style></defs><path class="cls-1" d="M505.78,387.71v-206.65h108.05c12.99,0,24.55,2.51,34.69,7.53,10.13,5.02,18.05,12.1,23.76,21.26,5.71,9.15,8.56,19.53,8.56,31.14,0,13.19-4.53,24.65-13.58,34.39-9.05,9.74-21.06,16.19-36.02,19.34,8.07,1.18,15.06,4.09,20.96,8.71,5.9,4.63,10.33,10.68,13.28,18.16l24.8,66.13h-49.01l-21.26-58.75c-1.38-3.74-3.69-6.64-6.94-8.71-3.25-2.07-7.14-3.1-11.66-3.1h-49.6v70.56h-46.05ZM609.1,277c8.27,0,14.76-2.75,19.48-8.27,4.72-5.51,7.09-11.91,7.09-19.19s-2.32-13.92-6.94-19.34c-4.63-5.41-11.17-8.12-19.63-8.12h-57.27v54.91h57.27Z"/><path class="cls-1" d="M724.04,382.25c-12.69-7.18-22.44-17.22-29.23-30.11-6.79-12.89-10.18-27.5-10.18-43.84s3.54-31.04,10.63-43.54c7.09-12.5,16.92-22.14,29.52-28.93,12.59-6.79,27.06-10.18,43.4-10.18s31.39,3.54,43.99,10.63c12.59,7.09,22.33,16.88,29.23,29.37,6.89,12.5,10.33,26.72,10.33,42.66,0,16.93-3.54,31.79-10.63,44.58-7.09,12.8-16.93,22.69-29.52,29.67-12.6,6.98-27.06,10.48-43.4,10.48s-31.44-3.59-44.13-10.78ZM795.63,342.25c6.89-8.46,10.33-19.78,10.33-33.95s-3.45-24.4-10.33-32.47c-6.89-8.07-16.04-12.1-27.45-12.1s-20.57,4.04-27.45,12.1c-6.89,8.07-10.33,18.89-10.33,32.47s3.44,25.49,10.33,33.95c6.89,8.46,16.04,12.69,27.45,12.69s20.56-4.23,27.45-12.69Z"/><path class="cls-1" d="M902.1,382.25c-12.69-7.18-22.44-17.22-29.23-30.11-6.79-12.89-10.18-27.5-10.18-43.84s3.54-31.04,10.63-43.54c7.09-12.5,16.87-22.14,29.37-28.93,12.5-6.79,26.81-10.18,42.95-10.18,14.95,0,28.24,2.91,39.85,8.71,11.61,5.81,20.66,13.73,27.16,23.76,6.49,10.04,9.94,21.36,10.33,33.95h-44.28c-1.18-8.46-4.77-15.3-10.78-20.52-6.01-5.21-13.43-7.82-22.29-7.82-11.22,0-20.22,4.04-27.01,12.1-6.79,8.07-10.18,18.89-10.18,32.47s3.44,25.49,10.33,33.95c6.89,8.46,16.04,12.69,27.45,12.69,8.66,0,15.89-2.61,21.7-7.82,5.8-5.21,9.4-12.25,10.78-21.11h44.28c-1.18,13.39-5.12,25.14-11.81,35.28-6.69,10.14-15.65,17.96-26.86,23.47-11.22,5.51-23.91,8.27-38.08,8.27-16.73,0-31.44-3.59-44.13-10.78Z"/><path class="cls-1" d="M1084.98,387.71h-45.46v-220.47h45.46v122.76l56.98-58.75h55.8l-56.98,56.09,63.77,100.37h-52.25l-43.4-69.08-23.91,23.62v45.46Z"/><path class="cls-1" d="M1250.55,384.46c-14.17-5.71-25.34-13.82-33.51-24.36-8.17-10.53-12.74-22.98-13.73-37.34h46.94c1.77,9.65,6.79,17.08,15.06,22.29,8.27,5.22,19.68,7.82,34.24,7.82,11.02,0,19.43-1.82,25.24-5.46,5.8-3.64,8.71-8.81,8.71-15.5,0-5.9-1.97-10.43-5.9-13.58-3.94-3.15-11.12-6.2-21.55-9.15l-31.59-9.15c-13.19-3.74-24.35-7.82-33.51-12.25-9.15-4.43-16.78-10.67-22.88-18.75-6.1-8.07-9.15-18.4-9.15-31,0-11.61,3.1-22.14,9.3-31.59,6.2-9.45,15.15-16.92,26.86-22.44,11.71-5.51,25.43-8.27,41.18-8.27,17.12,0,32.33,3.05,45.61,9.15,13.28,6.1,23.71,14.66,31.29,25.68,7.57,11.02,11.66,23.72,12.25,38.08h-46.64c-.4-9.45-4.33-17.22-11.81-23.32-7.48-6.1-18.11-9.15-31.88-9.15-9.65,0-17.17,1.73-22.58,5.17-5.42,3.45-8.12,8.12-8.12,14.02s2.56,10.73,7.68,13.87c5.11,3.15,14.17,6.79,27.16,10.92l29.23,9.15c13.38,4.13,24.3,8.32,32.77,12.55,8.46,4.23,15.4,10.14,20.81,17.71,5.41,7.58,8.12,17.47,8.12,29.67s-3.3,24.01-9.89,33.65c-6.6,9.65-15.94,17.08-28.05,22.29-12.1,5.21-26.23,7.82-42.36,7.82-18.7,0-35.13-2.86-49.3-8.56Z"/><path class="cls-1" d="M1428.41,382.25c-12.69-7.18-22.44-17.22-29.23-30.11-6.79-12.89-10.18-27.5-10.18-43.84s3.54-31.04,10.63-43.54c7.09-12.5,16.92-22.14,29.52-28.93,12.59-6.79,27.06-10.18,43.4-10.18s31.39,3.54,43.99,10.63c12.59,7.09,22.33,16.88,29.23,29.37,6.89,12.5,10.33,26.72,10.33,42.66,0,16.93-3.54,31.79-10.63,44.58-7.09,12.8-16.93,22.69-29.52,29.67-12.6,6.98-27.06,10.48-43.4,10.48s-31.44-3.59-44.13-10.78ZM1500,342.25c6.89-8.46,10.33-19.78,10.33-33.95s-3.45-24.4-10.33-32.47c-6.89-8.07-16.04-12.1-27.45-12.1s-20.57,4.04-27.45,12.1c-6.89,8.07-10.33,18.89-10.33,32.47s3.44,25.49,10.33,33.95c6.89,8.46,16.04,12.69,27.45,12.69s20.56-4.23,27.45-12.69Z"/><path class="cls-1" d="M1618.08,387.71h-45.46v-220.47h45.46v220.47Z"/><path class="cls-1" d="M1688.34,387.71h-45.46v-156.46h45.46v156.46Z"/><path class="cls-1" d="M1740.59,382.25c-11.22-7.18-20.03-17.17-26.42-29.96-6.4-12.79-9.59-27.35-9.59-43.69s3.1-30.5,9.3-43.1c6.2-12.59,14.76-22.39,25.68-29.37,10.92-6.98,23.27-10.48,37.05-10.48,10.04,0,19.19,1.82,27.45,5.46,8.27,3.64,15.06,8.71,20.37,15.2v-79.07h45.46v220.47h-36.61l-3.84-25.09c-3.94,9.45-10.33,16.88-19.19,22.29-8.86,5.41-19.39,8.12-31.59,8.12-14.17,0-26.86-3.59-38.08-10.78ZM1814.1,342.69c6.89-8.75,10.33-20.12,10.33-34.1s-3.45-24.3-10.33-32.77c-6.89-8.46-15.75-12.69-26.57-12.69s-19.68,4.28-26.57,12.84c-6.89,8.56-10.33,19.63-10.33,33.21s3.44,25,10.33,33.65c6.89,8.66,15.74,12.99,26.57,12.99s19.68-4.38,26.57-13.14Z"/><rect class="cls-1" x="1642.88" y="167.24" width="45.46" height="45.46"/><rect class="cls-1" x="1889.36" y="342.55" width="45.46" height="45.46"/><path class="cls-2" d="M155,273.65l94.08,129.64c7.95,11.02,24.38,10.97,32.26-.1l92.81-135.7c4.97-6.99,4.89-16.38-.2-23.29l-48.73-68.9c-5.87-7.96-16.71-10.38-25.41-5.67l-138.16,74.96c-10.53,5.7-13.65,19.35-6.65,29.06Z"/><path class="cls-1" d="M404.15,322.84l-38.2-136.56c-.94-3.35-3.36-6.09-6.58-7.42l-89.82-37.2c-2.78-1.15-5.9-1.15-8.68,0l-89.82,37.2c-3.22,1.33-5.64,4.07-6.58,7.42l-38.2,136.56c-.9,3.23-.33,6.7,1.57,9.47l35.95,52.42c1.41,2.05,3.44,3.58,5.8,4.36l92.07,30.32c2.3.76,4.79.76,7.09,0l92.07-30.32c2.36-.78,4.4-2.31,5.8-4.36l35.95-52.42c1.9-2.77,2.47-6.23,1.57-9.47ZM374.14,267.48l-92.81,135.7c-7.88,11.07-24.31,11.12-32.26.1l-94.08-129.64c-7-9.71-3.88-23.36,6.65-29.06l138.16-74.96c8.7-4.71,19.54-2.29,25.41,5.67l48.73,68.9c5.09,6.9,5.17,16.3.2,23.29Z"/></svg>