<svg width="412" height="158" viewBox="0 0 412 158" fill="none" xmlns="http://www.w3.org/2000/svg">
<path d="M63.0935 114.171C64.4619 117.816 65.6524 121.588 65.5996 125.481C65.4228 138.541 57.3619 150.765 44.3923 155.619C27.5081 161.937 8.69864 153.372 2.38018 136.488C-3.93828 119.604 4.62694 100.794 21.5111 94.4758C21.8149 94.3622 22.1194 94.2533 22.4243 94.1492L31.4486 117.7C31.0715 117.777 30.6955 117.885 30.3235 118.024C26.4449 119.476 24.4773 123.797 25.9288 127.676C27.3802 131.554 31.7012 133.522 35.5798 132.07C39.4585 130.619 41.4261 126.298 39.9746 122.419C39.9363 122.317 39.896 122.216 39.8537 122.116L24.8571 82.9625L24.7692 83.0065L23.4927 79.4943C12.2082 49.1315 27.6269 15.3484 57.9802 3.9895C88.3756 -7.3852 122.237 8.03417 133.612 38.4296L134.201 40.0033C145.174 69.3271 131.151 102.097 102.361 114.404C92.9019 118.447 82.6959 120.395 72.4429 120.133L62.4658 94.2076L70.5217 94.8613C78.0223 95.4699 85.5583 94.2421 92.4778 91.2841C108.911 84.2591 116.916 65.554 110.652 48.8158L110.063 47.2421C103.555 29.8521 84.1826 21.0303 66.7926 27.5381C49.4026 34.0458 40.5808 53.4187 47.0886 70.8087L50.1284 79.1725L50.1087 79.161L50.6488 80.6045L55.384 93.633L63.0935 114.171Z" fill="#1A1A1A"/>
<path d="M230.732 110.991C226.39 110.991 222.642 109.92 219.489 107.779C216.336 105.637 213.897 102.782 212.172 99.2125C210.507 95.5838 209.674 91.5982 209.674 87.2556C209.674 82.7346 210.626 78.6895 212.529 75.1202C214.492 71.4915 217.258 68.6361 220.828 66.5541C224.456 64.4126 228.769 63.3418 233.766 63.3418C238.704 63.3418 242.897 64.4126 246.348 66.5541C249.857 68.6361 252.534 71.4915 254.378 75.1202C256.282 78.6895 257.234 82.6751 257.234 87.0771V109.92H246.972V101.443H246.794C245.901 103.109 244.741 104.685 243.314 106.172C241.886 107.6 240.131 108.76 238.049 109.652C235.967 110.545 233.528 110.991 230.732 110.991ZM233.498 102.246C236.175 102.246 238.495 101.592 240.458 100.283C242.481 98.9151 244.028 97.1007 245.098 94.8402C246.229 92.5202 246.794 89.9325 246.794 87.0771C246.794 84.2218 246.258 81.6936 245.188 79.4925C244.117 77.232 242.6 75.4474 240.637 74.1387C238.674 72.7705 236.324 72.0864 233.588 72.0864C230.732 72.0864 228.293 72.7705 226.271 74.1387C224.248 75.4474 222.701 77.232 221.631 79.4925C220.56 81.753 220.025 84.311 220.025 87.1664C220.025 89.9623 220.56 92.5202 221.631 94.8402C222.701 97.1007 224.218 98.9151 226.181 100.283C228.204 101.592 230.643 102.246 233.498 102.246Z" fill="#1A1A1A"/>
<path d="M264.691 109.92V77.351C264.691 73.3059 265.822 70.1531 268.082 67.8926C270.402 65.5726 273.585 64.4126 277.63 64.4126H288.605V73.1572H279.504C278.076 73.1572 276.946 73.5736 276.113 74.4064C275.34 75.2392 274.953 76.3695 274.953 77.7972V109.92H264.691Z" fill="#1A1A1A"/>
<path d="M314.375 109.92C309.259 109.92 304.768 108.968 300.901 107.065C297.094 105.102 294.119 102.425 291.978 99.034C289.836 95.5838 288.766 91.6279 288.766 87.1664C288.766 82.4669 289.717 78.3325 291.621 74.7633C293.525 71.1941 296.142 68.3982 299.473 66.3756C302.805 64.3531 306.642 63.3418 310.984 63.3418C315.862 63.3418 319.877 64.3828 323.03 66.4649C326.183 68.5469 328.503 71.3428 329.99 74.8525C331.537 78.3623 332.31 82.2884 332.31 86.631C332.31 87.2259 332.28 87.91 332.221 88.6833C332.161 89.4566 332.072 90.0515 331.953 90.4679H299.652C300.009 92.8474 300.871 94.8402 302.239 96.4463C303.608 97.993 305.333 99.1828 307.415 100.016C309.497 100.789 311.817 101.176 314.375 101.176H326.599V109.92H314.375ZM299.563 83.5079H322.049C321.989 82.3777 321.811 81.2474 321.513 80.1171C321.275 78.9869 320.859 77.9161 320.264 76.9048C319.729 75.8936 319.015 75.031 318.123 74.3172C317.29 73.5438 316.278 72.949 315.089 72.5325C313.899 72.0567 312.531 71.8187 310.984 71.8187C309.199 71.8187 307.623 72.1756 306.255 72.8895C304.887 73.5438 303.727 74.4361 302.775 75.5664C301.823 76.6372 301.079 77.8864 300.544 79.3141C300.068 80.6823 299.741 82.0802 299.563 83.5079Z" fill="#1A1A1A"/>
<path d="M352.154 110.052C348.109 110.052 344.926 108.892 342.606 106.572C340.346 104.252 339.216 101.099 339.216 97.1137V53.123H349.388V96.6676C349.388 98.0358 349.804 99.166 350.637 100.058C351.47 100.891 352.57 101.308 353.939 101.308H363.486V110.052H352.154ZM331.363 73.2892V64.5446H363.576V73.2892H331.363Z" fill="#1A1A1A"/>
<path d="M387.82 110.991C383.12 110.991 378.956 109.95 375.327 107.868C371.699 105.726 368.813 102.871 366.672 99.3017C364.59 95.673 363.549 91.6279 363.549 87.1664C363.549 82.7048 364.59 78.6895 366.672 75.1202C368.813 71.4915 371.699 68.6361 375.327 66.5541C378.956 64.4126 383.12 63.3418 387.82 63.3418C392.46 63.3418 396.594 64.4126 400.223 66.5541C403.851 68.6361 406.707 71.4618 408.789 75.031C410.93 78.6002 412.001 82.6453 412.001 87.1664C412.001 91.6279 410.93 95.673 408.789 99.3017C406.707 102.871 403.851 105.726 400.223 107.868C396.594 109.95 392.46 110.991 387.82 110.991ZM387.82 102.246C390.615 102.246 393.054 101.592 395.136 100.283C397.219 98.9151 398.825 97.1007 399.955 94.8402C401.085 92.5797 401.65 90.0217 401.65 87.1664C401.65 84.3705 401.085 81.8423 399.955 79.5818C398.825 77.2618 397.219 75.4474 395.136 74.1387C393.054 72.7705 390.615 72.0864 387.82 72.0864C384.964 72.0864 382.495 72.7705 380.413 74.1387C378.391 75.4474 376.785 77.232 375.595 79.4925C374.465 81.753 373.9 84.311 373.9 87.1664C373.9 89.9623 374.465 92.5202 375.595 94.8402C376.785 97.1007 378.391 98.9151 380.413 100.283C382.495 101.592 384.964 102.246 387.82 102.246Z" fill="#1A1A1A"/>
<path d="M161.809 109.837V47.3755H188.042C192.028 47.3755 195.657 48.2975 198.929 50.1416C202.26 51.9262 204.907 54.4544 206.87 57.7262C208.833 60.9385 209.815 64.6862 209.815 68.9693C209.815 73.1929 208.833 76.9406 206.87 80.2123C204.966 83.4841 202.349 86.0421 199.018 87.8862C195.746 89.6708 192.058 90.5631 187.953 90.5631H172.427V109.837H161.809ZM172.427 81.1939H186.704C189.024 81.1939 191.106 80.718 192.95 79.7662C194.854 78.8144 196.341 77.4165 197.412 75.5724C198.542 73.7283 199.107 71.557 199.107 69.0585C199.107 66.4411 198.542 64.2401 197.412 62.4555C196.341 60.6114 194.854 59.2134 192.95 58.2616C191.106 57.2503 189.054 56.7447 186.793 56.7447H172.427V81.1939Z" fill="#1A1A1A"/>
</svg>
