<svg width="470" height="200" viewBox="0 0 470 200" fill="none" xmlns="http://www.w3.org/2000/svg">
<path d="M252.537 79.4692L241.083 108.014L229.512 79.4692H217.648V120.703H227.691V95.9173L236.97 120.703H245.075L254.298 95.9727V120.703H264.341V79.4692H252.537Z" fill="#25272A"/>
<path d="M271.532 79.4692V120.703H281.575V79.4692H271.532Z" fill="#25272A"/>
<path d="M304.08 79.4692H288.628V120.703H304.08C317.234 120.703 325.693 112.305 325.693 100.086C325.693 87.8677 317.234 79.4692 304.08 79.4692ZM303.432 112.011H298.676V88.0448H303.432C311.011 88.0448 315.473 92.507 315.473 100.086C315.473 107.665 311.011 112.011 303.432 112.011Z" fill="#25272A"/>
<path d="M352.007 79.4692H340.381L325.461 120.703H335.974L338.438 113.417H353.828L356.297 120.703H366.927L352.007 79.4692ZM341.084 105.667L346.133 90.5693L351.243 105.667H341.084Z" fill="#25272A"/>
<path d="M378.543 90.692C378.543 88.1066 380.364 86.8721 382.772 86.933C385.474 86.9883 387.351 88.5772 387.528 91.218H398.396C397.98 83.3455 391.935 78.8833 382.944 78.8833C373.953 78.8833 367.908 83.2292 367.908 91.0408C367.792 105.667 388.408 101.554 388.408 109.194C388.408 111.602 386.532 113.069 383.592 113.069C380.652 113.069 378.775 111.541 378.482 108.369H367.792C368.085 116.712 375.016 121.114 383.885 121.114C393.518 121.114 398.922 115.361 398.922 108.43C398.922 94.6228 378.543 97.8559 378.543 90.692Z" fill="#25272A"/>
<path fill-rule="evenodd" clip-rule="evenodd" d="M111.556 116.444V136.968C111.556 138.034 110.404 138.703 109.478 138.174L74.0664 117.939C73.2009 117.444 72.6668 116.524 72.6668 115.527V72.3099C72.6668 71.2435 73.8188 70.5749 74.7448 71.104L92.1112 81.0277V104.639L111.556 116.444Z" fill="#3864FF" fill-opacity="0.25"/>
<path fill-rule="evenodd" clip-rule="evenodd" d="M150.445 116.444V136.968C150.445 138.034 151.597 138.703 152.523 138.174L187.934 117.939C188.799 117.444 189.333 116.524 189.333 115.527V72.3099C189.333 71.2435 188.181 70.5749 187.255 71.104L169.889 81.0277V104.639L150.445 116.444Z" fill="#3864FF" fill-opacity="0.25"/>
<path d="M92.1112 61.1987C92.1112 60.1323 93.2633 59.4637 94.1892 59.9928L130.311 80.6339C130.738 80.8779 131.262 80.8779 131.689 80.6339L167.811 59.9928C168.737 59.4637 169.889 60.1323 169.889 61.1987V104.639L131.721 127.812C131.278 128.081 130.722 128.081 130.279 127.812L92.1112 104.639V61.1987Z" fill="url(#paint0_linear_14_1181)"/>
<defs>
<linearGradient id="paint0_linear_14_1181" x1="97.6668" y1="112.5" x2="169.889" y2="58.3334" gradientUnits="userSpaceOnUse">
<stop offset="0.16" stop-color="#3864FF"/>
<stop offset="0.56" stop-color="#6083FF"/>
<stop offset="1" stop-color="#3864FF"/>
</linearGradient>
</defs>
</svg>
