<svg width="476" height="193" viewBox="0 0 476 193" fill="none" xmlns="http://www.w3.org/2000/svg">
<path fill-rule="evenodd" clip-rule="evenodd" d="M114.418 113.779V135.041C114.418 136.13 113.237 136.81 112.295 136.262L76.9347 115.709C76.0645 115.203 75.5291 114.273 75.5291 113.266V69.3131C75.5291 68.2237 76.71 67.5442 77.6518 68.0917L95.3084 78.3546V102.177L114.418 113.779Z" fill="white" fill-opacity="0.45"/>
<path fill-rule="evenodd" clip-rule="evenodd" d="M153.307 114.997V135.041C153.307 136.13 154.488 136.81 155.43 136.262L190.791 115.709C191.661 115.203 192.196 114.273 192.196 113.266V69.3131C192.196 68.2237 191.015 67.5442 190.074 68.0917L174.423 77.1883V102.177L153.307 114.997Z" fill="white" fill-opacity="0.45"/>
<path d="M95.3083 57.9901C95.3083 56.9054 96.4802 56.2253 97.422 56.7635L134.165 77.7594C134.599 78.0076 135.132 78.0076 135.567 77.7594L172.31 56.7635C173.252 56.2253 174.423 56.9054 174.423 57.9901V102.177L135.599 125.749C135.149 126.023 134.583 126.023 134.133 125.749L95.3083 102.177V57.9901Z" fill="url(#paint0_linear_14_1139)"/>
<path d="M254.864 75.4868L243.409 104.032L231.838 75.4868H219.974V116.721H230.017V91.9349L239.296 116.721H247.401L256.624 91.9903V116.721H266.667V75.4868H254.864Z" fill="white"/>
<path d="M273.859 75.4868V116.721H283.901V75.4868H273.859Z" fill="white"/>
<path d="M306.406 75.4868H290.954V116.721H306.406C319.56 116.721 328.019 108.322 328.019 96.1037C328.019 83.8852 319.56 75.4868 306.406 75.4868ZM305.758 108.029H301.003V84.0624H305.758C313.337 84.0624 317.799 88.5246 317.799 96.1037C317.799 103.683 313.337 108.029 305.758 108.029Z" fill="white"/>
<path d="M354.333 75.4868H342.707L327.787 116.721H338.3L340.764 109.435H356.155L358.624 116.721H369.253L354.333 75.4868ZM343.41 101.684L348.459 86.5869L353.569 101.684H343.41Z" fill="white"/>
<path d="M380.869 86.7096C380.869 84.1242 382.69 82.8896 385.099 82.9505C387.8 83.0059 389.677 84.5948 389.854 87.2356H400.722C400.307 79.3631 394.261 74.9009 385.27 74.9009C376.279 74.9009 370.234 79.2468 370.234 87.0584C370.118 101.685 390.735 97.5717 390.735 105.212C390.735 107.62 388.858 109.087 385.918 109.087C382.978 109.087 381.102 107.559 380.808 104.387H370.118C370.411 112.73 377.342 117.131 386.211 117.131C395.844 117.131 401.248 111.379 401.248 104.448C401.248 90.6403 380.869 93.8735 380.869 86.7096Z" fill="white"/>
<defs>
<linearGradient id="paint0_linear_14_1139" x1="100.959" y1="110.174" x2="174.423" y2="55.0755" gradientUnits="userSpaceOnUse">
<stop offset="0.16" stop-color="white"/>
<stop offset="0.56" stop-color="white" stop-opacity="0.7"/>
<stop offset="1" stop-color="white"/>
</linearGradient>
</defs>
</svg>
