<svg width="470" height="200" viewBox="0 0 470 200" fill="none" xmlns="http://www.w3.org/2000/svg">
<rect width="469.444" height="200" fill="#F5FAFA"/>
<path d="M252.093 79.4692L240.639 108.014L229.068 79.4692H217.204V120.703H227.246V95.9173L236.525 120.703H244.63L253.853 95.9727V120.703H263.896V79.4692H252.093Z" fill="#25272A"/>
<path d="M271.088 79.4692V120.703H281.131V79.4692H271.088Z" fill="#25272A"/>
<path d="M303.635 79.4692H288.184V120.703H303.635C316.789 120.703 325.249 112.305 325.249 100.086C325.249 87.8677 316.789 79.4692 303.635 79.4692ZM302.987 112.011H298.232V88.0448H302.987C310.566 88.0448 315.029 92.507 315.029 100.086C315.029 107.665 310.566 112.011 302.987 112.011Z" fill="#25272A"/>
<path d="M351.562 79.4692H339.936L325.016 120.703H335.529L337.993 113.417H353.384L355.853 120.703H366.482L351.562 79.4692ZM340.639 105.667L345.688 90.5693L350.798 105.667H340.639Z" fill="#25272A"/>
<path d="M378.098 90.692C378.098 88.1066 379.92 86.8721 382.328 86.933C385.03 86.9883 386.907 88.5772 387.084 91.218H397.951C397.536 83.3455 391.491 78.8833 382.5 78.8833C373.509 78.8833 367.463 83.2292 367.463 91.0408C367.347 105.667 387.964 101.554 387.964 109.194C387.964 111.602 386.087 113.069 383.148 113.069C380.208 113.069 378.331 111.541 378.038 108.369H367.347C367.641 116.712 374.572 121.114 383.441 121.114C393.074 121.114 398.477 115.361 398.477 108.43C398.477 94.6228 378.098 97.8559 378.098 90.692Z" fill="#25272A"/>
<path fill-rule="evenodd" clip-rule="evenodd" d="M111.111 116.444V136.968C111.111 138.034 109.959 138.703 109.033 138.174L73.6218 117.939C72.7563 117.444 72.2222 116.524 72.2222 115.527V72.3099C72.2222 71.2435 73.3743 70.5749 74.3002 71.104L91.6667 81.0277V104.639L111.111 116.444Z" fill="#3864FF" fill-opacity="0.25"/>
<path fill-rule="evenodd" clip-rule="evenodd" d="M150 116.444V136.968C150 138.034 151.152 138.703 152.078 138.174L187.489 117.939C188.355 117.444 188.889 116.524 188.889 115.527V72.3099C188.889 71.2435 187.737 70.5749 186.811 71.104L169.444 81.0277V104.639L150 116.444Z" fill="#3864FF" fill-opacity="0.25"/>
<path d="M91.6666 61.1987C91.6666 60.1323 92.8187 59.4637 93.7446 59.9928L129.866 80.6339C130.293 80.8779 130.818 80.8779 131.245 80.6339L167.366 59.9928C168.292 59.4637 169.444 60.1323 169.444 61.1987V104.639L131.276 127.812C130.833 128.081 130.278 128.081 129.835 127.812L91.6666 104.639V61.1987Z" fill="url(#paint0_linear_14_1179)"/>
<defs>
<linearGradient id="paint0_linear_14_1179" x1="97.2222" y1="112.5" x2="169.444" y2="58.3334" gradientUnits="userSpaceOnUse">
<stop offset="0.16" stop-color="#3864FF"/>
<stop offset="0.56" stop-color="#6083FF"/>
<stop offset="1" stop-color="#3864FF"/>
</linearGradient>
</defs>
</svg>
