<svg width="475" height="193" viewBox="0 0 475 193" fill="none" xmlns="http://www.w3.org/2000/svg">
<rect width="475" height="192.032" fill="url(#paint0_linear_14_1154)"/>
<path fill-rule="evenodd" clip-rule="evenodd" d="M113.529 113.779V135.041C113.529 136.13 112.349 136.81 111.407 136.262L76.0462 115.709C75.176 115.203 74.6405 114.273 74.6405 113.266V69.3131C74.6405 68.2237 75.8214 67.5442 76.7633 68.0917L94.4197 78.3545V102.177L113.529 113.779Z" fill="white" fill-opacity="0.45"/>
<path fill-rule="evenodd" clip-rule="evenodd" d="M152.419 114.997V135.041C152.419 136.13 153.6 136.81 154.542 136.262L189.902 115.709C190.772 115.203 191.308 114.273 191.308 113.266V69.3131C191.308 68.2237 190.127 67.5442 189.185 68.0917L173.535 77.1883V102.177L152.419 114.997Z" fill="white" fill-opacity="0.45"/>
<path d="M94.4196 57.9901C94.4196 56.9054 95.5914 56.2253 96.5333 56.7635L133.276 77.7594C133.711 78.0076 134.244 78.0076 134.678 77.7594L171.421 56.7635C172.363 56.2253 173.535 56.9054 173.535 57.9901V102.177L134.71 125.749C134.26 126.023 133.694 126.023 133.244 125.749L94.4196 102.177V57.9901Z" fill="url(#paint1_linear_14_1154)"/>
<path d="M253.975 75.4868L242.52 104.032L230.949 75.4868H219.085V116.721H229.128V91.9349L238.407 116.721H246.512L255.735 91.9903V116.721H265.778V75.4868H253.975Z" fill="white"/>
<path d="M272.97 75.4868V116.721H283.012V75.4868H272.97Z" fill="white"/>
<path d="M305.517 75.4868H290.065V116.721H305.517C318.671 116.721 327.13 108.322 327.13 96.1037C327.13 83.8852 318.671 75.4868 305.517 75.4868ZM304.869 108.029H300.113V84.0624H304.869C312.448 84.0624 316.91 88.5246 316.91 96.1037C316.91 103.683 312.448 108.029 304.869 108.029Z" fill="white"/>
<path d="M353.444 75.4868H341.818L326.898 116.721H337.411L339.875 109.435H355.266L357.735 116.721H368.364L353.444 75.4868ZM342.521 101.684L347.57 86.5869L352.68 101.684H342.521Z" fill="white"/>
<path d="M379.98 86.7096C379.98 84.1242 381.801 82.8896 384.21 82.9505C386.911 83.0059 388.788 84.5948 388.965 87.2356H399.833C399.418 79.3631 393.372 74.9009 384.381 74.9009C375.391 74.9009 369.345 79.2468 369.345 87.0584C369.229 101.685 389.846 97.5717 389.846 105.212C389.846 107.62 387.969 109.087 385.029 109.087C382.089 109.087 380.213 107.559 379.919 104.387H369.229C369.522 112.73 376.454 117.131 385.323 117.131C394.956 117.131 400.359 111.379 400.359 104.448C400.359 90.6403 379.98 93.8735 379.98 86.7096Z" fill="white"/>
<defs>
<linearGradient id="paint0_linear_14_1154" x1="340.413" y1="118.307" x2="288.64" y2="-60.746" gradientUnits="userSpaceOnUse">
<stop stop-color="#6E8EFF"/>
<stop offset="1" stop-color="#C2DAFF"/>
</linearGradient>
<linearGradient id="paint1_linear_14_1154" x1="100.071" y1="110.174" x2="173.535" y2="55.0755" gradientUnits="userSpaceOnUse">
<stop offset="0.16" stop-color="white"/>
<stop offset="0.56" stop-color="white" stop-opacity="0.7"/>
<stop offset="1" stop-color="white"/>
</linearGradient>
</defs>
</svg>
