<?xml version="1.0" encoding="utf-8"?>
<!-- Generator: Adobe Illustrator 28.3.0, SVG Export Plug-In . SVG Version: 6.00 Build 0)  -->
<svg version="1.1" id="Spark-Logo-Vertical-Dark_x5F_Background-RGB"
	 xmlns="http://www.w3.org/2000/svg" xmlns:xlink="http://www.w3.org/1999/xlink" x="0px" y="0px" viewBox="0 0 1417.5699463 1000"
	 style="enable-background:new 0 0 1417.5699463 1000;" xml:space="preserve">
<style type="text/css">
	.st0{fill:#FFFFFF;}
	.st1{fill:url(#Spark-Logomark-RGB_00000134247306883263200200000003420296717119090591_);}
</style>
<g id="Spark-Logo-Vertical-Dark_x5F_Background-RGB_00000144317392697813173030000003197666734152946069_">
	<path id="Spark-Logotype-White_x5F_Version-RGB" class="st0" d="M554.8170166,750.4680176
		c0,53.6699829-31.3649902,95.4899902-85.0350037,95.4899902c-55.0630188,0-85.0350037-40.4260254-85.0350037-95.4899902
		c0-55.7600098,32.0629883-96.1870117,85.0350037-96.1870117
		C523.4520264,654.2810059,554.8170166,696.7990112,554.8170166,750.4680176z M608.4869995,750.4680176
		c0-80.8519897-47.3969727-142.8860474-131.0379944-142.8860474c-34.8500061,0-70.3970032,15.3340454-88.5190125,45.3050537
		v-41.1230469h-52.9729919V1000h52.9729919V849.4429932c16.7279968,29.2739868,50.881012,43.2150269,85.7310181,43.2150269
		C561.7869873,892.65802,608.4869995,828.53302,608.4869995,750.4680176z M1252.3800049,756.0440063l98.9699707,132.4309692
		h66.2199707l-126.8599854-168.6749878l116.4000244-108.0360107h-69l-120.5799561,110.8240356V496.0610046h-53.6700439v392.4139709
		h53.6700439v-100.367981L1252.3800049,756.0440063z M866.190979,750.4680176
		c0,52.276001-28.5769653,95.4899902-85.0349731,95.4899902c-55.0629883,0-85.0339966-40.4260254-85.0339966-95.4899902
		c0-54.3660278,30.6679688-96.1870117,85.0339966-96.1870117
		C832.0380249,654.2810059,866.190979,691.9199829,866.190979,750.4680176z M862.0089722,611.7639771v36.94104
		c-19.5159912-25.7890015-54.3659668-41.1230469-87.1259766-41.1230469
		c-81.5490112,0-132.4309692,57.8510132-132.4309692,142.8860474c0,82.9439697,48.7909546,142.1900024,133.1279907,142.1900024
		c33.4569702,0,72.4889526-13.94104,86.4289551-41.8210449v37.6380005h52.9730225V611.7639771H862.0089722z
		 M1054.4300537,624.3099976c-11.8500977,9.0609741-20.9100342,22.3040161-27.1800537,41.1229858v-53.6690063h-52.9760132
		v276.7109985H1027.25V763.7109985c0-33.4559937,5.5699463-59.2449951,15.3299561-77.3670044
		c10.460083-18.8200073,27.8800049-28.5780029,51.5800781-28.5780029h40.4299316v-46.0020142h-33.4599609
		C1081.6099854,611.7639771,1066.2800293,615.9459839,1054.4300537,624.3099976z M289.9549866,783.9249878
		c0-79.4589844-59.2459869-97.5809937-126.8559875-116.401001c-36.9410019-8.3640137-92.0044022-19.5159912-92.0044022-64.8209839
		c0-37.6380005,39.7294006-52.276001,78.0643997-52.276001c43.2149963,0,77.3679962,24.3959961,82.2470093,67.6099854h55.7609863
		c-3.4849854-71.7919922-59.9429932-117.7939758-137.3109894-117.7939758
		c-68.3063049,0-135.2189026,33.4559631-136.6128998,101.76297c0,75.973999,58.5485039,96.1870117,126.1578979,114.309021
		c32.0630035,9.0609741,94.095993,23.697998,94.095993,68.3070068c0,41.8200073-44.6079865,57.8510132-86.4290009,57.8510132
		c-51.5780945,0-86.4284973-31.3650513-89.9134979-82.9440308H0C2.7880299,835.5029907,53.6694984,892.65802,146.3710022,892.65802
		C219.5570068,892.65802,289.9549866,862.6859741,289.9549866,783.9249878z"/>
	
		<linearGradient id="Spark-Logomark-RGB_00000159451543855105299590000013067884920390109058_" gradientUnits="userSpaceOnUse" x1="858.2469482" y1="866.5800781" x2="530.0440063" y2="614.8441162" gradientTransform="matrix(1 0 0 -1 0 1001.6199951)">
		<stop  offset="0" style="stop-color:#FA43BD"/>
		<stop  offset="1" style="stop-color:#FFA930"/>
	</linearGradient>
	<path id="Spark-Logomark-RGB" style="fill:url(#Spark-Logomark-RGB_00000159451543855105299590000013067884920390109058_);" d="
		M768.5930176,285.9379883h182.2799683c7.0109863,0,8.4230347-9.54599,2.0480347-12.4620056l-184.3170166-83.9479675V6.5367365
		c0-6.8303633-9.1350098-9.0716276-12.2869873-3.0121794l-75.7750244,145.8984833l-83.9660034-38.5650024
		c-8.032959-3.2439957-12.96698,3.2960052-10.2399902,8.9180069l50.0709839,103.2859726H454.1270142
		c-7.0110168,0-8.4230042,9.5460052-2.0480042,12.4620056l184.3169861,83.9479675v182.9909668
		c0,6.8309937,9.1350098,9.071991,12.2880249,3.0119934l75.7739868-145.8979797l83.9660034,38.5650024
		c8.032959,3.243988,12.96698-3.2969971,10.2399902-8.9179993L768.5930176,285.9379883z"/>
</g>
</svg>
