<svg width="133" height="135" viewBox="0 0 133 135" fill="none" xmlns="http://www.w3.org/2000/svg">
<path d="M85.2442 76.636H132.455V57.8039H85.2442C92.5174 50.5008 99.7476 43.1537 106.978 35.8067C109.974 32.7615 112.971 29.7164 115.971 26.6744L102.834 13.3375C100.02 16.1884 97.2022 19.0359 94.3845 21.8835C86.9468 29.3998 79.5089 36.9164 72.1334 44.4949V0.386719H53.1529V53.8818H79.4637V80.5284H53.1529V134.023H72.1334V90.0162L102.864 121.073L116 107.736C113.229 104.929 110.461 102.119 107.693 99.309C100.229 91.7321 92.7647 84.1551 85.2442 76.636Z" fill="#B59062"/>
<path d="M0.53125 53.8818H26.8421V80.5284H0.53125V53.8818Z" fill="#B59062"/>
</svg>
