<svg width="222" height="71" viewBox="0 0 222 71" fill="none" xmlns="http://www.w3.org/2000/svg">
<path d="M69.501 35.1424H65.326V41.8924H62.301V24.6674H69.601C71.651 24.6674 74.551 26.3674 74.551 29.7674C74.551 34.3174 71.251 35.1424 69.501 35.1424ZM65.326 32.5924H69.526C70.201 32.5924 71.576 32.0174 71.576 29.7674C71.576 28.1924 70.451 27.2424 69.601 27.2424H65.326V32.5924ZM91.4336 34.2924V38.2674C91.4336 38.8424 91.6336 39.3424 92.6086 39.3424H99.3836V41.8924H92.4586C89.6836 41.8174 88.4586 40.9674 88.4086 38.3924V24.6674H99.3836V27.2174H91.4336V31.7424H98.8336V34.2924H91.4336ZM116.886 29.3674V41.8924H113.861V24.6674H116.861C119.161 27.5674 122.236 32.1674 124.236 36.4174V24.6674H127.261V41.8924H124.236C122.236 37.8924 120.011 33.8424 116.886 29.3674ZM148.483 41.8924H142.533V24.6674H148.483C152.658 24.6674 156.533 27.5924 156.533 33.3174C156.533 39.1174 152.658 41.8924 148.483 41.8924ZM145.558 39.3424H147.433C151.333 39.3424 153.383 37.2924 153.383 33.3174C153.383 29.3924 151.508 27.2174 147.433 27.2174H145.558V39.3424ZM173.839 24.6674V38.0424C173.839 38.7424 174.089 39.3424 175.264 39.3424H181.989V41.8924H174.864C172.089 41.8174 170.864 40.9674 170.814 38.3924V24.6674H173.839ZM198.483 34.2924V38.2674C198.483 38.8424 198.683 39.3424 199.658 39.3424H206.433V41.8924H199.508C196.733 41.8174 195.508 40.9674 195.458 38.3924V24.6674H206.433V27.2174H198.483V31.7424H205.883V34.2924H198.483Z" fill="white"/>
<circle cx="30.0001" cy="33.2428" r="16.8095" fill="white" fill-opacity="0.5"/>
<g filter="url(#filter0_d_2586_2215)">
<circle cx="22.4379" cy="49.2081" r="9.24751" fill="white"/>
<mask id="mask0_2586_2215" style="mask-type:alpha" maskUnits="userSpaceOnUse" x="21" y="17" width="3" height="26">
<path fill-rule="evenodd" clip-rule="evenodd" d="M21.4207 42.1699L21.4207 17.3865L23.4822 17.3865L23.4822 42.1699L21.4207 42.1699Z" fill="white"/>
</mask>
<g mask="url(#mask0_2586_2215)">
<path d="M46.8096 33.2428C46.8096 42.5264 39.2838 50.0523 30.0001 50.0523C20.7165 50.0523 13.1906 42.5264 13.1906 33.2428C13.1906 23.9592 20.7165 16.4333 30.0001 16.4333C39.2838 16.4333 46.8096 23.9592 46.8096 33.2428Z" fill="white"/>
</g>
</g>
<defs>
<filter id="filter0_d_2586_2215" x="1.19043" y="5.38647" width="42.495" height="65.0692" filterUnits="userSpaceOnUse" color-interpolation-filters="sRGB">
<feFlood flood-opacity="0" result="BackgroundImageFix"/>
<feColorMatrix in="SourceAlpha" type="matrix" values="0 0 0 0 0 0 0 0 0 0 0 0 0 0 0 0 0 0 127 0" result="hardAlpha"/>
<feOffset/>
<feGaussianBlur stdDeviation="6"/>
<feComposite in2="hardAlpha" operator="out"/>
<feColorMatrix type="matrix" values="0 0 0 0 0 0 0 0 0 1 0 0 0 0 0.82 0 0 0 0.7 0"/>
<feBlend mode="normal" in2="BackgroundImageFix" result="effect1_dropShadow_2586_2215"/>
<feBlend mode="normal" in="SourceGraphic" in2="effect1_dropShadow_2586_2215" result="shape"/>
</filter>
</defs>
</svg>
