<svg width="875" height="200" viewBox="0 0 875 200" fill="none" xmlns="http://www.w3.org/2000/svg">
<path fill-rule="evenodd" clip-rule="evenodd" d="M99.8412 133.332H66.5608H33.2804V66.666V33.333H133.12V66.6641H166.4V33.3311H133.122V0H0V133.332H33.2804V166.665H133.122V66.666H66.5608V99.999H99.8412V133.332ZM33.2804 166.667H0V200H33.2804V166.667ZM701.615 155.141V42.1406H718.588V155.141H701.615ZM352.745 86.1806H334.654L334.599 85.7432C333.491 76.9469 330.417 70.407 324.901 66.0534C319.374 61.6909 311.315 59.4606 300.11 59.4606C287.346 59.4606 278.364 63.1094 272.558 70.1004C266.735 77.1104 264.027 87.5716 264.027 101.361C264.027 114.994 266.577 125.455 272.34 132.504C278.086 139.531 287.105 143.261 300.269 143.261C312.632 143.261 320.92 139.771 326.376 134.346C331.712 129.039 334.4 121.821 335.482 114.021H290.665V100.861H352.527V155.141H336.672V134.915C330.96 148.973 317.443 157.861 297.873 157.861C279.86 157.861 266.81 151.734 258.273 141.562C249.748 131.405 245.776 117.277 245.776 101.361C245.776 85.5175 249.991 71.3859 259.001 61.2089C268.019 51.022 281.785 44.8606 300.749 44.8606C317.189 44.8606 329.458 48.4746 337.985 55.4125C346.52 62.3572 351.236 72.5739 352.684 85.6254L352.745 86.1806ZM392.247 108.548L412.216 105.188C416.03 104.551 418.721 103.647 420.455 102.269C422.151 100.921 422.981 99.0781 422.981 96.4006C422.981 92.8909 422.051 90.0237 419.535 88.0113C416.991 85.9767 412.736 84.7406 405.908 84.7406C399.415 84.7406 394.711 86.0508 391.539 88.5345C388.383 91.0062 386.669 94.6995 386.278 99.6402L386.241 100.101H369.302L369.306 99.5959C369.387 90.9818 372.639 83.9133 378.78 79.0097C384.906 74.117 393.856 71.4206 405.269 71.4206C416.36 71.4206 424.712 73.9554 430.301 78.4094C435.905 82.8751 438.677 89.2267 438.677 96.7206V136.401C438.677 142.307 438.836 147.093 439.474 154.598L439.52 155.141H423.988L423.943 154.692C423.396 149.352 423.082 144.593 423.002 139.321C419.124 148.635 410.29 157.221 394.566 157.221C386.333 157.221 379.575 154.997 374.868 150.856C370.152 146.708 367.549 140.684 367.549 133.201C367.549 126.715 369.17 121.297 373.117 117.117C377.054 112.948 383.245 110.077 392.247 108.548ZM422.981 111.926C418.751 114.786 413.876 115.996 409.377 117.048L398.353 119.608C393.432 120.721 389.978 122.216 387.758 124.287C385.562 126.334 384.522 128.991 384.522 132.561C384.522 136.268 385.866 139.079 388.173 140.974C390.494 142.879 393.844 143.901 397.921 143.901C406.171 143.901 412.416 140.798 416.607 135.761C420.808 130.711 422.981 123.674 422.981 115.761V111.926ZM528.762 74.1406H511.789V108.401C511.789 120.268 509.52 129.033 505.547 134.817C501.59 140.576 495.916 143.421 488.965 143.421C483.66 143.421 479.143 142.426 475.945 139.454C472.754 136.488 470.773 131.452 470.773 123.121V74.1406H453.8V124.561C453.8 135.094 455.925 143.396 460.811 149.067C465.709 154.753 473.299 157.701 484.012 157.701C491.619 157.701 497.639 155.591 502.348 151.978C506.44 148.837 509.517 144.579 511.789 139.639V155.141H528.762V74.1406ZM621.896 155.141H604.923V106.161C604.923 97.8245 603.019 92.7845 599.981 89.8187C596.943 86.8523 592.669 85.8606 587.69 85.8606C579.98 85.8606 574.08 88.3344 570.083 93.8735C566.061 99.4469 563.907 108.2 563.907 120.881V155.141H546.934V74.1406H563.907V90.156C566.252 85.1109 569.409 80.7269 573.607 77.4847C578.414 73.7713 584.554 71.5806 592.323 71.5806C603.036 71.5806 610.471 74.5283 615.21 80.2204C619.933 85.8929 621.896 94.1947 621.896 104.721V155.141ZM630.784 75.5427V87.4606H645.96V131.121C645.96 139.143 647.155 145.194 650.907 149.222C654.666 153.257 660.875 155.141 670.581 155.141H686.896V141.341H662.933V87.4606H688.493V74.1406H662.933V56.0606H654.122L646.122 74.1689L630.784 75.5427ZM812.166 129.981H796.518L796.418 130.351C795.323 134.424 793.221 138.036 789.638 140.636C786.052 143.238 780.932 144.861 773.737 144.861C766.934 144.861 761.086 143.355 756.78 139.431C752.553 135.579 749.731 129.321 749.031 119.621H811.866L811.931 119.197C812.256 117.078 812.256 115.125 812.256 113.056V113.041C812.256 101.509 808.955 91.1425 802.408 83.6513C795.853 76.1508 786.085 71.5806 773.258 71.5806C759.475 71.5806 749.226 76.3891 742.43 84.1919C735.642 91.9846 732.342 102.712 732.342 114.481C732.342 126.398 735.357 137.207 742.006 145.044C748.667 152.895 758.921 157.701 773.258 157.701C787.411 157.701 796.764 153.752 802.765 148.353C808.761 142.958 811.361 136.16 812.092 130.545L812.166 129.981ZM789.599 89.9751C793.271 93.634 795.43 99.2058 795.894 106.941H749.215C750.219 98.4465 752.913 92.8725 756.93 89.3991C761.037 85.8484 766.61 84.4206 773.417 84.4206C780.443 84.4206 785.849 86.2378 789.599 89.9751ZM816.75 87.4606V75.5427L832.088 74.1689L840.088 56.0606H848.899V74.1406H874.459V87.4606H848.899V141.341H872.861V155.141H856.547C846.841 155.141 840.632 153.257 836.873 149.222C833.121 145.194 831.926 139.143 831.926 131.121V87.4606H816.75ZM811.544 130.866C811.554 130.797 811.564 130.729 811.573 130.661L811.576 130.639C811.566 130.714 811.555 130.79 811.544 130.866ZM748.518 119.436L748.508 119.286L748.5 119.174C748.506 119.262 748.512 119.349 748.518 119.436Z" fill="#1E1C2D"/>
</svg>
