<svg width="140" height="140" viewBox="0 0 140 140" fill="none" xmlns="http://www.w3.org/2000/svg">
<g clip-path="url(#clip0_1502_34863)">
<path d="M138.667 72.6982C138.529 75.1782 138.272 77.6583 137.868 80.1184C137.267 83.7785 136.37 87.3986 135.197 90.9087C134.98 91.5687 134.743 92.2187 134.497 92.8687C133.481 95.6588 132.288 98.3689 130.928 100.999C129.261 104.219 127.349 107.309 125.219 110.239C124.598 111.079 123.967 111.909 123.307 112.729C121.719 114.729 120.014 116.639 118.219 118.459C115.696 121.009 112.974 123.37 110.096 125.51C107.207 127.65 104.161 129.58 100.986 131.25C98.8368 132.39 96.6185 133.4 94.3509 134.3C93.8186 134.51 93.2862 134.71 92.7538 134.91C92.1918 135.12 91.62 135.32 91.0482 135.51C90.92 135.55 90.7919 135.59 90.6637 135.63C90.4074 135.71 90.151 135.79 89.8947 135.87C88.5539 136.3 87.2131 136.69 85.8427 137.04C85.823 137.05 85.8032 137.05 85.7835 137.05C85.0047 137.25 84.2258 137.43 83.4371 137.58C83.0033 137.68 82.5695 137.77 82.1259 137.85C82.0568 137.87 81.9878 137.88 81.9188 137.89C81.4752 137.97 81.0414 138.05 80.5977 138.12C79.6316 138.28 78.6654 138.42 77.6893 138.53C77.5119 138.55 77.3443 138.57 77.1767 138.59C76.7922 138.64 76.4077 138.67 76.0232 138.71C75.9049 138.72 75.7767 138.74 75.6584 138.74C75.4119 138.77 75.1655 138.79 74.9091 138.81C74.5049 138.84 74.1007 138.87 73.6866 138.89C73.1641 138.92 72.6514 138.95 72.1289 138.96C71.8036 138.97 71.4881 138.98 71.1627 138.99C71.0247 138.99 70.8768 138.99 70.7388 138.99C70.4825 139 70.236 139 69.9797 139H68.9149C48.1618 139 29.1439 129.41 16.2879 114.309C15.933 113.889 15.5879 113.469 15.2428 113.039C15.1541 112.939 15.0654 112.829 14.9865 112.719H14.9767C8.10497 104.119 3.16565 93.8287 0.917808 82.5684C0.53331 80.6384 1.48963 78.7483 3.20508 77.8783C8.09511 75.4282 14.7795 74.4182 19.5906 77.5883C21.385 78.7783 23.4258 80.9984 22.8638 83.3585C22.3807 85.3985 20.4977 86.5386 19.1273 87.9486C17.5301 89.5886 16.8991 92.0787 17.3132 94.3288C17.6484 96.1488 18.6343 97.9389 20.2117 98.9289C21.8385 99.9589 23.7018 100.379 25.5849 100.639C28.0299 100.969 31.303 101.359 33.2255 99.3589C33.8565 98.7089 34.3297 97.9289 35.0396 97.3689C35.7396 96.8288 36.548 96.4188 37.386 96.1588C39.2789 95.5788 41.5268 95.7488 43.1929 96.8888C44.3366 97.6689 45.3816 98.6189 46.6238 99.2489C47.797 99.8389 49.0787 100.209 50.3801 100.369C52.4603 100.629 55.1912 100.579 57.1039 99.6089C58.0799 99.1089 59.0067 98.4989 59.8545 97.7789C63.3446 94.8188 65.3065 90.2486 65.5333 85.6785C65.5924 84.4785 65.5136 83.4085 65.0206 82.2984C64.5572 81.2484 63.8868 80.3184 63.2756 79.3583C63.1868 79.2183 63.0981 79.0683 63.0094 78.9083C60.4066 74.5582 58.9376 69.5781 61.1953 64.6879C61.8066 63.1379 62.6643 61.5879 63.384 59.9978C64.0347 58.5478 64.577 57.0677 64.715 55.5277C64.9023 53.9176 64.5375 52.3676 63.7784 51.0376C63.0685 49.7975 62.0136 48.7375 60.7615 47.9975C55.5955 44.9074 49.128 45.7374 43.6366 43.8274C40.8859 42.9373 38.3128 41.3573 36.41 39.1072C34.1227 36.4172 32.7523 32.9871 32.1706 29.247C31.4805 25.1068 31.7171 16.6266 37.8987 18.7767C39.7522 19.4267 41.7535 20.5667 43.7746 21.3467C44.307 21.5567 44.8492 21.7468 45.3717 21.8868C47.2449 22.4268 49.197 22.6668 51.1392 22.5268C53.3575 22.4668 55.3786 21.7868 57.3405 20.8667C61.8657 18.7267 65.9769 15.2466 71.0444 15.0066C71.3303 14.9966 71.6162 14.9966 71.912 15.0166C71.9219 15.0066 71.9317 15.0066 71.9514 15.0166C74.8302 15.1666 77.7189 16.4766 79.7794 18.5067C80.7555 19.4167 81.6231 20.9867 81.1104 22.2568C80.44 23.8768 79.0499 24.6168 77.5316 25.6669C76.2795 26.4769 74.9683 27.3569 73.8936 28.4269C69.0332 32.9671 70.6599 39.3872 75.4316 44.1074C77.4527 46.1074 79.4245 48.0675 81.6428 49.8575C83.7526 51.5776 86.1286 53.0776 88.0116 55.0577C89.451 56.5677 90.4271 58.4678 91.8369 60.0078C93.72 62.0479 96.096 62.6279 98.7579 62.1879C104.565 61.2178 109.958 57.2777 116.05 58.1778C116.257 58.2078 116.465 58.2378 116.672 58.2878C122.173 59.3978 123.464 66.838 118.821 70.0581C118.2 70.4981 117.638 70.9281 117.204 71.4081C114.867 73.4082 113.674 76.2783 112.472 79.0783C111.841 80.5284 111.22 81.9584 110.431 83.2485C109.179 85.0885 107.168 87.1386 104.841 86.8286C102.337 86.4985 102.563 82.1684 102.376 80.4384C102.218 79.0783 101.962 77.8883 101.292 76.6883C100.72 75.6782 99.9607 74.7882 99.0734 74.0582C94.9523 70.6481 89.7271 72.0781 84.8962 72.3982C81.9977 72.5882 79.2175 72.9282 76.8612 74.8482C75.6683 75.8183 74.7317 77.1083 74.1993 78.5683C73.3021 81.0284 73.6866 83.9885 75.0077 86.2185C76.2401 88.2886 78.8823 89.4286 80.9132 90.5087C80.9428 90.5287 80.9724 90.5387 81.0019 90.5587C88.3666 94.1588 84.1864 96.8988 84.4526 103.739C84.4526 104.159 84.5019 104.589 84.5512 105.039C84.5709 105.229 84.6005 105.429 84.6399 105.619C85.468 109.629 80.6174 111.429 75.7866 110.719C73.4599 110.379 71.143 110.179 68.7966 110.009C65.8685 109.779 62.9601 110.489 60.9094 112.719C60.87 112.759 60.8306 112.799 60.7911 112.839C59.3714 114.429 58.5039 116.629 58.8095 118.779C59.4996 123.6 65.622 124.69 69.5557 124.75C72.6416 124.79 75.6781 124.19 78.7442 124.05C79.9963 124 81.2386 123.9 82.4808 123.74C83.0822 123.66 83.6737 123.57 84.2751 123.45C86.4835 123.02 88.7609 122.32 90.5553 120.899C92.2707 119.549 93.1679 117.369 93.2665 115.199C93.3059 114.379 93.2369 113.529 93.0496 112.719C92.9904 112.439 92.9115 112.169 92.813 111.909C92.3397 110.599 91.4721 109.419 90.92 108.139C90.6538 107.529 90.4369 106.889 90.2891 106.239C89.8454 104.139 90.4369 101.769 91.0482 99.7589C91.7482 97.4588 92.813 95.1788 94.4693 93.4187C95.7509 92.0487 97.4072 91.0987 99.2705 90.8187C101.134 90.5287 103.589 90.6887 104.89 92.2487C106.399 94.0688 106.684 96.6888 108.42 98.3289C110.135 99.9489 113.241 100.429 115.498 100.529C117.47 100.619 119.639 100.449 121.236 99.1389C123.307 97.4488 123.898 94.4988 124.164 91.9487C124.46 89.0386 124.214 86.0985 123.957 83.1985C123.819 81.6684 123.78 80.2684 123.829 78.9683C123.928 76.4883 124.391 74.0082 125.416 71.7481C125.742 71.0381 126.116 70.3481 126.54 69.6881C128.207 67.068 130.878 64.6079 134.112 64.4979C135.591 64.4379 137.089 65.068 137.947 66.268C138.115 66.508 138.253 66.768 138.371 67.038C139.101 68.8081 138.775 70.8381 138.667 72.6882V72.6982Z" fill="#6B6B6B"/>
</g>
<defs>
<clipPath id="clip0_1502_34863">
<rect width="140" height="140" fill="white"/>
</clipPath>
</defs>
</svg>
