<svg width="282" height="404" viewBox="0 0 282 404" fill="none" xmlns="http://www.w3.org/2000/svg">
<g clip-path="url(#clip0_1518_22803)">
<path d="M278.334 145.396C278.058 150.356 277.545 155.317 276.737 160.237C275.534 167.557 273.739 174.797 271.393 181.817C270.959 183.137 270.486 184.437 269.993 185.737C267.962 191.318 265.576 196.738 262.855 201.998C259.523 208.438 255.698 214.618 251.439 220.478C250.196 222.158 248.934 223.819 247.613 225.459C244.439 229.459 241.028 233.279 237.439 236.919C232.391 242.019 226.949 246.739 221.191 251.019C215.414 255.299 209.321 259.159 202.972 262.5C198.674 264.78 194.237 266.8 189.702 268.6C188.637 269.02 187.572 269.42 186.508 269.82C185.384 270.24 184.24 270.64 183.096 271.02C182.84 271.1 182.584 271.18 182.327 271.26C181.815 271.42 181.302 271.58 180.789 271.74C178.108 272.6 175.426 273.38 172.685 274.08C172.646 274.1 172.607 274.1 172.567 274.1C171.009 274.5 169.452 274.86 167.874 275.16C167.007 275.36 166.139 275.54 165.252 275.7C165.114 275.74 164.976 275.76 164.838 275.78C163.95 275.94 163.083 276.1 162.195 276.24C160.263 276.56 158.331 276.84 156.379 277.06C156.024 277.1 155.689 277.14 155.353 277.18C154.584 277.28 153.815 277.34 153.046 277.42C152.81 277.44 152.553 277.48 152.317 277.48C151.824 277.54 151.331 277.58 150.818 277.62C150.01 277.68 149.201 277.74 148.373 277.78C147.328 277.84 146.303 277.9 145.258 277.92C144.607 277.94 143.976 277.96 143.325 277.98C143.049 277.98 142.754 277.98 142.478 277.98C141.965 278 141.472 278 140.959 278H138.83C97.3237 278 59.2879 258.819 33.5758 228.619C32.866 227.779 32.1758 226.939 31.4857 226.079C31.3083 225.879 31.1308 225.659 30.973 225.439H30.9533C17.21 208.238 7.33132 187.657 2.83565 165.137C2.06665 161.277 3.97928 157.497 7.41019 155.757C17.1903 150.856 30.559 148.836 40.1813 155.177C43.7699 157.557 47.8515 161.997 46.7276 166.717C45.7615 170.797 41.9953 173.077 39.2546 175.897C36.0603 179.177 34.7983 184.157 35.6265 188.658C36.2969 192.298 38.2687 195.878 41.4235 197.858C44.677 199.918 48.4036 200.758 52.1698 201.278C57.0598 201.938 63.6061 202.718 67.4511 198.718C68.7131 197.418 69.6595 195.858 71.0792 194.738C72.4792 193.658 74.096 192.838 75.7721 192.318C79.5579 191.158 84.0536 191.498 87.3859 193.778C89.6732 195.338 91.7632 197.238 94.2477 198.498C96.5941 199.678 99.1574 200.418 101.76 200.738C105.921 201.258 111.383 201.158 115.208 199.218C117.16 198.218 119.013 196.998 120.709 195.558C127.689 189.638 131.613 180.497 132.067 171.357C132.185 168.957 132.027 166.817 131.041 164.597C130.115 162.497 128.774 160.637 127.551 158.717C127.374 158.437 127.196 158.137 127.019 157.817C121.813 149.116 118.875 139.156 123.391 129.376C124.613 126.276 126.329 123.176 127.768 119.996C129.069 117.096 130.154 114.135 130.43 111.055C130.805 107.835 130.075 104.735 128.557 102.075C127.137 99.5951 125.027 97.475 122.523 95.995C112.191 89.8148 99.256 91.4748 88.2732 87.6547C82.7719 85.8747 77.6255 82.7146 73.82 78.2145C69.2454 72.8343 66.5047 65.9741 65.3413 58.4939C63.961 50.2137 64.4343 33.2532 76.7974 37.5533C80.5043 38.8534 84.5071 41.1334 88.5492 42.6935C89.614 43.1135 90.6985 43.4935 91.7435 43.7735C95.4899 44.8535 99.3941 45.3336 103.278 45.0536C107.715 44.9335 111.757 43.5735 115.681 41.7335C124.732 37.4533 132.954 30.4932 143.089 30.0131C143.661 29.9931 144.232 29.9931 144.824 30.0331C144.844 30.0131 144.863 30.0131 144.903 30.0331C150.661 30.3331 156.438 32.9532 160.559 37.0133C162.511 38.8334 164.246 41.9735 163.221 44.5135C161.88 47.7536 159.1 49.2337 156.063 51.3337C153.559 52.9538 150.937 54.7138 148.787 56.8539C139.066 65.9341 142.32 78.7745 151.863 88.2147C155.905 92.2149 159.849 96.135 164.286 99.7151C168.505 103.155 173.257 106.155 177.023 110.115C179.902 113.135 181.854 116.936 184.674 120.016C188.44 124.096 193.192 125.256 198.516 124.376C210.13 122.436 220.915 114.555 233.101 116.356C233.515 116.416 233.929 116.476 234.343 116.576C245.346 118.796 247.929 133.676 238.642 140.116C237.399 140.996 236.276 141.856 235.408 142.816C230.735 146.816 228.349 152.557 225.943 158.157C224.681 161.057 223.439 163.917 221.862 166.497C219.358 170.177 215.335 174.277 210.682 173.657C205.673 172.997 206.127 164.337 205.752 160.877C205.437 158.157 204.924 155.777 203.583 153.377C202.44 151.356 200.921 149.576 199.147 148.116C190.905 141.296 180.454 144.156 170.792 144.796C164.995 145.176 159.435 145.856 154.722 149.696C152.337 151.637 150.463 154.217 149.399 157.137C147.604 162.057 148.373 167.977 151.015 172.437C153.48 176.577 158.765 178.857 162.826 181.017C162.886 181.057 162.945 181.077 163.004 181.117C177.733 188.318 169.373 193.798 169.905 207.478C169.905 208.318 170.004 209.178 170.102 210.078C170.142 210.458 170.201 210.858 170.28 211.238C171.936 219.258 162.235 222.858 152.573 221.438C147.92 220.758 143.286 220.358 138.593 220.018C132.737 219.558 126.92 220.978 122.819 225.439C122.74 225.519 122.661 225.599 122.582 225.679C119.743 228.859 118.008 233.259 118.619 237.559C119.999 247.199 132.244 249.379 140.111 249.499C146.283 249.579 152.356 248.379 158.489 248.099C160.993 247.999 163.477 247.799 165.962 247.479C167.164 247.319 168.347 247.139 169.55 246.899C173.967 246.039 178.522 244.639 182.111 241.799C185.541 239.099 187.336 234.739 187.533 230.399C187.612 228.759 187.474 227.059 187.099 225.439C186.981 224.879 186.823 224.339 186.626 223.819C185.679 221.198 183.944 218.838 182.84 216.278C182.308 215.058 181.874 213.778 181.578 212.478C180.691 208.278 181.874 203.538 183.096 199.518C184.496 194.918 186.626 190.358 189.939 186.837C192.502 184.097 195.814 182.197 199.541 181.637C203.268 181.057 208.178 181.377 210.78 184.497C213.797 188.138 214.369 193.378 217.839 196.658C221.27 199.898 227.481 200.858 231.997 201.058C235.94 201.238 240.278 200.898 243.473 198.278C247.613 194.898 248.796 188.998 249.329 183.897C249.92 178.077 249.427 172.197 248.915 166.397C248.639 163.337 248.56 160.537 248.658 157.937C248.856 152.977 249.782 148.016 251.833 143.496C252.484 142.076 253.233 140.696 254.081 139.376C257.413 134.136 262.757 129.216 269.224 128.996C272.182 128.876 275.179 130.136 276.894 132.536C277.23 133.016 277.506 133.536 277.742 134.076C279.201 137.616 278.551 141.676 278.334 145.376V145.396Z" fill="#232323"/>
</g>
<path d="M182.432 310H198.186V352.723H198.925L208.156 342.63L223.787 326.876H242.126L216.894 351.861L244.833 390.385H226.002L205.694 360.846L198.186 367.984V390.385H182.432V310Z" fill="#232323"/>
<path d="M37.1667 310H52.9208V352.723H53.6593L62.8902 342.63L78.5213 326.876H96.8601L71.6288 351.861L99.5678 390.385H80.7367L60.4286 360.846L52.9208 367.984V390.385H37.1667V310Z" fill="#232323"/>
<path fill-rule="evenodd" clip-rule="evenodd" d="M125.736 403.333H109.981V326.876H125.736V338.076H126.597C128.32 334.22 130.659 331.143 133.613 328.845C136.649 326.548 140.628 325.399 145.551 325.399C149.162 325.399 152.444 326.097 155.398 327.491C158.434 328.804 161.018 330.856 163.152 333.645C165.285 336.353 166.926 339.799 168.075 343.984C169.224 348.169 169.798 353.051 169.798 358.63C169.798 364.21 169.224 369.092 168.075 373.277C166.926 377.462 165.285 380.949 163.152 383.739C161.018 386.446 158.434 388.498 155.398 389.893C152.444 391.205 149.162 391.862 145.551 391.862C140.628 391.862 136.649 390.713 133.613 388.416C130.659 386.118 128.32 383.041 126.597 379.185H125.736V403.333ZM138.905 379.308C143.5 379.308 147.028 377.913 149.49 375.123C152.034 372.333 153.305 368.518 153.305 363.677V353.584C153.305 348.743 152.034 344.928 149.49 342.138C147.028 339.348 143.5 337.953 138.905 337.953C135.295 337.953 132.177 338.856 129.551 340.661C127.007 342.384 125.736 345.051 125.736 348.661V368.6C125.736 372.21 127.007 374.918 129.551 376.723C132.177 378.446 135.295 379.308 138.905 379.308Z" fill="#232323"/>
<defs>
<clipPath id="clip0_1518_22803">
<rect width="280" height="280" fill="white" transform="translate(1)"/>
</clipPath>
</defs>
</svg>
