<svg width="800" height="113" viewBox="0 0 800 113" fill="none" xmlns="http://www.w3.org/2000/svg">
<path fill-rule="evenodd" clip-rule="evenodd" d="M30.9709 31.5928V59.423C30.9709 60.9156 31.9659 61.9976 33.4585 61.9976C34.996 61.9976 36.3086 60.682 38.0378 58.9487C38.1272 58.8592 38.2177 58.7685 38.3094 58.6768L82.3403 15.7653C93.1616 5.31729 103.61 0 114.804 0C132.715 0 146.148 12.5314 146.148 30.691V58.2662C146.148 76.6745 130.6 90.4809 112.938 90.4809H86.9426V61.9976H112.067C113.933 61.9976 115.177 60.7538 115.177 58.8881V31.1885C115.177 29.696 114.181 28.4832 112.689 28.4832C111.248 28.4832 110.006 29.7421 108.432 31.3362C108.239 31.5313 108.042 31.7314 107.838 31.9348L63.8074 74.8461C52.9863 85.2942 42.6627 90.4809 31.344 90.4809C13.4332 90.4809 0 78.08 0 59.9206V32.0903C0 13.8063 15.5476 0 33.3341 0H59.2054V28.4832H34.0804C32.2147 28.4832 30.9709 29.7271 30.9709 31.5928ZM653.478 64.2031C646.388 65.1981 643.03 67.8101 643.03 72.2879C643.03 77.1389 646.512 79.3775 652.234 79.3775C660.194 79.3775 665.791 74.7751 665.791 67.8101V62.7105L653.478 64.2031ZM366.655 41.1926C357.201 41.1926 352.226 49.0286 352.226 59.601C352.226 70.4221 357.699 77.5121 366.904 77.5121C375.486 77.5121 381.083 70.5465 381.083 59.601C381.083 48.6554 376.108 41.1926 366.655 41.1926ZM782.087 52.3869C781.835 44.7996 776.984 39.7 769.024 39.7C760.567 39.7 755.968 44.6752 754.976 52.3869H782.087ZM448.497 52.3869C448.248 44.7996 443.398 39.7 435.437 39.7C426.98 39.7 422.377 44.6752 421.382 52.3869H448.497ZM490.911 90.6964H473.374V28.0082H489.543V38.5806H489.668C491.16 31.864 496.135 28.0082 503.971 28.0082H513.549V42.9339H501.857C494.394 42.9339 490.911 46.9141 490.911 54.8745V90.6964ZM326.48 90.6964H310.434V84.3531H310.31C305.957 89.7012 300.359 92.5618 292.524 92.5618C277.846 92.5618 269.389 83.109 269.389 67.9345V28.0082H286.678V65.4469C286.678 73.1585 289.787 77.2633 297.125 77.2633C304.464 77.2633 309.066 71.9147 309.066 63.8299V28.0082H326.48V90.6964ZM798.882 72.0391C796.016 83.8554 786.071 92.5618 770.023 92.5618C749.748 92.5618 737.683 78.3822 737.683 59.1034C737.683 39.8244 750.496 26.2669 768.905 26.2669C788.929 26.2669 800 39.9487 800 60.7204C800 61.8398 800 63.5812 799.874 64.9494H754.976C755.968 73.6562 761.189 78.631 770.023 78.631C775.992 78.631 779.724 76.0192 781.465 72.0391H798.882ZM668.03 83.9799C664.547 89.0791 658.701 92.4374 649.124 92.4374C635.193 92.4374 625.865 85.5964 625.865 72.7854C625.865 59.9741 635.442 54.0038 649.871 52.3869L665.791 50.6455V47.9092C665.791 42.312 662.557 39.4512 655.468 39.4512C648.378 39.4512 645.144 41.9389 644.522 47.4116H628.104C628.974 35.0979 637.681 26.2669 656.214 26.2669C673.627 26.2669 682.209 34.3516 682.209 48.9042V75.5215C682.209 76.6412 682.707 77.2633 683.826 77.2633H688.802V90.6964H675.493C671.264 90.6964 668.776 88.0846 668.154 83.9799H668.03ZM571.759 71.7903C571.759 84.9744 560.813 92.5618 544.519 92.5618C526.858 92.5618 516.41 84.7263 515.539 71.1684H532.703C533.45 77.1389 537.803 79.5019 544.768 79.5019C551.236 79.5019 555.092 77.0145 555.092 73.0341C555.092 69.0539 550.987 67.5614 545.39 66.6907L535.44 65.1981C524.992 63.5812 517.529 57.984 517.529 46.541C517.529 33.2322 528.35 26.2669 543.525 26.2669C560.068 26.2669 569.645 33.481 570.639 46.6653H554.097C553.6 41.0682 549.744 39.2025 543.276 39.2025C537.43 39.2025 533.698 41.3169 533.698 45.2971C533.698 48.9042 537.554 50.2724 543.276 51.2675L553.723 52.8844C564.047 54.5014 571.759 60.3472 571.759 71.7903ZM465.289 72.0391C462.428 83.8554 452.478 92.5618 436.433 92.5618C416.158 92.5618 404.093 78.3822 404.093 59.1034C404.093 39.8244 416.905 26.2669 435.313 26.2669C455.338 26.2669 466.408 39.9487 466.408 60.7204V60.7212C466.408 61.8407 466.408 63.5815 466.284 64.9494H421.382C422.377 73.6562 427.601 78.631 436.433 78.631C442.403 78.631 446.134 76.0192 447.875 72.0391H465.289ZM352.6 112.338H335.062V28.0082H351.231V34.9735H351.356C355.46 29.7495 361.804 26.2669 370.262 26.2669C387.426 26.2669 398.869 39.2025 398.869 59.3522C398.869 79.5019 387.302 92.5618 370.386 92.5618C362.301 92.5618 356.331 89.7012 352.724 84.7263H352.6V112.338ZM734.2 90.6964H718.031C706.836 90.6964 701.737 86.2185 701.737 74.527V42.1876H686.687V28.0082H701.737V10.4705H719.026V28.0082H734.076V42.1876H719.026V70.7953C719.026 74.4026 720.394 76.1436 724.25 76.1436H734.2V90.6964ZM621.387 90.6964H605.217C594.023 90.6964 588.924 86.2185 588.924 74.527V42.1876H573.873V28.0082H588.924V10.4705H606.213V28.0082H621.263V42.1876H606.213V70.7953C606.213 74.4026 607.58 76.1436 611.436 76.1436H621.387V90.6964ZM262.05 64.0787C262.05 81.9893 248.244 92.6862 227.596 92.6862C204.462 92.6862 190.531 81.8649 190.283 62.8349H208.939C209.562 72.2878 216.029 77.0145 227.348 77.0145C236.179 77.0145 243.144 73.1585 243.144 65.82C243.144 59.601 238.791 56.7402 229.96 54.9989L218.019 52.6356C202.472 49.5261 192.894 42.6851 192.894 27.5107C192.894 10.5949 205.954 0.893117 226.353 0.893117C246.752 0.893117 259.563 10.7192 260.309 28.0082H241.9C241.403 20.5453 234.935 16.3163 226.229 16.3163C217.521 16.3163 211.676 20.2966 211.676 25.8937C211.676 31.4909 215.532 33.9784 224.362 35.7198L236.055 37.9586C252.1 41.0682 262.05 48.1579 262.05 64.0787Z" fill="white"/>
</svg>
