<svg width="800" height="147" viewBox="0 0 800 147" fill="none" xmlns="http://www.w3.org/2000/svg">
<path d="M594.043 93.6758C594.043 87.801 598.45 84.3736 607.752 83.0684L623.909 81.1099V87.801C623.909 96.9403 616.564 102.978 606.12 102.978C598.613 102.978 594.043 100.041 594.043 93.6758ZM212.484 77.0299C212.484 63.1579 219.013 52.8764 231.416 52.8764C243.819 52.8764 250.347 62.6683 250.347 77.0299C250.347 91.3914 243.003 100.531 231.742 100.531C219.665 100.531 212.484 91.2284 212.484 77.0299ZM759.363 50.918C769.807 50.918 776.17 57.6091 776.496 67.5643H740.918C742.23 57.4459 748.267 50.918 759.363 50.918ZM321.664 50.918C332.11 50.918 338.474 57.6091 338.801 67.5643H303.223C304.529 57.4459 310.567 50.918 321.664 50.918ZM371.44 117.829H394.451V70.8282C394.451 60.3836 399.021 55.1612 408.813 55.1612H424.153V35.5773H411.587C401.306 35.5773 394.778 40.6364 392.819 49.4492H392.656V35.5773H371.44V117.829ZM157.65 117.829H178.702V35.5773H155.855V82.5788C155.855 93.1862 149.816 100.204 140.187 100.204C130.559 100.204 126.479 94.8188 126.479 84.7003V35.5773H103.794V87.964C103.794 107.874 114.892 120.277 134.15 120.277C144.431 120.277 151.775 116.524 157.487 109.506H157.65V117.829ZM760.667 120.277C781.719 120.277 794.778 108.854 798.533 93.3499H775.682C773.4 98.5721 768.504 102 760.667 102C749.082 102 742.23 95.4714 740.918 84.047H799.837C800 82.2521 800 79.9677 800 78.4988C800 51.2444 785.474 33.2925 759.2 33.2925C735.047 33.2925 718.237 51.0812 718.237 76.3773C718.237 101.673 734.067 120.277 760.667 120.277ZM602.04 120.114C614.606 120.114 622.276 115.708 626.846 109.017H627.01C627.825 114.403 631.09 117.829 636.638 117.829H654.1V100.204H647.573C646.104 100.204 645.451 99.3877 645.451 97.9196V62.9947C645.451 43.9004 634.19 33.2925 611.342 33.2925C587.026 33.2925 575.601 44.8796 574.459 61.0363H596.001C596.818 53.8556 601.061 50.5916 610.363 50.5916C619.665 50.5916 623.909 54.3452 623.909 61.6891V65.2795L603.019 67.5643C584.088 69.6858 571.521 77.5195 571.521 94.3292C571.521 111.138 583.761 120.114 602.04 120.114ZM464.79 120.277C486.169 120.277 500.53 110.323 500.53 93.0233C500.53 78.0092 490.412 70.3387 476.867 68.217L463.158 66.0955C455.65 64.7898 450.592 62.9947 450.592 58.2619C450.592 53.0396 455.487 50.2652 463.158 50.2652C471.644 50.2652 476.704 52.7132 477.356 60.0571H499.061C497.756 42.7581 485.19 33.2925 463.484 33.2925C443.574 33.2925 429.376 42.4316 429.376 59.8939C429.376 74.9084 439.167 82.2521 452.876 84.3736L465.933 86.3321C473.276 87.4744 478.661 89.4329 478.661 94.6551C478.661 99.8773 473.602 103.142 465.116 103.142C455.977 103.142 450.265 100.041 449.286 92.207H426.764C427.907 109.996 441.616 120.277 464.79 120.277ZM322.97 120.277C344.023 120.277 357.079 108.854 360.833 93.3499H337.984C335.7 98.5721 330.804 102 322.97 102C311.383 102 304.529 95.4714 303.223 84.047H362.138C362.301 82.2521 362.301 79.9677 362.301 78.4988C362.301 51.2444 347.776 33.2925 321.501 33.2925C297.348 33.2925 280.539 51.0812 280.539 76.3773C280.539 101.673 296.369 120.277 322.97 120.277ZM189.963 146.226H212.974V109.996H213.138C217.87 116.524 225.704 120.277 236.312 120.277C258.507 120.277 273.684 103.142 273.684 76.7033C273.684 50.2652 258.67 33.2925 236.148 33.2925C225.051 33.2925 216.728 37.8621 211.342 44.7164H211.179V35.5773H189.963V146.226ZM692.452 117.829H713.668V98.7351H700.612C695.553 98.7351 693.758 96.4507 693.758 91.7173V54.182H713.504V35.5773H693.758V12.5663H671.073V35.5773H651.326V54.182H671.073V96.6136C671.073 111.954 677.764 117.829 692.452 117.829ZM544.431 117.829H565.647V98.7351H552.591C547.532 98.7351 545.736 96.4507 545.736 91.7173V54.182H565.484V35.5773H545.736V12.5663H523.052V35.5773H503.304V54.182H523.052V96.6136C523.052 111.954 529.743 117.829 544.431 117.829ZM48.9596 120.44C76.0504 120.44 94.1659 106.405 94.1659 82.9047C94.1659 62.0155 81.1096 52.7132 60.0571 48.6332L44.7164 45.6956C33.1293 43.4109 28.0701 40.1469 28.0701 32.803C28.0701 25.459 35.7405 20.2367 47.1644 20.2367C58.5884 20.2367 67.0747 25.7854 67.7275 35.5773H91.8807C90.9015 12.8927 74.0919 0 47.3276 0C20.563 0 3.42719 12.7295 3.42719 34.9245C3.42719 54.8347 15.9935 63.8107 36.3933 67.8907L52.0604 70.9914C63.6475 73.2762 69.3594 77.0299 69.3594 85.1899C69.3594 94.8188 60.2203 99.8773 48.6332 99.8773C33.7821 99.8773 25.2958 93.6758 24.4798 81.2729H0C0.326397 106.243 18.6047 120.44 48.9596 120.44Z" fill="#090A0A"/>
</svg>
