<svg width="400" height="249" viewBox="0 0 400 249" fill="none" xmlns="http://www.w3.org/2000/svg">
<path d="M84.766 163.116V86.9458C84.766 81.8394 88.1702 78.4351 93.2764 78.4351H162.043V0.477661H91.2338C42.5532 0.477661 0 38.2649 0 88.3074V164.478C0 214.18 36.766 248.12 85.7872 248.12C116.766 248.12 145.021 233.925 174.638 205.328L295.149 87.8819C300.255 82.7755 304 78.4351 308.426 78.4351C312.51 78.4351 315.234 81.7543 315.234 85.8393V161.652C315.234 166.759 311.829 170.162 306.724 170.162H237.957V248.12H309.107C357.447 248.12 400 210.333 400 159.95V84.4777C400 34.7755 363.234 0.477661 314.212 0.477661C283.574 0.477661 254.979 15.0308 225.362 43.6266L104.851 161.073C99.7449 166.18 96 170.162 91.5742 170.162C87.4893 170.162 84.766 167.201 84.766 163.116Z" fill="white"/>
</svg>
