<svg width="400" height="400" viewBox="0 0 400 400" fill="none" xmlns="http://www.w3.org/2000/svg">
<g clip-path="url(#clip0_8_11)">
<path d="M400 200C400 89.543 310.457 0 200 0C89.543 0 0 89.543 0 200C0 310.457 89.543 400 200 400C310.457 400 400 310.457 400 200Z" fill="#090A0A"/>
<path d="M133.164 222.571V178.28C133.164 175.311 135.139 173.331 138.1 173.331H177.985V128H136.916C108.681 128 84 149.972 84 179.071V223.364C84 252.264 105.324 272 133.756 272C151.724 272 168.112 263.745 185.29 247.117L255.186 178.824C258.149 175.855 260.319 173.331 262.886 173.331C265.255 173.331 266.835 175.261 266.835 177.636V221.72C266.835 224.69 264.86 226.669 261.899 226.669H222.015V272H263.281C291.32 272 316 250.027 316 220.73V176.845C316 147.944 294.676 128 266.243 128C248.474 128 231.887 136.462 214.71 153.09L144.814 221.384C141.851 224.354 139.68 226.669 137.114 226.669C134.744 226.669 133.164 224.947 133.164 222.571Z" fill="white"/>
</g>
<defs>
<clipPath id="clip0_8_11">
<rect width="400" height="400" fill="white"/>
</clipPath>
</defs>
</svg>
