<svg width="183" height="44" viewBox="0 0 183 44" fill="none" xmlns="http://www.w3.org/2000/svg">
<rect x="0.5" y="0.5" width="182" height="43" rx="21.5" stroke="#3A3A3A"/>
<rect x="16" y="12" width="20" height="20" rx="10" fill="#FF3D00"/>
<path d="M28.1386 20.1577V23.7567L26.7133 22.3322V18.7331L28.1386 20.1577Z" fill="white"/>
<path d="M24.165 24.1313H27.764L26.3394 22.706H22.7404L24.165 24.1313Z" fill="white"/>
<path d="M30.1644 26.1696V22.1834L28.7391 20.7589V24.7451L24.7662 24.7318L26.1907 26.1571L30.1636 26.1704" fill="white"/>
<path d="M20.9106 16.9695L20.9106 20.9557L22.3359 22.3802L22.3359 18.394L26.3088 18.4074L24.8843 16.9821L20.9114 16.9688" fill="white"/>
<path d="M30.5412 26.9267L29.7325 26.118L30.1253 25.7253L30.9339 26.5339L31.0264 26.996L30.5412 26.9267Z" fill="white"/>
<path d="M49.1543 16.3408C49.7559 16.3408 50.3027 16.4775 50.7949 16.751C51.2917 17.0199 51.6813 17.3958 51.9639 17.8789C52.2464 18.362 52.3877 18.8997 52.3877 19.4922C52.3877 20.3854 52.0778 21.1305 51.458 21.7275C50.8382 22.3245 50.0703 22.623 49.1543 22.623H46.7139V26H45.0527V16.3408H49.1543ZM49.127 21.0576C49.569 21.0576 49.9382 20.9095 50.2344 20.6133C50.5306 20.3125 50.6787 19.9388 50.6787 19.4922C50.6787 19.0365 50.5306 18.6582 50.2344 18.3574C49.9382 18.0566 49.569 17.9062 49.127 17.9062H46.7139V21.0576H49.127ZM56.6727 26.1709C55.5835 26.1709 54.6743 25.8132 53.9452 25.0977C53.216 24.3822 52.8514 23.4935 52.8514 22.4316C52.8514 21.3698 53.216 20.4811 53.9452 19.7656C54.6743 19.0501 55.5835 18.6924 56.6727 18.6924C57.3836 18.6924 58.0308 18.8564 58.6141 19.1846C59.202 19.5081 59.6623 19.957 59.995 20.5312C60.3276 21.1009 60.494 21.7344 60.494 22.4316C60.494 23.1289 60.3276 23.7646 59.995 24.3389C59.6623 24.9085 59.202 25.3574 58.6141 25.6855C58.0308 26.0091 57.3836 26.1709 56.6727 26.1709ZM55.0936 24.0176C55.5174 24.4414 56.0438 24.6533 56.6727 24.6533C57.3016 24.6533 57.8234 24.4414 58.2381 24.0176C58.6574 23.5892 58.867 23.0605 58.867 22.4316C58.867 21.7982 58.6574 21.2695 58.2381 20.8457C57.8234 20.4173 57.3016 20.2031 56.6727 20.2031C56.0438 20.2031 55.5174 20.4173 55.0936 20.8457C54.6698 21.2741 54.4579 21.8027 54.4579 22.4316C54.4579 23.0605 54.6698 23.5892 55.0936 24.0176ZM70.7331 18.8633H72.4284L69.8649 26H68.2448L66.5495 20.7363L64.8405 26H63.2136L60.6569 18.8633H62.4069L64.068 24.0244L65.7634 18.8633H67.363L69.0651 24.0381L70.7331 18.8633ZM80.104 22.4453C80.104 22.6549 80.0904 22.86 80.063 23.0605H74.2798C74.4074 23.5755 74.6763 23.988 75.0864 24.2979C75.5012 24.6032 75.9979 24.7559 76.5767 24.7559C77.0233 24.7559 77.438 24.6624 77.8208 24.4756C78.2082 24.2887 78.509 24.054 78.7232 23.7715L79.7827 24.6807C79.4136 25.1455 78.9442 25.5101 78.3745 25.7744C77.8094 26.0387 77.1965 26.1709 76.5357 26.1709C75.4055 26.1709 74.4644 25.8109 73.7124 25.0908C72.965 24.3708 72.5913 23.4753 72.5913 22.4043C72.5913 21.7116 72.7554 21.0827 73.0835 20.5176C73.4116 19.9479 73.8628 19.5013 74.437 19.1777C75.0158 18.8542 75.6561 18.6924 76.3579 18.6924C77.4289 18.6924 78.3198 19.0501 79.0308 19.7656C79.7463 20.4766 80.104 21.3698 80.104 22.4453ZM76.3443 20.1074C75.8384 20.1074 75.3963 20.2601 75.0181 20.5654C74.6444 20.8708 74.3937 21.2741 74.2661 21.7754H78.4292C78.3107 21.2741 78.0601 20.8708 77.6773 20.5654C77.299 20.2601 76.8547 20.1074 76.3443 20.1074ZM85.1752 18.7471H85.4418V20.3604H85.1752C84.4824 20.3604 83.9379 20.5563 83.5414 20.9482C83.1494 21.3356 82.9535 21.862 82.9535 22.5273V26H81.3812V18.8633H82.9535V19.9092C83.5231 19.1344 84.2637 18.7471 85.1752 18.7471ZM93.3498 22.4453C93.3498 22.6549 93.3361 22.86 93.3088 23.0605H87.5256C87.6532 23.5755 87.9221 23.988 88.3322 24.2979C88.7469 24.6032 89.2437 24.7559 89.8225 24.7559C90.2691 24.7559 90.6838 24.6624 91.0666 24.4756C91.454 24.2887 91.7548 24.054 91.9689 23.7715L93.0285 24.6807C92.6594 25.1455 92.19 25.5101 91.6203 25.7744C91.0552 26.0387 90.4423 26.1709 89.7814 26.1709C88.6512 26.1709 87.7102 25.8109 86.9582 25.0908C86.2108 24.3708 85.8371 23.4753 85.8371 22.4043C85.8371 21.7116 86.0012 21.0827 86.3293 20.5176C86.6574 19.9479 87.1086 19.5013 87.6828 19.1777C88.2616 18.8542 88.9019 18.6924 89.6037 18.6924C90.6747 18.6924 91.5656 19.0501 92.2766 19.7656C92.9921 20.4766 93.3498 21.3698 93.3498 22.4453ZM89.59 20.1074C89.0842 20.1074 88.6421 20.2601 88.2639 20.5654C87.8902 20.8708 87.6395 21.2741 87.5119 21.7754H91.675C91.5565 21.2741 91.3059 20.8708 90.923 20.5654C90.5448 20.2601 90.1005 20.1074 89.59 20.1074ZM100.239 15.917H101.812V26H100.239V24.9746C99.6104 25.7721 98.7764 26.1709 97.7373 26.1709C97.0765 26.1709 96.4773 26.0091 95.9395 25.6855C95.4017 25.3574 94.9802 24.9085 94.6748 24.3389C94.3741 23.7692 94.2237 23.1335 94.2237 22.4316C94.2237 21.7298 94.3741 21.0941 94.6748 20.5244C94.9802 19.9548 95.4017 19.5081 95.9395 19.1846C96.4773 18.8564 97.0765 18.6924 97.7373 18.6924C98.781 18.6924 99.6149 19.0889 100.239 19.8818V15.917ZM98.045 24.6533C98.6739 24.6533 99.1957 24.4414 99.6104 24.0176C100.03 23.5892 100.239 23.0605 100.239 22.4316C100.239 21.7982 100.03 21.2695 99.6104 20.8457C99.1957 20.4173 98.6739 20.2031 98.045 20.2031C97.4115 20.2031 96.8829 20.4173 96.459 20.8457C96.0398 21.2695 95.8301 21.7982 95.8301 22.4316C95.8301 23.0605 96.0398 23.5892 96.459 24.0176C96.8829 24.4414 97.4115 24.6533 98.045 24.6533ZM110.894 18.6924C111.551 18.6924 112.148 18.8564 112.685 19.1846C113.223 19.5081 113.645 19.957 113.95 20.5312C114.255 21.1009 114.408 21.7344 114.408 22.4316C114.408 23.1289 114.255 23.7646 113.95 24.3389C113.645 24.9085 113.223 25.3574 112.685 25.6855C112.148 26.0091 111.551 26.1709 110.894 26.1709C110.375 26.1709 109.901 26.0661 109.472 25.8564C109.044 25.6468 108.679 25.3483 108.379 24.9609V26H106.806V15.917H108.379V19.8955C108.675 19.5127 109.037 19.2165 109.466 19.0068C109.898 18.7972 110.375 18.6924 110.894 18.6924ZM109.008 24.0176C109.431 24.4414 109.958 24.6533 110.587 24.6533C111.216 24.6533 111.74 24.4414 112.159 24.0176C112.578 23.5892 112.788 23.0605 112.788 22.4316C112.788 21.8027 112.578 21.2741 112.159 20.8457C111.74 20.4173 111.216 20.2031 110.587 20.2031C109.958 20.2031 109.431 20.4173 109.008 20.8457C108.588 21.2741 108.379 21.8027 108.379 22.4316C108.379 23.0605 108.588 23.5892 109.008 24.0176ZM120.511 18.8633H122.261L118.604 27.3604C118.413 27.8206 118.132 28.1807 117.763 28.4404C117.399 28.7002 116.998 28.8301 116.56 28.8301C116.259 28.8301 115.945 28.764 115.617 28.6318C115.293 28.5042 115.015 28.3356 114.783 28.126L115.412 26.9092C115.671 27.1826 115.97 27.3193 116.307 27.3193C116.685 27.3193 116.97 27.1165 117.162 26.7109L117.544 25.918L114.557 18.8633H116.355L118.426 24.0654L120.511 18.8633ZM130.674 16.3408C131.276 16.3408 131.823 16.4775 132.315 16.751C132.811 17.0199 133.201 17.3958 133.484 17.8789C133.766 18.362 133.907 18.8997 133.907 19.4922C133.907 20.3854 133.598 21.1305 132.978 21.7275C132.358 22.3245 131.59 22.623 130.674 22.623H128.234V26H126.573V16.3408H130.674ZM130.647 21.0576C131.089 21.0576 131.458 20.9095 131.754 20.6133C132.05 20.3125 132.198 19.9388 132.198 19.4922C132.198 19.0365 132.05 18.6582 131.754 18.3574C131.458 18.0566 131.089 17.9062 130.647 17.9062H128.234V21.0576H130.647ZM135.089 26V15.917H136.661V26H135.089ZM141.623 26.1709C140.629 26.1709 139.83 25.8952 139.224 25.3438C138.622 24.7923 138.321 24.0632 138.321 23.1562V18.8633H139.887V22.9512C139.887 23.4616 140.046 23.874 140.365 24.1885C140.684 24.4984 141.103 24.6533 141.623 24.6533C142.143 24.6533 142.559 24.4984 142.874 24.1885C143.188 23.8786 143.346 23.4661 143.346 22.9512V18.8633H144.911V23.1562C144.911 24.0632 144.61 24.7923 144.009 25.3438C143.407 25.8952 142.612 26.1709 141.623 26.1709ZM155.143 18.6924C155.955 18.6924 156.602 18.9362 157.085 19.4238C157.572 19.9115 157.816 20.5586 157.816 21.3652V26H156.244V21.8301C156.244 21.3379 156.1 20.9437 155.813 20.6475C155.526 20.3512 155.143 20.2031 154.665 20.2031C154.159 20.2031 153.749 20.3558 153.434 20.6611C153.124 20.9665 152.969 21.3652 152.969 21.8574V26H151.404V21.8301C151.404 21.3379 151.258 20.9437 150.967 20.6475C150.679 20.3512 150.297 20.2031 149.818 20.2031C149.317 20.2031 148.909 20.3558 148.594 20.6611C148.285 20.9619 148.13 21.3607 148.13 21.8574V26H146.557V18.8633H148.13V19.6973C148.672 19.0273 149.408 18.6924 150.338 18.6924C150.857 18.6924 151.315 18.804 151.712 19.0273C152.108 19.2461 152.416 19.5537 152.635 19.9502C153.213 19.1117 154.05 18.6924 155.143 18.6924ZM166.551 22.4453C166.551 22.6549 166.538 22.86 166.51 23.0605H160.727C160.855 23.5755 161.124 23.988 161.534 24.2979C161.949 24.6032 162.445 24.7559 163.024 24.7559C163.471 24.7559 163.885 24.6624 164.268 24.4756C164.656 24.2887 164.956 24.054 165.171 23.7715L166.23 24.6807C165.861 25.1455 165.392 25.5101 164.822 25.7744C164.257 26.0387 163.644 26.1709 162.983 26.1709C161.853 26.1709 160.912 25.8109 160.16 25.0908C159.412 24.3708 159.039 23.4753 159.039 22.4043C159.039 21.7116 159.203 21.0827 159.531 20.5176C159.859 19.9479 160.31 19.5013 160.884 19.1777C161.463 18.8542 162.103 18.6924 162.805 18.6924C163.876 18.6924 164.767 19.0501 165.478 19.7656C166.194 20.4766 166.551 21.3698 166.551 22.4453ZM162.792 20.1074C162.286 20.1074 161.844 20.2601 161.465 20.5654C161.092 20.8708 160.841 21.2741 160.713 21.7754H164.877C164.758 21.2741 164.507 20.8708 164.125 20.5654C163.746 20.2601 163.302 20.1074 162.792 20.1074Z" fill="#F0F0F0"/>
</svg>
