<svg width="100" height="32" viewBox="0 0 100 32" fill="none" xmlns="http://www.w3.org/2000/svg">
<g clip-path="url(#clip0_3077_628)">
<path d="M9.69995 25.6V22.8H5.99995V19H9.69995V16.1H17V12.1H8.49995V8.4H20.2999V12.1H21.9V25.5H9.69995V25.6ZM17 19.9H11V21.9H17.1V19.9H17ZM4.29995 0.200001V8.4H0.699951V0.200001H4.39995H4.29995ZM26.7999 32.2V8.6H29V10.8C29.5 9.8 30 9.2 30.7 8.8C31.4 8.4 32.2 8.2 33 8.2C34.0818 8.2 35.1345 8.55089 36 9.2C36.9 9.9 37.6 10.8 38.2 12.2C38.7 13.5 38.9 15.2 38.9 17C38.9 20 38.3999 22.1 37.0999 23.7C35.8999 25.3 34.4999 26.1 32.7999 26.1C32.0999 26.1 31.4999 25.9 30.7999 25.5C30.0999 25.1 29.6 24.5 29.2 23.9V32.2H26.7999ZM28.9 17.2C28.9 18.9 29.2 20.6 30.1 22.1C30.8 23.1 31.7 23.7 32.7 23.7C33.7 23.7 34.7 23.1 35.4 22C36.2 21 36.5 19.3 36.5 17C36.5 14.8 36.2 13.1 35.5 12C34.7 11 33.8 10.4 32.7 10.4C31.7 10.4 30.9 11 30.1 12.2C29.2222 13.7145 28.8052 15.4521 28.9 17.2ZM40.9 17.1C40.9 14.1 41.5999 11.9 42.7999 10.4C43.3587 9.69352 44.0744 9.1269 44.8902 8.74503C45.706 8.36317 46.5995 8.17656 47.5 8.2C48.4004 8.17656 49.2939 8.36317 50.1097 8.74503C50.9255 9.1269 51.6412 9.69352 52.2 10.4C53.6 12.4 54.1999 14.6 54.0999 16.9C54.0999 20 53.5 22.3 52.2 23.8C51.6412 24.5065 50.9255 25.0731 50.1097 25.455C49.2939 25.8368 48.4004 26.0234 47.5 26C46.6018 26.0085 45.7133 25.8152 44.8998 25.4344C44.0863 25.0536 43.3687 24.4951 42.7999 23.8C41.4999 22.3 40.9 20 40.9 17V17.1ZM43.2999 17.1C43.2999 19.3 43.7999 20.9 44.5999 22.1C45.3999 23.1 46.3999 23.7 47.5999 23.7C48.6999 23.7 49.6 23.1 50.5 22C51.3866 20.5257 51.805 18.8171 51.7 17.1C51.7 14.9 51.2 13.3 50.4 12.1C50.0592 11.6253 49.608 11.2406 49.0853 10.9793C48.5626 10.7179 47.9842 10.5878 47.4 10.6C46.3 10.6 45.4 11.1 44.5 12.2C43.7 13.2 43.2999 14.9 43.2999 17.1ZM55.9 20.5L58.2999 20.1C58.4999 21.3 58.8 22.1 59.4 22.8C60.1 23.3 60.9 23.7 61.9 23.7C62.9 23.7 63.6999 23.4 64.2999 22.9C64.5921 22.657 64.825 22.3505 64.981 22.004C65.1369 21.6574 65.2118 21.2798 65.2 20.9C65.185 20.6066 65.1055 20.32 64.9673 20.0608C64.829 19.8015 64.6353 19.5759 64.4 19.4C64.1 19.1 63.3 18.8 62 18.4C60.7 18.1 59.4999 17.6 58.2999 17C57.6834 16.5755 57.1984 15.9865 56.9 15.3C56.5 14.7 56.4 14 56.4 13.1C56.4 11.6 56.8 10.4 57.7 9.5C58.7 8.6 60 8.2 61.7 8.2C62.7 8.2 63.6 8.3 64.4 8.7C65.2 9.1 65.8 9.7 66.2 10.2C66.6 10.9 66.9 11.8 67.1 13L64.6999 13.3C64.4999 11.5 63.5 10.6 61.7 10.6C60.7 10.6 59.9 10.7 59.4 11.2C59.1699 11.3964 58.9873 11.6424 58.8661 11.9196C58.7448 12.1967 58.688 12.4977 58.7 12.8C58.7 13.4 58.8999 13.9 59.2999 14.2C59.6999 14.5 60.5 14.8 62 15.2C64 15.9 65.2 16.4 65.7 16.8C66.3 17.1 66.7 17.6 67.1 18.3C67.4 19 67.6 19.7 67.6 20.6C67.6 22.2 67.1 23.6 66 24.6C65 25.6 63.5999 26.1 61.7999 26.1C58.4999 26.1 56.5 24.2 56 20.6L55.9 20.5ZM75.7 23.1L76 25.6L74.2 25.9C73.4 25.9 72.7 25.7 72.2 25.4C71.7 25.1 71.4 24.6 71.2 24C71 23 70.9 21.8 70.9 20.6V10.8H69.2V8.5H70.9V4.4L73.3 2.6V8.6H75.7V10.8H73.3V20.8C73.3 21.8 73.3 22.4 73.5 22.6C73.7 23 74.1 23.2 74.6 23.2H75.6V23L75.7 23.1ZM77.9 25.6V8.6H80V11.2C80.6 10 81 9.2 81.5 8.8C81.9 8.4 82.5 8.2 83.1 8.2C83.9654 8.2 84.8076 8.48071 85.5 9L84.7 11.7C84.2082 11.3304 83.6147 11.121 83 11.1C82.4864 11.0806 81.985 11.2596 81.6 11.6C81.1 12 80.9 12.4 80.7 13.1C80.4 14.2 80.2 15.4 80.3 16.6V25.6H77.9ZM86 17.1C86 14.1 86.6 11.9 87.8 10.4C88.3583 9.6613 89.0855 9.06703 89.9205 8.66688C90.7556 8.26674 91.6744 8.07236 92.6 8.1C93.5088 8.08829 94.4077 8.29035 95.2241 8.68986C96.0405 9.08938 96.7515 9.67517 97.3 10.4C98.7 12.3 99.3 14.6 99.3 16.9C99.3 19.9 98.6 22.2 97.3 23.8C96.7412 24.5065 96.0255 25.0731 95.2097 25.455C94.3939 25.8368 93.5004 26.0234 92.6 26C91.7018 26.0085 90.8133 25.8152 89.9998 25.4344C89.1864 25.0536 88.4688 24.4951 87.9 23.8C86.7 22.2 86.1 20 86.1 17.1H86ZM88.4 17.1C88.4 19.3 88.8 20.9 89.6 22.1C90.5 23.1 91.4 23.7 92.6 23.7C93.7 23.7 94.7 23.1 95.5 22C96.3 21 96.7 19.3 96.7 17.1C96.7 14.9 96.3 13.3 95.5 12.1C95.1592 11.6253 94.708 11.2406 94.1853 10.9793C93.6626 10.7179 93.0842 10.5878 92.5 10.6C91.4 10.6 90.5 11.1 89.6 12.2C88.762 13.6542 88.3789 15.326 88.5 17L88.4 17.1Z" fill="white"/>
</g>
<defs>
<clipPath id="clip0_3077_628">
<rect width="99" height="32" fill="white" transform="translate(0.5)"/>
</clipPath>
</defs>
</svg>
