<svg width="158" height="216" viewBox="0 0 158 216" fill="none" xmlns="http://www.w3.org/2000/svg">
<path d="M128.967 188.547C128.967 179.644 134.499 172.363 143.701 172.363C154.226 172.363 158.133 180.184 157.653 188.004H135.28C135.399 195.584 139.671 199.975 145.385 199.975C149.835 199.975 152.962 197.51 154.467 193.118L157.895 194.081C156.452 200.518 151.459 204.791 144.243 204.791C134.86 204.791 128.967 197.513 128.967 188.547ZM135.462 184.996H151.218C150.917 179.883 148.27 175.551 143.701 175.551C139.131 175.551 136.183 179.641 135.462 184.996Z" fill="#141414"/>
<path d="M125.656 200.879L127.76 203.705V204.185H117.354V203.705L119.459 200.879V165.857L117.354 162.789V162.309L125.653 160.807V200.879H125.656Z" fill="#141414"/>
<path d="M84.0388 215.437V214.957L86.1432 211.83V176.394L84.0388 173.723L83.9971 172.667H92.2776V178.684C93.9617 174.835 97.8724 172.366 102.26 172.366C110.38 172.366 116.153 178.982 116.153 188.61C116.153 198.237 109.778 204.793 100.996 204.793C97.5684 204.793 94.379 203.41 92.2746 200.822V211.83L95.1599 214.957V215.437H84.0328H84.0388ZM100.397 201.359C105.989 201.359 109.718 195.884 109.718 188.607C109.718 181.329 106.171 176.755 100.817 176.755C89.2849 176.755 88.2178 201.359 100.397 201.359Z" fill="#141414"/>
<path d="M64.5807 204.788C56.4612 204.788 50.6875 198.109 50.6875 188.544C50.6875 178.98 57.0633 172.361 65.8446 172.361C69.7553 172.361 73.3024 173.985 75.2279 176.21L77.6334 172.662H80.7006V200.816L82.805 203.703V204.186H74.5662V198.47C72.8821 202.259 68.9714 204.788 64.5837 204.788H64.5807ZM66.083 200.396C78.1997 200.396 78.0984 175.792 66.4437 175.792C60.8518 175.792 57.1229 181.266 57.1229 188.547C57.1229 195.828 60.67 200.399 66.083 200.399V200.396Z" fill="#141414"/>
<path d="M0.110291 204.187V203.707L2.69757 200.699L2.70651 164.485L0 161.298V160.818H9.91395L22.2423 188.731C24.2871 193.242 25.3095 197.032 25.3095 197.032C25.3095 197.032 26.3319 193.242 28.2574 188.669L40.1059 160.815H50.0884V161.295L47.3819 164.482V200.517L50.0884 203.704V204.185H38.0611V203.704L40.7676 200.517V177.959C40.7676 173.024 41.0686 169.056 41.0686 169.056C41.0686 169.056 39.6856 172.786 37.7004 177.357L25.9742 204.187H22.126L10.2776 177.476C8.23281 172.965 6.90936 169.235 6.90936 169.235C6.90936 169.235 7.21041 173.206 7.21041 178.138L7.32965 200.696L9.91693 203.704V204.185H0.11327L0.110291 204.187Z" fill="#141414"/>
<path d="M24.8647 62.7482C48.4825 62.0605 104.815 59.4759 117.386 41.1872C126.944 27.2894 105.85 12.8172 95.8237 7.58752C85.7979 2.34276 71.8509 0 71.8509 0C99.9187 3.16651 144.291 18.538 130.48 46.4849C118.112 71.4995 53.6276 74.9003 24.8496 74.9003V62.7406H24.8647V62.7482Z" fill="#FC784A"/>
<path d="M24.8496 125.527V113.563C60.5709 112.369 108.305 111.334 133.064 87.657C133.736 108.515 105.177 117.924 83.3198 121.846C64.4014 125.239 44.2591 126.071 24.8572 125.527H24.8496Z" fill="#FC784A"/>
<path d="M133.08 61.7505C113.474 82.004 74.1334 87.6267 24.4727 87.6267V99.7561C76.6946 99.7561 132.928 92.093 133.08 61.7505Z" fill="#FC784A"/>
</svg>
