<svg width="175" height="200" viewBox="0 0 175 200" fill="none" xmlns="http://www.w3.org/2000/svg">
<path d="M80.317 146.191C81.6854 149.837 82.8385 153.603 82.9354 157.496C83.3631 174.672 73.0031 190.998 56.0062 197.359C34.5595 205.385 10.6672 194.505 2.64131 173.058C-5.38457 151.611 5.4952 127.719 26.9419 119.693C27.3279 119.549 27.7146 119.41 28.1019 119.278L39.5648 149.193C39.0858 149.292 38.6082 149.428 38.1357 149.605C33.2089 151.449 30.7096 156.937 32.5533 161.864C34.3971 166.791 39.8856 169.29 44.8124 167.447C49.7392 165.603 52.2385 160.114 50.3948 155.188C50.3461 155.057 50.2949 154.929 50.2412 154.802L31.1921 105.069L31.0804 105.124L29.459 100.663C15.1251 62.0956 34.7104 19.1833 73.2659 4.75498C111.875 -9.69347 154.887 9.89263 169.335 48.5018L170.083 50.5007C184.022 87.7486 166.209 129.373 129.64 145.006C117.624 150.142 104.661 152.617 91.6369 152.284L78.9637 119.352L89.1965 120.183C98.724 120.956 108.296 119.396 117.086 115.639C137.96 106.716 148.128 82.9559 140.171 61.6945L139.423 59.6956C131.157 37.6064 106.549 26.4007 84.4597 34.667C62.3705 42.9333 51.1648 67.5413 59.4311 89.6305L63.2924 100.254L63.2673 100.24L63.9534 102.073L69.9682 118.623L80.317 146.191Z" fill="#1A1A1A"/>
</svg>
