<?xml version="1.0" encoding="UTF-8"?>
<svg id="Layer_1" data-name="Layer 1" xmlns="http://www.w3.org/2000/svg" version="1.1" viewBox="0 0 2853 1200">
  <defs>
    <style>
      .cls-1 {
        fill: #f4f4f4;
      }

      .cls-1, .cls-2 {
        stroke-width: 0px;
      }

      .cls-2 {
        fill: #14121f;
      }
    </style>
  </defs>
  <rect class="cls-1" width="2853" height="1200"/>
  <g>
    <path class="cls-2" d="M563.9,300v160.8l-87.9-134.1-56.2,40.3,86.5,130.2h44.1c3,0,5.8,1.5,7.5,4l10.1,15.2h57.4v-216.4h-61.5Z"/>
    <path class="cls-2" d="M318.8,475.7l139.3,80.3-160.2,9.2,6.8,68.7,156.1-9.7,22-38.2c1.5-2.6,4.2-4.3,7.2-4.5l18.2-1.2,28.7-49.6-187.6-108.2-30.7,53.3Z"/>
    <path class="cls-2" d="M348.4,775.7l139.3-80.4-72.2,143.1,63.1,28.5,69.5-140-22.1-38.2c-1.5-2.6-1.6-5.8-.3-8.5l8-16.3-28.7-49.6-187.5,108.2,30.8,53.3Z"/>
    <path class="cls-2" d="M623.1,739.1l88.1,134.1,56.2-40.3-86.5-130.3h-44.2c-3,0-5.8-1.5-7.5-4l-10.1-15.1h-57.4v216.4h61.5v-160.9Z"/>
    <path class="cls-2" d="M868.3,724.3l-139.3-80.4,160-9.1-6.8-68.7-156.1,9.7-22.1,38.2c-1.5,2.6-4.2,4.3-7.2,4.5l-18.2,1.2-28.6,49.6,187.5,108.3,30.8-53.3h0Z"/>
    <path class="cls-2" d="M838.7,424.3l-139.3,80.4,72.1-143.1-63-28.5-69.5,140,22,38.2c1.5,2.6,1.6,5.8.3,8.4l-8,16.3,28.6,49.6,187.5-108.2-30.7-53.3h0Z"/>
    <path class="cls-2" d="M2528.4,467.9c-16.5-35.7-40.2-63.2-70.4-81.8-30.1-18.6-66-28-106.5-28s-76.3,9.4-106.6,28c-30.2,18.6-53.9,46.1-70.4,81.8-16.4,35.5-24.7,80-24.7,132.1s8.4,96.1,24.7,131.8c16.5,35.9,40.2,63.6,70.4,82.1,30.2,18.6,66,28,106.6,28s76.3-9.4,106.5-28c30.2-18.6,53.9-46.2,70.4-82.1,16.4-35.7,24.7-80.1,24.7-131.8s-8.4-96.6-24.7-132.1ZM2413.9,755.1c-17.5,10.9-38.5,16.6-62.3,16.6s-44.3-5.6-62-16.6c-17.8-11-31.8-26.7-41.9-46.7-9.9-20.1-15.1-44.1-15.1-71.5v-73.8c0-27.9,5.1-52.1,15.1-72.2,9.9-19.9,24.1-35.4,41.8-46.3,17.8-10.8,38.6-16.3,62.1-16.3s44.8,5.5,62.4,16.2c17.6,10.8,31.4,26.4,41.5,46.3,9.9,20.1,15.1,44.4,15.1,72.2v73.8c0,27.5-5.1,51.4-15.1,71.5-9.9,19.9-24,35.6-41.5,46.7h-.1Z"/>
    <path class="cls-2" d="M1299.8,601.2c-3.9-5.7-11.1-8.2-17.6-5.7l-31.8,11.7c-5.6,2-10.1-4.8-6.1-9.1l200.6-232.1h-93l-128.5,154.4-61.9,78v-232.5h-77.5v468h77.5v-147.5l59.8-67.8,139.8,213.5,1.1,1.7h94.1l-156.5-232.8h0Z"/>
    <path class="cls-2" d="M1964.5,367.8v468.1h78.1v-347.5c0-5.7-3.3-10.9-8.5-13.5l-35.8-17.5c-5.4-2.6-3.6-10.6,2.5-10.6h41.9v-78.9h-78.2Z"/>
    <path class="cls-2" d="M1477.7,834h81.8l41.6-127.3h170.1l41.6,127.3h79.2l-160.3-468h-93.8l-.9,2.6-159.4,465.5h.2ZM1620.8,638.5l65.7-197.1,65.1,197.1,9.9,30.2c1.8,5.5-5.2,9.4-9,5.1l-26.2-30.1c-2.9-3.3-7-5.2-11.3-5.2h-94.2Z"/>
  </g>
</svg>