<svg width="1080" height="1080" viewBox="0 0 1080 1080" fill="none" xmlns="http://www.w3.org/2000/svg">
<path d="M538.839 947.976C764.248 947.976 946.978 765.246 946.978 539.837C946.978 314.428 764.248 131.697 538.839 131.697C313.429 131.697 130.699 314.428 130.699 539.837C130.699 765.246 313.429 947.976 538.839 947.976Z" fill="#010101"/>
<path fill-rule="evenodd" clip-rule="evenodd" d="M540.001 41C263.937 41 40 264.417 40 539.837C40 815.255 263.937 1038.67 540.001 1038.67C816.062 1038.67 1040 815.255 1040 539.837C1040 264.417 816.187 41 540.001 41ZM738.687 538.278C738.687 535.347 738.498 532.479 738.313 529.548L818.875 504.108C820.247 515.332 821 526.68 821 538.278C821 679.202 716.813 795.805 581.06 815.634V890.335H498.812V562.035L351 476.921C344.688 496.251 341.187 516.828 341.187 538.278C341.187 614.663 384.75 681.068 448.375 714.18L430.125 796.489C329.438 753.838 258.812 654.32 258.812 538.278C258.812 501.863 265.812 467.132 278.5 435.206L213.75 397.918L254.937 326.771L539.936 490.826L686.873 406.211C650.688 365.681 598.564 339.99 539.876 339.99C500.562 339.99 463.937 351.464 433 371.23L370.625 314.363C417.687 278.883 476.312 257.869 539.811 257.869C629.063 257.869 708.498 299.398 759.998 364.059L824.812 326.709L866.001 397.855L581 561.975V732.198C670.875 713.243 738.563 633.494 738.563 538.216L738.687 538.278Z" fill="#FEFEFE"/>
</svg>
