<svg width="1080" height="1080" viewBox="0 0 1080 1080" fill="none" xmlns="http://www.w3.org/2000/svg">
<g clip-path="url(#clip0_10_37)">
<rect x="40" y="40" width="1000" height="1000" rx="100" fill="#FEFEFE"/>
<mask id="mask0_10_37" style="mask-type:alpha" maskUnits="userSpaceOnUse" x="-108" y="-192" width="1200" height="1275">
<path d="M361.372 1055H1070.49C1077.83 1048.68 1073.16 890.961 1070.82 791.843C1069.84 750.475 1070.49 674.802 1070.49 633.423V571.195C1070.49 560.895 1070.49 545.248 1070.49 534.948C1070.49 500.659 1070.49 438.559 1070.49 404.27V343.589C1070.49 323.352 1070.49 291.162 1070.49 270.925V54.998C1070.49 19.5236 1110.95 10.8728 1078.94 -4.41992C937.604 -71.9457 762.169 -153.984 747.122 -178.999C747.027 -179.157 746.931 -179.31 746.838 -179.462C753.14 -179.755 750.338 -180.064 746.515 -179.984C742.024 -187.107 727.771 -179.05 719.351 -179.017C716.344 -179.005 713.069 -178.999 709.507 -178.999H679.947C644.451 -178.999 572.494 -207.985 552.004 -178.999C541.754 -164.249 552.622 -151.499 534.372 -178.999C521.982 -197.785 477.237 -178.999 454.734 -178.999H401.49C328.997 -178.999 74.6303 13.1449 29.0205 49.2041C29.0251 51.4094 27.0074 54.4949 22.001 58.6904C11.252 67.6896 -77.6075 391.733 -78.874 391.795C-80.374 391.795 -78.874 420.295 -78.874 464.795V514.089C-78.874 528.086 -80.5449 547.58 -78.874 561.477V759.617C-78.874 776.178 -91.5317 803.855 -78.874 814.535C-48.8753 840.035 -155.374 853.035 -78.874 867.285C-13.3748 879.785 -86.374 879.535 -78.874 916.035C-61.3743 1003.29 -111.123 1082.6 -75.373 1082.6L361.372 1055ZM746.838 -179.462C753.14 -179.755 750.338 -180.064 746.515 -179.984C746.622 -179.814 746.729 -179.64 746.838 -179.462ZM22.001 54.998C21.8133 54.998 24.2976 52.938 29.0205 49.2041C28.9927 35.7722 -46.0724 54.998 22.001 54.998ZM454.872 978.698C409.372 1026.95 375.122 986.698 350.872 856.698C331.622 752.449 334.622 755.948 255.872 742.948C120.622 720.448 77.123 701.698 77.123 665.948C77.1234 635.198 118.623 610.448 197.122 593.948C302.372 572.198 345.372 550.698 324.122 531.198C308.622 517.198 278.372 507.198 199.622 490.198C104.372 469.698 75.1231 450.948 80.873 413.948C85.1233 385.449 113.373 370.948 203.622 351.698C292.622 332.948 315.872 327.448 318.622 324.698C322.122 321.197 326.872 298.947 335.872 245.448C351.622 151.699 362.872 113.698 380.122 94.1982C396.622 75.1985 411.372 71.1983 431.122 80.1982C454.122 90.6982 466.872 119.448 484.622 200.448C503.372 285.448 519.622 322.948 537.372 322.948C553.622 322.948 566.372 292.448 585.622 207.198C607.872 108.699 619.872 84.4482 649.372 77.6982C690.872 68.4482 708.872 100.449 734.872 231.698C741.622 265.947 748.872 299.947 750.872 306.948C753.142 314.665 759.84 320.252 767.838 321.1L771.122 321.448C815.622 325.948 950.876 356.448 972.626 366.698C1009.88 384.448 1017.63 414.698 991.127 440.948C976.377 455.948 942.372 467.448 860.872 485.448C801.373 498.698 761.623 515.698 758.122 529.448C752.872 550.448 776.372 560.948 875.872 581.698C959.872 599.198 993.377 614.949 1003.63 641.948C1016.88 676.948 988.122 697.948 899.372 717.698C880.872 721.698 849.622 728.698 829.622 732.948C778.873 743.948 764.872 747.948 762.122 752.948C759.872 757.198 752.372 793.948 747.122 827.948C728.622 945.948 704.122 997.948 666.872 997.948C637.622 997.948 619.622 964.948 596.872 870.448C575.622 781.699 560.622 751.449 539.372 753.448C524.372 754.948 517.372 773.449 494.622 873.948C478.622 944.198 472.872 959.698 454.872 978.698ZM449.564 594.501C461.203 606.316 469.204 606.808 478.903 596.224C505.576 567.177 492.239 466.005 461.688 466.005C460.474 466.006 455.626 469.206 451.262 473.39C426.529 495.298 425.559 570.131 449.564 594.501ZM615.572 597.438C643.7 621.173 666.303 575.218 658.016 511.084C653.495 475.987 641.189 459.827 625.116 468.159C592.217 484.824 585.687 572.189 615.572 597.438ZM-76.7402 577.896C-75.8566 597.133 -73.925 598.673 -76.5109 579.589C-76.588 579.021 -76.6644 578.456 -76.7402 577.896ZM1069.51 1065.17C1076.56 1055 1091.37 1055 1070.49 1055C1028.48 1064.07 1060.07 1045.88 1069.51 1065.17ZM1069.51 1065.17C1069.92 1066.02 1068.5 1066.75 1069 1065.94C1069.16 1065.68 1069.33 1065.42 1069.51 1065.17Z" fill="#FF3E3E"/>
</mask>
<g mask="url(#mask0_10_37)">
<rect x="40.0073" y="40.4375" width="1000" height="1000" rx="100" fill="#24231D"/>
</g>
</g>
<defs>
<clipPath id="clip0_10_37">
<rect x="40" y="40" width="1000" height="1000" rx="100" fill="white"/>
</clipPath>
</defs>
</svg>
