<svg width="1080" height="1080" viewBox="0 0 1080 1080" fill="none" xmlns="http://www.w3.org/2000/svg">
<path d="M746.187 283.095C658.721 283.095 580.829 323.872 530.287 387.382L574.611 470.881C606.615 408.667 671.385 366.06 746.149 366.06C852.649 366.06 938.971 452.381 938.971 558.88C938.971 665.38 852.649 751.701 746.149 751.701V752.044C678.022 751.93 614.32 715.273 579.723 656.225L527.846 558.537L527.922 558.423L507.972 521.079L372.215 265.358L69.917 834.666H163.296L226.654 715.426H288.449L332.086 632.843H270.521L372.215 441.471L434.391 558.575L287.8 834.666H381.446L481.195 646.651L497.788 677.93C500.916 684.414 517.699 712.641 517.699 712.641C568.661 788.129 655.021 834.551 746.225 834.627C898.538 834.627 1022.01 711.153 1022.01 558.842C1022.01 406.531 898.499 283.095 746.187 283.095Z" fill="#FEFEFE" stroke="#FEFEFE" stroke-width="5" stroke-miterlimit="10"/>
<path d="M392.265 852.653H257.885L414.025 558.575L372.208 479.816L300.449 614.855H361.936L299.289 733.413H237.466L174.107 852.653H40L372.217 227L523.86 512.645L548.86 559.442L548.767 559.582L595.428 647.447C625.02 697.712 678.006 730.073 735.597 733.714H746.149C792.852 733.714 836.758 715.529 869.779 682.509C902.799 649.489 920.984 605.584 920.984 558.88C920.984 512.177 902.799 468.271 869.779 435.252C836.758 402.232 792.853 384.047 746.149 384.047C713.412 384.047 681.501 393.16 653.867 410.401C626.973 427.179 605.098 450.938 590.607 479.109L574.862 509.716L508.873 385.405L516.213 376.182C543.146 342.337 577.8 314.367 616.427 295.294C656.993 275.264 700.651 265.108 746.187 265.108C785.838 265.108 824.314 272.875 860.546 288.194C895.536 302.988 926.955 324.163 953.934 351.13C980.914 378.1 1002.1 409.511 1016.9 444.491C1032.23 480.718 1040 519.191 1040 558.842C1040 598.493 1032.23 636.968 1016.91 673.197C1002.11 708.181 980.929 739.597 953.955 766.571C926.981 793.544 895.566 814.724 860.581 829.521C824.351 844.845 785.876 852.615 746.225 852.615C698.588 852.575 650.93 840.528 608.388 817.775C565.983 795.096 529.468 762.221 502.791 722.706L502.502 722.278L502.239 721.834C499.416 717.087 485.36 693.384 481.758 686.096L481.194 685.033L392.265 852.653ZM317.717 816.678H370.627L481.196 608.27L513.839 669.804L513.989 670.115C515.886 674.047 526.087 691.542 532.893 702.999C556.281 737.494 588.243 766.204 625.355 786.052C662.704 806.028 704.506 816.605 746.24 816.64C781.036 816.64 814.795 809.826 846.566 796.388C877.263 783.405 904.835 764.814 928.517 741.132C952.199 717.451 970.79 689.879 983.773 659.183C997.211 627.412 1004.02 593.652 1004.02 558.842C1004.02 524.032 997.209 490.277 983.768 458.51C970.781 427.818 952.187 400.251 928.5 376.573C904.814 352.897 877.238 334.31 846.537 321.329C814.761 307.894 780.999 301.082 746.187 301.082C706.223 301.082 667.924 309.988 632.355 327.551C601.919 342.578 574.286 363.909 551.838 389.617L575.81 434.775C591.725 412.953 611.74 394.281 634.824 379.879C668.177 359.071 706.672 348.072 746.149 348.072C774.602 348.072 802.213 353.648 828.214 364.645C853.319 375.263 875.863 390.46 895.217 409.814C914.571 429.168 929.768 451.711 940.386 476.816C951.383 502.817 956.959 530.428 956.959 558.88C956.959 587.333 951.383 614.944 940.386 640.945C929.768 666.051 914.571 688.593 895.217 707.947C875.863 727.301 853.319 742.499 828.214 753.116C807.729 761.78 786.244 767.079 764.136 768.937V770.062L746.119 770.032C671.68 769.907 601.974 729.783 564.203 665.319L563.836 664.662L506.924 557.492L506.984 557.403L492.107 529.555L372.213 303.716L99.8344 816.678H152.484L215.843 697.438H277.61L302.238 650.83H240.593L372.222 403.127L454.757 558.575L317.717 816.678Z" fill="#FEFEFE" stroke="#FEFEFE" stroke-width="5" stroke-miterlimit="10"/>
</svg>
