<svg width="1080" height="1080" viewBox="0 0 1080 1080" fill="none" xmlns="http://www.w3.org/2000/svg">
<path d="M370.993 707.103L328.73 707.104L291.601 633.638L119.784 633.642L82.6579 707.109H40L180.607 430.621L230.77 430.62L370.993 707.103ZM204.306 466.959L134.793 604.019L276.59 604.015L207.072 466.959H204.306Z" fill="#FEFEFE"/>
<path d="M640.724 707.094L407.29 707.1L407.284 430.614L446.783 430.613L446.787 671.55L640.722 671.547L640.724 707.094Z" fill="#FEFEFE"/>
<path d="M605.991 430.61L874.577 430.605L874.579 466.153L760.033 466.155L760.038 707.093H720.541L720.536 466.156L605.991 466.159V430.61Z" fill="#FEFEFE"/>
<path d="M981.907 428.399C1019.99 428.399 1040 447.634 1040 468.408C1040 489.76 1019.99 509.958 977.484 509.958C952.286 509.96 931.705 501.689 923.24 495.533V476.874C931.896 483.991 952.286 493.609 976.715 493.608C1006.72 493.608 1019.99 480.335 1019.99 467.639C1019.99 455.136 1006.72 441.864 976.715 441.865C963.441 441.865 951.131 444.943 945.36 447.059V432.247L1000.18 391.275V390.12L924.2 390.122V373.002L1034.23 373V384.926L975.56 428.015V428.977C977.483 428.592 979.599 428.4 981.907 428.399Z" fill="#919191"/>
</svg>
