<svg width="1080" height="1080" viewBox="0 0 1080 1080" fill="none" xmlns="http://www.w3.org/2000/svg">
<path d="M351.049 610.53C413.259 444.413 493.11 231.894 493.11 231.894C493.11 231.894 574.819 433.277 646.314 610.53H351.049ZM1034.43 984.527C1001 984.527 963.863 983.599 942.507 955.758C925.794 932.557 900.724 873.163 880.297 818.409C859.87 763.655 572.962 50 572.962 50L492.182 92.6894C492.182 92.6894 237.772 733.03 226.63 759.943C216.416 786.856 196.917 836.97 179.276 875.947C143.064 952.046 125.422 975.246 44.6425 984.527L40 985.455V1030C40 1030 127.279 1027.22 208.059 1027.22C288.839 1027.22 372.405 1030 372.405 1030V984.527L325.98 983.599C283.268 981.742 247.985 978.03 247.985 930.701C247.985 913.068 251.699 882.443 279.554 803.561C281.411 797.064 300.91 746.023 326.908 677.349H674.169C712.238 771.08 742.878 848.106 751.235 869.451C764.234 903.788 775.376 931.629 775.376 945.549C775.376 975.246 753.092 984.527 706.667 984.527H676.954V1030C676.954 1030 802.303 1027.22 879.369 1027.22C955.506 1027.22 1040 1030 1040 1030V984.527H1034.43Z" fill="white"/>
</svg>
