<svg width="1080" height="1080" viewBox="0 0 1080 1080" fill="none" xmlns="http://www.w3.org/2000/svg">
<mask id="mask0_9_53" style="mask-type:luminance" maskUnits="userSpaceOnUse" x="40" y="40" width="1000" height="1000">
<path d="M40 40H1040V1040H40V40Z" fill="white"/>
</mask>
<g mask="url(#mask0_9_53)">
<mask id="mask1_9_53" style="mask-type:luminance" maskUnits="userSpaceOnUse" x="40" y="40" width="1000" height="1000">
<path d="M1040 40H40V1040H1040V40Z" fill="white"/>
</mask>
<g mask="url(#mask1_9_53)">
<path d="M540 93.3595C600.32 93.3595 658.81 105.164 713.843 128.44C740.299 139.628 765.818 153.484 789.695 169.61C813.358 185.595 835.611 203.956 855.837 224.179C876.062 244.403 894.421 266.66 910.408 290.316C926.536 314.192 940.391 339.71 951.575 366.163C974.848 421.195 986.651 479.677 986.651 539.997C986.651 600.318 974.848 658.8 951.575 713.831C940.385 740.285 926.536 765.803 910.408 789.678C894.421 813.341 876.062 835.591 855.837 855.814C835.611 876.037 813.358 894.399 789.695 910.383C765.818 926.516 740.299 940.366 713.843 951.554C658.81 974.83 600.32 986.635 540 986.635C479.68 986.635 421.19 974.83 366.157 951.554C339.701 940.366 314.182 926.511 290.305 910.383C266.642 894.399 244.389 876.037 224.163 855.814C203.938 835.591 185.579 813.335 169.593 789.678C153.463 765.803 139.61 740.285 128.424 713.831C105.152 658.8 93.3498 600.318 93.3498 539.997C93.3498 479.677 105.152 421.195 128.424 366.163C139.616 339.71 153.463 314.192 169.593 290.316C185.579 266.654 203.938 244.403 224.163 224.179C244.389 203.956 266.642 185.595 290.305 169.61C314.182 153.478 339.701 139.628 366.157 128.44C421.19 105.164 479.68 93.3595 540 93.3595ZM540 40C263.856 40 40 263.856 40 540.003C40 816.15 263.856 1040.01 540 1040.01C816.144 1040.01 1040 816.15 1040 540.003C1040 263.856 816.144 40 540 40Z" fill="black"/>
<path d="M388.278 348.412V311.547C388.278 281.726 407.791 257.488 437.182 252.301C459.394 248.382 479.922 252.533 496.264 269.53C506.975 280.664 512.5 294.116 512.713 309.58C512.897 322.404 512.754 335.234 512.754 348.235H580.201C580.248 347.435 580.331 346.587 580.331 345.733V310.753C580.42 277.628 606.591 251.465 639.704 251.162C651.121 251.043 662.229 252.176 672.395 257.684C693.255 269.002 704.168 286.617 704.754 310.344C705.063 322.872 704.809 335.417 704.809 348.371H792.468C808.857 348.371 819.688 359.281 821.176 375.597C822.45 389.56 818.859 402.276 814.241 415.053C809.487 428.275 802.628 440.636 793.932 451.67C787.062 460.402 779.327 468.531 771.407 476.322C761.116 486.401 750.298 495.952 739.587 505.593C733.73 510.857 728.46 516.537 725.099 523.717C724.132 525.78 723.321 528.152 723.321 530.387C723.219 584.108 723.44 637.836 723.172 691.557C722.859 756.116 675.105 813.691 611.73 825.946C601.937 827.79 592.003 828.762 582.039 828.857C554.178 829.236 526.318 828.993 498.457 828.988C430.46 828.988 373.482 782.618 360.175 716.036C358.42 706.829 357.554 697.474 357.59 688.101C357.347 635.76 357.484 583.421 357.43 531.081C357.394 529.444 357.039 527.837 356.387 526.338C352.136 516.46 344.638 509.215 336.824 502.159C326.279 492.626 315.847 482.975 305.527 473.204C293.487 461.826 282.687 449.317 274.862 434.666C266.048 418.189 258.567 401.091 258.573 381.846C258.543 377.505 259.023 373.178 259.996 368.95C262.959 356.749 273.771 348.472 286.445 348.454C319.244 348.412 352.048 348.412 384.846 348.454L388.278 348.412ZM485.173 407.666H377.946C371.052 407.666 365.131 412.297 364.241 419.049C363.666 422.956 363.72 426.935 364.407 430.824C366.779 442.824 371.989 453.691 380.347 462.608C388.704 471.525 397.797 479.458 406.286 488.102C412.7 494.624 416.773 502.385 416.761 511.949C416.701 570.603 416.701 629.257 416.761 687.91C416.713 692.061 416.975 696.205 417.531 700.314C423.46 740.583 457.248 769.681 497.942 769.681C525.897 769.681 553.852 769.669 581.807 769.651C585.956 769.693 590.1 769.455 594.219 768.94C634.119 763.455 663.859 729.377 663.913 689.096C663.913 679.319 663.83 669.531 663.977 659.766C663.977 657.495 663.338 656.564 661.168 655.895C640.557 649.58 620.853 640.628 602.531 629.268C560.444 603.122 528.202 568.095 507.301 522.959C497.278 501.307 490.401 478.676 487.989 454.936C486.407 439.38 486.08 423.674 485.173 407.666ZM659.834 564.91C660.012 550.231 648.258 538.189 633.58 538.018C618.903 537.84 606.864 549.597 606.691 564.277C606.514 578.956 618.269 590.998 632.946 591.169H633.012C647.628 591.365 659.638 579.673 659.834 565.059V564.91Z" fill="black"/>
<path d="M495.621 564.696C495.568 579.376 483.624 591.24 468.947 591.187C454.269 591.133 442.408 579.187 442.461 564.506C442.515 549.826 454.459 537.964 469.136 538.017H469.23C483.848 538.064 495.668 549.951 495.621 564.578V564.696Z" fill="black"/>
</g>
</g>
</svg>
