<svg width="1080" height="1080" viewBox="0 0 1080 1080" fill="none" xmlns="http://www.w3.org/2000/svg">
<path fill-rule="evenodd" clip-rule="evenodd" d="M433.511 918.886V520.77H521.854C685.353 520.77 801.383 577.25 801.383 765.975C801.383 925.775 731.503 1001.54 575.915 1001.54C500.757 1001.54 433.511 998.784 433.511 918.886ZM433.511 482.306V150.609C433.511 100.274 442.081 97.6922 509.213 97.6922C697.751 97.6922 782.024 137.703 782.024 275.803C782.024 400.997 710.606 479.727 564.918 482.306H433.511ZM209.769 207.583V872.42C209.769 990.551 197.563 1001.54 85 1002.91V1040H574.582C772.586 1040 995 1005.66 995 774.892C995 607.308 837.683 535.879 699.351 508.409V505.661C820.053 483.682 938.043 412.253 938.043 273.517C938.043 70.22 683.077 40 517.624 40H85V77.0882C197.563 78.4619 209.769 89.4507 209.769 207.583Z" fill="white"/>
</svg>
