<svg width="1080" height="1080" viewBox="0 0 1080 1080" fill="none" xmlns="http://www.w3.org/2000/svg">
<path d="M952 751.115C952 638.616 893.639 552.506 789.423 513.617C888.081 459.451 922.82 388.619 922.82 305.286C922.82 159.455 817.214 38.623 580.992 40.0119H128V1040H600.445C838.057 1038.61 952 920.557 952 751.115ZM681.039 334.453C681.039 402.508 637.963 441.396 554.59 441.396H365.612V233.065H554.59C631.015 233.065 681.039 266.398 681.039 334.453ZM701.882 735.837C701.882 801.114 656.027 844.169 571.265 844.169H365.612V627.505H571.265C653.248 627.505 701.882 669.171 701.882 735.837Z" fill="black"/>
</svg>
