<svg width="1080" height="1080" viewBox="0 0 1080 1080" fill="none" xmlns="http://www.w3.org/2000/svg">
<path fill-rule="evenodd" clip-rule="evenodd" d="M455.691 494.195L307.139 345.642L58.8538 593.903C33.7154 619.065 33.7154 659.855 58.8538 685.017L207.418 833.57L455.691 585.308C480.853 560.146 480.853 519.357 455.691 494.195Z" fill="#25C068"/>
<mask id="mask0_9_50" style="mask-type:luminance" maskUnits="userSpaceOnUse" x="340" y="145" width="389" height="335">
<path d="M340.343 145H728.563V479.862H340.343V145Z" fill="white"/>
</mask>
<g mask="url(#mask0_9_50)">
<path fill-rule="evenodd" clip-rule="evenodd" d="M580.01 460.992L728.563 312.439L580.01 163.863C554.848 138.712 514.07 138.712 488.908 163.863L340.343 312.439L488.908 460.992C514.07 486.154 554.848 486.154 580.01 460.992Z" fill="#25C068"/>
</g>
<path fill-rule="evenodd" clip-rule="evenodd" d="M488.908 618.514L340.343 767.067L488.908 915.643C514.07 940.793 554.848 940.793 580.01 915.643L728.563 767.067L580.01 618.514C554.848 593.352 514.07 593.352 488.908 618.514Z" fill="#25C068"/>
<mask id="mask1_9_50" style="mask-type:luminance" maskUnits="userSpaceOnUse" x="594" y="234" width="446" height="500">
<path d="M594.353 234.859H1040V733.871H594.353V234.859Z" fill="white"/>
</mask>
<g mask="url(#mask1_9_50)">
<path fill-rule="evenodd" clip-rule="evenodd" d="M1021.14 383.412L872.584 234.859L613.216 494.204C588.065 519.354 588.065 560.156 613.216 585.306L761.78 733.871L1021.14 474.514C1046.3 449.363 1046.3 408.574 1021.14 383.412Z" fill="#25C068"/>
</g>
</svg>
