<svg width="1080" height="1080" viewBox="0 0 1080 1080" fill="none" xmlns="http://www.w3.org/2000/svg">
<mask id="mask0_6_381" style="mask-type:luminance" maskUnits="userSpaceOnUse" x="40" y="53" width="1000" height="806">
<path fill-rule="evenodd" clip-rule="evenodd" d="M40 53H1040V858.639H40V53Z" fill="white"/>
</mask>
<g mask="url(#mask0_6_381)">
<path fill-rule="evenodd" clip-rule="evenodd" d="M157.093 828.723C127.377 765.103 110.779 694.123 110.779 619.269C110.779 345.619 332.601 123.784 606.234 123.784C758.597 123.784 894.891 192.568 985.775 300.774L1040 255.275C936.128 131.61 780.366 53 606.234 53C293.512 53 40 306.527 40 619.269C40 704.817 58.9688 785.934 92.9303 858.639L157.093 828.723Z" fill="#1F262F"/>
</g>
<path fill-rule="evenodd" clip-rule="evenodd" d="M606.233 955.432C420.554 955.432 270.032 804.896 270.032 619.208C270.032 433.518 420.554 282.985 606.233 282.985C709.623 282.985 802.092 329.673 863.765 403.098L918.002 357.588C843.346 268.704 731.386 212.202 606.233 212.202C381.463 212.202 199.252 394.425 199.252 619.208C199.252 843.993 381.463 1026.21 606.233 1026.21V955.432Z" fill="#1F262F"/>
<path fill-rule="evenodd" clip-rule="evenodd" d="M728.225 721.7C699.008 756.476 655.207 778.593 606.234 778.593C518.282 778.593 446.981 707.29 446.981 619.329C446.981 531.371 518.282 460.066 606.234 460.066C655.207 460.066 699.008 482.181 728.225 516.962L789.218 465.778C745.398 413.607 679.693 380.434 606.234 380.434C474.305 380.434 367.354 487.391 367.354 619.329C367.354 751.264 474.305 858.225 606.234 858.225C673.56 858.225 734.353 830.35 777.773 785.536L728.225 721.7Z" fill="#1F262F"/>
</svg>
