<svg width="1080" height="1080" viewBox="0 0 1080 1080" fill="none" xmlns="http://www.w3.org/2000/svg">
<mask id="mask0_6_383" style="mask-type:luminance" maskUnits="userSpaceOnUse" x="40" y="53" width="1000" height="806">
<path fill-rule="evenodd" clip-rule="evenodd" d="M40 53H1040V858.59H40V53Z" fill="white"/>
</mask>
<g mask="url(#mask0_6_383)">
<path fill-rule="evenodd" clip-rule="evenodd" d="M157.093 828.675C127.377 765.059 110.779 694.083 110.779 619.234C110.779 345.601 332.601 123.78 606.234 123.78C758.597 123.78 894.891 192.559 985.775 300.759L1040 255.263C936.128 131.605 780.366 53 606.234 53C293.512 53 40 306.511 40 619.234C40 704.776 58.9688 785.888 92.9303 858.59L157.093 828.675Z" fill="white"/>
</g>
<path fill-rule="evenodd" clip-rule="evenodd" d="M606.234 955.436C420.556 955.436 270.033 804.91 270.033 619.233C270.033 433.555 420.556 283.031 606.234 283.031C709.625 283.031 802.093 329.716 863.767 403.137L918.004 357.629C843.348 268.751 731.388 212.253 606.234 212.253C381.465 212.253 199.253 394.464 199.253 619.233C199.253 844.004 381.465 1026.21 606.234 1026.21V955.436Z" fill="white"/>
<path fill-rule="evenodd" clip-rule="evenodd" d="M728.224 721.598C699.008 756.373 655.206 778.488 606.233 778.488C518.281 778.488 446.98 707.189 446.98 619.234C446.98 531.281 518.281 459.98 606.233 459.98C655.206 459.98 699.008 482.094 728.224 516.873L789.217 465.692C745.398 413.524 679.692 380.354 606.233 380.354C474.304 380.354 367.354 487.304 367.354 619.234C367.354 751.161 474.304 858.115 606.233 858.115C673.559 858.115 734.352 830.242 777.772 785.431L728.224 721.598Z" fill="white"/>
</svg>
