<svg width="1080" height="1080" viewBox="0 0 1080 1080" fill="none" xmlns="http://www.w3.org/2000/svg">
<path fill-rule="evenodd" clip-rule="evenodd" d="M381.1 794.86C302.642 775.764 233.742 745.436 182.339 706.236C126.167 663.4 87 606.576 87 540.025C87 473.477 126.164 416.642 182.334 373.792C233.737 334.58 302.638 304.239 381.099 285.14C398.049 220.666 421.686 164.401 451.053 122.192C483.329 75.8029 527.407 40 581.825 40C636.245 40 680.323 75.8029 712.598 122.192C741.832 164.209 765.386 220.155 782.32 284.26C811.86 289.69 853.764 297.466 889.743 310.633C934.565 327.035 993.708 360.286 993.999 429.116C994.222 481.684 954.647 519.957 904.299 528.627C871.058 534.352 841.367 529.216 816.058 514.821C791.473 500.837 773.812 479.72 760.88 457.928C740.774 424.049 728.948 382.796 720.773 349.315C683.256 343.692 634.08 340.558 583.392 340.465C532.483 340.373 482.393 343.355 443.392 349.214C431.953 406.673 425.469 471.409 425.469 540.025C425.469 608.64 431.951 673.336 443.391 730.786C482.393 736.645 532.481 739.627 583.392 739.535C634.08 739.442 683.255 736.307 720.773 730.685C728.931 697.271 740.724 656.141 760.728 622.328C773.652 600.484 791.311 579.298 815.916 565.26C841.251 550.805 870.99 545.636 904.299 551.373C954.647 560.043 994.222 598.316 993.999 650.884C993.708 719.714 934.565 752.964 889.743 769.367C853.764 782.534 811.86 790.31 782.32 795.74C765.386 859.845 741.832 915.791 712.598 957.807C680.323 1004.2 636.245 1040 581.825 1040C527.407 1040 483.329 1004.2 451.053 957.807C421.686 915.599 398.049 859.334 381.1 794.86ZM463.407 809.03C500.858 812.959 542.66 814.753 583.529 814.679C623.648 814.606 664.222 812.73 700.263 808.972C686.306 852.546 669.378 888.405 650.962 914.875C624.859 952.39 600.535 964.855 581.825 964.855C563.116 964.855 538.792 952.39 512.69 914.875C494.281 888.416 477.36 852.577 463.407 809.03ZM802.724 715.287C808.737 695.409 815.958 676.492 825.356 660.605C834.117 645.796 843.433 636.063 853.118 630.538C862.071 625.429 873.933 622.393 891.559 625.428C912.621 629.055 918.937 641.259 918.898 650.566C918.829 666.726 906.146 683.351 863.947 698.795C844.155 706.038 823.115 711.121 802.724 715.287ZM463.407 270.97C477.36 227.423 494.281 191.584 512.69 165.125C538.791 127.61 563.116 115.145 581.825 115.145C600.535 115.145 624.859 127.61 650.962 165.125C669.378 191.595 686.306 227.454 700.262 271.028C664.222 267.27 623.648 265.394 583.529 265.321C542.66 265.246 500.858 267.041 463.407 270.97ZM363.756 367.75C355.079 421.46 350.367 479.55 350.367 540.025C350.367 600.499 355.078 658.56 363.755 712.251C308.386 695.373 262.093 672.575 227.864 646.472C182.429 611.824 162.102 574.714 162.102 540.025C162.102 505.335 182.433 468.211 227.869 433.55C262.098 407.439 308.39 384.631 363.756 367.75ZM802.724 364.712C823.117 368.879 844.155 373.963 863.947 381.205C906.146 396.649 918.829 413.272 918.898 429.434C918.937 438.741 912.621 450.945 891.559 454.572C873.964 457.602 862.116 454.58 853.174 449.494C843.508 443.996 834.206 434.309 825.455 419.562C816.012 403.65 808.761 384.669 802.724 364.712Z" fill="#2D6AE7"/>
</svg>
