<svg width="1080" height="1080" viewBox="0 0 1080 1080" fill="none" xmlns="http://www.w3.org/2000/svg">
<path d="M835.412 651.189C795.515 724.807 718.026 774.657 629.026 774.657C500.125 774.657 394.245 669.592 394.245 539.991C394.245 411.159 499.361 305.33 629.026 305.33C718.026 305.33 795.515 355.176 835.412 428.798L952.035 365.914C889.889 250.884 768.661 173.429 629.026 173.429C426.472 173.429 262.279 337.541 262.279 539.991C262.279 742.446 426.472 906.558 629.026 906.558C768.661 906.558 889.889 828.335 952.035 714.073L835.412 651.189Z" fill="black"/>
<path d="M128 540C128 263.927 352.034 40 628.245 40V1040C352.803 1040 128 816.841 128 540Z" fill="#50ACD6"/>
<path fill-rule="evenodd" clip-rule="evenodd" d="M629.026 774.657V906.558C426.472 906.558 262.279 742.446 262.279 539.991C262.279 337.541 426.472 173.429 629.026 173.429V305.33C500.125 305.33 394.245 410.391 394.245 539.991C394.245 669.592 499.361 774.657 629.026 774.657Z" fill="white"/>
</svg>
