<svg width="1080" height="1080" viewBox="0 0 1080 1080" fill="none" xmlns="http://www.w3.org/2000/svg">
<path d="M835.411 651.189C795.515 724.807 718.025 774.657 629.025 774.657C500.126 774.657 394.246 669.592 394.246 539.991C394.246 411.159 499.359 305.33 629.025 305.33C718.025 305.33 795.515 355.177 835.411 428.797L952.034 365.913C889.888 250.882 768.66 173.429 629.025 173.429C426.47 173.429 262.279 337.539 262.279 539.991C262.279 742.446 426.47 906.558 629.025 906.558C768.66 906.558 889.888 828.335 952.034 714.073L835.411 651.189Z" fill="white"/>
<path d="M128 540C128 263.926 352.036 40 628.245 40V1040C352.803 1040 128 816.841 128 540Z" fill="white"/>
<path fill-rule="evenodd" clip-rule="evenodd" d="M629.025 774.657V906.558C426.47 906.558 262.279 742.446 262.279 539.991C262.279 337.539 426.47 173.429 629.025 173.429V305.33C500.126 305.33 394.246 410.392 394.246 539.991C394.246 669.592 499.359 774.657 629.025 774.657Z" fill="#919191"/>
</svg>
