<svg width="1080" height="1080" viewBox="0 0 1080 1080" fill="none" xmlns="http://www.w3.org/2000/svg">
<path d="M543.446 1040C493.515 1040 448.717 1031.6 409.518 1014.34C369.854 997.07 336.256 973.738 308.257 943.872C280.258 914.008 259.26 879.01 243.86 838.412C228.928 797.813 220.995 754.415 220.995 707.752C220.995 661.087 228.461 617.689 242.927 577.092C257.393 536.494 278.859 501.496 305.924 471.63C333.456 441.765 366.121 418.434 404.386 401.167C442.65 383.902 486.048 375.502 534.113 375.502C574.711 375.502 611.575 381.102 644.241 392.768C676.905 404.434 705.37 419.833 729.169 439.898C753.434 459.965 773.033 483.763 787.966 512.228C801.499 537.427 811.298 564.959 816.898 594.824C818.298 600.424 813.631 606.024 807.565 606.024H663.373C659.172 606.024 655.439 603.224 654.506 599.024C647.973 574.292 635.841 553.293 617.641 536.494C597.576 518.295 571.911 508.962 541.112 508.962C490.248 508.962 452.45 526.694 427.251 562.159C402.052 597.624 389.453 646.154 389.453 707.285C389.453 767.015 401.586 815.08 425.384 851.011C449.65 887.408 487.448 905.608 538.779 905.608C572.844 905.608 601.309 896.741 623.241 879.476C643.773 863.144 657.306 838.878 663.373 806.68C664.306 802.48 668.039 799.214 672.705 799.214H815.031C820.631 799.214 824.831 803.88 824.364 809.48C821.097 838.878 813.165 866.877 800.099 892.542C785.633 921.474 766.5 946.672 742.702 968.605C718.436 990.071 689.505 1007.34 655.906 1019.94C622.775 1033.47 584.977 1040 543.446 1040Z" fill="#FEFEFE"/>
<path d="M116 234.123L213.995 327.452C292.391 234.59 409.985 175.327 541.111 175.327C672.239 175.327 789.832 234.59 868.229 327.919L963.424 231.323C859.829 114.196 709.103 40 541.111 40C371.721 40 219.595 115.129 116 234.123Z" fill="#919191"/>
</svg>
