<svg width="1080" height="1080" viewBox="0 0 1080 1080" fill="none" xmlns="http://www.w3.org/2000/svg">
<path d="M544.304 276C606.892 276 677.95 302.205 704.075 383.844L777 359.511C745.275 260.162 664.886 203 552.629 203C397.451 203 304 306.094 304 443.022V638.985C304 775.915 389.125 878 544.16 878C656.273 878 748.864 830.197 776.856 725.233L703.933 700.899C684.266 774.906 619.812 805 550.62 805C433.769 805 381.374 735.599 381.374 625.883V455.261C381.374 354.04 430.899 276.144 544.017 276.144L544.304 276Z" fill="#FEFEFE"/>
<rect x="196" y="40" width="688" height="63" fill="#FEFEFE"/>
<rect x="196" y="977" width="688" height="63" fill="#FEFEFE"/>
</svg>
