<svg width="1080" height="1080" viewBox="0 0 1080 1080" fill="none" xmlns="http://www.w3.org/2000/svg">
<path d="M1080 599.531C1080.05 612.138 1076.36 624.477 1069.39 634.984C1062.42 645.491 1052.5 653.694 1040.86 658.554C1029.23 663.414 1016.42 664.712 1004.05 662.284C991.675 659.856 980.303 653.811 971.37 644.914C962.437 636.018 956.346 624.67 953.868 612.309C951.389 599.948 952.635 587.129 957.448 575.477C962.261 563.824 970.423 553.863 980.902 546.853C991.381 539.844 1003.7 536.102 1016.31 536.102C1033.17 536.077 1049.34 542.744 1061.28 554.637C1073.22 566.531 1079.96 582.678 1080 599.531Z" fill="#E52328"/>
<path d="M700.543 412.11L786.977 286.889V160.029H511.574L423.958 286.874H631.806L524.796 441.846L588.484 551.707C612.977 537.653 641.422 532.07 669.41 535.823C697.398 539.576 723.367 552.456 743.292 572.467C763.217 592.478 775.985 618.502 779.617 646.506C783.25 674.51 777.544 702.931 763.385 727.363C749.225 751.795 727.402 770.875 701.298 781.645C675.193 792.415 646.265 794.274 618.997 786.934C591.729 779.594 567.643 763.465 550.472 741.047C533.302 718.628 524.005 691.172 524.023 662.933H396.542C396.29 711.703 409.944 759.535 435.904 800.823C461.864 842.111 499.054 875.145 543.116 896.053C587.178 916.962 636.286 924.878 684.686 918.876C733.087 912.873 778.773 893.2 816.393 862.161C854.012 831.122 882.006 790.004 897.093 743.626C912.18 697.247 913.736 647.529 901.578 600.297C889.42 553.066 864.052 510.278 828.446 476.949C792.841 443.619 748.474 421.127 700.543 412.11Z" fill="#010101"/>
<path d="M336.251 160.03C291.147 159.955 246.824 171.798 207.769 194.361V160.03H80V662.919H207.769V414.977H207.875C207.964 381.017 221.538 348.483 245.613 324.53C269.688 300.578 302.291 287.169 336.251 287.254L379.058 286.859L466.659 160L336.251 160.03Z" fill="#010101"/>
</svg>
