<svg width="1080" height="1080" viewBox="0 0 1080 1080" fill="none" xmlns="http://www.w3.org/2000/svg">
<path d="M1040 599.531C1040.05 612.138 1036.36 624.477 1029.39 634.984C1022.42 645.491 1012.5 653.694 1000.86 658.554C989.23 663.414 976.417 664.712 964.046 662.284C951.675 659.856 940.303 653.811 931.37 644.914C922.437 636.018 916.346 624.67 913.868 612.309C911.389 599.948 912.635 587.129 917.448 575.477C922.261 563.824 930.423 553.863 940.902 546.853C951.381 539.844 963.705 536.102 976.312 536.102C993.166 536.077 1009.34 542.744 1021.28 554.637C1033.22 566.531 1039.96 582.678 1040 599.531Z" fill="#E52328"/>
<path d="M660.543 412.11L746.977 286.889V160.029H471.574L383.958 286.874H591.806L484.796 441.846L548.484 551.707C572.977 537.653 601.422 532.07 629.41 535.823C657.398 539.576 683.367 552.456 703.292 572.467C723.217 592.478 735.985 618.502 739.617 646.506C743.25 674.51 737.544 702.931 723.385 727.363C709.225 751.795 687.402 770.875 661.298 781.645C635.193 792.415 606.265 794.274 578.997 786.934C551.729 779.594 527.643 763.465 510.472 741.047C493.302 718.628 484.005 691.172 484.023 662.933H356.542C356.29 711.703 369.944 759.535 395.904 800.823C421.864 842.111 459.054 875.145 503.116 896.053C547.178 916.962 596.286 924.878 644.686 918.876C693.087 912.873 738.773 893.2 776.393 862.161C814.012 831.122 842.006 790.004 857.093 743.626C872.18 697.247 873.736 647.529 861.578 600.297C849.42 553.066 824.052 510.278 788.446 476.949C752.841 443.619 708.474 421.127 660.543 412.11Z" fill="#010101"/>
<path d="M296.251 160.03C251.147 159.955 206.824 171.798 167.769 194.361V160.03H40V662.919H167.769V414.977H167.875C167.964 381.017 181.538 348.483 205.613 324.53C229.688 300.578 262.291 287.169 296.251 287.254L339.058 286.859L426.659 160L296.251 160.03Z" fill="#010101"/>
</svg>
