<svg width="1080" height="1080" viewBox="0 0 1080 1080" fill="none" xmlns="http://www.w3.org/2000/svg">
<path d="M126 1040V888.675H451.485C554.636 888.675 636.182 857.294 697.515 793.835C758.848 731.074 789.515 645.997 789.515 540C789.515 434.003 758.848 349.623 697.515 286.165C636.182 223.403 554.636 191.325 451.485 191.325H126V40H454.273C551.848 40 638.273 61.6179 714.242 104.156C790.212 146.695 849.455 205.969 891.273 281.283C933.091 357.294 954 443.766 954 540C954 637.629 933.091 724.1 891.273 799.414C849.455 875.425 790.212 934.7 714.242 976.541C638.273 1019.08 551.848 1040 454.273 1040H126Z" fill="#FEFEFE"/>
</svg>
