<svg width="1080" height="1080" viewBox="0 0 1080 1080" fill="none" xmlns="http://www.w3.org/2000/svg">
<path d="M852.421 835.67C852.421 868.476 840.131 897.215 820.425 919.2C820.408 919.22 820.395 919.245 820.39 919.271L819.711 922.513C819.688 922.621 819.785 922.716 819.893 922.692C877.426 909.735 924.413 861.136 924.413 796.991V469.766C924.413 373.036 870.384 283.653 782.678 235.288L428.54 40L358.388 79.6935L710.686 273.967C798.392 322.332 852.421 411.715 852.421 508.445V835.67Z" fill="white"/>
<path d="M753.431 891.539V564.314C753.431 467.584 699.402 378.201 611.696 329.836L259.398 135.563L329.55 95.8693L683.689 291.158C771.395 339.523 825.424 428.905 825.424 525.635V852.86C825.424 917.006 778.437 965.605 720.904 978.561C720.796 978.586 720.699 978.49 720.721 978.382L721.4 975.14C721.406 975.114 721.418 975.09 721.436 975.07C741.141 953.085 753.431 924.345 753.431 891.539Z" fill="white"/>
<path fill-rule="evenodd" clip-rule="evenodd" d="M155.909 194.098L226.975 153.887L581.114 349.176C668.82 397.541 722.849 486.923 722.849 583.653V912.492L722.839 912.486C721.632 1010.8 609.874 1071.89 520.37 1022.53L199.405 845.539L155.909 822.171V194.098ZM650.856 623.353V813.319L412.382 681.813V335.529L509.122 388.876C596.827 437.241 650.856 526.623 650.856 623.353ZM322.391 285.904L358.388 305.754V711.569L362.167 713.595L650.856 872.792V909.542L322.856 728.668L322.391 728.93V285.904ZM263.898 253.648V760.146L265.589 761.07L263.898 762.027L650.414 975.17C647.183 992.169 626.877 1001.87 610.361 992.76L227.901 781.854V233.798L263.898 253.648Z" fill="white"/>
</svg>
