<svg width="1080" height="1080" viewBox="0 0 1080 1080" fill="none" xmlns="http://www.w3.org/2000/svg">
<path d="M1027.3 241.658V40H441.913V222.958C441.913 232.126 434.645 239.586 425.712 239.586H53V441.244H425.712C434.645 441.244 441.913 448.703 441.913 457.872V622.128C441.913 631.298 434.645 638.759 425.712 638.759H53V840.417H425.712C434.645 840.417 441.913 847.874 441.913 857.044V1040H1027.3V838.342H460.132C451.199 838.342 443.931 830.886 443.931 821.716V657.456C443.931 648.291 451.199 640.83 460.132 640.83H1027.3V439.172H459.122C450.19 439.172 442.922 431.713 442.922 422.544V258.286C442.922 249.117 450.19 241.658 459.122 241.658H1027.3Z" fill="#FEFEFE"/>
</svg>
