<svg width="1080" height="1080" viewBox="0 0 1080 1080" fill="none" xmlns="http://www.w3.org/2000/svg">
<path d="M539.526 55.3623H539.525C272.129 55.3623 55.3623 272.129 55.3623 539.525V539.526C55.3623 806.922 272.129 1023.69 539.525 1023.69H539.526C806.922 1023.69 1023.69 806.922 1023.69 539.526V539.525C1023.69 272.129 806.922 55.3623 539.526 55.3623Z" fill="white"/>
<path d="M539.526 55.3623H539.525C272.129 55.3623 55.3623 272.129 55.3623 539.525V539.526C55.3623 806.922 272.129 1023.69 539.525 1023.69H539.526C806.922 1023.69 1023.69 806.922 1023.69 539.526V539.525C1023.69 272.129 806.922 55.3623 539.526 55.3623Z" stroke="black" stroke-width="24.2109"/>
<path fill-rule="evenodd" clip-rule="evenodd" d="M430.222 306.279H419.338L412.28 314.567L234.118 523.831L221.114 539.105L234.118 554.381L412.28 763.646L419.338 771.934H430.222H750.977H774.539V748.371V615.336H727.414V724.809H481.751L629.03 554.519L642.362 539.105L629.03 523.692L481.751 353.404H727.414V462.876H774.539V329.841V306.279H750.977H430.222ZM430.362 366.025L283.005 539.105L430.362 712.187L580.056 539.105L430.362 366.025Z" fill="black"/>
</svg>
