<svg width="1080" height="1080" viewBox="0 0 1080 1080" fill="none" xmlns="http://www.w3.org/2000/svg">
<path d="M919.346 554.245L362.231 875.892C323.757 898.107 310.569 947.295 332.775 985.755C354.979 1024.21 404.169 1037.39 442.644 1015.17L999.758 693.524C1038.23 671.31 1051.42 622.126 1029.22 583.664C1007.01 545.205 957.821 532.033 919.346 554.245Z" fill="white"/>
<path d="M534.021 451.417L116.186 692.654C77.7123 714.867 64.5233 764.053 86.7286 802.514C108.934 840.975 158.125 854.148 196.599 831.934L614.434 590.695C652.908 568.483 666.097 519.296 643.891 480.835C621.686 442.375 572.496 429.203 534.021 451.417Z" fill="white"/>
<path d="M637.354 65.7936L80.2407 387.443C41.7665 409.656 28.5782 458.842 50.7834 497.303C72.9887 535.763 122.179 548.935 160.653 526.721L717.768 205.072C756.24 182.859 769.43 133.673 747.224 95.2126C725.019 56.7519 675.828 43.5807 637.354 65.7936Z" fill="white"/>
</svg>
