<svg width="1080" height="1080" viewBox="0 0 1080 1080" fill="none" xmlns="http://www.w3.org/2000/svg">
<path d="M919.346 554.246L362.231 875.893C323.757 898.108 310.568 947.296 332.775 985.755C354.979 1024.21 404.17 1037.39 442.644 1015.17L999.758 693.525C1038.23 671.311 1051.42 622.127 1029.22 583.665C1007.01 545.206 957.821 532.034 919.346 554.246Z" fill="#FF7829"/>
<path d="M534.021 451.417L116.186 692.654C77.7123 714.867 64.5233 764.053 86.7287 802.514C108.934 840.975 158.125 854.148 196.599 831.934L614.434 590.695C652.907 568.483 666.096 519.296 643.89 480.835C621.685 442.375 572.495 429.203 534.021 451.417Z" fill="#FCBF22"/>
<path d="M637.354 65.7936L80.2407 387.443C41.7665 409.656 28.5782 458.842 50.7834 497.303C72.9886 535.763 122.179 548.935 160.653 526.721L717.767 205.072C756.24 182.859 769.43 133.673 747.224 95.2125C725.019 56.7519 675.828 43.5807 637.354 65.7936Z" fill="#2AE5B9"/>
</svg>
