<svg width="1080" height="1080" viewBox="0 0 1080 1080" fill="none" xmlns="http://www.w3.org/2000/svg">
<path d="M807.154 149.805C823.402 129.185 848.086 117 874.333 117H1023.69C1037.12 117 1044.94 132.622 1036.5 143.244L775.283 478.482C768.409 487.231 758.098 492.229 746.849 492.229H618.428C602.492 492.229 589.369 505.352 589.369 521.285V559.715C589.369 575.648 602.492 588.771 618.428 588.771H746.849C758.098 588.771 768.409 593.769 775.283 602.518L1036.5 937.756C1044.94 948.378 1037.12 964 1023.69 964H874.333C848.086 964 823.402 951.815 807.154 931.195L568.434 625.013C554.061 606.579 525.939 606.579 511.566 625.013L272.846 931.195C256.598 951.815 231.914 964 205.667 964H56.3108C42.875 964 35.0635 948.378 43.4999 937.756L305.03 602.83C311.904 594.082 322.215 589.083 333.464 589.083H461.885C477.82 589.083 490.944 575.961 490.944 560.027V521.598C490.944 505.664 477.82 492.542 461.885 492.542H333.464C322.215 492.542 311.904 487.543 305.03 478.795L43.4999 143.244C35.0635 132.622 42.875 117 56.3108 117H205.667C231.914 117 256.598 129.185 272.846 149.805L511.566 455.987C525.939 474.421 554.061 474.421 568.434 455.987L807.154 149.805Z" fill="#010101"/>
</svg>
