<svg width="1080" height="1080" viewBox="0 0 1080 1080" fill="none" xmlns="http://www.w3.org/2000/svg">
<path fill-rule="evenodd" clip-rule="evenodd" d="M620.913 827.046L619.803 826.407C601.074 815.64 580.888 813.421 560.258 819.863C543.249 825.17 524.149 823.64 507.497 814.075C475.933 795.919 465.108 755.696 483.336 724.241C501.567 692.785 541.935 682.011 573.513 700.166C590.154 709.753 601.035 725.46 604.922 742.778C609.643 763.792 621.673 780.113 640.399 790.873L649.968 796.378C668.684 807.145 688.876 809.364 709.5 802.926C722.119 798.986 735.88 798.81 748.941 802.898C769.572 809.34 789.779 807.113 808.49 796.347L818.081 790.827C836.797 780.064 848.826 763.764 853.547 742.76C854.968 736.417 857.374 730.173 860.809 724.248C879.033 692.799 919.408 682.011 950.983 700.173C982.554 718.336 993.375 758.555 975.144 790.004C959.394 817.174 927.122 828.909 898.275 819.901C877.645 813.456 857.438 815.675 838.705 826.439L829.142 831.94C810.427 842.704 798.398 859.015 793.673 880.029C792.245 886.371 789.839 892.626 786.4 898.552C770.664 925.721 738.393 937.456 709.539 928.449C688.905 922 668.701 924.212 649.975 934.986L640.392 940.506C621.68 951.265 609.647 967.569 604.929 988.587C603.509 994.937 601.095 1001.18 597.657 1007.11C579.432 1038.56 539.062 1049.34 507.483 1031.18C490.846 1021.6 479.972 1005.91 476.081 988.587C471.353 967.583 459.331 951.283 440.617 940.523L430.993 934.986C412.279 924.227 392.099 922 371.476 928.435C354.488 933.728 335.391 932.188 318.754 922.626C287.191 904.47 276.364 864.251 294.594 832.795C312.825 801.34 353.192 790.566 384.769 808.732C401.412 818.301 412.293 834.007 416.179 851.325C420.899 872.333 432.923 888.636 451.63 899.396L461.246 904.926C479.961 915.693 500.154 917.919 520.77 911.484C533.376 907.566 547.137 907.389 560.191 911.467C580.821 917.905 601.021 915.679 619.75 904.926L620.913 904.262C635.137 896.075 643.279 882.032 643.279 865.668C643.275 849.29 635.13 835.244 620.906 827.071L620.913 827.046ZM105.858 724.241C87.6338 755.693 98.4478 795.912 130.017 814.068C161.594 832.23 201.961 821.456 220.192 790C235.93 762.834 230.014 729.135 207.771 708.76C191.868 694.188 183.704 675.65 183.704 654.124V643.004C183.704 621.491 191.861 602.965 207.738 588.393C212.53 583.99 216.755 578.799 220.192 572.88C223.622 566.954 226.035 560.711 227.456 554.364C232.176 533.35 244.206 517.046 262.919 506.279L272.503 500.76C291.23 489.99 311.43 487.774 332.067 494.223C360.913 503.23 393.19 491.488 408.928 464.325C427.159 432.869 416.345 392.649 384.769 374.495C353.192 356.333 312.825 367.106 294.594 398.569C291.157 404.495 288.751 410.746 287.33 417.078C282.61 438.092 270.58 454.396 251.867 465.163L250.816 465.763C236.591 473.947 220.304 473.947 206.079 465.763C191.854 457.583 183.711 443.53 183.711 427.173V425.884C183.711 404.364 191.868 385.847 207.745 371.268C212.537 366.875 216.761 361.673 220.198 355.767C223.629 349.834 226.042 343.591 227.462 337.243C232.182 316.237 244.213 299.933 262.932 289.166L272.51 283.655C291.236 272.888 311.437 270.669 332.073 277.116C360.919 286.124 393.196 274.39 408.935 247.22C427.165 215.77 416.351 175.55 384.775 157.388C353.199 139.227 312.831 150.006 294.601 181.463C291.164 187.389 288.751 193.632 287.33 199.973C282.61 220.986 270.587 237.29 251.867 248.063L242.282 253.562C223.549 264.334 203.356 266.547 182.719 260.1C153.873 251.092 121.609 262.84 105.851 290.003C90.1192 317.165 96.0286 350.868 118.265 371.242C134.168 385.82 142.332 404.343 142.332 425.869V437C142.332 458.513 134.182 477.028 118.298 491.608C113.512 496 109.288 501.202 105.851 507.12C90.1192 534.279 96.0286 567.979 118.265 588.368C134.168 602.933 142.332 621.47 142.332 642.99V654.131C142.332 675.643 134.188 694.163 118.304 708.739C113.512 713.138 109.288 718.336 105.851 724.248L105.858 724.241ZM664.821 662.894C668.701 680.219 679.596 695.933 696.234 705.502C727.809 723.654 768.176 712.891 786.407 681.431C804.639 649.983 793.825 609.763 762.253 591.601C745.605 582.018 726.508 580.506 709.5 585.813C688.869 592.258 668.684 590.029 649.958 579.262L640.392 573.763C621.673 562.997 609.647 546.686 604.922 525.665C602.046 512.816 595.317 500.859 585.249 491.633C569.347 477.06 561.184 458.527 561.184 437V425.884C561.184 404.364 569.333 385.84 585.225 371.268C590.016 366.862 594.239 361.673 597.671 355.767C615.902 324.31 605.081 284.09 573.513 265.935C541.935 247.773 501.567 258.546 483.336 290.003C467.6 317.165 473.516 350.868 495.751 371.242C511.656 385.82 519.813 404.343 519.813 425.869V437C519.813 458.52 511.66 477.036 495.779 491.608C490.99 496 486.767 501.209 483.336 507.127C479.901 513.067 477.48 519.311 476.06 525.672C471.346 546.693 459.316 563.007 440.597 573.774L431.078 579.248C412.345 590.032 392.132 592.233 371.489 585.781C342.629 576.756 310.346 588.498 294.594 615.675C276.37 647.124 287.184 687.347 318.754 705.502C350.33 723.661 390.698 712.891 408.928 681.431C412.372 675.491 414.784 669.244 416.206 662.884C420.919 641.862 432.949 625.544 451.676 614.774L461.179 609.308C479.912 598.527 500.133 596.315 520.77 602.767C533.846 606.866 547.635 606.686 560.258 602.749C580.888 596.308 601.074 598.527 619.803 609.286L629.352 614.781C648.078 625.544 660.111 641.862 664.821 662.891V662.894ZM860.816 507.127C864.248 501.209 868.478 496.014 873.263 491.615C889.147 477.036 897.293 458.52 897.293 437.004V425.884C897.293 404.357 889.133 385.827 873.231 371.248C863.17 362.035 856.456 350.077 853.565 337.256C848.847 316.25 836.814 299.946 818.103 289.186L817.039 288.58C802.815 280.395 786.527 280.395 772.3 288.58C758.076 296.765 749.934 310.811 749.934 327.175V328.459C749.934 349.985 758.098 368.509 773.993 383.088C796.232 403.467 802.154 437.17 786.4 464.332C768.169 495.778 727.802 506.555 696.227 488.4C664.659 470.248 653.845 430.025 672.066 398.576C675.497 392.656 679.727 387.46 684.519 383.055C700.404 368.476 708.556 349.959 708.556 328.446V317.33C708.556 295.804 700.39 277.274 684.487 262.695C674.426 253.476 667.712 241.517 664.821 228.683C660.104 207.677 648.074 191.38 629.359 180.62L619.743 175.088C601.028 164.322 580.842 162.103 560.219 168.53C543.232 173.831 524.128 172.297 507.483 162.722C475.915 144.567 465.094 104.346 483.326 72.8964C501.553 41.44 541.928 30.6604 573.499 48.8218C590.129 58.3831 601.01 74.0949 604.901 91.4134C609.622 112.413 621.644 128.717 640.36 139.477L649.997 145.015C668.701 155.775 688.883 157.994 709.507 151.574C726.508 146.279 745.598 147.807 762.236 157.375C778.873 166.943 789.747 182.654 793.638 199.967C798.359 220.973 810.388 237.27 829.104 248.037L838.719 253.568C857.431 264.334 877.627 266.56 898.244 260.127C915.245 254.832 934.328 256.36 950.972 265.935C982.54 284.09 993.361 324.317 975.13 355.767C971.706 361.68 967.475 366.869 962.684 371.268C946.799 385.834 938.643 404.364 938.643 425.884V437C938.643 458.52 946.806 477.06 962.712 491.629C984.954 512.007 990.877 545.718 975.13 572.873C956.902 604.322 916.535 615.103 884.956 596.94C853.388 578.785 842.575 538.566 860.799 507.117L860.816 507.127Z" fill="url(#paint0_linear_8_1158)"/>
<defs>
<linearGradient id="paint0_linear_8_1158" x1="203.746" y1="740.94" x2="871.957" y2="339.192" gradientUnits="userSpaceOnUse">
<stop stop-color="#3383C5"/>
<stop offset="1" stop-color="#29C4B8"/>
</linearGradient>
</defs>
</svg>
