<svg width="1080" height="1080" viewBox="0 0 1080 1080" fill="none" xmlns="http://www.w3.org/2000/svg">
<path d="M825.012 806.696V414.222H862.837V806.696H825.012ZM647.849 629.533V591.385H1040V629.533H647.849Z" fill="#FEFEFE"/>
<path d="M432.146 873.271C422.447 873.271 414.149 869.93 407.252 863.249C400.571 856.352 397.23 848.054 397.23 838.355C397.23 828.872 400.571 820.682 407.252 813.785C414.149 806.888 422.447 803.44 432.146 803.44C441.629 803.44 449.819 806.888 456.716 813.785C463.613 820.682 467.061 828.872 467.061 838.355C467.061 844.821 465.445 850.748 462.212 856.136C459.194 861.309 454.992 865.512 449.603 868.745C444.431 871.762 438.612 873.271 432.146 873.271Z" fill="#FEFEFE"/>
<path d="M193.239 579.43L194.856 420.048L57.4577 501.517L40 471.128L179.661 393.215L40 315.302L57.4577 284.913L194.856 366.382L193.239 207H227.508L225.892 366.382L363.29 284.913L380.748 315.302L241.086 393.215L380.748 471.128L363.29 501.517L225.892 420.048L227.508 579.43H193.239Z" fill="#FEFEFE"/>
</svg>
