<svg width="1080" height="1080" viewBox="0 0 1080 1080" fill="none" xmlns="http://www.w3.org/2000/svg">
<path d="M540 40C326.047 40 152 213.621 152 427.065V652.935C152 866.354 326.047 1040 540 1040C753.953 1040 928 866.379 928 652.935V427.065C928 213.621 753.953 40 540 40ZM896.449 427.065V652.935C896.449 659.484 896.248 665.984 895.9 672.435C895.875 672.984 895.401 673.435 894.852 673.435H805.335C804.761 673.435 804.312 672.984 804.312 672.409C802.317 580.436 752.832 500.013 679.377 454.464C678.703 454.039 678.703 453.039 679.401 452.665C726.044 427.665 801.444 410.141 894.827 407.141C895.401 407.141 895.9 407.565 895.924 408.141C896.248 414.416 896.449 420.716 896.449 427.065ZM217.648 275.394C226.552 256.669 237.003 238.795 248.9 222.021C249.199 221.595 249.748 221.446 250.222 221.67C329.613 257.694 380.569 323.043 412.222 394.741C412.695 395.841 411.249 396.741 410.475 395.841C362.961 341.542 299.981 296.244 218.371 276.844C217.723 276.694 217.373 275.969 217.673 275.369L217.648 275.394ZM376.305 407.141C326.346 389.792 261.845 378.941 188.316 376.866C187.692 376.866 187.218 376.292 187.293 375.666C190.81 351.493 196.771 328.093 204.927 305.743C205.102 305.243 205.651 304.943 206.174 305.068C277.234 320.918 333.529 358.442 377.402 405.441C378.151 406.241 377.327 407.516 376.305 407.141ZM430.23 475.314C432.549 479.114 434.794 482.939 436.989 486.764C442.451 496.289 446.142 506.738 447.889 517.588C451.306 538.712 453.376 559.037 454.474 577.887C456.07 624.436 451.904 680.334 434.769 735.807C430.828 748.533 426.289 761.157 421.076 773.581C420.776 774.332 419.754 774.481 419.255 773.832C398.354 747.557 385.832 714.333 385.832 678.234C385.832 626.061 411.947 579.936 451.78 551.987C452.079 551.763 452.253 551.412 452.229 551.037C451.131 540.588 449.76 529.837 448.013 518.838C447.889 518.113 447.065 517.688 446.417 518.063C391.395 550.337 354.306 610.01 354.306 678.159C354.306 780.532 437.787 863.805 540.399 863.805C643.011 863.805 726.492 780.532 726.492 678.159C726.492 609.486 688.855 549.463 633.134 517.313C632.76 517.088 632.56 516.688 632.635 516.238C632.635 516.188 632.635 516.138 632.66 516.088C634.306 506.089 637.773 496.489 642.786 487.689C645.206 483.464 647.7 479.239 650.244 475.039C650.544 474.564 651.167 474.389 651.666 474.665C723.799 514.038 772.885 590.536 772.885 678.209C772.885 806.056 668.651 910.053 540.499 910.053C412.346 910.053 308.113 806.056 308.113 678.209C308.113 590.686 356.95 514.413 428.833 474.939C429.332 474.665 429.955 474.839 430.255 475.314H430.23ZM667.978 394.741C699.604 323.093 750.487 257.769 829.802 221.746C830.276 221.546 830.825 221.695 831.124 222.095C843.022 238.87 853.473 256.694 862.352 275.419C862.626 276.019 862.278 276.744 861.654 276.894C780.143 296.319 717.214 341.593 669.749 395.841C668.951 396.741 667.504 395.841 668.004 394.741H667.978ZM875.097 305.768C883.279 328.168 889.215 351.617 892.732 375.842C892.831 376.466 892.333 377.017 891.709 377.041C816.583 379.641 751.11 391.392 701.375 409.916C700.353 410.291 699.505 409.041 700.253 408.216C744.426 359.942 801.444 321.268 873.85 305.068C874.375 304.943 874.898 305.243 875.097 305.743V305.768ZM632.386 517.563C631.488 523.113 630.689 528.613 629.941 534.037C630.665 528.613 631.462 523.113 632.386 517.563ZM629.866 534.663C629.168 539.963 628.544 545.187 627.996 550.363C628.544 545.212 629.168 539.963 629.866 534.663ZM625.727 578.211C626.2 570.087 626.848 561.712 627.722 553.087C627.796 552.287 628.744 551.837 629.392 552.312C669.025 580.262 694.965 626.285 694.965 678.284C694.965 714.583 682.32 747.982 661.193 774.357C660.695 774.981 659.672 774.832 659.373 774.107C654.085 761.532 649.446 748.733 645.456 735.882C628.37 680.559 624.155 624.761 625.751 578.262L625.727 578.211ZM553.893 147.172C553.893 147.172 553.893 147.072 553.893 146.997C554.492 137.897 557.634 129.123 563.022 121.648C569.706 112.423 578.161 101.623 585.719 92.8487C590.433 87.3738 595.496 82.0739 600.809 77.0741C601.058 76.8491 601.408 76.7491 601.732 76.7991C623.581 80.624 644.732 86.4238 665.01 94.0487C665.783 94.3486 665.908 95.3986 665.234 95.8986C632.859 119.048 607.418 143.722 587.764 173.021C574.669 192.596 564.368 213.971 556.188 237.895C555.814 239.02 554.167 238.77 554.167 237.57V155.122C554.167 152.422 554.067 149.772 553.868 147.122L553.893 147.172ZM568.484 316.618C576.889 262.769 590.782 222.846 612.906 189.821C632.984 159.847 660.52 134.522 698.931 109.448C699.256 109.248 699.655 109.223 700.004 109.373C715.992 117.423 731.306 126.623 745.798 136.897C746.396 137.322 746.371 138.197 745.798 138.622C686.36 178.972 639.42 233.77 604.45 287.269C589.385 310.243 576.465 333.093 565.665 354.642C565.141 355.693 563.595 355.193 563.72 354.017C565.067 340.918 566.664 328.443 568.509 316.618H568.484ZM563.72 72.2742C563.445 72.5992 563.146 72.9242 562.872 73.2492C557.559 79.374 551.149 87.9238 545.113 96.2736C543.317 98.7485 541.696 101.299 540.124 103.923C538.603 101.299 536.907 98.7236 535.136 96.2736C529.15 87.9238 522.691 79.399 517.377 73.2492C517.103 72.9242 516.779 72.5992 516.504 72.2492C524.286 71.7492 532.118 71.4493 540.025 71.4493C547.932 71.4493 555.913 71.7492 563.745 72.2492L563.72 72.2742ZM492.435 173.047C472.781 143.672 447.315 118.998 414.915 95.8486C414.241 95.3486 414.341 94.2986 415.14 93.9987C435.443 86.3989 456.593 80.599 478.443 76.7741C478.767 76.7241 479.116 76.8241 479.365 77.0491C484.679 82.049 489.741 87.3738 494.481 92.8487C502.038 101.598 510.519 112.398 517.178 121.648C522.565 129.073 525.733 137.848 526.307 146.997C526.307 147.048 526.307 147.097 526.307 147.172C526.107 149.822 526.008 152.522 526.008 155.172V237.595C526.008 238.795 524.361 239.045 523.987 237.92C515.856 214.046 505.555 192.646 492.411 173.072L492.435 173.047ZM516.504 354.042C516.629 355.193 515.083 355.693 514.559 354.667C503.709 333.118 490.764 310.243 475.774 287.244C440.78 233.721 393.839 178.872 334.327 138.522C333.729 138.122 333.704 137.222 334.327 136.797C348.843 126.523 364.157 117.348 380.146 109.298C380.495 109.123 380.894 109.148 381.218 109.373C419.704 134.473 447.24 159.772 467.344 189.821C489.467 222.87 503.31 262.769 511.766 316.618C513.611 328.468 515.207 340.893 516.555 354.042H516.504ZM307.813 157.497C308.163 157.197 308.687 157.147 309.086 157.397C368.822 195.322 416.312 249.794 451.755 304.019C483.257 352.217 504.882 399.541 517.078 433.69C520.295 442.715 528.876 448.715 538.454 448.715H542.17C551.773 448.715 559.779 443.14 562.747 434.715C574.87 400.491 596.619 352.667 628.444 304.019H628.495C663.938 249.82 711.353 195.396 771.039 157.472C771.438 157.222 771.962 157.247 772.311 157.572C786.055 169.372 798.875 182.196 810.673 195.946C811.121 196.471 810.946 197.271 810.323 197.571C721.604 240.445 666.906 316.593 634.755 395.716C618.942 434.54 609.289 474.564 603.677 512.264H603.527C594.698 568.236 589.66 657.435 616.622 744.757C622.109 762.507 628.844 780.256 636.801 797.631C637 798.081 636.876 798.606 636.501 798.906C614.202 816.606 586.941 828.306 557.11 831.506V831.555C543.342 833.155 525.408 831.555 521.168 831.155C492.161 827.555 465.647 815.88 443.923 798.506C443.549 798.206 443.424 797.681 443.624 797.231C451.505 779.956 458.214 762.357 463.652 744.708C474.901 708.308 480.513 671.609 482.683 637.11H482.733C482.757 636.485 482.783 635.81 482.808 635.16C485.601 587.636 481.81 544.412 476.747 512.188H476.647C471.035 474.514 461.383 434.515 445.569 395.716C413.318 316.543 358.646 240.295 269.801 197.471C269.178 197.171 269.004 196.371 269.453 195.846C281.25 182.122 294.095 169.297 307.813 157.497ZM183.552 427.065C183.552 417.14 183.976 407.291 184.799 397.566L184.599 405.891C184.599 406.465 185.048 406.941 185.622 406.965C279.703 409.441 355.977 426.615 403.666 451.365C404.39 451.739 404.39 452.764 403.691 453.164C329.089 498.464 278.682 579.587 276.661 672.409C276.661 672.984 276.187 673.435 275.638 673.435H185.148C184.599 673.435 184.125 673.009 184.101 672.435C183.751 665.984 183.552 659.484 183.552 652.935V427.065ZM540 1008.5C360.915 1008.5 212.285 876.054 187.268 704.208C187.168 703.583 187.667 702.983 188.316 702.983H276.811C277.334 702.983 277.783 703.383 277.834 703.908C290.853 837.08 403.666 941.478 540.474 941.478C677.257 941.478 790.095 837.03 803.115 703.908C803.165 703.383 803.614 702.983 804.137 702.983H891.684C892.333 702.983 892.831 703.558 892.732 704.208C867.739 876.054 719.085 1008.5 540 1008.5Z" fill="#FEFEFE"/>
</svg>
