<svg width="1080" height="1080" viewBox="0 0 1080 1080" fill="none" xmlns="http://www.w3.org/2000/svg">
<path d="M688.29 466.458C712.054 466.458 731.365 474.584 746.004 490.834L834.065 575.834C855.07 598.334 882.23 609.584 915.12 609.584H972.834C983.87 609.584 993.419 613.334 1001.69 621.042C1009.97 628.75 1014 638.334 1014 650V720.208C1014 741.876 1005.72 760.624 989.173 776.874L901.115 863.334C879.047 886.666 868.225 913.334 868.225 942.916V999.584C868.225 1011.25 864.406 1021.04 856.556 1028.54C848.917 1036.25 838.944 1040 827.062 1040H252.665C241.632 1040 232.295 1036.25 224.444 1028.54C216.593 1020.83 212.774 1011.25 212.774 999.584V942.916C212.774 912.292 201.316 885.834 178.399 863.334L91.8261 778.334C75.2754 762.916 67 743.958 67 721.458V359.792C67 335.416 75.2754 316.25 91.8261 301.667L178.399 215.208C201.316 194.583 212.774 168.333 212.774 136.875V80.4166C212.774 68.75 216.593 58.9583 224.444 51.4583C232.083 43.75 241.632 40 252.665 40H827.273C839.157 40 849.13 43.75 856.769 51.4583C864.619 59.1667 868.438 68.75 868.438 80.4166V137.083C868.438 167.708 879.471 193.75 901.328 215.417L1001.69 313.958C1009.12 321.25 1012.73 330.626 1012.73 342.292V358.542C1012.73 370.208 1008.91 380 1001.06 387.5C993.205 395.208 983.87 398.958 972.834 398.958H905.571C893.689 398.958 883.716 395.208 876.077 387.5C868.225 379.792 864.406 370.626 864.406 359.792V226.25C864.406 215.417 860.586 206.042 852.736 197.917C844.674 189.792 834.912 185.833 823.03 185.833H256.697C245.663 185.833 236.115 189.792 227.839 197.917C219.564 206.042 215.532 215.417 215.532 226.25V853.75C215.532 864.584 219.564 873.958 227.839 882.084C236.115 890.208 245.663 894.166 256.697 894.166H823.03C834.912 894.166 844.884 890.208 852.523 882.084C860.376 873.958 864.195 864.584 864.195 853.75V653.958C864.195 642.292 860.376 632.5 852.523 625C844.674 617.292 834.912 613.542 823.03 613.542H542.515C531.482 613.542 521.934 609.584 513.658 601.458C505.382 593.334 501.352 583.958 501.352 573.126V507.084C501.352 496.25 505.382 486.874 513.658 478.75C521.934 470.624 531.482 466.666 542.515 466.666H688.29V466.458Z" fill="#010101"/>
</svg>
