<svg width="1080" height="1080" viewBox="0 0 1080 1080" fill="none" xmlns="http://www.w3.org/2000/svg">
<g opacity="0.7">
<path d="M282.669 510.89C261.006 510.89 239.743 502.867 223.295 486.819L65.6311 332.766C31.932 299.87 31.5308 245.71 64.0264 212.011C96.9232 178.713 151.082 177.911 184.38 210.808L282.669 306.69L390.988 201.179C424.687 168.282 478.447 169.085 511.343 202.784C544.24 236.483 543.438 290.241 509.739 323.138L342.044 486.819C325.596 502.867 303.932 510.89 282.669 510.89Z" fill="#333333"/>
</g>
<g opacity="0.7">
<path d="M629.689 902.467C607.624 902.467 585.559 894.043 568.71 876.792C535.813 843.093 536.615 789.335 570.314 756.438L738.007 592.756C770.904 560.261 823.86 560.261 856.757 592.756L1014.42 746.81C1048.12 779.706 1048.52 833.464 1015.62 867.164C982.727 900.863 928.969 901.264 895.27 868.367L796.981 772.485L688.662 877.995C672.214 894.043 650.55 902.066 629.288 902.066L629.689 902.467Z" fill="#333333"/>
</g>
<g opacity="0.7">
<path d="M267.83 888.829C244.962 888.829 222.095 879.601 205.245 861.548C173.552 827.047 175.558 773.289 210.06 741.194L774.521 221.265C809.023 189.572 862.781 191.578 894.875 226.079C926.569 260.581 924.563 314.339 890.061 346.433L325.599 866.764C309.151 882.008 288.691 889.23 267.83 889.23V888.829Z" fill="#333333"/>
</g>
</svg>
