<svg width="1080" height="1080" viewBox="0 0 1080 1080" fill="none" xmlns="http://www.w3.org/2000/svg">
<path d="M539.912 40C551.114 40 563.816 41.4 563.816 41.4C526.233 86.4686 503.585 142.1 499.005 200.6C428.191 212.444 362.996 246.548 312.888 297.961C262.78 349.373 230.367 415.416 220.356 486.5C155.645 493.5 82.4319 523.1 40.3245 565.4C30.3227 275.2 252.762 40 539.912 40ZM611.925 911.8C598.68 913.757 585.307 914.726 571.918 914.7C548.808 914.424 525.747 912.519 502.906 909C485.06 951.96 461.511 992.323 432.893 1029C343.129 1009.21 260.557 965.061 194.249 901.411C127.94 837.76 80.4614 757.069 57.0274 668.2C102.135 614.7 206.354 583.7 271.065 583.7C409.089 583.7 482.302 656.9 507.707 771C424.592 748.5 375.283 702 342.878 633C323.94 626.125 303.913 622.737 283.767 623C265.589 622.926 247.518 625.796 230.258 631.5C266.864 771 402.088 875.2 566.817 875.2C718.944 875.2 783.655 797.8 783.655 797.8V679.4C783.655 679.4 709.042 756.9 616.126 772.4C605.673 700.07 572.015 633.088 520.212 581.53C468.41 529.971 401.265 496.622 328.875 486.5C352.779 368.2 442.895 302 565.417 302C687.938 302 786.556 390.7 786.556 390.7V273.8C786.556 273.8 723.144 214.6 610.525 202C613.325 150 647.131 85.1 683.737 61.1C837.164 109 985.09 238.6 1027.3 427.3C1027.3 427.3 959.686 494.9 832.964 494.9C728.745 494.9 662.934 442.8 625.927 351.3C606.515 344.386 586.022 341 565.417 341.3C546.187 341.089 527.088 344.481 509.107 351.3C549.914 497.8 679.137 596.3 823.162 596.3C963.987 596.3 1040 531.6 1040 531.6C1040 824.5 816.061 1034.4 549.914 1040C580.919 1010 604.824 944.2 611.925 911.8Z" fill="#FEFEFE"/>
</svg>
