<svg width="1080" height="1080" viewBox="0 0 1080 1080" fill="none" xmlns="http://www.w3.org/2000/svg">
<path d="M135.732 823.506C177.607 881.751 231.321 930.488 293.351 966.519C355.381 1002.55 424.327 1025.06 495.666 1032.58C458.965 977.347 405.613 926.532 339.008 887.845C272.403 849.157 201.867 828.026 135.732 823.506Z" fill="#7E828B"/>
<path d="M428.507 733.802C300.186 659.255 161.298 640.256 61.9199 673.817C71.5137 705.526 84.1663 736.224 99.6991 765.483C186.042 763.485 280.314 786.936 368.034 837.886C455.754 888.836 522.844 959.153 563.902 1035.16C597.031 1034.14 629.985 1029.93 662.305 1022.56C642.216 919.625 556.793 808.369 428.507 733.802Z" fill="#7E828B"/>
<path d="M1040 431.2C1023.68 364.839 994.165 302.447 953.202 247.747C912.239 193.048 860.671 147.164 801.582 112.835C742.492 78.5059 677.091 56.4361 609.284 47.9433C541.477 39.4504 472.654 44.7087 406.924 63.404C516.733 76.8428 638.622 118.065 758.157 187.509C877.695 256.953 973.965 342.405 1040 431.2Z" fill="#7E828B"/>
<path d="M880.229 674.574C824.022 581.23 727.736 491.843 609.126 422.939C490.511 354.033 365.197 314.674 256.362 312.071C160.612 309.803 88.7493 337.638 59.2517 388.418C59.0837 388.721 58.8485 389.006 58.6637 389.309C56.0096 398.833 53.7251 408.374 51.6421 417.949C92.8313 401.689 140.555 392.635 193.621 391.627C311.628 389.41 443.697 427.155 565.566 497.961C687.436 568.765 785.723 664.833 842.231 768.409C867.566 815.077 883.373 861.02 889.637 904.912C896.928 898.394 904.084 891.658 911.022 884.653C911.205 884.336 911.323 883.999 911.51 883.662C941.007 832.831 929.6 756.634 880.229 674.574Z" fill="#7E828B"/>
<path d="M518.882 578.253C337.244 472.726 136.523 456.197 40 529.84C40.1896 552.891 41.9518 575.902 45.2746 598.714C73.6682 590.107 102.932 584.687 132.524 582.554C240.386 574.439 359.3 604.491 467.211 667.216C575.125 729.94 660.191 818.4 706.585 916.049C719.411 942.799 729.191 970.904 735.749 999.838C757.214 991.421 778.087 981.561 798.22 970.325C814.38 849.982 700.574 683.796 518.882 578.253Z" fill="#7E828B"/>
<path d="M973.66 518.335C916.815 425.09 819.685 335.454 700.234 266.095C580.783 196.735 454.98 156.755 345.792 153.547C262.557 151.144 198.085 171.319 164.656 209.434C303.46 185.917 486.543 225.443 664.001 328.534C841.455 431.624 966.535 571.116 1014.81 703.333C1031.36 655.444 1016.97 589.445 973.66 518.335Z" fill="#7E828B"/>
</svg>
