<svg width="1080" height="1080" viewBox="0 0 1080 1080" fill="none" xmlns="http://www.w3.org/2000/svg">
<path d="M132.586 826.456C174.834 885.22 229.026 934.392 291.61 970.744C354.193 1007.1 423.754 1029.81 495.728 1037.39C458.7 981.668 404.872 930.4 337.674 891.368C270.475 852.336 199.31 831.016 132.586 826.456Z" fill="url(#paint0_linear_9_40)"/>
<path d="M427.971 735.952C298.505 660.74 158.38 641.572 58.1152 675.432C67.7945 707.424 80.56 738.396 96.2312 767.916C183.344 765.9 278.456 789.56 366.958 840.964C455.461 892.368 523.149 963.312 564.573 1040C597.997 1038.97 631.245 1034.72 663.853 1027.29C643.585 923.432 557.401 811.184 427.971 735.952Z" fill="url(#paint1_linear_9_40)"/>
<path d="M1044.92 430.652C1028.45 363.7 998.672 300.751 957.344 245.564C916.016 190.377 863.988 144.084 804.372 109.448C744.756 74.8136 678.772 52.547 610.36 43.9784C541.948 35.4099 472.512 40.715 406.195 59.577C516.984 73.1356 639.96 114.726 760.56 184.789C881.164 254.852 978.292 341.066 1044.92 430.652Z" fill="url(#paint2_linear_9_40)"/>
<path d="M883.72 676.196C827.012 582.02 729.868 491.836 610.2 422.317C490.528 352.797 364.097 313.088 254.291 310.461C157.688 308.173 85.1842 336.256 55.4235 387.489C55.2541 387.794 55.0168 388.082 54.8303 388.388C52.1526 397.997 49.8477 407.623 47.7461 417.284C89.3026 400.878 137.452 391.743 190.991 390.726C310.05 388.489 443.296 426.571 566.252 498.008C689.208 569.444 788.372 666.368 845.384 770.868C870.944 817.952 886.892 864.304 893.212 908.588C900.568 902.012 907.788 895.216 914.788 888.148C914.972 887.828 915.092 887.488 915.28 887.148C945.04 835.864 933.532 758.988 883.72 676.196Z" fill="url(#paint3_linear_9_40)"/>
<path d="M519.152 579.016C335.894 472.548 133.383 455.872 36 530.172C36.1913 553.428 37.9692 576.644 41.3216 599.66C69.9684 590.976 99.4928 585.508 129.349 583.356C238.172 575.168 358.147 605.488 467.02 668.772C575.896 732.056 661.72 821.304 708.528 919.824C721.468 946.812 731.336 975.168 737.952 1004.36C759.608 995.868 780.668 985.92 800.98 974.584C817.284 853.168 702.464 685.5 519.152 579.016Z" fill="url(#paint4_linear_9_40)"/>
<path d="M977.984 518.564C920.632 424.487 822.636 334.053 702.12 264.075C581.604 194.096 454.68 153.76 344.518 150.523C260.541 148.1 195.494 168.454 161.768 206.909C301.809 183.182 486.524 223.06 665.564 327.07C844.6 431.08 970.796 571.816 1019.5 705.212C1036.2 656.896 1021.68 590.308 977.984 518.564Z" fill="url(#paint5_linear_9_40)"/>
<defs>
<linearGradient id="paint0_linear_9_40" x1="707.876" y1="243.125" x2="244.334" y2="1040" gradientUnits="userSpaceOnUse">
<stop offset="0.0001" stop-color="#C7F284"/>
<stop offset="1" stop-color="#00BEF0"/>
</linearGradient>
<linearGradient id="paint1_linear_9_40" x1="707.877" y1="243.125" x2="244.334" y2="1040" gradientUnits="userSpaceOnUse">
<stop offset="0.0001" stop-color="#C7F284"/>
<stop offset="1" stop-color="#00BEF0"/>
</linearGradient>
<linearGradient id="paint2_linear_9_40" x1="707.876" y1="243.125" x2="244.333" y2="1040" gradientUnits="userSpaceOnUse">
<stop offset="0.0001" stop-color="#C7F284"/>
<stop offset="1" stop-color="#00BEF0"/>
</linearGradient>
<linearGradient id="paint3_linear_9_40" x1="707.876" y1="243.125" x2="244.334" y2="1040" gradientUnits="userSpaceOnUse">
<stop offset="0.0001" stop-color="#C7F284"/>
<stop offset="1" stop-color="#00BEF0"/>
</linearGradient>
<linearGradient id="paint4_linear_9_40" x1="707.876" y1="243.125" x2="244.334" y2="1040" gradientUnits="userSpaceOnUse">
<stop offset="0.0001" stop-color="#C7F284"/>
<stop offset="1" stop-color="#00BEF0"/>
</linearGradient>
<linearGradient id="paint5_linear_9_40" x1="707.876" y1="243.125" x2="244.334" y2="1040" gradientUnits="userSpaceOnUse">
<stop offset="0.0001" stop-color="#C7F284"/>
<stop offset="1" stop-color="#00BEF0"/>
</linearGradient>
</defs>
</svg>
