<svg width="1080" height="1080" viewBox="0 0 1080 1080" fill="none" xmlns="http://www.w3.org/2000/svg">
<path d="M135.732 823.506C177.607 881.751 231.321 930.488 293.351 966.519C355.381 1002.55 424.327 1025.06 495.666 1032.58C458.965 977.347 405.613 926.532 339.008 887.845C272.403 849.158 201.867 828.026 135.732 823.506Z" fill="url(#paint0_linear_9_36)"/>
<path d="M428.506 733.802C300.185 659.255 161.297 640.256 61.9189 673.817C71.5127 705.526 84.1654 736.224 99.6981 765.484C186.041 763.485 280.313 786.936 368.033 837.886C455.753 888.836 522.843 959.153 563.901 1035.16C597.03 1034.14 629.984 1029.93 662.304 1022.56C642.215 919.625 556.792 808.369 428.506 733.802Z" fill="url(#paint1_linear_9_36)"/>
<path d="M1040 431.2C1023.68 364.839 994.165 302.447 953.202 247.747C912.239 193.048 860.671 147.164 801.582 112.835C742.492 78.5059 677.092 56.4361 609.284 47.9433C541.477 39.4504 472.654 44.7087 406.924 63.404C516.733 76.8428 638.622 118.065 758.157 187.509C877.695 256.953 973.965 342.405 1040 431.2Z" fill="url(#paint2_linear_9_36)"/>
<path d="M880.227 674.574C824.02 581.23 727.735 491.843 609.124 422.939C490.51 354.033 365.196 314.674 256.36 312.071C160.611 309.803 88.7479 337.638 59.2502 388.418C59.0822 388.721 58.8471 389.006 58.6623 389.309C56.0082 398.833 53.7236 408.375 51.6406 417.95C92.8299 401.689 140.554 392.635 193.619 391.627C311.626 389.41 443.695 427.155 565.565 497.961C687.434 568.765 785.722 664.833 842.23 768.409C867.564 815.077 883.371 861.02 889.635 904.912C896.926 898.394 904.083 891.658 911.021 884.653C911.203 884.336 911.322 883.999 911.508 883.662C941.005 832.831 929.599 756.634 880.227 674.574Z" fill="url(#paint3_linear_9_36)"/>
<path d="M518.882 578.253C337.244 472.726 136.523 456.197 40 529.84C40.1896 552.891 41.9518 575.902 45.2746 598.714C73.6682 590.107 102.932 584.687 132.524 582.554C240.386 574.439 359.3 604.491 467.211 667.216C575.125 729.94 660.191 818.4 706.585 916.049C719.411 942.799 729.191 970.904 735.749 999.838C757.214 991.421 778.087 981.561 798.22 970.325C814.38 849.982 700.575 683.796 518.882 578.253Z" fill="url(#paint4_linear_9_36)"/>
<path d="M973.662 518.335C916.817 425.09 819.687 335.454 700.236 266.095C580.785 196.735 454.982 156.755 345.794 153.547C262.559 151.144 198.087 171.319 164.658 209.434C303.462 185.917 486.545 225.443 664.003 328.534C841.456 431.624 966.537 571.116 1014.81 703.334C1031.36 655.445 1016.97 589.445 973.662 518.335Z" fill="url(#paint5_linear_9_36)"/>
<defs>
<linearGradient id="paint0_linear_9_36" x1="705.939" y1="245.33" x2="246.493" y2="1035.16" gradientUnits="userSpaceOnUse">
<stop offset="0.0001" stop-color="#A4D756"/>
<stop offset="1" stop-color="#00B6E7"/>
</linearGradient>
<linearGradient id="paint1_linear_9_36" x1="705.939" y1="245.33" x2="246.492" y2="1035.16" gradientUnits="userSpaceOnUse">
<stop offset="0.0001" stop-color="#A4D756"/>
<stop offset="1" stop-color="#00B6E7"/>
</linearGradient>
<linearGradient id="paint2_linear_9_36" x1="705.938" y1="245.33" x2="246.492" y2="1035.16" gradientUnits="userSpaceOnUse">
<stop offset="0.0001" stop-color="#A4D756"/>
<stop offset="1" stop-color="#00B6E7"/>
</linearGradient>
<linearGradient id="paint3_linear_9_36" x1="705.937" y1="245.33" x2="246.491" y2="1035.16" gradientUnits="userSpaceOnUse">
<stop offset="0.0001" stop-color="#A4D756"/>
<stop offset="1" stop-color="#00B6E7"/>
</linearGradient>
<linearGradient id="paint4_linear_9_36" x1="705.939" y1="245.33" x2="246.493" y2="1035.16" gradientUnits="userSpaceOnUse">
<stop offset="0.0001" stop-color="#A4D756"/>
<stop offset="1" stop-color="#00B6E7"/>
</linearGradient>
<linearGradient id="paint5_linear_9_36" x1="705.941" y1="245.33" x2="246.495" y2="1035.16" gradientUnits="userSpaceOnUse">
<stop offset="0.0001" stop-color="#A4D756"/>
<stop offset="1" stop-color="#00B6E7"/>
</linearGradient>
</defs>
</svg>
