<svg width="1080" height="1080" viewBox="0 0 1080 1080" fill="none" xmlns="http://www.w3.org/2000/svg">
<path fill-rule="evenodd" clip-rule="evenodd" d="M48.2873 40C43.7104 40 40 43.7104 40 48.2873V260.994H122.231V529.378L390.616 260.994H501.727L265.478 490.196L506.42 808.718H400.787L205.733 548.16L122.231 629.171V808.718H40V1031.71C40 1036.29 43.7104 1040 48.2873 1040H1031.71C1036.29 1040 1040 1036.29 1040 1031.71V48.2873C1040 43.7104 1036.29 40 1031.71 40H48.2873ZM566.633 789.939C595.323 807.674 628.97 816.544 667.572 816.544C703.041 816.544 735.124 808.459 763.815 792.287C792.503 776.116 815.196 754.207 831.887 726.561C849.102 698.392 857.71 666.572 857.71 631.099C857.71 607.624 853.276 585.715 844.406 565.373C836.061 544.506 824.323 526.511 809.196 511.381C794.591 495.732 777.116 483.735 756.771 475.389C737.254 466.657 716.221 462.224 693.669 462.091L846.754 292.293L831.105 260.994H573.58L490.713 339.24H712.066L565.069 501.21L588.541 563.025C601.583 557.809 613.58 553.635 624.536 550.506C635.489 546.854 645.663 544.246 655.052 542.682C664.961 540.594 674.351 539.552 683.221 539.552C702.519 539.552 719.213 543.464 733.298 551.287C747.381 558.591 758.075 569.547 765.378 584.152C772.682 598.235 776.334 615.45 776.334 635.793C776.334 656.138 771.638 674.395 762.249 690.566C752.859 706.738 740.34 719.517 724.691 728.906C709.041 737.776 692.088 742.21 673.832 742.21C658.702 742.21 644.356 739.34 630.796 733.602C617.232 727.865 603.931 718.997 590.889 706.997C578.37 694.478 565.588 678.569 552.55 659.268L486.823 700.738C511.862 742.47 538.464 772.204 566.633 789.939Z" fill="#010101"/>
</svg>
