<svg width="1080" height="1080" viewBox="0 0 1080 1080" fill="none" xmlns="http://www.w3.org/2000/svg">
<path d="M490.407 40V308.045L343.883 84.5074L250.201 151.685L394.391 368.721H467.904C472.904 368.721 477.572 371.222 480.406 375.389L497.242 400.727H592.924V40H490.407Z" fill="#F4F4F4"/>
<path d="M81.8391 332.882L314.045 466.738L47 482.074L58.3353 596.593L318.545 580.423L355.218 516.746C357.718 512.412 362.219 509.578 367.22 509.245L397.558 507.244L445.4 424.564L132.681 244.201L81.5058 333.049L81.8391 332.882Z" fill="#F4F4F4"/>
<path d="M131.181 832.965L363.386 698.942L243.033 937.482L348.217 984.99L464.069 751.618L427.23 687.941C424.73 683.607 424.563 678.272 426.73 673.772L440.066 646.6L392.224 563.92L79.6721 744.283L131.014 833.131L131.181 832.965Z" fill="#F4F4F4"/>
<path d="M589.09 771.956L735.948 995.493L829.63 928.315L685.44 711.112H611.761C606.76 711.112 602.093 708.612 599.259 704.444L582.423 679.273H486.74V1040H589.257V771.789L589.09 771.956Z" fill="#F4F4F4"/>
<path d="M997.825 747.284L765.62 613.262L1032.33 598.092L1021 483.573L760.786 499.743L723.946 563.42C721.446 567.754 716.945 570.588 711.944 570.921L681.606 572.922L633.931 655.602L946.483 836.132L997.825 747.284Z" fill="#F4F4F4"/>
<path d="M948.484 247.201L716.278 381.223L836.465 142.684L731.447 95.1758L615.595 328.548L652.268 392.225C654.768 396.559 654.935 401.894 652.768 406.228L639.432 433.399L687.107 516.079L999.659 335.716L948.484 246.868V247.201Z" fill="#F4F4F4"/>
</svg>
