<svg width="1080" height="1080" viewBox="0 0 1080 1080" fill="none" xmlns="http://www.w3.org/2000/svg">
<path d="M1026.87 858.746V1040C859.648 1032.51 708.514 944.797 621.038 814.543L618.734 811.324C679.081 786.515 734.411 757.546 784.73 724.911C840.24 800.675 927.469 851.787 1026.87 858.746Z" fill="#7EA5F3"/>
<path d="M1016.72 40.2237C1013.12 115.741 1004.43 180.275 990.152 239.127C965.126 342.204 923.113 426.266 861.715 496.123C750.782 622.328 578.81 696.682 338.926 721.421V1018.21H140.363V727.036H53V553.053H140.363V40H338.926V541.152C521.419 520.08 649.16 466.08 726.808 377.725C768.599 330.192 797.653 271.025 815.673 196.828C826.705 151.285 833.689 100.351 836.959 40.2237H1016.72Z" fill="#7EA5F3"/>
</svg>
