<svg width="1080" height="1080" viewBox="0 0 1080 1080" fill="none" xmlns="http://www.w3.org/2000/svg">
<path d="M540.593 40L79 134.636V651.477L79.3564 653.26C142.269 1006.14 501.919 1037.15 517.246 1038.4L538.989 1040H540.237L561.98 1038.4C577.307 1037.33 936.958 1006.14 999.87 653.26L1000.23 651.477V134.636L540.772 40H540.593ZM918.244 644.17C895.788 762.509 830.916 850.373 725.231 905.621C665.705 936.632 608.317 949.285 578.02 954.097V556.485L817.193 517.099V462.028L540.95 416.047L262.212 462.028V517.099L501.385 556.842V954.097C471.087 949.285 413.7 936.632 354.174 905.621C248.489 850.373 183.438 762.509 161.16 644.17V201.469L539.88 123.764L918.601 201.469V644.17H918.244Z" fill="#6E6EF4"/>
<path d="M501.206 188.102V275.252V296.995V377.017L539.524 369.71L577.841 377.017V296.995V275.252V188.102L539.524 176.518L501.206 188.102Z" fill="#6E6EF4"/>
</svg>
