<svg width="1080" height="1080" viewBox="0 0 1080 1080" fill="none" xmlns="http://www.w3.org/2000/svg">
<mask id="mask0_10_121" style="mask-type:luminance" maskUnits="userSpaceOnUse" x="40" y="40" width="1000" height="1000">
<path d="M1040 40H40V1040H1040V40Z" fill="white"/>
</mask>
<g mask="url(#mask0_10_121)">
<path d="M1030.48 559.272C1029.49 576.987 1027.66 594.702 1024.77 612.274C1020.48 638.417 1014.07 664.275 1005.69 689.347C1004.14 694.062 1002.45 698.704 1000.69 703.347C993.437 723.277 984.916 742.635 975.201 761.421C963.294 784.421 949.637 806.492 934.423 827.421C929.987 833.421 925.48 839.349 920.766 845.207C909.423 859.492 897.244 873.135 884.423 886.135C866.401 904.349 846.959 921.214 826.401 936.5C805.766 951.785 784.009 965.571 761.33 977.499C745.979 985.642 730.134 992.857 713.936 999.285C710.134 1000.79 706.331 1002.21 702.529 1003.64C698.514 1005.14 694.43 1006.57 690.346 1007.93C689.43 1008.21 688.515 1008.5 687.599 1008.79C685.768 1009.36 683.937 1009.93 682.106 1010.5C672.529 1013.57 662.952 1016.36 653.163 1018.86C653.023 1018.93 652.881 1018.93 652.741 1018.93C647.178 1020.36 641.614 1021.64 635.981 1022.71C632.882 1023.43 629.784 1024.07 626.615 1024.64C626.121 1024.79 625.629 1024.86 625.136 1024.93C621.967 1025.5 618.869 1026.07 615.699 1026.57C608.799 1027.71 601.897 1028.71 594.925 1029.5C593.658 1029.64 592.461 1029.79 591.263 1029.93C588.517 1030.29 585.771 1030.5 583.024 1030.79C582.179 1030.86 581.264 1031 580.419 1031C578.658 1031.21 576.898 1031.36 575.066 1031.5C572.179 1031.71 569.292 1031.93 566.334 1032.07C562.602 1032.29 558.94 1032.5 555.208 1032.57C552.884 1032.64 550.631 1032.71 548.306 1032.79C547.321 1032.79 546.264 1032.79 545.279 1032.79C543.448 1032.86 541.687 1032.86 539.856 1032.86H532.251C384.014 1032.86 248.172 964.357 156.344 856.492C153.809 853.492 151.344 850.492 148.879 847.421C148.245 846.707 147.611 845.921 147.048 845.135H146.978C97.894 783.707 62.6132 710.204 46.5571 629.774C43.8107 615.988 50.6416 602.487 62.8948 596.273C97.8236 578.772 145.569 571.558 179.934 594.202C192.751 602.702 207.329 618.559 203.314 635.417C199.864 649.989 186.414 658.132 176.625 668.204C165.216 679.918 160.709 697.704 163.667 713.777C166.061 726.777 173.104 739.563 184.371 746.635C195.991 753.992 209.3 756.992 222.751 758.849C240.215 761.207 263.594 763.992 277.326 749.706C281.834 745.063 285.214 739.492 290.284 735.492C295.284 731.634 301.059 728.705 307.044 726.848C320.565 722.705 336.621 723.92 348.522 732.062C356.691 737.635 364.156 744.42 373.029 748.92C381.409 753.135 390.564 755.778 399.859 756.921C414.718 758.778 434.224 758.421 447.886 751.492C454.858 747.92 461.478 743.563 467.534 738.42C492.463 717.277 506.476 684.632 508.096 651.989C508.519 643.417 507.956 635.775 504.434 627.845C501.124 620.345 496.336 613.702 491.97 606.844C491.336 605.844 490.702 604.773 490.069 603.63C471.477 572.558 460.984 536.986 477.111 502.056C481.477 490.984 487.604 479.913 492.744 468.555C497.392 458.198 501.266 447.626 502.251 436.626C503.589 425.125 500.984 414.054 495.561 404.554C490.491 395.696 482.956 388.125 474.012 382.839C437.112 360.767 390.916 366.695 351.691 353.052C332.044 346.694 313.664 335.409 300.073 319.337C283.735 300.122 273.946 275.622 269.791 248.907C264.862 219.334 266.552 158.761 310.706 174.119C323.946 178.762 338.241 186.905 352.677 192.476C356.48 193.976 360.353 195.334 364.085 196.334C377.465 200.191 391.409 201.905 405.281 200.905C421.126 200.477 435.563 195.619 449.576 189.047C481.899 173.762 511.265 148.904 547.461 147.189C549.504 147.118 551.546 147.118 553.659 147.261C553.729 147.189 553.799 147.189 553.94 147.261C574.503 148.332 595.136 157.689 609.854 172.19C616.826 178.69 623.023 189.904 619.361 198.977C614.573 210.548 604.644 215.834 593.799 223.334C584.855 229.12 575.489 235.406 567.813 243.049C533.096 275.479 544.715 321.337 578.799 355.052C593.235 369.338 607.319 383.339 623.164 396.124C638.234 408.411 655.206 419.125 668.656 433.269C678.937 444.055 685.909 457.627 695.979 468.627C709.43 483.199 726.401 487.342 745.415 484.199C786.894 477.27 825.416 449.126 868.93 455.555C870.409 455.769 871.894 455.984 873.373 456.341C912.666 464.269 921.887 517.414 888.723 540.414C884.287 543.557 880.273 546.629 877.173 550.057C860.48 564.344 851.959 584.845 843.373 604.845C838.866 615.202 834.43 625.417 828.794 634.632C819.851 647.774 805.487 662.418 788.866 660.204C770.98 657.846 772.594 626.917 771.259 614.56C770.13 604.845 768.301 596.345 763.516 587.773C759.43 580.558 754.006 574.201 747.669 568.987C718.232 544.629 680.909 554.843 646.403 557.13C625.699 558.487 605.841 560.915 589.01 574.629C580.489 581.559 573.799 590.773 569.996 601.202C563.588 618.774 566.334 639.917 575.771 655.846C584.574 670.632 603.446 678.775 617.953 686.49C618.164 686.633 618.376 686.705 618.586 686.847C671.191 712.562 641.333 732.134 643.234 780.992C643.234 783.992 643.586 787.064 643.939 790.278C644.079 791.635 644.291 793.064 644.572 794.421C650.487 823.064 615.84 835.921 581.334 830.85C564.715 828.421 548.166 826.992 531.406 825.778C510.491 824.135 489.716 829.207 475.069 845.135C474.787 845.421 474.506 845.707 474.224 845.992C464.083 857.349 457.886 873.064 460.069 888.421C464.999 922.857 508.73 930.642 536.828 931.071C558.87 931.357 580.559 927.071 602.46 926.071C611.404 925.714 620.277 924.999 629.15 923.857C633.446 923.285 637.671 922.642 641.966 921.785C657.741 918.714 674.008 913.714 686.825 903.564C699.078 893.921 705.486 878.349 706.191 862.849C706.472 856.992 705.979 850.921 704.641 845.135C704.219 843.135 703.655 841.207 702.951 839.349C699.571 829.992 693.374 821.564 689.43 812.421C687.529 808.064 685.979 803.492 684.924 798.849C681.754 783.849 685.979 766.921 690.346 752.563C695.346 736.134 702.951 719.848 714.782 707.276C723.936 697.49 735.767 690.705 749.076 688.705C762.387 686.633 779.923 687.776 789.216 698.919C799.994 711.92 802.03 730.634 814.43 742.349C826.68 753.92 848.866 757.349 864.987 758.064C879.073 758.707 894.566 757.492 905.973 748.135C920.766 736.062 924.987 714.991 926.887 696.776C929.001 675.989 927.244 654.989 925.409 634.275C924.423 623.345 924.144 613.345 924.494 604.059C925.201 586.344 928.509 568.63 935.83 552.486C938.159 547.415 940.83 542.486 943.859 537.772C955.766 519.057 974.844 501.485 997.944 500.699C1008.51 500.27 1019.21 504.771 1025.34 513.342C1026.54 515.057 1027.52 516.914 1028.37 518.842C1033.58 531.486 1031.25 545.986 1030.48 559.201V559.272Z" fill="#232323"/>
</g>
</svg>
