<svg width="1080" height="1080" viewBox="0 0 1080 1080" fill="none" xmlns="http://www.w3.org/2000/svg">
<mask id="mask0_10_122" style="mask-type:luminance" maskUnits="userSpaceOnUse" x="40" y="40" width="1000" height="1000">
<path d="M1040 40H40V1040H1040V40Z" fill="white"/>
</mask>
<g mask="url(#mask0_10_122)">
<path d="M1030.48 559.272C1029.49 576.987 1027.66 594.702 1024.77 612.274C1020.48 638.417 1014.07 664.275 1005.69 689.347C1004.14 694.062 1002.45 698.704 1000.69 703.347C993.434 723.277 984.912 742.635 975.198 761.421C963.291 784.421 949.634 806.492 934.419 827.421C929.984 833.421 925.477 839.349 920.762 845.207C909.419 859.492 897.241 873.135 884.419 886.135C866.398 904.349 846.955 921.214 826.398 936.5C805.762 951.785 784.005 965.571 761.327 977.499C745.975 985.642 730.13 992.857 713.933 999.285C710.131 1000.79 706.328 1002.21 702.525 1003.64C698.511 1005.14 694.427 1006.57 690.342 1007.93C689.427 1008.21 688.511 1008.5 687.596 1008.79C685.765 1009.36 683.934 1009.93 682.103 1010.5C672.526 1013.57 662.949 1016.36 653.16 1018.86C653.019 1018.93 652.878 1018.93 652.737 1018.93C647.174 1020.36 641.611 1021.64 635.977 1022.71C632.879 1023.43 629.78 1024.07 626.612 1024.64C626.118 1024.79 625.625 1024.86 625.132 1024.93C621.964 1025.5 618.865 1026.07 615.696 1026.57C608.795 1027.71 601.894 1028.71 594.922 1029.5C593.654 1029.64 592.457 1029.79 591.26 1029.93C588.514 1030.29 585.767 1030.5 583.021 1030.79C582.176 1030.86 581.26 1031 580.415 1031C578.654 1031.21 576.894 1031.36 575.063 1031.5C572.176 1031.71 569.289 1031.93 566.331 1032.07C562.599 1032.29 558.937 1032.5 555.204 1032.57C552.881 1032.64 550.627 1032.71 548.303 1032.79C547.317 1032.79 546.261 1032.79 545.275 1032.79C543.444 1032.86 541.684 1032.86 539.853 1032.86H532.247C384.011 1032.86 248.169 964.357 156.34 856.492C153.805 853.492 151.34 850.492 148.875 847.421C148.242 846.707 147.608 845.921 147.044 845.135H146.974C97.8906 783.707 62.6097 710.204 46.5537 629.774C43.8073 615.988 50.6382 602.487 62.8914 596.273C97.8202 578.772 145.566 571.558 179.931 594.202C192.748 602.702 207.325 618.559 203.311 635.417C199.86 649.989 186.41 658.132 176.622 668.204C165.213 679.918 160.706 697.704 163.664 713.777C166.058 726.777 173.1 739.563 184.367 746.635C195.987 753.992 209.297 756.992 222.747 758.849C240.212 761.207 263.591 763.992 277.323 749.706C281.83 745.063 285.21 739.492 290.281 735.492C295.281 731.634 301.055 728.705 307.041 726.848C320.562 722.705 336.618 723.92 348.519 732.062C356.688 737.635 364.152 744.42 373.025 748.92C381.405 753.135 390.56 755.778 399.856 756.921C414.714 758.778 434.221 758.421 447.883 751.492C454.854 747.92 461.474 743.563 467.53 738.42C492.459 717.277 506.473 684.632 508.093 651.989C508.515 643.417 507.952 635.775 504.431 627.845C501.121 620.345 496.332 613.702 491.967 606.844C491.332 605.844 490.699 604.773 490.065 603.63C471.474 572.558 460.981 536.986 477.107 502.056C481.474 490.984 487.6 479.913 492.741 468.555C497.389 458.198 501.262 447.626 502.248 436.626C503.586 425.125 500.98 414.054 495.558 404.554C490.487 395.696 482.952 388.125 474.009 382.839C437.109 360.767 390.912 366.695 351.688 353.052C332.04 346.694 313.661 335.409 300.069 319.337C283.732 300.122 273.943 275.622 269.788 248.907C264.859 219.334 266.549 158.761 310.703 174.119C323.942 178.762 338.237 186.905 352.674 192.476C356.477 193.976 360.349 195.334 364.082 196.334C377.462 200.191 391.405 201.905 405.278 200.905C421.123 200.477 435.559 195.619 449.573 189.047C481.896 173.762 511.262 148.904 547.458 147.189C549.5 147.118 551.542 147.118 553.655 147.261C553.726 147.189 553.796 147.189 553.937 147.261C574.499 148.332 595.133 157.689 609.851 172.19C616.823 178.69 623.02 189.904 619.358 198.977C614.569 210.548 604.64 215.834 593.795 223.334C584.852 229.12 575.486 235.406 567.809 243.049C533.092 275.479 544.712 321.337 578.795 355.052C593.232 369.338 607.316 383.339 623.161 396.124C638.231 408.411 655.202 419.125 668.652 433.269C678.934 444.055 685.906 457.627 695.976 468.627C709.427 483.199 726.398 487.342 745.411 484.199C786.891 477.27 825.412 449.126 868.927 455.555C870.405 455.769 871.891 455.984 873.369 456.341C912.662 464.269 921.884 517.414 888.719 540.414C884.284 543.557 880.269 546.629 877.169 550.057C860.477 564.344 851.955 584.845 843.369 604.845C838.862 615.202 834.427 625.417 828.791 634.632C819.848 647.774 805.484 662.418 788.862 660.204C770.977 657.846 772.591 626.917 771.255 614.56C770.127 604.845 768.298 596.345 763.512 587.773C759.427 580.558 754.003 574.201 747.665 568.987C718.229 544.629 680.906 554.843 646.399 557.13C625.696 558.487 605.837 560.915 589.007 574.629C580.486 581.559 573.796 590.773 569.993 601.202C563.584 618.774 566.331 639.917 575.767 655.846C584.57 670.632 603.443 678.775 617.949 686.49C618.161 686.633 618.372 686.705 618.583 686.847C671.188 712.562 641.329 732.134 643.231 780.992C643.231 783.992 643.583 787.064 643.935 790.278C644.076 791.635 644.287 793.064 644.569 794.421C650.484 823.064 615.837 835.921 581.331 830.85C564.712 828.421 548.162 826.992 531.402 825.778C510.487 824.135 489.713 829.207 475.065 845.135C474.784 845.421 474.502 845.707 474.22 845.992C464.079 857.349 457.883 873.064 460.066 888.421C464.995 922.857 508.727 930.642 536.824 931.071C558.867 931.357 580.556 927.071 602.457 926.071C611.4 925.714 620.274 924.999 629.147 923.857C633.442 923.285 637.667 922.642 641.963 921.785C657.737 918.714 674.004 913.714 686.822 903.564C699.074 893.921 705.483 878.349 706.187 862.849C706.469 856.992 705.976 850.921 704.638 845.135C704.215 843.135 703.652 841.207 702.948 839.349C699.567 829.992 693.37 821.564 689.427 812.421C687.525 808.064 685.976 803.492 684.92 798.849C681.751 783.849 685.976 766.921 690.342 752.563C695.342 736.134 702.948 719.848 714.779 707.276C723.933 697.49 735.764 690.705 749.073 688.705C762.384 686.633 779.919 687.776 789.212 698.919C799.991 711.92 802.027 730.634 814.427 742.349C826.677 753.92 848.862 757.349 864.984 758.064C879.069 758.707 894.562 757.492 905.969 748.135C920.762 736.062 924.984 714.991 926.884 696.776C928.998 675.989 927.241 654.989 925.405 634.275C924.419 623.345 924.141 613.345 924.491 604.059C925.198 586.344 928.505 568.63 935.827 552.486C938.155 547.415 940.827 542.486 943.855 537.772C955.762 519.057 974.841 501.485 997.941 500.699C1008.51 500.27 1019.21 504.771 1025.33 513.342C1026.53 515.057 1027.52 516.914 1028.36 518.842C1033.58 531.486 1031.25 545.986 1030.48 559.201V559.272Z" fill="#EEEDED"/>
</g>
</svg>
