<svg width="1080" height="1080" viewBox="0 0 1080 1080" fill="none" xmlns="http://www.w3.org/2000/svg">
<path fill-rule="evenodd" clip-rule="evenodd" d="M552.659 53.1681C549.265 49.8548 544.71 48 539.966 48C535.223 48 530.668 49.8548 527.274 53.1681L45.2393 527.48C43.5805 529.105 42.2627 531.044 41.3631 533.185C40.4634 535.325 40 537.624 40 539.946C40 542.267 40.4634 544.566 41.3631 546.707C42.2627 548.847 43.5805 550.786 45.2393 552.411L527.3 1026.72C530.694 1030.04 535.25 1031.89 539.993 1031.89C544.736 1031.89 549.292 1030.04 552.686 1026.72L1034.75 552.411C1036.41 550.786 1037.73 548.845 1038.63 546.702C1039.54 544.559 1040 542.257 1040 539.932C1040 537.607 1039.54 535.305 1038.63 533.162C1037.73 531.019 1036.41 529.078 1034.75 527.453L552.659 53.1681ZM552.659 96.8582C549.265 93.5449 544.71 91.6901 539.966 91.6901C535.223 91.6901 530.668 93.5449 527.274 96.8582L89.6509 527.453C87.9881 529.078 86.6668 531.019 85.7647 533.162C84.8626 535.305 84.398 537.607 84.398 539.932C84.398 542.257 84.8626 544.559 85.7647 546.702C86.6668 548.845 87.9881 550.786 89.6509 552.411L527.3 983.006C530.694 986.32 535.25 988.174 539.993 988.174C544.736 988.174 549.292 986.32 552.686 983.006L990.335 552.411C991.998 550.786 993.319 548.845 994.222 546.702C995.124 544.559 995.588 542.257 995.588 539.932C995.588 537.607 995.124 535.305 994.222 533.162C993.319 531.019 991.998 529.078 990.335 527.453L552.659 96.8582Z" fill="#FEFEFE"/>
<path d="M420.707 921.877L928.153 422.633L950.332 444.492L442.939 943.735L420.707 921.877ZM323.68 826.4L831.126 327.157L853.306 348.988L345.859 848.231L323.68 826.4ZM226.626 730.923L734.073 231.68L756.252 253.511L248.859 752.754L226.68 730.923H226.626ZM129.573 635.446L637.019 136.203L659.198 158.034L151.805 657.277L129.626 635.446H129.573Z" fill="#FEFEFE"/>
</svg>
