<svg width="1080" height="1080" viewBox="0 0 1080 1080" fill="none" xmlns="http://www.w3.org/2000/svg">
<path d="M40 496.842C40.7042 449.873 43.0326 402.89 46.7693 356.382L48.4219 336.753L61.2705 321.563C140.258 228.779 228.372 140.678 321.156 61.672L336.347 48.8165L355.979 47.188C477.508 37.604 602.083 37.604 723.611 47.188L743.257 48.8165L758.448 61.6721C851.233 140.679 939.332 228.779 1018.33 321.563L1031.18 336.753L1032.82 356.383C1042.39 477.919 1042.39 602.481 1032.82 724.018L1031.18 743.647L1018.33 758.837C939.332 851.621 851.233 939.736 758.448 1018.73L743.257 1031.58L723.611 1033.21C677.333 1036.96 629.691 1039.06 582.954 1040C581.071 994.415 565.65 952.591 540.643 917.758C591.821 917.758 643.445 915.898 693.933 912.396C771.297 845.309 844.909 771.692 911.982 694.329C919.226 592.206 919.226 488.194 911.982 386.071C844.909 308.708 771.297 235.091 693.933 168.004C591.793 160.769 487.798 160.769 385.657 168.004C308.308 235.091 234.681 308.708 167.608 386.071C164.101 436.542 162.233 488.411 162.233 539.357C127.41 514.583 85.3431 498.715 40 496.842ZM75.7572 629.59C75.5272 629.36 75.0528 629.36 74.5929 629.129L72.4804 627.962C73.6589 628.437 74.5931 628.898 75.7572 629.59Z" fill="black"/>
<path d="M40 496.842C40.7042 449.873 43.0326 402.89 46.7693 356.382L48.4219 336.753L61.2705 321.563C140.258 228.779 228.372 140.678 321.156 61.672L336.347 48.8165L355.979 47.188C477.508 37.604 602.083 37.604 723.611 47.188L743.257 48.8165L758.448 61.6721C851.233 140.679 939.332 228.779 1018.33 321.563L1031.18 336.753L1032.82 356.383C1042.39 477.919 1042.39 602.481 1032.82 724.018L1031.18 743.647L1018.33 758.837C939.332 851.621 851.233 939.736 758.448 1018.73L743.257 1031.58L723.611 1033.21C677.333 1036.96 629.691 1039.06 582.954 1040C581.071 994.415 565.65 952.591 540.643 917.758C591.821 917.758 643.445 915.898 693.933 912.396C771.297 845.309 844.909 771.692 911.982 694.329C919.226 592.206 919.226 488.194 911.982 386.071C844.909 308.708 771.297 235.091 693.933 168.004C591.793 160.769 487.798 160.769 385.657 168.004C308.308 235.091 234.681 308.708 167.608 386.071C164.101 436.542 162.233 488.411 162.233 539.357C127.41 514.583 85.3431 498.715 40 496.842ZM75.7572 629.59C75.5272 629.36 75.0528 629.36 74.5929 629.129L72.4804 627.962C73.6589 628.437 74.5931 628.898 75.7572 629.59Z" fill="url(#paint0_linear_8_1233)"/>
<path fill-rule="evenodd" clip-rule="evenodd" d="M73.038 628.387L40.996 613.149L40.4216 575.221C40.0626 549.386 40.1055 523.507 40.5794 497.628C86.05 499.466 128.045 514.718 162.672 539.505C219.432 580.162 256.414 646.525 256.414 721.533C256.414 777.973 302.359 823.771 358.931 823.771C434.132 823.771 500.743 860.621 541.647 917.176L541.661 917.233C566.608 951.772 581.947 993.649 583.785 1038.97C557.862 1039.46 531.909 1039.5 505.986 1039.15L467.969 1038.58L451.596 1004.33C435.108 969.824 399.792 945.941 358.931 945.941C234.727 945.941 133.905 845.399 133.905 721.533C133.905 681.236 110.423 646.496 76.3987 629.952C75.2928 629.421 74.1583 628.875 73.038 628.387Z" fill="black"/>
<path fill-rule="evenodd" clip-rule="evenodd" d="M73.038 628.387L40.996 613.149L40.4216 575.221C40.0626 549.386 40.1055 523.507 40.5794 497.628C86.05 499.466 128.045 514.718 162.672 539.505C219.432 580.162 256.414 646.525 256.414 721.533C256.414 777.973 302.359 823.771 358.931 823.771C434.132 823.771 500.743 860.621 541.647 917.176L541.661 917.233C566.608 951.772 581.947 993.649 583.785 1038.97C557.862 1039.46 531.909 1039.5 505.986 1039.15L467.969 1038.58L451.596 1004.33C435.108 969.824 399.792 945.941 358.931 945.941C234.727 945.941 133.905 845.399 133.905 721.533C133.905 681.236 110.423 646.496 76.3987 629.952C75.2928 629.421 74.1583 628.875 73.038 628.387Z" fill="url(#paint1_linear_8_1233)"/>
<path fill-rule="evenodd" clip-rule="evenodd" d="M45.6514 903.349C87.5318 896.224 133.968 896.295 175.834 903.533C182.944 945.542 182.873 992.107 175.65 1034.09C133.769 1041.21 87.3333 1041.14 45.4671 1033.9C38.3569 991.894 38.4277 945.329 45.6514 903.349Z" fill="black"/>
<path fill-rule="evenodd" clip-rule="evenodd" d="M45.6514 903.349C87.5318 896.224 133.968 896.295 175.834 903.533C182.944 945.542 182.873 992.107 175.65 1034.09C133.769 1041.21 87.3333 1041.14 45.4671 1033.9C38.3569 991.894 38.4277 945.329 45.6514 903.349Z" fill="url(#paint2_linear_8_1233)"/>
<defs>
<linearGradient id="paint0_linear_8_1233" x1="157.625" y1="399.407" x2="905.658" y2="701.209" gradientUnits="userSpaceOnUse">
<stop stop-color="#91F1BD"/>
<stop offset="0.25" stop-color="#2BD5C1"/>
<stop offset="0.5" stop-color="#13CFC2"/>
<stop offset="1" stop-color="#079AC6"/>
</linearGradient>
<linearGradient id="paint1_linear_8_1233" x1="311.981" y1="497.632" x2="311.981" y2="1039.38" gradientUnits="userSpaceOnUse">
<stop stop-color="#00D1FF"/>
<stop offset="1" stop-color="#0039CB"/>
</linearGradient>
<linearGradient id="paint2_linear_8_1233" x1="110.65" y1="898.056" x2="110.65" y2="1039.38" gradientUnits="userSpaceOnUse">
<stop stop-color="#00D1FF"/>
<stop offset="1" stop-color="#0039CB"/>
</linearGradient>
</defs>
</svg>
