<svg width="1080" height="1080" viewBox="0 0 1080 1080" fill="none" xmlns="http://www.w3.org/2000/svg">
<path d="M710.807 620.232C779.095 580.622 825 506.654 825 421.928V324.738C825 167.499 697.656 40 540.531 40C383.407 40 256 167.499 256 324.738V428.888H429.438V435.66C408.382 440.912 388.465 449.074 370.192 459.768C301.904 499.378 256 573.346 256 658.072V755.262C256 912.5 383.344 1040 540.469 1040C697.593 1040 825 912.5 825 755.262V651.112H651.562V644.34C672.617 639.088 692.534 630.926 710.807 620.232ZM596.046 790C596.046 820.688 571.198 845.556 540.531 845.556C509.865 845.556 485.017 820.688 485.017 790V290C485.017 259.312 509.865 234.444 540.531 234.444C571.198 234.444 596.046 259.312 596.046 290V790Z" fill="#F2F2F2"/>
</svg>
