<svg width="1080" height="1080" viewBox="0 0 1080 1080" fill="none" xmlns="http://www.w3.org/2000/svg">
<path d="M184.941 693.046L276.574 569.369C282.509 561.362 295.09 564.691 296.411 574.6C324.369 784.515 609.398 859.659 736.034 683.641L1026.1 292.129C1030.53 286.158 1040 289.277 1040 296.727V525.905C1040 535.416 1036.94 544.691 1031.27 552.324L868.839 771.173C698.865 1015.78 319.778 990.156 182.039 729.877C175.814 718.094 177.002 703.772 184.941 693.046Z" fill="#276ED6"/>
<path d="M891.632 387.844L799.473 512.208C793.538 520.215 780.977 516.885 779.636 507.003C751.435 297.853 467.94 222.604 340.853 397.275L177.793 616.995L53.927 785.801C49.5222 791.826 40 788.683 40 781.233V550.651C40 541.139 43.0596 531.891 48.7045 524.258L197.892 322.928C358.949 63.9978 756.709 85.822 894.638 351.199C900.757 362.956 899.519 377.198 891.632 387.844Z" fill="#276ED6"/>
</svg>
