<svg width="1080" height="1080" viewBox="0 0 1080 1080" fill="none" xmlns="http://www.w3.org/2000/svg">
<path d="M553.838 1040C280.199 1040 61 845.154 61 594.452C61 455.493 250.115 398.175 495.085 398.175C679.903 398.175 807.403 466.938 807.403 562.936C807.403 625.97 680.698 691.868 580.418 691.868C535.199 691.868 518.008 674.677 518.008 653.188C518.008 600.184 634.046 548.611 634.046 495.591C634.046 471.236 612.558 459.775 573.878 459.775C426.321 459.775 132.629 584.955 132.629 677.543C132.629 739.143 288.794 784.986 532.333 784.986C788.778 784.986 944.93 701.895 944.93 541.431C944.93 380.968 778.735 289.284 510.844 289.284C377.615 289.284 273.021 317.936 185.634 362.345C141.224 385.265 121.168 375.238 121.168 336.559C121.168 177.527 304.553 40 518.008 40C795.942 40 1018.01 263.497 1018.01 538.568C1018.01 813.636 808.835 1040 553.821 1040H553.838Z" fill="#97B600"/>
</svg>
