<svg width="1080" height="1080" viewBox="0 0 1080 1080" fill="none" xmlns="http://www.w3.org/2000/svg">
<path d="M817.699 746H672.718L672.721 668.679H817.699V746ZM1040 746H895.019L895.022 668.679H1040V746ZM310.402 621.585C316.227 635.498 321.473 648.26 323.801 659.275H325.553C327.883 648.26 333.711 634.919 339.536 621.585L479.4 334H613.433V745.665H533.596V449.381C533.596 431.987 534.178 409.953 536.509 395.461H534.178C531.262 403.579 521.94 427.35 513.784 445.322L403.046 668.257H243.562L134.987 445.319C127.413 427.35 121 408.214 117.506 395.458H114.59C116.918 408.796 117.506 427.929 117.506 449.378V745.665H40V334H171.702L310.402 621.585ZM895.022 668.679H817.699V407.779H895.022V668.679ZM817.699 407.779H672.721V334.344H817.699V407.779Z" fill="#FEFEFE"/>
</svg>
