<svg width="1080" height="1080" viewBox="0 0 1080 1080" fill="none" xmlns="http://www.w3.org/2000/svg">
<path d="M400.851 1040C393.785 1040 386.722 1039.56 379.656 1038.76C373.602 1038.11 367.618 1037.17 361.634 1035.93C352.842 1034.11 344.408 1031.72 336.334 1028.88C305.265 1018.05 276.431 999.811 249.469 973.793C218.761 944.578 194.901 909.767 176.23 876.699C172.554 886.219 168.878 895.813 165.201 905.552C161.885 914.271 158.642 922.92 155.398 931.641C155.253 932.004 155.109 932.295 155.037 932.659C154.893 933.096 154.677 933.604 154.533 934.04C151.865 941.09 149.27 948.211 146.603 955.406C141.485 969.215 136.439 983.022 131.393 996.831V997.122C128.365 1007.37 123.319 1024.67 107.677 1033.75C96.143 1040.65 82.8071 1040.87 73.436 1038.11C66.8042 1036.15 61.0373 1032.73 56.2796 1028.23C53.8287 1026.05 51.6661 1023.5 49.7198 1020.74C46.3317 1015.87 37.0327 999.448 45.3946 978.661C50.8011 958.604 58.5864 939.635 66.0833 921.249C69.1109 913.691 72.2105 906.277 74.9499 898.865C77.617 891.743 80.2843 884.62 82.9513 877.572C88.4299 863.036 93.8362 848.719 99.3148 834.693C107.965 812.163 116.615 790.289 125.194 768.849C78.41 651.697 56.9284 532 47.9897 431.345C45.1784 400.968 43.4483 370.299 42.7275 339.556C42.7275 339.267 42.7275 339.048 42.7275 338.757C42.7275 338.394 42.7275 338.03 42.7275 337.667C42.6554 333.888 42.5833 330.11 42.5112 326.331C41.9345 295.151 42.2949 263.175 45.3946 231.271C48.5664 197.113 54.91 163.247 66.7321 131.124C69.0388 124.656 72.4268 115.79 77.3287 106.051C96.8639 66.7341 124.545 44.9315 160.011 40.9344C168.157 39.8442 176.519 39.9169 185.025 40.9344C216.526 44.5681 242.909 61.2108 263.598 77.49C268.212 81.051 272.825 84.9028 277.584 89.0454C317.52 123.566 349.814 164.846 379.152 205.326C385.929 214.555 392.775 224.148 399.913 234.396C422.115 204.163 447.201 173.785 475.242 145.441C510.564 109.249 552.303 75.8185 601.32 56.4142C649.763 36.8646 692.51 36.9372 728.553 46.5304C745.925 50.9635 763.008 57.9404 779.59 67.5335C835.959 100.165 875.68 153.072 904.008 203.145C907.829 193.116 911.721 183.014 915.616 172.767C915.759 172.331 915.902 171.895 916.12 171.532C916.408 170.805 916.695 170.078 916.912 169.351C920.084 160.848 923.329 152.345 926.572 143.624C929.095 136.866 931.474 129.017 934.069 120.659C939.763 102.2 946.179 81.2691 956.848 62.5916C967.517 43.1873 987.628 37.5186 1003.63 40.9344C1005.43 41.2977 1007.16 41.8065 1008.89 42.3879C1010.55 42.9693 1012.21 43.6233 1013.8 44.4228C1028.5 51.6903 1040.61 68.2602 1037.51 89.6994C1034.77 111.647 1025.62 132.36 1017.54 150.674C1014.52 157.433 1011.71 163.901 1009.69 169.206C997.937 200.892 986.475 231.198 974.941 260.777C968.238 278.074 961.461 295.08 954.83 311.795C954.83 311.867 954.83 312.012 954.902 312.086C1003.92 436.942 1032.11 578.221 1037.08 725.243C1037.08 725.534 1037.08 725.825 1037.08 726.116C1037.08 726.335 1037.08 726.48 1037.08 726.697C1037.08 727.205 1037.08 727.715 1037.08 728.297C1037.08 728.297 1037.08 728.442 1037.08 728.514V730.404C1037.08 730.404 1037.08 730.476 1037.08 730.55C1037.08 731.13 1037.08 731.711 1037.08 732.293C1037.08 732.512 1037.08 732.729 1037.08 732.875C1037.08 733.237 1037.08 733.673 1037.08 734.11C1037.08 734.62 1037.08 735.056 1037.08 735.564V735.781C1037.15 739.343 1037.22 742.976 1037.29 746.538C1037.94 775.245 1037.87 804.677 1035.64 834.257C1032.68 876.771 1025.55 919.068 1009.4 958.386C1007.16 963.908 1004.79 969.07 1002.26 973.867C998.369 981.57 993.467 989.781 987.413 997.63C965.425 1026.56 939.763 1036.29 919.797 1038.84C919.651 1038.84 919.58 1038.84 919.436 1038.84C915.976 1039.27 912.442 1039.56 908.839 1039.64C882.24 1040.51 854.702 1030.04 824.932 1008.82C803.882 993.779 785.068 976.554 767.622 957.95C734.463 922.992 706.35 883.966 682.057 848.791C681.336 847.775 680.544 846.683 679.822 845.667C672.613 855.187 665.189 864.562 657.62 873.793C657.187 874.372 656.683 874.954 656.177 875.536C616.387 925.755 564.629 982.151 499.031 1014.42C465.726 1031.28 432.785 1039.71 400.201 1039.71L400.851 1040ZM869.335 932.877C874.021 936.51 878.491 939.709 882.961 942.542C889.592 946.685 895.359 949.52 900.548 951.191C908.335 953.59 910.857 952.064 912.227 951.191C916.769 948.357 922.247 941.452 927.653 929.825C928.807 927.353 929.96 924.592 931.113 921.612C931.474 920.739 931.763 919.795 932.123 918.922C932.555 917.761 932.916 916.598 933.348 915.363C934.717 911.365 935.944 907.369 937.169 903.225C940.051 892.978 942.647 880.986 944.81 867.179C946.324 857.657 947.478 847.847 948.485 837.163C949.711 824.301 950.503 811 951.009 796.612C951.37 785.709 951.513 774.444 951.442 762.89C951.442 762.6 951.442 762.309 951.442 761.944C951.442 761 951.442 760.128 951.442 759.183C951.442 754.241 951.298 749.227 951.153 744.211C950.864 732.002 950.36 719.867 949.711 707.801C944.737 617.321 929.456 525.677 904.008 434.98C866.164 523.861 825.003 612.743 776.923 697.046C763.154 721.61 748.807 745.665 733.814 769.139C734.967 770.885 736.194 772.628 737.347 774.373C740.302 778.733 743.186 783.02 746.14 787.235C764.018 813.108 780.094 835.056 796.241 855.404C815.776 880.116 832.571 899.01 849.007 914.853C852.395 918.124 855.638 921.104 858.812 923.865C860.108 925.028 861.407 926.118 862.704 927.207C865.011 929.171 867.246 930.988 869.481 932.731L869.335 932.877ZM235.341 802.424C243.487 818.631 252.136 833.966 261.22 848.5C288.036 891.233 340.874 956.859 410.582 951.699C423.484 950.392 436.677 946.831 450.3 941.161C482.234 927.572 516.188 901.699 551.942 863.689C555.691 859.693 559.366 855.695 563.043 851.699C574.866 838.398 586.904 823.719 599.158 807.731C609.033 794.867 618.62 781.785 627.993 768.412C582.579 698.572 540.263 627.06 498.959 557.145C466.953 503.004 434.299 447.771 400.201 393.482C391.55 408.161 383.548 422.335 376.124 435.705C339.434 501.55 303.966 573.281 267.204 656.058C260.931 670.301 254.732 684.546 248.676 698.645C240.603 717.394 232.602 736.363 224.6 755.767C222.942 759.765 221.284 763.835 219.554 767.904C224.24 778.733 229.43 790.361 235.413 802.498L235.341 802.424ZM651.996 641.159C661.44 656.566 671.028 672.046 680.615 687.307C701.736 652.279 721.487 616.376 740.158 580.112C752.052 556.855 763.514 533.38 774.542 509.835C794.584 466.665 813.902 422.552 833.077 377.928C842.304 356.416 851.531 334.47 860.758 312.086C859.748 309.687 858.666 307.289 857.587 304.819C855.423 300.022 853.188 295.225 850.953 290.5C842.232 272.042 831.563 250.892 818.587 229.963C794.006 191.081 748.015 133.959 687.535 128.435C627.921 125.892 568.954 172.622 526.279 218.407C517.269 228.073 508.546 238.029 500.112 248.131C494.706 254.745 489.588 261.285 484.614 267.608C473.439 281.998 462.627 296.679 452.175 311.649C497.373 381.199 539.544 452.42 580.776 522.044C604.061 561.361 627.775 601.333 651.996 641.014V641.159ZM128.942 327.783C128.942 329.89 129.014 332.072 129.086 334.179C131.537 436.942 147.468 541.448 176.519 644.938C223.519 535.125 278.231 419.064 347.001 311.578C342.965 305.618 338.999 299.731 334.892 293.845C331.864 289.41 328.764 284.904 325.593 280.398C320.187 272.769 314.707 265.137 309.157 257.58C295.821 239.337 282.484 221.46 268.572 204.744C256.389 190.282 245.216 178.073 234.187 167.317C233.25 166.444 232.241 165.5 231.304 164.627C223.951 157.796 216.382 151.401 208.597 145.441C207.371 144.496 206.218 143.624 205.065 142.825C198.361 137.956 192.81 134.613 188.197 132.287C181.565 128.944 176.951 127.854 173.78 127.563C170.536 127.345 169.022 128.29 168.085 128.871C158.065 135.194 143.503 161.139 135.358 213.32C135.214 214.192 135.069 215.064 134.925 216.009C134.925 216.081 134.925 216.227 134.925 216.3C134.925 216.663 134.853 216.954 134.781 217.317C134.637 218.189 134.565 219.061 134.421 219.933C134.421 220.151 134.421 220.297 134.349 220.515C133.339 227.855 132.474 235.486 131.681 243.335C131.465 245.659 131.249 248.058 131.033 250.456C130.095 262.157 129.447 274.076 129.014 286.94C128.726 296.896 128.582 307.217 128.654 317.827C128.654 318.916 128.654 319.934 128.654 321.024C128.654 323.277 128.654 325.53 128.726 327.783H128.942Z" fill="#343134"/>
</svg>
