<svg width="1080" height="1080" viewBox="0 0 1080 1080" fill="none" xmlns="http://www.w3.org/2000/svg">
<path d="M111.125 539.269C299.045 533.797 747.262 513.232 847.293 367.715C923.339 257.134 755.498 141.982 675.725 100.372C595.952 58.6407 484.98 40 484.98 40C708.308 65.195 1061.36 187.502 951.472 409.867C853.064 608.901 339.983 635.96 111.005 635.96V539.209H111.125V539.269Z" fill="white"/>
<path d="M111.005 1038.78V943.593C395.228 934.092 775.036 925.854 972.032 737.463C977.382 903.426 750.148 978.288 576.234 1009.5C425.708 1036.5 265.44 1043.11 111.065 1038.78H111.005Z" fill="white"/>
<path d="M972.154 531.324C816.154 692.476 503.136 737.213 108 737.213V833.724C523.515 833.724 970.951 772.751 972.154 531.324Z" fill="white"/>
</svg>
