<svg width="1080" height="1080" viewBox="0 0 1080 1080" fill="none" xmlns="http://www.w3.org/2000/svg">
<path fill-rule="evenodd" clip-rule="evenodd" d="M540 998.333C793.131 998.333 998.333 793.131 998.333 540C998.333 286.869 793.131 81.6667 540 81.6667C286.869 81.6667 81.6667 286.869 81.6667 540C81.6667 793.131 286.869 998.333 540 998.333ZM540 1040C816.142 1040 1040 816.142 1040 540C1040 263.857 816.142 40 540 40C263.857 40 40 263.857 40 540C40 816.142 263.857 1040 540 1040Z" fill="white"/>
<path fill-rule="evenodd" clip-rule="evenodd" d="M608.179 839.259C773.446 839.259 907.422 705.284 907.422 540.016C907.422 374.749 773.446 240.774 608.179 240.774C442.913 240.774 308.938 374.749 308.938 540.016C308.938 705.284 442.913 839.259 608.179 839.259ZM608.179 880.925C796.458 880.925 949.089 728.295 949.089 540.016C949.089 351.738 796.458 199.107 608.179 199.107C419.902 199.107 267.271 351.738 267.271 540.016C267.271 728.295 419.902 880.925 608.179 880.925Z" fill="white"/>
<path fill-rule="evenodd" clip-rule="evenodd" d="M540 680.151C617.403 680.151 680.152 617.402 680.152 540C680.152 462.596 617.403 399.848 540 399.848C462.596 399.848 399.849 462.596 399.849 540C399.849 617.402 462.596 680.151 540 680.151ZM540 721.818C640.415 721.818 721.818 640.415 721.818 540C721.818 439.584 640.415 358.182 540 358.182C439.585 358.182 358.182 439.584 358.182 540C358.182 640.415 439.585 721.818 540 721.818Z" fill="white"/>
</svg>
