<svg width="1080" height="1080" viewBox="0 0 1080 1080" fill="none" xmlns="http://www.w3.org/2000/svg">
<path d="M873.329 269.021C890.223 252.117 916.392 253.111 927.213 271.009C938.921 290.234 947.753 311.006 954.051 332.772C957.584 345.147 953.5 359.621 943.23 369.897L612.276 701.025C592.292 721.025 567.443 734.831 541.054 740.469L513.554 746.326C487.272 752.071 462.204 765.882 442.327 785.77L188.236 1040C177.414 998.235 172.667 970.066 206.566 936.143L873.329 269.021ZM944.999 411.68C956.044 400.631 973.05 407.04 971.949 421.624C965.101 510.897 922.588 604.922 846.833 680.719C789.084 744.03 626.09 840.816 509.592 905.673C485.737 918.928 466.304 890.642 485.844 871.086L944.892 411.789L944.999 411.68ZM792.714 135.122C803.203 124.626 818.664 122.419 829.266 129.711C851.351 144.737 872.003 166.504 882.604 192.799C886.577 202.963 883.155 215.446 874.435 224.174L517.97 580.83C497.986 600.825 473.137 614.637 446.743 620.269L419.252 626.132C392.971 631.876 367.903 645.683 348.026 665.57L128.165 885.551C117.343 843.79 122.533 805.673 156.435 771.754L284.748 643.366L792.714 135.122ZM641.643 71.7204C661.52 51.8331 690.01 44.0984 713.42 52.9361C728.111 58.5714 742.247 65.4234 755.607 73.4893C773.276 84.0959 774.158 109.95 757.59 126.523L431.612 452.682C412.951 471.351 387.553 481.3 363.26 479.529C337.751 477.652 310.914 488.147 291.147 507.927L112.588 686.581C101.767 644.82 115.791 597.861 149.692 563.943L207.557 506.05L641.643 71.7204ZM589.426 40.0019C605.106 39.7815 611.175 58.4525 599.252 70.3852L429.969 239.764L252.734 417.095C252.623 417.206 252.619 417.205 252.619 417.205L197.737 472.116C186.253 483.606 169.25 473.223 175.652 458.641L229.1 337.102C232.081 329.699 235.395 322.185 239.039 314.561L239.368 313.789C270.177 248.491 319.762 179.217 366.362 132.591C441.124 57.7913 508.261 40.7754 589.426 40.0019Z" fill="white"/>
</svg>
