<svg width="1080" height="1080" viewBox="0 0 1080 1080" fill="none" xmlns="http://www.w3.org/2000/svg">
<path d="M873.329 269.021C890.223 252.117 916.392 253.111 927.213 271.01C938.921 290.234 947.758 311.006 954.051 332.772C957.584 345.146 953.495 359.617 943.23 369.892L612.276 701.025C592.292 721.025 567.443 734.831 541.054 740.469L513.554 746.321C487.272 752.065 462.204 765.882 442.327 785.77L188.236 1040C177.414 998.235 172.665 970.061 206.567 936.137L873.329 269.021ZM944.999 411.679C956.044 400.631 973.05 407.041 971.949 421.625C965.101 510.897 922.588 604.922 846.838 680.718C789.084 744.03 626.09 840.816 509.592 905.673C485.737 918.928 466.299 890.648 485.849 871.086L944.892 411.794L944.999 411.679ZM792.714 135.123C803.203 124.627 818.664 122.42 829.266 129.711C851.351 144.738 872.003 166.504 882.604 192.8C886.582 202.964 883.155 215.451 874.435 224.179L517.97 580.83C497.986 600.825 473.137 614.642 446.748 620.274L419.252 626.132C392.972 631.876 367.903 645.688 348.027 665.57L128.165 885.551C117.343 843.79 122.534 805.673 156.435 771.754L284.749 643.366L792.714 135.123ZM641.643 71.7204C661.52 51.8331 690.01 44.0979 713.42 52.9367C728.111 58.5714 742.247 65.4234 755.607 73.4893C773.276 84.0964 774.158 109.95 757.595 126.523L431.612 452.682C412.95 471.351 387.549 481.3 363.255 479.529C337.747 477.652 310.914 488.152 291.148 507.927L112.588 686.581C101.766 644.82 115.791 597.861 149.692 563.938L641.643 71.7204ZM589.426 40.0019C605.106 39.782 611.18 58.4576 599.252 70.3903L429.969 239.764L288.623 381.192L252.734 417.096L197.737 472.121C186.253 483.611 169.247 473.223 175.652 458.641L229.1 337.107C232.081 329.704 235.395 322.19 239.039 314.566L239.368 313.794C270.177 248.496 319.762 179.217 366.362 132.591C441.124 57.7923 508.261 40.7754 589.426 40.0019Z" fill="url(#paint0_linear_8_1336)"/>
<defs>
<linearGradient id="paint0_linear_8_1336" x1="1132.91" y1="41.1922" x2="271.173" y2="1037.04" gradientUnits="userSpaceOnUse">
<stop stop-color="#F5BD00"/>
<stop offset="0.364891" stop-color="#F54B00"/>
<stop offset="1" stop-color="#6E45FF"/>
</linearGradient>
</defs>
</svg>
