<svg width="1080" height="1080" viewBox="0 0 1080 1080" fill="none" xmlns="http://www.w3.org/2000/svg">
<path d="M608.951 368.288H460.166V426.586H608.951V368.288Z" fill="#919191"/>
<path d="M617.283 434.86H451.882V360H617.283V434.86ZM468.498 418.298H600.6V376.562H468.498V418.298Z" fill="#919191"/>
<path d="M526.639 644.535V577.127H669.797L669.83 514.689V502.268H451.848V719.395H722.345V644.535H526.639Z" fill="#FEFEFE"/>
<path d="M310.729 360L210.929 520.882L111.129 360H40V719.394H114.792V508.892L210.896 653.907L307.066 514.489V719.394H381.858V360H310.729Z" fill="#FEFEFE"/>
<path d="M952.491 360L862.082 602.002L771.472 360H682.494L818.424 719.394H906.669L1040 360H952.491Z" fill="#FEFEFE"/>
</svg>
