<svg width="1080" height="1080" viewBox="0 0 1080 1080" fill="none" xmlns="http://www.w3.org/2000/svg">
<path d="M608.95 368.288H460.166V426.586H608.95V368.288Z" fill="#678DBD"/>
<path d="M617.284 434.86H451.882V360H617.284V434.86ZM468.499 418.298H600.6V376.562H468.499V418.298Z" fill="#678DBD"/>
<path d="M526.64 644.535V577.127H669.797L669.83 514.689V502.268H451.848V719.395H722.345V644.535H526.64Z" fill="#162125"/>
<path d="M310.729 360L210.929 520.882L111.129 360H40V719.394H114.792V508.892L210.896 653.907L307.066 514.489V719.394H381.858V360H310.729Z" fill="#162125"/>
<path d="M952.492 360L862.082 602.002L771.473 360H682.495L818.425 719.394H906.67L1040 360H952.492Z" fill="#162125"/>
</svg>
