<svg width="1080" height="1080" viewBox="0 0 1080 1080" fill="none" xmlns="http://www.w3.org/2000/svg">
<path fill-rule="evenodd" clip-rule="evenodd" d="M373.331 687.601V869.949C373.331 879.292 363.209 885.12 355.137 880.424L52.048 704.152C44.5893 699.81 40 691.832 40 683.199V306.243C40 296.9 50.1219 291.072 58.1946 295.768L209.535 383.786V588.097L373.331 687.601Z" fill="white" fill-opacity="0.45"/>
<path fill-rule="evenodd" clip-rule="evenodd" d="M706.667 698.049V869.949C706.667 879.292 716.789 885.12 724.862 880.424L1027.95 704.152C1035.41 699.81 1040 691.832 1040 683.199V306.243C1040 296.9 1029.88 291.072 1021.81 295.768L887.661 373.784V588.097L706.667 698.049Z" fill="white" fill-opacity="0.45"/>
<path d="M209.531 209.134C209.531 199.831 219.575 193.999 227.648 198.614L542.588 378.682C546.31 380.812 550.881 380.812 554.603 378.682L869.539 198.614C877.612 193.999 887.657 199.831 887.657 209.134V588.097L554.877 790.258C551.018 792.602 546.173 792.602 542.31 790.258L209.531 588.097V209.134Z" fill="url(#paint0_linear_6_794)"/>
<defs>
<linearGradient id="paint0_linear_6_794" x1="257.968" y1="656.677" x2="887.918" y2="184.485" gradientUnits="userSpaceOnUse">
<stop offset="0.16" stop-color="white"/>
<stop offset="0.56" stop-color="white" stop-opacity="0.7"/>
<stop offset="1" stop-color="white"/>
</linearGradient>
</defs>
</svg>
