<svg width="1080" height="1080" viewBox="0 0 1080 1080" fill="none" xmlns="http://www.w3.org/2000/svg">
<path fill-rule="evenodd" clip-rule="evenodd" d="M373.334 688.277V864.129C373.334 873.269 363.459 878.996 355.52 874.465L51.9966 701.083C44.5783 696.845 40 688.958 40 680.417V310.12C40 300.983 49.8747 295.254 57.811 299.788L206.666 384.816V587.125L373.334 688.277Z" fill="#3864FF" fill-opacity="0.25"/>
<path fill-rule="evenodd" clip-rule="evenodd" d="M706.667 688.277V864.129C706.667 873.269 716.541 878.996 724.48 874.465L1028 701.083C1035.42 696.845 1040 688.958 1040 680.417V310.12C1040 300.983 1030.13 295.254 1022.19 299.788L873.333 384.816V587.125L706.667 688.277Z" fill="#3864FF" fill-opacity="0.25"/>
<path d="M206.667 214.918C206.667 205.781 216.542 200.052 224.479 204.586L534.095 381.446C537.753 383.537 542.248 383.537 545.909 381.446L855.524 204.586C863.459 200.052 873.333 205.781 873.333 214.918V587.128L546.179 785.685C542.381 787.989 537.619 787.989 533.821 785.685L206.667 587.128V214.918Z" fill="url(#paint0_linear_6_786)"/>
<defs>
<linearGradient id="paint0_linear_6_786" x1="254.286" y1="654.487" x2="873.173" y2="190.154" gradientUnits="userSpaceOnUse">
<stop offset="0.16" stop-color="#3864FF"/>
<stop offset="0.56" stop-color="#6083FF"/>
<stop offset="1" stop-color="#3864FF"/>
</linearGradient>
</defs>
</svg>
