<svg width="1080" height="1080" viewBox="0 0 1080 1080" fill="none" xmlns="http://www.w3.org/2000/svg">
<path d="M158.057 707.663V979.081C158.057 995.789 172.198 1002.72 176.597 1004.3C180.996 1006.19 195.765 1010.29 208.962 997.996L414.29 800.676C431.776 783.874 448.651 766.212 461.333 745.547C467.302 735.832 469.777 730.36 469.777 730.36C482.347 704.826 482.347 680.238 470.087 655.648C451.869 619.082 405.358 581.883 335.282 546.576L215.561 613.408C180.053 633.582 158.057 669.205 158.057 707.663Z" fill="#004EC3"/>
<path d="M40 103.975V388.635C40 424.255 63.8822 455.779 97.8198 465.866C213.458 499.282 414.88 571.155 463.587 676.761C469.866 690.63 473.639 704.186 474.904 718.371C507.268 659.422 522.036 591.645 515.124 522.924C505.692 425.517 454.157 336.935 373.717 280.508L86.8213 79.7017C81.7929 75.9188 75.8227 74.0273 69.8524 74.0273C64.8241 74.0273 60.4249 74.9731 55.7117 77.495C46.2842 82.854 40 92.6265 40 103.975Z" fill="#2470FF"/>
<path d="M921.744 707.663V979.081C921.744 995.789 907.608 1002.72 903.203 1004.3C898.811 1006.19 884.031 1010.29 870.84 997.996L660.732 796.088C646.43 782.34 632.772 767.803 621.999 751.143C613.466 737.958 610.027 730.36 610.027 730.36C597.456 704.826 597.456 680.238 609.705 655.648C627.934 619.082 674.446 581.883 744.511 546.576L864.238 613.408C900.064 633.582 921.744 669.205 921.744 707.663Z" fill="#004EC3"/>
<path d="M1040 103.948V388.607C1040 424.228 1016.11 455.751 982.173 465.84C866.54 499.254 665.119 571.129 616.412 676.733C610.121 690.604 606.349 704.159 605.095 718.345C572.731 659.396 557.963 591.619 564.875 522.898C574.294 425.489 625.831 336.909 706.282 280.48L993.178 79.6742C998.205 75.8914 1004.17 74 1010.14 74C1015.17 74 1019.57 74.9457 1024.28 77.4677C1033.71 82.8267 1040 92.5991 1040 103.948Z" fill="#2470FF"/>
</svg>
