<svg width="1080" height="1080" viewBox="0 0 1080 1080" fill="none" xmlns="http://www.w3.org/2000/svg">
<path d="M669.451 66.3465L570.791 40L487.649 349.24L412.586 70.056L313.923 96.4026L395.024 398.04L193.022 196.725L120.797 268.705L342.368 489.525L66.4362 415.84L40 514.165L341.49 594.675C338.038 579.838 336.212 564.378 336.212 548.493C336.212 436.053 427.672 344.902 540.496 344.902C653.319 344.902 744.78 436.053 744.78 548.493C744.78 564.275 742.976 579.64 739.567 594.39L1013.57 667.558L1040 569.233L737.312 488.403L1013.26 414.713L986.824 316.387L684.149 397.213L886.15 195.898L813.924 123.918L595.427 341.675L669.451 66.3465Z" fill="#FEFEFE"/>
<path d="M739.278 595.535C730.82 631.175 712.962 663.193 688.458 688.846L886.958 886.674L959.183 814.693L739.278 595.535Z" fill="#FEFEFE"/>
<path d="M686.454 690.914C661.655 716.156 630.316 734.994 595.172 744.701L667.402 1013.35L766.062 987.004L686.454 690.914Z" fill="#FEFEFE"/>
<path d="M591.487 745.684C575.181 749.862 558.091 752.082 540.478 752.082C521.609 752.082 503.337 749.532 485.991 744.759L413.695 1013.65L512.355 1040L591.487 745.684Z" fill="#FEFEFE"/>
<path d="M482.502 743.769C447.895 733.579 417.113 714.502 392.82 689.186L193.832 887.499L266.057 959.479L482.502 743.769Z" fill="#FEFEFE"/>
<path d="M391.18 687.432C367.304 661.957 349.913 630.367 341.635 595.277L66.7418 668.685L93.1779 767.01L391.18 687.432Z" fill="#FEFEFE"/>
</svg>
