<svg width="1080" height="1080" viewBox="0 0 1080 1080" fill="none" xmlns="http://www.w3.org/2000/svg">
<path d="M397.215 540.014C397.215 461.139 461.127 397.227 540.002 397.227C618.875 397.227 682.85 461.139 682.85 540.014C682.85 566.041 675.917 590.427 663.694 611.408H742.021C749.925 589.089 754.244 565.068 754.244 540.014C754.244 421.733 658.342 325.772 540.002 325.772C421.661 325.772 325.758 421.733 325.758 540.014C325.758 658.293 421.721 754.256 540.002 754.256H991.898C1002.78 731.391 1011.97 707.552 1019.26 682.862H540.002C461.127 682.862 397.215 618.887 397.215 540.014Z" fill="#FEFEFE"/>
<path d="M254.363 540.012C254.363 382.266 382.25 254.377 539.998 254.377C697.746 254.377 825.696 382.266 825.696 540.012C825.696 564.642 822.594 588.602 816.694 611.406H890.036C894.717 588.358 897.15 564.46 897.15 540.012C897.15 342.798 737.273 182.861 539.998 182.861C342.723 182.861 182.907 342.798 182.907 540.012C182.907 737.227 342.783 897.165 539.998 897.165H889.913C912.232 875.333 932.482 851.373 950.361 825.71H539.998C382.25 825.71 254.363 697.821 254.363 540.012Z" fill="#FEFEFE"/>
<path d="M540 40C263.85 40 40 263.852 40 540C40 816.15 263.85 1040 540 1040C634.198 1040 722.377 1013.91 797.602 968.606H540C303.319 968.606 111.394 776.744 111.394 540C111.394 303.258 303.319 111.394 540 111.394C776.682 111.394 968.607 303.318 968.607 540C968.607 564.325 966.6 588.164 962.646 611.393H1034.89C1035.74 605.435 1036.53 599.475 1037.2 593.454C1037.45 591.023 1037.69 588.589 1037.87 586.096C1038.54 579.346 1039.03 572.535 1039.33 565.725C1039.58 561.466 1039.76 557.21 1039.82 552.891C1039.94 548.635 1040 544.319 1040 540C1040 263.852 816.15 40 540 40Z" fill="#FEFEFE"/>
</svg>
