<svg width="1080" height="1080" viewBox="0 0 1080 1080" fill="none" xmlns="http://www.w3.org/2000/svg">
<path d="M769.458 720.077L933.343 848.708C841.802 965.187 699.639 1040 540 1040C380.36 1040 238.194 965.187 146.651 848.708L310.547 720.077C363.947 788.021 446.877 831.667 540 831.667C633.122 831.667 716.053 788.021 769.458 720.077Z" fill="#010101"/>
<path d="M831.666 540H1040C1040 263.857 816.145 40 540 40C263.857 40 40 263.857 40 540H248.333C248.333 378.916 378.916 248.333 540 248.333C701.083 248.333 831.666 378.916 831.666 540Z" fill="#010101"/>
</svg>
