<svg width="1080" height="1080" viewBox="0 0 1080 1080" fill="none" xmlns="http://www.w3.org/2000/svg">
<path d="M1039.87 526.8C1036.55 400.037 985.067 285.165 902.92 199.403C896.758 193.023 890.515 186.833 883.969 180.743C810.024 111.411 714.684 64.1304 608.697 49.6301C605.272 49.2401 602.252 52.0501 602.545 55.5302L606.353 105.131C606.545 107.351 608.212 109.291 610.353 109.871C683.914 130.952 748.474 184.323 794.973 258.294C798.488 263.804 801.811 269.415 805.135 275.115C805.822 276.275 806.408 277.435 806.994 278.595C810.317 284.495 813.54 290.485 816.57 296.585C847.633 358.466 867.17 431.368 871.18 509.979C871.372 513.169 868.634 515.88 865.321 515.69L830.258 513.469L635.093 500.999L635.184 500.899L742.535 347.166C745.949 342.136 739.898 336.146 734.817 339.526L579.604 445.688L579.412 445.878L560.562 155.322L556.956 100.591L553.733 50.2101C553.541 47.31 551.188 45.09 548.359 45.09C545.531 45 542.793 45 540.056 45V45.09C535.56 45.09 531.166 45.19 526.772 45.28C398.712 48.5701 282.664 99.5211 196.122 180.843C189.576 186.843 183.323 193.123 177.171 199.503C106.217 273.565 58.1629 369.287 44.1922 475.749C43.7982 479.139 46.6368 482.129 50.1522 481.839L207.911 469.749C210.547 469.559 212.598 467.529 212.891 465.009C220.902 403.607 238.388 346.566 263.491 296.665C266.521 290.475 269.744 284.385 273.158 278.395C273.744 277.235 274.431 276.175 275.118 275.005C278.34 269.305 281.664 263.784 285.078 258.274C341.345 168.933 423.785 109.661 516.781 101.151C520.105 100.861 522.943 103.571 522.741 106.951L519.519 155.392L500.669 445.948L500.477 445.758L345.264 339.596C340.193 336.116 334.132 342.206 337.546 347.136L444.897 500.969L444.988 501.069L249.823 513.449L208.598 516.06L45.2731 526.5C42.3436 526.69 40.101 529.01 40.101 531.82C40 534.53 40 537.24 40 540.04C40 544.49 40.101 548.84 40.1919 553.19C43.5154 679.953 94.9938 794.825 177.141 880.587C183.303 886.967 189.546 893.157 196.092 899.247C270.036 968.579 365.366 1015.86 471.354 1030.36C474.778 1030.75 477.799 1027.94 477.506 1024.46L473.697 974.859C473.505 972.639 471.839 970.699 469.687 970.119C396.126 949.038 331.566 895.667 285.068 821.696C281.552 816.186 278.229 810.576 274.906 804.875C274.219 803.715 273.633 802.555 273.047 801.395C269.723 795.495 266.501 789.505 263.47 783.405C232.408 721.524 212.871 648.622 208.86 570.011C208.669 566.821 211.406 564.111 214.719 564.31L249.793 566.531L444.958 579.001L444.867 579.091L337.516 732.834C334.102 737.864 340.163 743.854 345.234 740.474L500.447 634.312L500.639 634.122L519.488 924.678L523.095 979.409L526.317 1029.78C526.509 1032.68 528.863 1034.9 531.691 1034.9C534.52 1035 537.257 1035 539.995 1035V1034.9C544.49 1034.9 548.884 1034.8 553.279 1034.71C681.338 1031.42 797.387 980.469 883.928 899.147C890.474 893.157 896.717 886.867 902.879 880.487C973.793 806.425 1021.86 710.693 1035.82 604.241C1036.21 600.851 1033.37 597.861 1029.86 598.151L872.099 610.241C869.463 610.431 867.402 612.461 867.119 614.982C859.108 676.383 841.622 733.424 816.52 783.325C813.499 789.515 810.267 795.605 806.852 801.605C806.266 802.765 805.579 803.825 804.893 804.985C801.67 810.695 798.347 816.206 794.932 821.716C738.666 911.058 656.225 970.329 563.229 978.839C559.905 979.129 557.077 976.419 557.269 973.039L560.491 924.598L579.341 634.042L579.533 634.232L734.746 740.394C739.827 743.874 745.878 737.784 742.464 732.854L635.113 579.021L635.022 578.921L830.187 566.541L871.402 563.93L1034.73 553.49C1037.66 553.3 1039.9 550.98 1039.9 548.17C1040 545.46 1040 542.76 1040 539.95C1040 535.5 1039.9 531.15 1039.81 526.8H1039.87ZM540.025 575.341C520.297 575.341 504.366 559.58 504.366 540.05C504.366 520.52 520.297 504.659 540.025 504.659C559.754 504.659 575.674 520.42 575.674 539.95C575.674 559.48 559.744 575.341 540.025 575.341Z" fill="white"/>
</svg>
