<svg width="1080" height="1080" viewBox="0 0 1080 1080" fill="none" xmlns="http://www.w3.org/2000/svg">
<path d="M1039.87 526.666C1036.55 398.623 985.067 282.591 902.92 195.963C896.758 189.518 890.515 183.266 883.969 177.114C810.024 107.082 714.684 59.3236 608.697 44.6769C605.272 44.2829 602.252 47.1214 602.545 50.6366L606.353 100.739C606.545 102.981 608.212 104.941 610.353 105.527C683.914 126.82 748.474 180.73 794.973 255.449C798.488 261.015 801.811 266.681 805.135 272.439C805.822 273.611 806.408 274.783 806.994 275.954C810.317 281.914 813.54 287.965 816.57 294.126C847.633 356.633 867.17 430.271 871.18 509.676C871.372 512.898 868.634 515.636 865.321 515.444L830.258 513.202L635.093 500.605L635.184 500.504L742.535 345.218C745.949 340.137 739.898 334.087 734.817 337.501L579.604 444.735L579.412 444.927L560.562 151.437L556.956 96.1526L553.733 45.2627C553.541 42.3334 551.188 40.0909 548.359 40.0909C545.531 40 542.793 40 540.056 40V40.0909C535.56 40.0909 531.166 40.1919 526.772 40.2828C398.712 43.6061 282.664 95.0718 196.122 177.215C189.576 183.276 183.323 189.619 177.171 196.064C106.217 270.873 58.1629 367.562 44.1922 475.1C43.7982 478.524 46.6368 481.544 50.1522 481.251L207.911 469.039C210.547 468.847 212.598 466.797 212.891 464.251C220.902 402.23 238.388 344.612 263.491 294.207C266.521 287.955 269.744 281.803 273.158 275.752C273.744 274.581 274.431 273.51 275.118 272.328C278.34 266.57 281.664 260.994 285.078 255.429C341.345 165.184 423.785 105.314 516.781 96.7183C520.105 96.4254 522.943 99.1628 522.741 102.577L519.519 151.507L500.669 444.998L500.477 444.806L345.264 337.572C340.193 334.056 334.132 340.208 337.546 345.188L444.897 500.575L444.988 500.676L249.823 513.181L208.598 515.818L45.2731 526.363C42.3436 526.555 40.101 528.899 40.101 531.737C40 534.475 40 537.212 40 540.04C40 544.535 40.101 548.93 40.1919 553.324C43.5154 681.367 94.9938 797.399 177.141 884.027C183.303 890.472 189.546 896.724 196.092 902.876C270.036 972.908 365.366 1020.67 471.354 1035.31C474.778 1035.71 477.799 1032.87 477.506 1029.35L473.697 979.251C473.505 977.009 471.839 975.049 469.687 974.463C396.126 953.17 331.566 899.26 285.068 824.541C281.552 818.975 278.229 813.309 274.906 807.551C274.219 806.379 273.633 805.207 273.047 804.036C269.723 798.076 266.501 792.025 263.47 785.864C232.408 723.357 212.871 649.719 208.86 570.314C208.669 567.091 211.406 564.354 214.719 564.556L249.793 566.799L444.958 579.395L444.867 579.486L337.516 734.782C334.102 739.863 340.163 745.913 345.234 742.499L500.447 635.265L500.639 635.073L519.488 928.563L523.095 983.847L526.317 1034.73C526.509 1037.66 528.863 1039.9 531.691 1039.9C534.52 1040 537.257 1040 539.995 1040V1039.9C544.49 1039.9 548.884 1039.8 553.279 1039.71C681.338 1036.38 797.387 984.918 883.928 902.775C890.474 896.724 896.717 890.371 902.879 883.926C973.793 809.117 1021.86 712.418 1035.82 604.89C1036.21 601.466 1033.37 598.446 1029.86 598.739L872.099 610.951C869.463 611.143 867.402 613.193 867.119 615.739C859.108 677.76 841.622 735.378 816.52 785.783C813.499 792.035 810.267 798.187 806.852 804.248C806.266 805.419 805.579 806.49 804.893 807.662C801.67 813.43 798.347 818.996 794.932 824.561C738.666 914.806 656.225 974.675 563.229 983.272C559.905 983.565 557.077 980.827 557.269 977.413L560.491 928.483L579.341 634.992L579.533 635.184L734.746 742.418C739.827 745.933 745.878 739.782 742.464 734.802L635.113 579.415L635.022 579.314L830.187 566.809L871.402 564.172L1034.73 553.627C1037.66 553.435 1039.9 551.091 1039.9 548.253C1040 545.515 1040 542.788 1040 539.95C1040 535.454 1039.9 531.06 1039.81 526.666H1039.87ZM540.025 575.698C520.297 575.698 504.366 559.778 504.366 540.051C504.366 520.323 520.297 504.302 540.025 504.302C559.754 504.302 575.674 520.222 575.674 539.95C575.674 559.677 559.744 575.698 540.025 575.698Z" fill="#003BAF"/>
</svg>
