<svg width="1080" height="1080" viewBox="0 0 1080 1080" fill="none" xmlns="http://www.w3.org/2000/svg">
<path d="M504.539 770.954C511.38 789.184 517.145 808.014 517.63 827.479C519.768 913.359 467.974 994.988 382.999 1026.79C275.778 1066.92 156.33 1012.52 116.205 905.289C76.0802 798.054 130.473 678.594 237.694 638.464C239.624 637.744 241.557 637.049 243.493 636.389L300.801 785.964C298.407 786.459 296.019 787.139 293.657 788.024C269.026 797.244 256.53 824.684 265.748 849.319C274.966 873.954 302.405 886.449 327.036 877.234C351.668 868.014 364.163 840.569 354.945 815.939C354.702 815.284 354.446 814.644 354.177 814.009L258.943 565.344L258.384 565.619L250.278 543.314C178.617 350.477 276.532 135.916 469.288 63.7748C662.311 -8.46728 877.346 89.4631 949.578 282.509L953.318 292.503C1023 478.742 933.95 686.864 751.126 765.029C691.053 790.709 626.245 803.084 561.132 801.419L497.773 636.759L548.932 640.914C596.564 644.779 644.418 636.979 688.363 618.194C792.721 573.579 843.555 454.779 803.775 348.472L800.035 338.477C758.71 228.032 635.684 172.003 525.25 213.335C414.817 254.666 358.795 377.706 400.122 488.152L419.426 541.269L419.3 541.199L422.73 550.364L452.801 633.114L504.539 770.954Z" fill="#254839"/>
</svg>
