<svg width="1080" height="1080" viewBox="0 0 1080 1080" fill="none" xmlns="http://www.w3.org/2000/svg">
<path d="M360.062 1040C481.598 1040 580.123 941.475 580.123 819.939C580.123 698.402 481.598 599.877 360.062 599.877C238.525 599.877 140 698.402 140 819.939C140 941.475 238.525 1040 360.062 1040Z" fill="white"/>
<mask id="mask0_9_80" style="mask-type:alpha" maskUnits="userSpaceOnUse" x="335" y="62" width="50" height="591">
<path fill-rule="evenodd" clip-rule="evenodd" d="M335.859 652.448V62.6816H384.917V652.448H335.859Z" fill="white"/>
</mask>
<g mask="url(#mask0_9_80)">
<path d="M940.038 440.013C940.038 660.935 760.948 840.026 540.025 840.026C319.104 840.026 140.012 660.935 140.012 440.013C140.012 219.092 319.104 40 540.025 40C760.948 40 940.038 219.092 940.038 440.013Z" fill="white"/>
</g>
<path d="M540.013 840.026C760.934 840.026 940.026 660.934 940.026 440.013C940.026 219.092 760.934 40 540.013 40C319.092 40 140 219.092 140 440.013C140 660.934 319.092 840.026 540.013 840.026Z" fill="white" fill-opacity="0.5"/>
</svg>
