<svg width="1080" height="1080" viewBox="0 0 1080 1080" fill="none" xmlns="http://www.w3.org/2000/svg">
<path d="M540.025 840.026C760.946 840.026 940.038 660.934 940.038 440.013C940.038 219.092 760.946 40 540.025 40C319.104 40 140.012 219.092 140.012 440.013C140.012 660.934 319.104 840.026 540.025 840.026Z" fill="#DEDEDE"/>
<path d="M360.062 1040C481.598 1040 580.123 941.475 580.123 819.939C580.123 698.402 481.598 599.877 360.062 599.877C238.525 599.877 140 698.402 140 819.939C140 941.475 238.525 1040 360.062 1040Z" fill="#1E4480"/>
<path d="M384.918 601.296C494.743 613.646 580.121 706.804 580.126 819.929C580.126 826.05 579.779 832.106 579.288 838.103C566.367 839.362 553.267 840.03 540.014 840.03C401.143 840.03 278.813 769.249 207.091 661.811C241.242 628.779 286.042 606.676 335.858 601.227V95.96C351.553 86.6293 367.934 78.3385 384.918 71.1875V601.296Z" fill="#152E51"/>
</svg>
