<svg width="1080" height="1080" viewBox="0 0 1080 1080" fill="none" xmlns="http://www.w3.org/2000/svg">
<path d="M679.91 610.573H1033.19V469.653H679.91C734.335 415.004 788.439 360.025 842.544 305.048C864.963 282.26 887.389 259.474 909.838 236.711L811.534 136.911C790.477 158.244 769.391 179.552 748.306 200.86C692.65 257.105 636.992 313.352 581.802 370.061V40H439.771V440.304H636.654V639.7H439.771V1040H581.802V710.697L811.759 943.095L910.055 843.294C889.32 822.29 868.607 801.262 847.894 780.235C792.041 723.537 736.186 666.839 679.91 610.573Z" fill="#B59062"/>
<path d="M46 440.304H242.884V639.7H46V440.304Z" fill="#B59062"/>
</svg>
