<svg width="1080" height="1080" viewBox="0 0 1080 1080" fill="none" xmlns="http://www.w3.org/2000/svg">
<path fill-rule="evenodd" clip-rule="evenodd" d="M543.919 218.506C373.03 218.506 234.506 361.256 234.506 537.359C234.506 560.628 236.947 583.311 241.539 605.161L139.756 527.48C105.696 501.49 82.5386 460.718 82.5386 413.716C82.5386 397.867 85.1169 382.637 89.8529 368.44C90.0813 367.796 90.2856 367.14 90.52 366.497L90.5982 366.273C158.285 175.875 335.7 40 543.919 40C752.134 40 929.552 175.875 997.237 366.273L997.317 366.497C997.544 367.14 997.755 367.803 997.982 368.44C1002.71 382.637 1005.29 397.867 1005.29 413.716C1005.29 460.718 982.134 501.49 948.08 527.48L846.292 605.161C850.888 583.311 853.331 560.628 853.331 537.359C853.331 361.256 714.8 218.506 543.919 218.506Z" fill="url(#paint0_linear_8_1339)"/>
<path fill-rule="evenodd" clip-rule="evenodd" d="M540.119 1040C275.5 1040 61 810.948 61 528.392C61 510.306 61.8891 492.441 63.6074 474.838C74.8542 501.388 91.9958 524.481 113.248 542.212C113.517 542.429 113.779 542.647 114.042 542.868C115.861 544.359 117.699 545.819 119.573 547.247L485.066 836.873C485.226 836.998 485.37 837.107 485.521 837.229C500.781 849.258 519.629 856.374 540.042 856.394H540.189C560.603 856.381 579.461 849.258 594.717 837.229C594.867 837.107 595.018 836.998 595.172 836.873L960.67 547.247C962.54 545.819 964.381 544.366 966.196 542.868C966.464 542.653 966.727 542.436 966.99 542.212C988.248 524.481 1005.39 501.388 1016.64 474.838C1018.35 492.447 1019.24 510.306 1019.24 528.392C1019.23 810.948 804.725 1040 540.119 1040Z" fill="url(#paint1_linear_8_1339)"/>
<defs>
<linearGradient id="paint0_linear_8_1339" x1="543.912" y1="530.838" x2="543.912" y2="36.7075" gradientUnits="userSpaceOnUse">
<stop stop-color="#FCFCFC"/>
<stop offset="1" stop-color="#F2F2F2"/>
</linearGradient>
<linearGradient id="paint1_linear_8_1339" x1="540.116" y1="1040" x2="540.116" y2="540.07" gradientUnits="userSpaceOnUse">
<stop stop-color="#FEFEFE"/>
<stop offset="1" stop-color="#F2F2F2"/>
</linearGradient>
</defs>
</svg>
