<svg width="1080" height="1080" viewBox="0 0 1080 1080" fill="none" xmlns="http://www.w3.org/2000/svg">
<path opacity="0.3" d="M145.403 515.867L482.387 980.225C510.863 1019.69 569.713 1019.52 597.939 979.863L930.377 493.802C948.177 468.765 947.889 435.131 929.658 410.38L755.114 163.588C734.089 135.077 695.258 126.408 664.097 143.279L169.223 411.777C131.506 432.194 120.33 481.087 145.403 515.867Z" fill="white"/>
<path d="M1037.83 692.056L901 202.913C897.638 190.914 888.969 181.099 877.431 176.336L555.708 43.0894C545.75 38.9702 534.574 38.9702 524.617 43.0894L202.892 176.336C191.358 181.099 182.69 190.914 179.323 202.913L42.495 692.056C39.2713 703.625 41.313 716.056 48.1186 725.975L176.887 913.738C181.938 921.081 189.209 926.562 197.663 929.356L527.447 1037.96C535.685 1040.68 544.604 1040.68 552.842 1037.96L882.625 929.356C891.081 926.562 898.387 921.081 903.4 913.738L1032.17 725.975C1038.98 716.056 1041.02 703.663 1037.79 692.056H1037.83ZM930.338 493.762L597.903 979.825C569.677 1019.47 510.827 1019.66 482.351 980.181L145.367 515.827C120.294 481.047 131.469 432.154 169.186 411.737L664.059 143.239C695.225 126.368 734.05 135.036 755.075 163.548L929.619 410.34C947.85 435.055 948.138 468.725 930.338 493.762Z" fill="white"/>
</svg>
