<svg width="1080" height="1080" viewBox="0 0 1080 1080" fill="none" xmlns="http://www.w3.org/2000/svg">
<path d="M968.238 539.708H863.049C831.633 539.708 806.179 565.949 806.179 598.33V755.706C806.179 788.087 780.721 814.327 749.308 814.327H330.837C299.42 814.327 273.963 840.568 273.963 872.952V981.378C273.963 1013.76 299.42 1040 330.837 1040H773.528C804.945 1040 830.037 1013.76 830.037 981.378V894.385C830.037 862.004 855.494 839.032 886.91 839.032H968.217C999.63 839.032 1025.09 812.791 1025.09 780.407V597.65C1025.09 565.269 999.651 539.708 968.238 539.708Z" fill="white"/>
<path d="M273.929 324.297C273.929 291.912 299.387 265.672 330.803 265.672H749.017C780.434 265.672 805.888 239.432 805.888 207.051V98.6229C805.888 66.2398 780.434 40 749.017 40H306.558C275.145 40 249.687 66.2398 249.687 98.6229V182.171C249.687 214.552 224.233 240.792 192.816 240.792H111.871C80.4558 240.792 55 267.033 55 299.417V482.371C55 514.755 80.5623 539.677 111.978 539.677H217.164C248.581 539.677 274.038 513.44 274.038 481.056L273.929 324.297Z" fill="white"/>
<path d="M490.559 425.725H591.596C624.525 425.725 651.237 453.28 651.237 487.2V591.349C651.237 625.287 624.504 652.821 591.596 652.821H490.559C457.634 652.821 430.922 625.265 430.922 591.349V487.2C430.922 453.259 457.655 425.725 490.559 425.725Z" fill="white"/>
</svg>
