<svg width="1080" height="1080" viewBox="0 0 1080 1080" fill="none" xmlns="http://www.w3.org/2000/svg">
<mask id="mask0_6_906" style="mask-type:luminance" maskUnits="userSpaceOnUse" x="40" y="40" width="1000" height="1000">
<path d="M1040 40H40V1040H1040V40Z" fill="white"/>
</mask>
<g mask="url(#mask0_6_906)">
<mask id="mask1_6_906" style="mask-type:luminance" maskUnits="userSpaceOnUse" x="40" y="40" width="1000" height="1000">
<path d="M1040 40H40V1040H1040V40Z" fill="white"/>
</mask>
<g mask="url(#mask1_6_906)">
<path d="M980.046 737.182C898.1 791.482 740.234 828.916 557.406 831.156C547.866 831.256 540.094 822.942 540.094 812.688V745.248C540.094 735.142 532.5 726.882 523.1 726.782H522.686C521.294 726.782 519.86 726.782 518.474 726.728C512.734 726.628 507.034 726.528 501.34 726.382C501.02 726.382 500.646 726.382 500.326 726.382C494.906 726.228 489.494 726.036 484.12 725.836C482.78 725.782 481.434 725.736 480.094 725.682C474.494 725.436 468.886 725.188 463.334 724.888C462.826 724.888 462.314 724.836 461.806 724.788C456.62 724.488 451.48 724.188 446.388 723.842C445.138 723.742 443.888 723.696 442.638 723.596C437.13 723.196 431.666 722.796 426.25 722.348C425.602 722.302 424.954 722.248 424.352 722.202C419.398 721.802 414.49 721.356 409.582 720.856C408.426 720.756 407.268 720.656 406.156 720.508C400.786 719.962 395.462 719.416 390.184 718.816C389.49 718.716 388.796 718.668 388.102 718.568C383.286 718.022 378.518 717.422 373.75 716.822C372.778 716.676 371.758 716.576 370.786 716.476C365.554 715.782 360.324 715.082 355.184 714.336C354.49 714.236 353.796 714.136 353.102 714.036C348.38 713.342 343.75 712.642 339.074 711.896C338.24 711.748 337.454 711.648 336.62 711.502C331.48 710.702 326.434 709.856 321.388 708.962C320.74 708.862 320.092 708.708 319.444 708.616C314.768 707.768 310.184 706.922 305.602 706.076C305 705.976 304.398 705.822 303.796 705.722C298.796 704.782 293.888 703.782 288.98 702.742C288.38 702.642 287.824 702.488 287.222 702.388C282.592 701.396 278.008 700.402 273.472 699.402C273.102 699.302 272.73 699.256 272.406 699.156C267.546 698.062 262.778 696.916 258.008 695.768C257.5 695.668 257.036 695.522 256.528 695.422C251.898 694.276 247.314 693.136 242.824 691.936C242.684 691.936 242.592 691.888 242.454 691.836C237.777 690.596 233.194 689.302 228.61 688.008C228.194 687.908 227.777 687.756 227.314 687.656C218.24 685.022 209.397 682.328 200.879 679.496C200.554 679.396 200.23 679.296 199.906 679.148C191.296 676.262 182.962 673.322 174.953 670.236C174.721 670.136 174.49 670.036 174.258 669.988C166.203 666.902 158.425 663.668 150.971 660.382C150.786 660.328 150.647 660.236 150.462 660.182C142.962 656.848 135.832 653.416 128.98 649.882C128.888 649.828 128.796 649.782 128.657 649.728C121.805 646.196 115.323 642.562 109.166 638.828C109.12 638.828 109.027 638.782 108.98 638.728C102.823 634.996 97.0365 631.162 91.6199 627.236C91.6199 627.236 91.6199 627.236 91.5271 627.182C86.1105 623.248 81.0639 619.222 76.4345 615.136C65.6011 606.376 57.9158 595.376 52.3605 584.828C49.0271 578.456 40.0458 580.842 40.0458 588.162V652.416C40.0458 749.328 254.676 828.268 522.826 831.502C532.266 831.602 539.906 839.816 539.906 849.968V917.508C539.906 927.668 532.22 935.828 522.78 935.728H522.594C521.2 935.728 519.766 935.728 518.38 935.682C512.64 935.582 506.946 935.482 501.246 935.328C500.926 935.328 500.554 935.328 500.234 935.328C494.814 935.182 489.4 934.982 484.026 934.782C482.686 934.736 481.34 934.682 480 934.636C474.4 934.382 468.794 934.136 463.24 933.836C462.734 933.836 462.22 933.788 461.714 933.736C456.528 933.442 451.388 933.142 446.296 932.796C445.046 932.696 443.796 932.642 442.546 932.542C437.036 932.142 431.574 931.748 426.156 931.302C425.508 931.248 424.86 931.202 424.258 931.148C419.306 930.748 414.398 930.302 409.49 929.808C408.332 929.708 407.176 929.608 406.064 929.456C400.694 928.908 395.37 928.362 390.092 927.762C389.398 927.668 388.704 927.616 388.008 927.516C383.194 926.968 378.426 926.368 373.656 925.776C372.684 925.622 371.666 925.522 370.694 925.428C365.462 924.728 360.23 924.036 355.092 923.288C354.398 923.188 353.704 923.088 353.008 922.988C348.286 922.288 343.656 921.596 338.98 920.848C338.148 920.696 337.36 920.596 336.528 920.448C331.388 919.648 326.342 918.808 321.296 917.908C320.648 917.808 320 917.662 319.352 917.562C314.676 916.716 310.092 915.868 305.508 915.022C304.906 914.922 304.304 914.776 303.704 914.676C298.704 913.728 293.796 912.736 288.888 911.688C288.286 911.588 287.73 911.442 287.13 911.342C282.5 910.342 277.916 909.348 273.38 908.356C273.008 908.256 272.638 908.202 272.314 908.102C267.454 907.008 262.684 905.862 257.916 904.722C257.406 904.622 256.944 904.468 256.434 904.368C251.804 903.228 247.222 902.082 242.73 900.888C242.592 900.888 242.5 900.836 242.36 900.788C237.684 899.542 233.101 898.248 228.518 896.956C228.101 896.856 227.684 896.708 227.221 896.608C218.147 893.968 209.304 891.282 200.786 888.442C200.462 888.342 200.138 888.242 199.814 888.096C191.203 885.208 182.87 882.276 174.86 879.188C174.629 879.088 174.397 878.988 174.166 878.936C166.11 875.848 158.332 872.616 150.879 869.328C150.694 869.282 150.554 869.182 150.37 869.128C142.87 865.796 135.74 862.362 128.888 858.828C128.796 858.782 128.703 858.728 128.564 858.682C121.713 855.148 115.23 851.508 109.073 847.782C109.027 847.782 108.935 847.728 108.888 847.682C102.73 843.948 96.9439 840.116 91.5271 836.182C91.5271 836.182 91.5271 836.182 91.4345 836.128C86.0179 832.202 80.9711 828.168 76.3419 824.088C65.5085 815.328 57.8231 804.328 52.2678 793.776C48.9345 787.402 39.9531 789.796 39.9531 797.108V861.368C39.9531 958.228 254.49 1037.17 522.546 1040.46C532.08 1040.55 539.954 1032.34 539.954 1022.09V954.596C539.954 944.488 547.5 936.228 556.9 936.128C839.4 932.842 1012.08 848.028 1012.08 786.908C1012.08 771.428 1001.02 754.456 979.906 737.628L980.046 737.182Z" fill="white"/>
<path d="M99.9573 342.968C181.948 288.666 339.864 251.236 522.782 248.996C532.27 248.896 540.002 257.208 540.002 267.362V335.004C540.002 345.108 547.596 353.37 556.996 353.47H557.41C558.802 353.47 560.236 353.47 561.622 353.52C567.362 353.62 573.056 353.72 578.756 353.868C579.076 353.868 579.45 353.868 579.77 353.868C585.19 354.018 590.602 354.218 595.976 354.416C597.316 354.466 598.662 354.516 600.002 354.566C605.602 354.814 611.21 355.064 616.762 355.362C617.27 355.362 617.782 355.412 618.29 355.462C623.476 355.76 628.616 356.058 633.71 356.408C634.956 356.506 636.21 356.556 637.456 356.656C642.97 357.054 648.43 357.452 653.85 357.9C654.496 357.95 655.142 358 655.742 358.05C660.696 358.448 665.602 358.896 670.516 359.394C671.67 359.494 672.83 359.592 673.936 359.742C679.31 360.29 684.636 360.836 689.91 361.434C690.602 361.534 691.302 361.584 691.996 361.684C696.81 362.23 701.576 362.828 706.35 363.426C707.316 363.574 708.336 363.674 709.31 363.774C714.542 364.47 719.77 365.168 724.91 365.914C725.602 366.014 726.302 366.112 726.996 366.212C731.716 366.91 736.35 367.606 741.022 368.352C741.856 368.502 742.642 368.602 743.476 368.75C748.616 369.548 753.662 370.394 758.71 371.29C759.356 371.388 760.002 371.538 760.65 371.638C765.33 372.484 769.91 373.33 774.496 374.176C775.096 374.276 775.696 374.426 776.302 374.524C781.302 375.47 786.21 376.466 791.116 377.512C791.716 377.61 792.27 377.76 792.876 377.86C797.502 378.854 802.09 379.85 806.622 380.846C806.996 380.946 807.362 380.996 807.69 381.094C812.55 382.19 817.316 383.334 822.09 384.48C822.596 384.578 823.056 384.728 823.57 384.828C828.196 385.972 832.782 387.118 837.27 388.312C837.41 388.312 837.502 388.362 837.642 388.412C842.316 389.656 846.902 390.95 851.482 392.244C851.902 392.344 852.316 392.492 852.782 392.592C861.856 395.23 870.696 397.918 879.216 400.756C879.542 400.854 879.862 400.954 880.19 401.104C888.802 403.99 897.136 406.928 905.142 410.014C905.376 410.112 905.602 410.212 905.836 410.262C913.89 413.348 921.67 416.584 929.122 419.868C929.31 419.918 929.45 420.018 929.636 420.068C937.136 423.402 944.262 426.836 951.116 430.37C951.21 430.42 951.302 430.47 951.436 430.52C958.29 434.054 964.816 437.688 970.93 441.42C970.976 441.42 971.022 441.47 971.116 441.52C977.27 445.252 983.056 449.086 988.476 453.018C988.476 453.018 988.522 453.018 988.57 453.068C993.982 457 999.03 461.028 1003.66 465.114C1014.54 473.922 1022.27 484.974 1027.78 495.574C1031.07 501.894 1040.05 499.354 1040.05 492.142V427.832C1040.05 330.924 825.33 251.982 557.09 248.746C547.69 248.648 540.096 240.484 540.096 230.381V162.639C540.096 152.435 547.83 144.223 557.316 144.372H557.502C558.89 144.372 560.33 144.372 561.716 144.421C567.456 144.521 573.15 144.621 578.85 144.77C579.17 144.77 579.542 144.77 579.862 144.77C585.282 144.919 590.696 145.119 596.07 145.317C597.41 145.367 598.756 145.417 600.096 145.467C605.696 145.716 611.302 145.965 616.856 146.263C617.362 146.263 617.876 146.313 618.382 146.363C623.57 146.661 628.71 146.96 633.802 147.309C635.05 147.408 636.302 147.458 637.55 147.557C643.056 147.955 648.522 148.354 653.936 148.802C654.59 148.851 655.236 148.901 655.836 148.951C660.79 149.349 665.696 149.797 670.602 150.295C671.762 150.395 672.922 150.494 674.03 150.643C679.402 151.191 684.722 151.738 690.002 152.335C690.696 152.435 691.39 152.485 692.09 152.585C696.902 153.132 701.67 153.729 706.436 154.327C707.41 154.476 708.43 154.575 709.402 154.675C714.636 155.372 719.862 156.069 725.002 156.815C725.696 156.915 726.39 157.014 727.09 157.114C731.81 157.811 736.436 158.507 741.116 159.254C741.95 159.403 742.736 159.503 743.57 159.652C748.71 160.449 753.756 161.295 758.802 162.191C759.45 162.29 760.096 162.439 760.742 162.539C765.422 163.385 770.002 164.231 774.59 165.077C775.19 165.177 775.79 165.327 776.39 165.426C781.39 166.372 786.302 167.367 791.21 168.413C791.81 168.512 792.362 168.661 792.97 168.761C797.596 169.757 802.182 170.752 806.716 171.747C807.09 171.847 807.456 171.897 807.782 171.996C812.642 173.091 817.41 174.236 822.182 175.381C822.69 175.48 823.15 175.629 823.662 175.729C828.29 176.874 832.876 178.019 837.362 179.213C837.502 179.213 837.596 179.263 837.736 179.313C842.41 180.557 846.996 181.851 851.576 183.145C851.996 183.245 852.41 183.394 852.876 183.494C861.95 186.132 870.79 188.819 879.31 191.657C879.636 191.756 879.956 191.856 880.282 192.005C888.89 194.892 897.222 197.829 905.236 200.915C905.47 201.014 905.696 201.114 905.93 201.163C913.982 204.249 921.762 207.485 929.216 210.77C929.402 210.819 929.542 210.919 929.722 210.969C937.222 214.303 944.356 217.738 951.21 221.272C951.302 221.322 951.39 221.371 951.53 221.421C958.382 224.955 964.91 228.589 971.022 232.322C971.07 232.322 971.116 232.371 971.21 232.421C977.362 236.154 983.15 239.987 988.57 243.918C988.57 243.918 988.616 243.918 988.662 243.968C994.076 247.9 999.122 251.932 1003.76 256.014C1014.64 264.824 1022.36 275.874 1027.88 286.476C1031.16 292.796 1040.14 290.258 1040.14 282.992V218.684C1040.14 121.825 825.602 42.8832 557.55 39.5985C548.016 39.4992 540.142 47.7119 540.142 57.9652V125.657C540.142 135.711 532.642 143.924 523.29 144.023C240.56 147.757 67.7812 232.571 67.7812 293.692C67.7812 309.172 78.8461 326.144 99.9573 342.968Z" fill="white"/>
<path d="M546.994 472.682H538.66C533.286 472.682 527.914 472.682 522.594 472.582C521.2 472.582 519.766 472.582 518.38 472.534C512.64 472.434 506.946 472.336 501.246 472.188C500.926 472.188 500.554 472.188 500.234 472.188C494.814 472.036 489.4 471.836 484.026 471.636C482.686 471.588 481.34 471.542 480 471.488C474.4 471.242 468.794 470.988 463.24 470.694C462.734 470.694 462.22 470.642 461.76 470.594C456.574 470.294 451.434 469.994 446.342 469.648C445.092 469.548 443.842 469.496 442.592 469.402C437.082 469.002 431.62 468.602 426.204 468.154C425.554 468.102 424.906 468.054 424.306 468.002C419.352 467.608 414.444 467.162 409.536 466.662C408.38 466.562 407.222 466.462 406.11 466.314C400.74 465.762 395.416 465.214 390.138 464.622C389.444 464.522 388.75 464.468 388.056 464.368C383.24 463.822 378.472 463.228 373.704 462.628C372.73 462.482 371.712 462.382 370.74 462.282C365.508 461.582 360.278 460.888 355.138 460.142C354.444 460.042 353.75 459.942 353.008 459.842C348.286 459.144 343.656 458.448 338.98 457.702C338.148 457.552 337.36 457.452 336.528 457.304C331.388 456.506 326.342 455.66 321.296 454.764C320.648 454.666 320 454.516 319.352 454.416C314.676 453.57 310.092 452.724 305.508 451.878C304.906 451.778 304.304 451.628 303.704 451.53C298.704 450.584 293.796 449.588 288.888 448.542C288.286 448.444 287.73 448.294 287.13 448.194C282.5 447.2 277.916 446.204 273.38 445.208C273.008 445.108 272.638 445.058 272.314 444.96C267.454 443.864 262.684 442.72 257.916 441.574C257.406 441.476 256.944 441.326 256.434 441.226C251.804 440.082 247.268 438.936 242.73 437.742C242.592 437.742 242.5 437.692 242.36 437.642C237.684 436.398 233.054 435.104 228.518 433.81C228.101 433.71 227.684 433.562 227.221 433.462C218.147 430.824 209.304 428.136 200.786 425.298C200.462 425.2 200.138 425.1 199.814 424.95C191.203 422.064 182.87 419.126 174.86 416.04C174.629 415.942 174.397 415.842 174.166 415.792C166.11 412.706 158.332 409.47 150.879 406.186C150.694 406.136 150.554 406.036 150.37 405.986C142.87 402.652 135.74 399.218 128.888 395.684C128.796 395.634 128.703 395.584 128.564 395.534C121.713 392 115.184 388.366 109.073 384.634C109.027 384.634 108.98 384.584 108.888 384.534C102.73 380.802 96.9439 376.968 91.5271 373.036C91.5271 373.036 91.4805 373.036 91.4345 372.986C86.0179 369.054 80.9711 365.022 76.3419 360.942C65.4625 352.132 57.7305 341.032 52.2211 330.48C48.9345 324.158 39.9531 326.698 39.9531 333.914V428.086C39.9531 527.034 263.796 607.268 539.954 607.268V607.222C545.786 607.268 551.574 607.322 557.36 607.422C558.746 607.422 560.186 607.422 561.574 607.468C567.314 607.568 573.006 607.668 578.7 607.822C579.026 607.822 579.4 607.822 579.72 607.822C585.14 607.968 590.554 608.168 595.926 608.368C597.266 608.414 598.614 608.468 599.954 608.514C605.554 608.762 611.16 609.016 616.714 609.316C617.22 609.316 617.734 609.362 618.24 609.408C623.426 609.708 628.566 610.008 633.66 610.354C634.906 610.454 636.16 610.508 637.406 610.608C642.914 611.002 648.38 611.402 653.794 611.848C654.446 611.902 655.094 611.948 655.694 612.002C660.646 612.396 665.554 612.848 670.46 613.342C671.62 613.442 672.734 613.542 673.886 613.694C679.26 614.242 684.58 614.788 689.86 615.382C690.554 615.482 691.246 615.534 691.946 615.634C696.76 616.182 701.526 616.776 706.294 617.376C707.266 617.522 708.286 617.622 709.26 617.722C714.494 618.422 719.72 619.114 724.86 619.862C725.554 619.962 726.246 620.062 726.946 620.162C731.666 620.862 736.34 621.554 740.974 622.302C741.806 622.454 742.594 622.548 743.426 622.702C748.566 623.494 753.614 624.342 758.66 625.242C759.306 625.342 759.954 625.488 760.6 625.588C765.28 626.434 769.86 627.282 774.446 628.128C775.046 628.228 775.646 628.376 776.246 628.476C781.246 629.422 786.16 630.416 791.066 631.462C791.666 631.562 792.22 631.708 792.826 631.808C797.454 632.802 802.034 633.802 806.574 634.796C806.946 634.896 807.314 634.948 807.64 635.042C812.5 636.142 817.266 637.282 822.034 638.428C822.546 638.528 823.006 638.676 823.52 638.776C828.146 639.922 832.734 641.068 837.22 642.262C837.36 642.262 837.454 642.308 837.594 642.362C842.266 643.608 846.854 644.902 851.434 646.194C851.854 646.294 852.314 646.442 852.734 646.542C861.806 649.182 870.646 651.868 879.166 654.708C879.494 654.802 879.814 654.902 880.14 655.054C888.746 657.942 897.08 660.874 905.094 663.962C905.326 664.062 905.554 664.162 905.786 664.216C913.84 667.296 921.62 670.536 929.074 673.816C929.26 673.868 929.4 673.968 929.58 674.016C937.08 677.356 944.214 680.788 951.066 684.322C951.16 684.368 951.246 684.422 951.386 684.468C958.24 688.002 964.72 691.634 970.88 695.368C970.926 695.368 971.02 695.422 971.066 695.468C977.22 699.202 983.006 703.034 988.426 706.968C988.426 706.968 988.426 706.968 988.52 707.016C993.934 710.948 998.98 714.982 1003.61 719.062C1014.49 727.874 1022.22 738.922 1027.73 749.522C1031.02 755.848 1040 753.308 1040 746.088V651.916C1040 553.816 819.906 474.128 546.946 472.782L546.994 472.682Z" fill="white"/>
</g>
</g>
</svg>
