<svg width="1080" height="1080" viewBox="0 0 1080 1080" fill="none" xmlns="http://www.w3.org/2000/svg">
<path d="M754.621 523.179C742.868 466.696 705.888 427.086 689.108 411.051C688.247 408.537 687.409 406.001 686.571 403.464L773.1 341.093C773.1 316.633 768.05 293.034 759.648 270.273L606.769 380.703L614.332 401.788C620.22 419.499 626.085 438.047 626.085 438.047L629.46 447.31L637.023 453.221C639.537 454.897 696.649 501.256 689.946 570.4L654.664 595.698C597.529 637.007 587.452 663.142 574.024 705.289C570.649 715.413 567.298 727.212 562.248 740.711C542.094 792.12 517.727 808.155 479.932 826.704L451.376 841.017L542.931 1040H622.734V975.929H587.452L537.881 868.013C573.163 847.766 603.417 819.955 625.247 761.773C631.135 745.761 635.325 733.124 638.699 722.162C647.101 694.328 651.29 680.853 677.332 659.768L680.707 723L649.614 745.761L689.946 797.194L750.409 755.024L747.895 702.753L776.451 739.012L836.937 696.865L829.374 567.025L754.621 523.179ZM747.057 679.992L743.706 612.547L764.698 597.373L768.911 665.656L747.057 679.992Z" fill="#FEFEFE"/>
<path d="M883.131 138.747L841.147 88.1755C841.147 88.1755 817.618 105.025 780.66 132.859C696.645 51.9164 569.808 19.893 453.049 52.7543L473.203 113.473C563.083 88.1755 660.526 110.936 726.9 171.632C686.568 201.142 638.696 235.702 589.125 271.961C587.449 271.123 585.774 270.286 584.098 268.587C574.021 262.699 558.893 252.575 547.141 243.289C520.237 221.389 489.168 209.567 459.774 210.428C421.956 211.266 386.674 228.976 364.844 256.787C353.092 271.961 346.366 287.973 340.478 302.309C338.802 307.382 336.289 311.595 334.613 316.645C327.887 330.981 320.324 340.244 312.76 343.618L337.964 402.638C363.169 393.376 383.323 373.128 397.613 341.943C400.126 336.031 402.64 330.981 404.315 325.07C409.365 313.271 413.555 302.309 420.28 293.884C429.52 282.085 445.485 273.66 461.45 273.66H462.288C479.091 273.66 495.056 284.622 502.596 290.51C512.697 298.097 522.774 305.684 532.851 311.595C471.527 356.279 408.528 401.8 354.767 441.411L353.93 442.272L356.443 449.021L378.296 500.431L494.218 528.265L495.056 544.277L379.134 628.594C370.733 634.482 363.169 642.069 357.281 649.656C340.478 647.981 322.837 651.355 307.733 658.104C281.691 669.904 263.212 692.664 256.486 718.8L251.436 739.862C248.922 751.684 237.17 760.109 224.556 760.109H196V824.179H224.556C269.077 824.179 308.571 794.669 317.81 754.198L322.837 733.136C324.513 726.387 328.725 720.476 335.451 717.101C337.127 753.36 358.119 785.407 390.887 803.955C390.049 806.469 389.211 808.168 387.535 809.843C382.485 814.917 373.246 818.268 362.331 819.129L324.513 819.967L356.443 1038.31H443.809V974.243H416.091L401.802 876.45C416.929 871.4 429.52 862.952 439.597 851.99C455.562 834.303 463.126 810.681 459.774 786.244C458.075 771.908 447.998 760.109 434.57 753.36L429.52 750.823C413.555 743.236 403.477 728.9 403.477 712.051C403.477 711.213 403.477 709.514 403.477 708.676C404.315 697.715 411.041 686.753 421.956 679.166L565.619 574.625L560.569 478.508L451.373 452.372C556.38 377.341 679.842 287.135 768.047 223.065C775.61 234.864 781.498 246.664 785.687 259.324V260.162C812.567 327.607 805.865 404.337 765.533 467.569L823.506 500.431C887.343 402.638 885.667 278.71 821.807 183.431C859.625 155.62 883.131 138.747 883.131 138.747Z" fill="#FEFEFE"/>
</svg>
