<svg width="1080" height="1080" viewBox="0 0 1080 1080" fill="none" xmlns="http://www.w3.org/2000/svg">
<path fill-rule="evenodd" clip-rule="evenodd" d="M540 1040C816.144 1040 1040 816.144 1040 540C1040 263.857 816.144 40 540 40C263.857 40 40 263.857 40 540C40 816.144 263.857 1040 540 1040ZM193.752 237.454C182.853 258.845 182.853 286.848 182.853 342.853V737.137C182.853 793.144 182.853 821.144 193.752 842.538C203.339 861.356 218.638 876.65 237.454 886.237C258.845 897.137 286.848 897.138 342.853 897.138H737.137C793.144 897.138 821.144 897.137 842.538 886.237C861.356 876.65 876.65 861.356 886.237 842.538C897.137 821.144 897.138 793.144 897.138 737.137V342.853C897.138 286.848 897.137 258.845 886.237 237.454C876.65 218.638 861.356 203.339 842.538 193.752C821.144 182.853 793.144 182.853 737.137 182.853H342.853C286.848 182.853 258.845 182.853 237.454 193.752C218.638 203.339 203.339 218.638 193.752 237.454Z" fill="#FEFEFE"/>
</svg>
