<svg width="1080" height="1080" viewBox="0 0 1080 1080" fill="none" xmlns="http://www.w3.org/2000/svg">
<path d="M772.442 97.4057L373.386 1011.31C618.403 1098.22 892.496 981.958 998.105 739.997C1103.76 498.035 1002.69 218.016 772.395 97.3594L772.442 97.4057ZM530.897 808.474L729.661 349.692C745.727 365.711 759.57 383.583 770.96 402.844L597.892 802.269C576.039 807.085 553.538 809.214 530.897 808.474ZM786.239 647.49C761.839 703.374 720.679 746.756 671.231 774.397L800.453 474.191C814.574 529.982 811.055 590.681 786.239 647.49Z" fill="black"/>
<path d="M293.797 432.517C349.079 305.935 490.107 243.43 619.005 283.294L711.882 70.5942C465.522 -19.875 188.281 96.2904 81.8845 339.965C-24.5117 583.639 78.7825 865.973 312.595 985.148L405.472 772.448C288.612 704.99 238.608 559.054 293.844 432.471L293.797 432.517Z" fill="black"/>
</svg>
