<svg width="1080" height="1080" viewBox="0 0 1080 1080" fill="none" xmlns="http://www.w3.org/2000/svg">
<path d="M772.441 97.4057L373.386 1011.31C618.403 1098.22 892.496 981.957 998.105 739.996C1103.76 498.035 1002.69 218.016 772.395 97.3594L772.441 97.4057ZM530.897 808.473L729.661 349.691C745.726 365.711 759.57 383.583 770.96 402.843L597.892 802.269C576.039 807.084 553.537 809.214 530.897 808.473ZM786.238 647.49C761.839 703.373 720.678 746.756 671.231 774.397L800.452 474.191C814.574 529.982 811.055 590.68 786.238 647.49Z" fill="white"/>
<path d="M293.797 432.517C349.079 305.934 490.107 243.43 619.005 283.294L711.881 70.5942C465.522 -19.875 188.281 96.2904 81.8845 339.965C-24.5117 583.639 78.7824 865.973 312.595 985.148L405.471 772.448C288.612 704.99 238.608 559.054 293.843 432.471L293.797 432.517Z" fill="white"/>
</svg>
