<svg width="1080" height="1080" viewBox="0 0 1080 1080" fill="none" xmlns="http://www.w3.org/2000/svg">
<path d="M539.582 248.322C594.57 248.322 647.309 226.384 686.196 187.321C725.07 148.259 746.921 95.2457 746.921 40H332.263C332.263 67.3438 337.617 94.1293 347.732 118.927C358.056 144.283 373.35 167.581 392.987 187.321C431.877 226.384 484.597 248.322 539.582 248.322Z" fill="#FEFEFE"/>
<path d="M42 748.357V331.678C96.9866 331.678 149.724 353.616 188.596 392.713C227.486 431.775 249.321 484.753 249.321 539.999C249.321 595.282 227.486 648.257 188.596 687.321C149.724 726.385 96.9866 748.357 42 748.357Z" fill="#FEFEFE"/>
<path d="M539.582 331.678C425.094 331.678 332.263 424.939 332.263 539.999C332.263 655.06 425.094 748.357 539.582 748.357C654.091 748.357 746.921 655.06 746.921 539.999C746.921 424.939 654.091 331.678 539.582 331.678Z" fill="#FEFEFE"/>
<path d="M829.846 539.999C829.846 595.282 851.697 648.257 890.571 687.321C929.462 726.385 982.179 748.357 1037.17 748.357V331.678C982.179 331.678 929.462 353.616 890.571 392.713C851.697 431.775 829.846 484.753 829.846 539.999Z" fill="#FEFEFE"/>
<path d="M1037.17 40V248.322C982.179 248.322 929.462 226.384 890.571 187.321C851.697 148.259 829.846 95.2457 829.846 40H1037.17Z" fill="#FEFEFE"/>
<path d="M42 248.322C96.9866 248.322 149.724 226.384 188.596 187.321C199.845 176.021 209.663 163.57 217.929 150.247C221.226 144.946 224.26 139.505 227.05 133.924C229.596 128.832 231.951 123.67 234.078 118.404C244.054 93.7457 249.321 67.1345 249.321 40H42V248.322Z" fill="#FEFEFE"/>
<path d="M392.987 892.713C431.877 853.613 484.597 831.678 539.582 831.678C594.57 831.678 647.309 853.613 686.196 892.713C725.07 931.774 746.921 984.753 746.921 1040H332.263C332.263 984.753 354.114 931.774 392.987 892.713Z" fill="#FEFEFE"/>
<path d="M829.846 1040H1037.17V831.678C982.179 831.678 929.462 853.613 890.571 892.713C851.697 931.774 829.846 984.753 829.846 1040Z" fill="#FEFEFE"/>
<path d="M42 1040V831.678C96.9866 831.678 149.724 853.613 188.596 892.713C227.486 931.774 249.321 984.753 249.321 1040H42Z" fill="#FEFEFE"/>
</svg>
