<svg width="1080" height="1080" viewBox="0 0 1080 1080" fill="none" xmlns="http://www.w3.org/2000/svg">
<path d="M669.849 601.764H1027.96C1041.74 601.764 1044.51 583.01 1031.99 577.281L669.871 412.354V52.8423C669.871 39.4231 651.924 35.0199 645.73 46.9245L496.861 333.562L331.897 257.796C316.115 251.422 306.423 264.273 311.779 275.317L410.151 478.236H52.0378C38.2641 478.236 35.4882 496.99 48.0143 502.718L410.129 667.647V1027.16C410.129 1040.58 428.076 1044.98 434.27 1033.08L583.139 746.438L748.103 822.204C763.885 828.578 773.578 815.729 768.221 804.683L669.849 601.764Z" fill="white"/>
</svg>
