<svg width="1080" height="1080" viewBox="0 0 1080 1080" fill="none" xmlns="http://www.w3.org/2000/svg">
<path d="M1014.72 307.826L879.28 172.381L772.406 65.3372C770.382 63.3124 768.248 61.3982 766.058 59.5922C750.614 46.9619 731.288 40.0421 711.336 40H368.718C348.766 40.0332 329.436 46.954 313.996 59.5922C311.806 61.3982 309.672 63.3124 307.648 65.3372L200.83 172.162L65.3914 307.608C57.3479 315.638 50.9653 325.174 46.6085 335.672C42.2518 346.172 40.0063 357.426 40 368.792V711.428C39.9973 722.796 42.2386 734.052 46.5958 744.552C50.9531 755.05 57.3406 764.586 65.3914 772.612L307.648 1014.94C309.672 1016.96 311.806 1018.88 313.996 1020.41C329.436 1033.05 348.766 1039.97 368.718 1040H711.336C731.288 1039.96 750.614 1033.04 766.058 1020.41C768.248 1018.6 770.382 1016.69 772.406 1014.94L1014.66 772.612C1022.7 764.576 1029.07 755.036 1033.42 744.538C1037.76 734.04 1040 722.79 1040 711.428V368.792C1039.93 345.932 1030.85 324.022 1014.72 307.826ZM907.9 540.52V827.772C907.878 838.354 905.77 848.828 901.698 858.594C897.626 868.36 891.67 877.226 884.168 884.686C876.666 892.148 867.768 898.058 857.98 902.078C848.192 906.096 837.71 908.146 827.13 908.11H252.542C241.97 908.118 231.498 906.04 221.729 901.998C211.959 897.954 203.083 892.024 195.607 884.548C188.13 877.072 182.201 868.196 178.158 858.424C174.116 848.654 172.038 838.184 172.046 827.61V252.992C172.038 242.416 174.115 231.941 178.157 222.168C182.199 212.395 188.128 203.513 195.603 196.032C203.079 188.551 211.955 182.618 221.725 178.569C231.495 174.521 241.966 172.434 252.542 172.434H827.13C848.492 172.434 868.982 180.922 884.088 196.029C899.194 211.136 907.68 231.627 907.68 252.992V540.574L907.9 540.52Z" fill="white"/>
</svg>
