<svg width="1080" height="1080" viewBox="0 0 1080 1080" fill="none" xmlns="http://www.w3.org/2000/svg">
<path fill-rule="evenodd" clip-rule="evenodd" d="M542.894 939.84L217.712 846.507C197.142 840.603 182.97 821.791 182.97 800.392V476.954C182.97 445.057 213.518 422.041 244.179 430.837L569.361 524.132C589.932 530.034 604.108 548.847 604.108 570.249V893.724C604.108 925.624 573.556 948.641 542.894 939.84ZM416.678 812.739C418.057 814.724 419.998 816.206 422.032 816.827L456.095 827.242C462.442 829.182 465.754 822.296 461.453 816.099L385.1 706.102C398.903 695.086 406.956 675.897 407.723 655.283C408.873 618.747 378.965 569.509 340.239 557.669L212.367 518.575L246.752 568.144C251.835 575.47 258.977 580.938 266.479 583.232L325.721 601.344C344.156 606.981 357.877 621.599 357.877 640.043C357.877 658.487 344.457 668.016 325.721 662.287L308.435 657.003L416.678 812.739ZM440.697 722.298L523.656 617.146C525.007 615.434 527.283 614.854 529.723 615.601L568.941 627.59C574.761 629.37 578.232 637.217 575 641.291L497.061 739.53L571.741 849.909C575.928 856.1 572.596 862.86 566.304 860.936L532.456 850.588C530.424 849.967 528.484 848.486 527.105 846.504L440.697 722.298ZM216.612 628.929C209.933 626.887 206.447 634.129 210.969 640.652L301.207 770.823C306.29 778.155 313.454 783.632 320.962 785.927L362.862 798.738L252.435 639.882L216.612 628.929Z" fill="#FEFEFE"/>
<path fill-rule="evenodd" clip-rule="evenodd" d="M922.463 178.467C954.555 187.586 976.699 216.896 976.699 250.259V722.678L976.68 737.724C976.639 771.595 963.168 804.067 939.221 828.021L806.119 961.163C779.255 988.035 733.312 969.008 733.312 931.011V884.202C733.312 872.548 742.677 863.12 754.301 862.287C799.948 859.018 844.115 847.27 879.16 827.041C903.941 812.735 921.37 795.79 931.46 777.777L931.762 777.851C933.417 774.94 934.927 772.004 936.27 769.052C937.53 766.283 938.633 763.492 939.57 760.686C941.237 755.679 942.35 750.624 942.767 745.547V279.278C942.767 260.281 919.799 250.767 906.365 264.2L727.848 442.721C709.854 460.717 699.744 485.123 699.744 510.571V954.655C699.744 1011.27 645.592 1052.18 591.13 1036.7L195.961 924.379C140.952 908.743 103 858.501 103 801.313V354.28C103 320.348 116.48 287.805 140.474 263.812L326.814 77.4751C359.62 44.6689 407.617 32.1941 452.246 44.8737L922.463 178.467ZM842.017 190.958C873.32 199.856 883.525 239.125 860.513 262.137L725.283 397.367C703.411 419.24 671.41 427.556 641.655 419.1L413.877 354.37V111.611C413.877 90.3787 434.184 75.0393 454.606 80.8441L842.017 190.958ZM379.955 149.525V344.728L237.624 304.277C206.317 295.38 196.115 256.105 219.132 233.094L325.356 126.904C345.507 106.76 379.955 121.032 379.955 149.525ZM636.092 893.741C636.092 946.906 585.172 985.268 534.069 970.601L208.887 877.268C174.604 867.429 150.984 836.074 150.984 800.408V476.971C150.984 423.809 201.897 385.449 252.999 400.109L578.181 493.404C612.467 503.241 636.092 534.597 636.092 570.266V893.741Z" fill="#FEFEFE"/>
<path d="M860.242 816.11C830.264 833.418 792.653 843.632 753.669 846.748C741.822 847.696 732.094 838.03 732.094 826.145V791.447C732.094 779.766 741.501 770.325 753.156 769.528C799.205 766.378 843.82 754.601 879.16 734.201C890.759 727.506 900.744 720.228 909.125 712.533C925.16 748.376 908.855 788.041 860.242 816.11Z" fill="#FEFEFE"/>
<path d="M860.242 723.271C830.264 740.578 792.654 750.791 753.671 753.911C741.823 754.86 732.094 745.194 732.094 733.308V709.53C732.094 697.849 741.501 688.408 753.156 687.61C799.205 684.461 843.82 672.687 879.16 652.283C892.197 644.76 903.202 636.504 912.166 627.748C922.557 661.373 905.242 697.288 860.242 723.271Z" fill="#FEFEFE"/>
<path d="M860.242 641.362C833.031 657.072 799.531 666.937 764.423 670.957C746.711 672.985 732.063 658.429 731.48 640.61C731.234 633.098 730.94 625.55 730.646 618.025C726.476 511.11 722.493 408.944 860.242 488.469C933.376 530.69 933.376 599.142 860.242 641.362Z" fill="#FEFEFE"/>
</svg>
