<svg width="1080" height="1080" viewBox="0 0 1080 1080" fill="none" xmlns="http://www.w3.org/2000/svg">
<path d="M1022.83 149.337L838.051 334.101C817.246 354.906 791.816 370.014 764.24 378.517C747.48 383.636 729.894 386.278 712.061 386.278H368.022C350.188 386.278 332.602 383.636 315.842 378.517C288.184 370.014 262.837 354.906 242.031 334.101C180.357 272.431 118.847 210.925 57.2556 149.255C51.4762 143.476 45.6968 137.779 40 132C41.321 144.631 43.1374 158.171 45.862 172.453C50.9808 199.78 58.9069 229.996 71.2087 261.698C76.1625 274.495 81.5291 286.713 87.2259 298.436C101.674 328.157 118.104 354.41 135.195 377.609C167.394 421.2 211.153 453.892 260.525 472.963C292.972 485.512 327.896 492.117 363.563 492.117H716.437C752.104 492.117 787.028 485.429 819.475 472.963C868.847 453.892 912.523 421.282 944.805 377.609C961.896 354.493 978.326 328.157 992.774 298.519C998.471 286.796 1003.84 274.577 1008.79 261.781C1021.09 230.079 1029.1 199.945 1034.14 172.536C1036.86 158.253 1038.68 144.714 1040 132.083C1034.22 137.862 1028.44 143.641 1022.74 149.337H1022.83ZM78.3917 524.397L199.924 646.004H392.378L296.192 742.184L370.994 816.981L541.981 646.004H876.278L997.893 524.397C956.529 483.118 889.571 483.035 848.207 524.397L832.437 540.165H243.765L227.995 524.397C207.355 503.757 180.274 493.437 153.194 493.437C126.113 493.437 99.0324 503.757 78.3917 524.397ZM568.649 694.053L406.661 852.728L476.427 922.49C510.443 956.503 565.677 956.503 599.693 922.49L828.144 694.053H568.649Z" fill="#FEFEFE"/>
</svg>
