<svg width="1080" height="1080" viewBox="0 0 1080 1080" fill="none" xmlns="http://www.w3.org/2000/svg">
<path d="M480.827 452.087L367.569 431.402C317.721 421.229 280.081 400.544 280.081 354.427C280.081 308.31 326.199 279.147 384.523 279.147C442.848 279.147 497.782 320.178 506.259 388.676L727.351 351.036C701.58 189.965 576.453 94 396.731 94C217.009 94 53.903 189.965 53.903 359.514C53.903 529.062 156.65 587.387 314.33 625.027L417.077 645.712C465.229 655.885 511.346 678.266 511.346 726.417C511.346 774.569 468.62 803.393 396.392 803.393C324.164 803.393 271.265 765.753 261.092 692.169L40 731.504C69.1624 890.88 214.635 985.149 396.392 985.149C578.148 985.149 751.088 887.489 751.088 714.549C751.088 541.609 646.646 490.066 480.488 452.426L480.827 452.087Z" fill="white"/>
<path d="M897.24 843.744C818.23 843.744 754.479 907.834 754.479 986.504H1040C1040 907.495 975.91 843.744 897.24 843.744Z" fill="white"/>
</svg>
