<svg width="1080" height="1080" viewBox="0 0 1080 1080" fill="none" xmlns="http://www.w3.org/2000/svg">
<path fill-rule="evenodd" clip-rule="evenodd" d="M457.605 417.101C457.605 395.563 475.064 378.104 496.602 378.104H553.306C646.956 378.104 730.256 411.82 794.218 466.361C813.942 483.176 831.828 501.976 847.608 522.375C922.217 618.813 949.838 751.047 902.63 879.139C884.909 927.22 839.1 959.158 787.856 959.158H219.861C72.0702 959.158 -0.129513 778.865 106.811 676.855L228.606 560.679C244.19 545.811 268.875 546.394 283.741 561.98C298.607 577.562 298.024 602.25 282.439 617.113L160.644 733.293C104.627 786.727 142.447 881.167 219.861 881.167H787.856C806.425 881.167 823.029 869.592 829.448 852.169C900.262 660.029 758.082 456.098 553.306 456.098H496.602C475.064 456.098 457.605 438.639 457.605 417.101Z" fill="#F85902"/>
<path fill-rule="evenodd" clip-rule="evenodd" d="M292.136 105C234.308 105 182.609 141.044 162.611 195.305C115.284 323.719 140.117 456.128 211.282 555.482L95.9685 665.479C-21.236 777.278 57.8936 974.878 219.869 974.878H787.865C845.694 974.878 897.391 938.832 917.391 884.572C964.717 756.16 939.882 623.75 868.721 524.396L984.031 414.4C1101.24 302.601 1022.11 105 860.133 105H292.136ZM117.67 688.23L230.699 580.414C240.712 592.255 251.434 603.516 262.813 614.117L149.802 721.914C83.5213 785.139 128.27 896.883 219.869 896.883H787.865C813.019 896.883 835.51 881.204 844.209 857.602C918.804 655.199 769.029 440.373 553.315 440.373H496.611C483.757 440.373 473.336 429.953 473.336 417.098C473.336 404.243 483.757 393.822 496.611 393.822H553.315C638.14 393.822 714.1 422.703 773.914 470.021C765.88 489.421 769.449 512.581 784.877 528.753C800.298 544.918 823.246 549.58 843.002 542.484C908.523 633.811 931.417 755.595 887.887 873.699C872.445 915.6 832.523 943.437 787.865 943.437H219.869C86.2643 943.437 20.9942 780.448 117.67 688.23ZM171.504 744.664L286.787 634.699C351.851 686.12 434.454 717.497 526.683 717.497H583.391C613.611 717.497 638.108 693 638.108 662.78C638.108 632.56 613.611 608.063 583.391 608.063H526.683C332.85 608.063 198.264 415.025 265.295 233.149C269.439 221.905 280.152 214.436 292.136 214.436H860.133C923.362 214.436 954.25 291.571 908.498 335.213L793.213 445.179C728.151 393.76 645.548 362.38 553.315 362.38H496.611C466.391 362.38 441.894 386.878 441.894 417.098C441.894 447.318 466.391 471.815 496.611 471.815H553.315C747.152 471.815 881.737 664.854 814.705 846.728C810.564 857.972 799.849 865.442 787.865 865.442H219.869C156.641 865.442 125.751 788.306 171.504 744.664ZM847.617 522.372C831.837 501.973 813.95 483.174 794.227 466.358C795.248 465.107 796.355 463.907 797.552 462.767L919.347 346.588C975.364 293.155 937.546 198.715 860.133 198.715H292.136C273.566 198.715 256.965 210.289 250.544 227.713L235.793 222.276C244.492 198.673 266.981 182.994 292.136 182.994H860.133C951.73 182.994 996.479 294.739 930.199 357.963L817.189 465.762C828.566 476.362 839.288 487.624 849.303 499.464L962.331 391.649C1059.01 299.432 993.736 136.441 860.133 136.441H292.136C247.479 136.441 207.555 164.276 192.112 206.178L177.362 200.741C195.082 152.66 240.893 120.721 292.136 120.721H860.133C1007.92 120.721 1080.12 301.016 973.182 403.024L851.388 519.202C850.183 520.352 848.922 521.409 847.617 522.372Z" fill="#F85902"/>
<path d="M292.133 120.727C240.89 120.727 195.079 152.666 177.359 200.747L192.11 206.183C207.553 164.282 247.476 136.447 292.133 136.447H860.13C993.733 136.447 1059 299.437 962.328 391.655L849.3 499.47C839.286 487.63 828.563 476.368 817.186 465.767L930.196 357.969C996.476 294.745 951.727 183 860.13 183H292.133C266.978 183 244.489 198.679 235.79 222.282L250.541 227.719C256.962 210.295 273.564 198.72 292.133 198.72H860.13C937.543 198.72 975.362 293.161 919.344 346.594L797.549 462.773C796.352 463.913 795.245 465.113 794.224 466.364C813.947 483.18 831.834 501.979 847.614 522.378C848.919 521.415 850.181 520.358 851.385 519.208L973.18 403.03C1080.12 301.022 1007.92 120.727 860.13 120.727H292.133Z" fill="#F85902"/>
</svg>
