<svg width="1080" height="1080" viewBox="0 0 1080 1080" fill="none" xmlns="http://www.w3.org/2000/svg">
<path d="M860.022 552.912C850.473 546.865 850.473 533.135 860.022 527.091C934.534 479.916 983.82 396.516 982.99 301.626C981.72 155.991 859.992 40 714.313 40H365.689C220.012 40 98.2824 155.985 97.0103 301.626C96.1812 396.516 145.468 479.916 219.978 527.091C229.527 533.135 229.527 546.871 219.978 552.918C145.468 600.084 96.1812 683.487 97.0103 778.376C98.2794 924.01 220.009 1040 365.686 1040H714.31C859.983 1040 981.711 924.016 982.987 778.376C983.817 683.487 934.534 600.084 860.022 552.912ZM718.961 95.9103C833.716 95.9103 927.071 189.252 927.071 303.976C927.071 418.702 833.71 512.039 718.961 512.039C604.212 512.039 510.845 418.702 510.845 303.976C510.845 189.252 604.209 95.9103 718.961 95.9103ZM512.272 128.47C515.774 126.237 519.694 130.746 517.018 133.919C478.273 179.854 454.924 239.189 454.924 303.979C454.924 368.771 478.273 428.104 517.018 474.041C519.694 477.216 515.777 481.718 512.272 479.491C454.304 442.52 415.774 377.675 415.774 303.979C415.774 230.285 454.304 165.443 512.272 128.47ZM439.953 105.06C443.66 103.925 446.3 108.62 443.471 111.27C392.015 159.434 359.853 227.943 359.853 303.974C359.853 380.003 392.021 448.511 443.471 496.678C446.297 499.325 443.657 504.022 439.953 502.888C354.827 476.794 292.741 397.518 292.741 303.974C292.741 210.429 354.83 131.156 439.953 105.06ZM152.924 303.979C152.924 202.048 226.629 117.054 323.548 99.3533C327.194 98.6886 329.409 103.27 326.628 105.713C271.585 154.087 236.812 224.952 236.812 303.976C236.812 383.001 271.585 453.873 326.628 502.244C329.414 504.687 327.194 509.268 323.548 508.604C226.629 490.9 152.924 405.91 152.924 303.979ZM361.041 984.091C246.283 984.091 152.927 890.75 152.927 776.024C152.927 661.302 246.289 567.961 361.041 567.961C475.792 567.961 569.156 661.302 569.156 776.024C569.156 890.75 475.792 984.091 361.041 984.091ZM567.73 951.53C564.227 953.767 560.308 949.256 562.984 946.083C601.728 900.144 625.078 840.814 625.078 776.021C625.078 711.232 601.728 651.896 562.984 605.962C560.308 602.787 564.224 598.282 567.73 600.509C625.698 637.48 664.227 702.328 664.227 776.021C664.227 849.717 625.698 914.554 567.73 951.53ZM640.048 974.942C636.342 976.076 633.701 971.382 636.531 968.732C687.987 920.568 720.148 852.054 720.148 776.024C720.148 699.994 687.984 631.486 636.531 583.322C633.704 580.675 636.345 575.978 640.048 577.112C725.175 603.203 787.26 682.479 787.26 776.024C787.26 869.569 725.172 948.845 640.048 974.942ZM756.454 980.652C752.809 981.317 750.591 976.735 753.371 974.292C808.415 925.918 843.187 855.052 843.187 776.024C843.187 696.999 808.415 626.13 753.371 577.762C750.589 575.316 752.809 570.735 756.454 571.402C853.368 589.106 927.077 674.096 927.077 776.024C927.077 877.953 853.368 962.951 756.454 980.652Z" fill="#254544"/>
</svg>
