<svg width="1080" height="1080" viewBox="0 0 1080 1080" fill="none" xmlns="http://www.w3.org/2000/svg">
<path d="M251.915 637.526V447.133C251.915 434.37 260.425 425.86 273.191 425.86H445.107V231H268.085C146.383 231 40 325.452 40 450.537V640.931C40 765.164 131.915 850 254.468 850C331.915 850 402.552 814.519 476.595 743.038L777.872 449.473C790.637 436.709 800 425.86 811.065 425.86C821.275 425.86 828.085 434.157 828.085 444.368V633.867C828.085 646.632 819.573 655.138 806.81 655.138H634.893V850H812.767C933.617 850 1040 755.549 1040 629.613V440.964C1040 316.73 948.085 231 825.53 231C748.935 231 677.448 267.377 603.405 338.854L302.128 632.42C289.362 645.185 280 655.138 268.936 655.138C258.723 655.138 251.915 647.737 251.915 637.526Z" fill="#090A0A"/>
</svg>
