<svg width="1080" height="1080" viewBox="0 0 1080 1080" fill="none" xmlns="http://www.w3.org/2000/svg">
<path d="M521.72 1040C475.897 1040 439.825 1036.1 413.501 1028.3C387.178 1021.48 366.216 1014.66 350.617 1007.84C335.018 1000.04 320.882 996.14 308.207 996.14C298.458 996.14 290.171 999.552 283.346 1006.37C276.522 1012.22 272.134 1018.56 270.185 1025.38H238.011L219 724.211H255.56C263.36 752.476 273.597 782.203 286.271 813.392C299.92 843.606 317.469 871.871 338.918 898.187C360.367 923.528 385.715 943.996 414.964 959.591C445.187 975.185 480.285 982.982 520.257 982.982C558.28 982.982 590.453 976.16 616.777 962.515C644.075 947.895 664.549 927.914 678.198 902.573C692.822 876.257 700.134 846.043 700.134 811.93C700.134 765.146 685.998 726.647 657.724 696.433C630.426 666.218 588.991 639.415 533.419 616.023L491.009 598.48C446.162 579.961 403.752 559.006 363.779 535.614C323.806 511.248 291.633 481.033 267.26 444.971C242.886 407.934 230.699 361.637 230.699 306.082C230.699 253.45 242.886 207.154 267.26 167.193C291.633 127.232 326.731 96.0429 372.554 73.6257C418.376 51.2086 471.998 40 533.419 40C572.417 40 604.102 43.4113 628.476 50.2339C652.85 56.0819 672.348 62.4172 686.973 69.2398C702.572 76.0624 715.733 79.4737 726.458 79.4737C734.257 79.4737 740.107 77.037 744.007 72.1637C747.907 67.2904 750.831 59.4932 752.781 48.7719H783.492L798.116 311.93H763.018C754.244 267.096 740.107 228.596 720.608 196.433C702.084 164.269 678.686 139.415 650.412 121.871C622.139 104.327 588.016 95.5556 548.043 95.5556C498.321 95.5556 458.349 109.688 428.125 137.953C397.902 165.244 382.79 202.768 382.79 250.526C382.79 285.614 391.565 314.854 409.114 338.246C427.638 360.663 451.036 380.156 479.31 396.725C507.583 412.32 537.319 426.94 568.517 440.585L619.702 461.053C663.574 478.596 703.547 499.552 739.62 523.918C776.667 548.285 805.916 578.499 827.365 614.561C849.788 650.624 861 695.945 861 750.526C861 789.513 854.175 826.55 840.526 861.637C827.852 896.725 807.866 927.427 780.567 953.743C753.269 980.058 718.171 1001.01 675.273 1016.61C632.376 1032.2 581.191 1040 521.72 1040Z" fill="#F7F5EF"/>
</svg>
