<svg width="1080" height="1080" viewBox="0 0 1080 1080" fill="none" xmlns="http://www.w3.org/2000/svg">
<path d="M287.68 53.2041L519.591 530.012C523.302 537.433 523.302 546.71 519.591 552.276L287.68 1027.23C282.115 1038.36 265.417 1038.36 259.851 1027.23L42.7829 552.276C39.0724 544.854 39.0724 535.578 42.7829 526.302L261.707 51.3488C267.272 40.2171 282.115 40.2171 287.68 51.3488V53.2041Z" fill="#6E23FA"/>
<path d="M552.987 53.2335L784.898 530.042C788.608 537.463 788.608 546.739 784.898 552.305L552.987 1029.11C547.421 1040.24 530.724 1040.24 525.158 1029.11L430.538 821.321L558.553 552.305C562.264 544.884 562.264 535.607 558.553 526.331L430.538 262.881L527.013 53.2335C532.579 42.1018 549.277 42.1018 552.987 53.2335Z" fill="#6E23FA"/>
<path d="M801.596 53.2041L1037.22 530.012C1040.93 537.433 1040.93 546.71 1037.22 552.276L805.307 1027.23C799.741 1038.36 783.043 1038.36 777.477 1027.23L688.424 843.555L827.57 550.42C831.281 542.999 831.281 533.723 827.57 524.446L686.568 233.167L773.767 51.3488C779.333 40.2171 794.175 40.2171 799.741 51.3488L801.596 53.2041Z" fill="#6E23FA"/>
</svg>
