<svg width="1080" height="1080" viewBox="0 0 1080 1080" fill="none" xmlns="http://www.w3.org/2000/svg">
<path d="M878.154 40C728.885 40 599.808 127.714 539.643 254.339C479.559 127.714 350.319 40 201.05 40H165V284.176C165 478.487 313.86 638.791 503.593 657.02C515.528 658.165 527.463 658.737 539.643 658.737C551.823 658.737 563.84 658.165 575.693 657.02C765.426 638.791 914.204 478.487 914.204 284.176V40H878.154ZM503.593 584.43C353.752 566.609 237.1 438.676 237.1 284.176V114.226C386.941 132.21 503.593 260.061 503.593 414.561V584.43ZM842.104 284.176C842.104 438.758 725.534 566.609 575.693 584.43V414.561C575.693 259.979 692.181 132.128 842.104 114.226V284.176Z" fill="#FEFEFE"/>
<path d="M913.632 665.929C821.095 681.379 732.237 727.075 671.336 797.622C612.724 864.327 579.535 950.324 579.535 1038.77V1040H499.833V1035.34C498.934 847.242 349.011 694.05 165.654 666.011C319.664 638.789 471.876 732.225 540.134 868.823C585.176 778.248 665.205 705.086 763.056 676.311C812.594 661.27 864.666 657.346 913.632 666.011V665.929Z" fill="#FEFEFE"/>
</svg>
