<svg width="1080" height="1080" viewBox="0 0 1080 1080" fill="none" xmlns="http://www.w3.org/2000/svg">
<path d="M963.791 507.934L816.617 575.747L811.611 975.318C811.611 998.685 793.257 1033.39 777.572 1040C912.931 1040 959.119 926.282 963.791 868.903V507.934Z" fill="#FEFEFE"/>
<path d="M816.637 442.199L963.811 507.926L816.637 575.739L667.46 507.926L816.637 442.199Z" fill="#FEFEFE"/>
<path d="M667.183 371.799L529.019 438.909V799.228C529.019 842.589 548.758 899.373 620.188 899.373C649.326 899.373 667.183 886.984 667.183 868.401V729.02V371.799Z" fill="#FEFEFE"/>
<path d="M529.104 306.629L667.188 371.727L529.104 438.892L389.141 371.727L529.104 306.629Z" fill="#FEFEFE"/>
<path d="M408.443 226.669L528.025 133.925L435.346 253.602L596.606 272.636L435.346 291.701L442.592 301.871L389.13 276.244V629.272L370.376 318.634L299.776 362.363L343.442 291.701L116 272.636L343.442 253.602L278.534 161.699L370.376 226.669L389.41 40L408.443 226.669Z" fill="#FEFEFE"/>
</svg>
