<svg width="1080" height="1080" viewBox="0 0 1080 1080" fill="none" xmlns="http://www.w3.org/2000/svg">
<mask id="mask0_8_1409" style="mask-type:luminance" maskUnits="userSpaceOnUse" x="731" y="40" width="175" height="999">
<path d="M731.118 40H905.711V1038.2H731.118V40Z" fill="white"/>
</mask>
<g mask="url(#mask0_8_1409)">
<path d="M390.974 1037C382.761 1036.97 375.414 1034.43 368.933 1029.4C365.468 1026.83 362.548 1023.72 360.206 1020.09C357.864 1016.44 356.26 1012.52 355.33 1008.29C354.431 1004.05 354.303 999.821 354.945 995.552C355.586 991.283 356.966 987.242 359.051 983.454L359.244 983.171L575.451 600.322H369.286C365.757 600.322 362.259 599.809 358.859 598.782C355.49 597.756 352.282 596.248 349.33 594.291C346.379 592.334 343.78 589.959 341.502 587.232C339.256 584.505 337.428 581.489 336.048 578.217C334.669 574.945 333.77 571.544 333.385 568.015C333.032 564.486 333.161 560.989 333.802 557.492C334.476 553.995 335.599 550.69 337.235 547.546C338.871 544.37 340.925 541.515 343.395 538.98L782.61 54.9444L783.22 54.2707C786.204 51.287 789.605 48.9128 793.421 47.1162C797.24 45.3516 801.25 44.2608 805.451 43.8758C809.659 43.4587 813.798 43.8116 817.87 44.8704C821.941 45.9291 825.73 47.6295 829.198 50.0357C832.69 52.4099 835.641 55.2973 838.111 58.7302C840.581 62.131 842.38 65.8526 843.569 69.9272C844.721 73.9696 845.14 78.1083 844.881 82.3112C844.598 86.514 843.6 90.5244 841.9 94.4064L841.641 94.9518L670.866 452.099H852.261C857.269 452.131 862.141 452.837 866.958 454.281C871.738 455.725 876.198 457.842 880.368 460.601C884.539 463.361 888.228 466.665 891.401 470.515C894.61 474.333 897.179 478.568 899.138 483.187C901.059 487.775 902.31 492.556 902.858 497.528C903.4 502.501 903.209 507.442 902.31 512.351C901.38 517.26 899.778 521.944 897.499 526.371C895.22 530.831 892.337 534.841 888.838 538.435L416.352 1026.19L415.806 1026.73C408.909 1033.5 400.631 1036.94 390.974 1037ZM371.788 563.042H577.312C578.884 563.042 580.424 563.138 581.964 563.331C583.536 563.555 585.044 563.844 586.552 564.261C588.06 564.646 589.535 565.127 590.979 565.737C592.423 566.314 593.834 566.988 595.182 567.758C596.529 568.528 597.845 569.394 599.064 570.325C600.315 571.255 601.502 572.282 602.625 573.372C603.716 574.463 604.774 575.618 605.737 576.837C606.699 578.057 607.566 579.34 608.368 580.687C609.17 582.035 609.876 583.414 610.485 584.826C611.127 586.27 611.64 587.746 612.057 589.222C612.506 590.729 612.827 592.237 613.052 593.777C613.309 595.317 613.437 596.889 613.469 598.429C613.501 600.002 613.437 601.542 613.277 603.114C613.084 604.654 612.827 606.194 612.474 607.702C612.089 609.209 611.64 610.685 611.095 612.161C610.517 613.605 609.876 615.017 609.138 616.396L608.945 616.685L396.043 993.723L862.049 512.543C863.971 510.586 865.159 508.244 865.671 505.549C866.188 502.822 865.899 500.223 864.839 497.689C863.749 495.154 862.079 493.133 859.769 491.625C857.49 490.117 854.989 489.347 852.23 489.347H669.133C666.117 489.347 663.166 488.994 660.246 488.256C657.327 487.519 654.568 486.428 651.905 485.016C649.274 483.572 646.836 481.84 644.622 479.819C642.408 477.766 640.483 475.488 638.847 472.985C637.211 470.451 635.895 467.788 634.933 464.933C633.938 462.109 633.329 459.19 633.072 456.174C632.847 453.19 632.944 450.206 633.457 447.255C633.938 444.271 634.804 441.416 635.992 438.656L636.248 438.111L804.589 86.1611L371.788 563.042Z" fill="#74B8FF"/>
</g>
<mask id="mask1_8_1409" style="mask-type:luminance" maskUnits="userSpaceOnUse" x="330" y="914" width="576" height="122">
<path d="M330.212 914.072H905.429V1035.89H330.212V914.072Z" fill="white"/>
</mask>
<g mask="url(#mask1_8_1409)">
<path d="M390.688 1037.01C382.475 1036.98 375.128 1034.45 368.648 1029.41C365.183 1026.84 362.263 1023.73 359.921 1020.1C357.579 1016.45 355.975 1012.53 355.044 1008.3C354.146 1004.06 354.018 999.833 354.659 995.564C355.301 991.264 356.681 987.254 358.798 983.466L358.959 983.182L575.165 600.334H369C365.471 600.334 361.974 599.821 358.606 598.794C355.205 597.768 352.028 596.26 349.045 594.303C346.093 592.346 343.494 589.971 341.216 587.244C338.971 584.517 337.142 581.501 335.762 578.229C334.383 574.956 333.484 571.556 333.099 568.026C332.746 564.497 332.875 561 333.516 557.503C334.19 554.006 335.313 550.702 336.949 547.557C338.586 544.381 340.639 541.526 343.109 538.992L782.325 54.9561L782.935 54.2824C785.918 51.2987 789.319 48.9245 793.134 47.1279C796.953 45.3633 800.963 44.2725 805.171 43.8875C809.372 43.4705 813.511 43.8234 817.583 44.8821C821.661 45.9408 825.443 47.6412 828.911 50.0474C832.404 52.4216 835.36 55.309 837.831 58.7419C840.301 62.1427 842.093 65.8643 843.282 69.9389C844.44 73.9813 844.884 78.12 844.6 82.3229C844.311 86.5258 843.313 90.5361 841.613 94.4182L841.36 94.9636L670.58 452.111H851.98C856.982 452.143 861.891 452.849 866.671 454.293C871.451 455.736 875.911 457.854 880.081 460.613C884.252 463.372 887.941 466.676 891.12 470.526C894.329 474.344 896.892 478.579 898.851 483.199C900.773 487.787 902.029 492.567 902.571 497.54C903.12 502.513 902.922 507.454 902.029 512.363C901.093 517.272 899.491 521.956 897.212 526.383C894.933 530.843 892.05 534.853 888.582 538.446L416.066 1026.2L415.52 1026.75C408.623 1033.52 400.345 1036.92 390.688 1037.01ZM371.503 563.053H577.026C578.598 563.053 580.138 563.15 581.678 563.342C583.25 563.567 584.758 563.856 586.266 564.241C587.774 564.658 589.25 565.139 590.693 565.748C592.137 566.326 593.549 567 594.896 567.77C596.244 568.54 597.559 569.406 598.778 570.336C600.03 571.267 601.217 572.294 602.34 573.384C603.431 574.475 604.489 575.63 605.452 576.849C606.414 578.069 607.281 579.352 608.083 580.699C608.885 582.047 609.591 583.426 610.2 584.838C610.842 586.282 611.355 587.758 611.772 589.234C612.221 590.741 612.542 592.249 612.767 593.789C613.023 595.329 613.152 596.901 613.184 598.441C613.216 600.014 613.152 601.554 612.991 603.126C612.799 604.666 612.542 606.206 612.189 607.713C611.804 609.221 611.355 610.697 610.81 612.173C610.232 613.617 609.591 615.028 608.853 616.408L608.692 616.696L395.757 993.734L861.762 512.555C863.69 510.598 864.873 508.256 865.39 505.561C865.901 502.834 865.612 500.235 864.552 497.701C863.462 495.166 861.793 493.145 859.483 491.637C857.203 490.129 854.703 489.359 851.943 489.359H668.847C665.832 489.359 662.88 489.006 659.96 488.268C657.041 487.53 654.282 486.439 651.619 485.028C648.988 483.584 646.55 481.852 644.336 479.83C642.122 477.777 640.197 475.499 638.561 472.997C636.925 470.462 635.609 467.799 634.647 464.944C633.652 462.121 633.043 459.201 632.786 456.185C632.561 453.202 632.658 450.218 633.171 447.267C633.652 444.283 634.519 441.428 635.706 438.668L635.962 438.123L804.302 86.1729L371.503 563.053Z" fill="#74B8FF"/>
</g>
<mask id="mask2_8_1409" style="mask-type:luminance" maskUnits="userSpaceOnUse" x="614" y="308" width="292" height="194">
<path d="M614.79 308.305H905.715V501.187H614.79V308.305Z" fill="white"/>
</mask>
<g mask="url(#mask2_8_1409)">
<path d="M390.979 1037C382.765 1036.97 375.418 1034.43 368.937 1029.4C365.472 1026.83 362.553 1023.72 360.211 1020.09C357.869 1016.44 356.264 1012.52 355.334 1008.29C354.436 1004.05 354.307 999.821 354.949 995.552C355.591 991.283 356.97 987.242 359.056 983.454L359.248 983.171L575.455 600.322H369.29C365.761 600.322 362.264 599.809 358.863 598.782C355.495 597.756 352.286 596.248 349.335 594.291C346.383 592.334 343.784 589.959 341.506 587.232C339.261 584.505 337.432 581.489 336.052 578.217C334.673 574.945 333.775 571.544 333.39 568.015C333.037 564.486 333.165 560.989 333.807 557.492C334.48 553.995 335.603 550.69 337.239 547.546C338.876 544.37 340.929 541.515 343.399 538.98L782.615 54.9444L783.225 54.2707C786.208 51.287 789.609 48.9128 793.425 47.1162C797.244 45.3516 801.254 44.2608 805.455 43.8758C809.663 43.4587 813.802 43.8116 817.874 44.8704C821.952 45.9291 825.734 47.6295 829.202 50.0357C832.695 52.4099 835.645 55.2973 838.121 58.7302C840.592 62.131 842.384 65.8526 843.573 69.9272C844.725 73.9696 845.144 78.1083 844.885 82.3112C844.602 86.514 843.604 90.5244 841.904 94.4064L841.645 94.9518L670.87 452.099H852.265C857.273 452.131 862.182 452.837 866.962 454.281C871.742 455.725 876.202 457.842 880.372 460.601C884.543 463.361 888.232 466.665 891.411 470.515C894.614 474.333 897.183 478.568 899.142 483.187C901.064 487.775 902.314 492.556 902.862 497.528C903.404 502.501 903.213 507.442 902.314 512.351C901.384 517.26 899.782 521.944 897.503 526.371C895.224 530.831 892.341 534.841 888.842 538.435L416.356 1026.19L415.811 1026.73C408.913 1033.5 400.636 1036.94 390.979 1037ZM371.793 563.042H577.316C578.888 563.042 580.428 563.138 581.968 563.331C583.54 563.555 585.048 563.844 586.556 564.261C588.064 564.646 589.539 565.127 590.983 565.737C592.427 566.314 593.839 566.988 595.186 567.758C596.534 568.528 597.849 569.394 599.068 570.325C600.319 571.255 601.507 572.282 602.629 573.372C603.72 574.463 604.779 575.618 605.742 576.837C606.704 578.057 607.57 579.34 608.372 580.687C609.174 582.035 609.88 583.414 610.49 584.826C611.132 586.27 611.645 587.746 612.062 589.222C612.511 590.729 612.832 592.237 613.057 593.777C613.313 595.317 613.442 596.889 613.474 598.429C613.506 600.002 613.442 601.542 613.281 603.114C613.089 604.654 612.832 606.194 612.479 607.702C612.094 609.209 611.645 610.685 611.099 612.161C610.522 613.605 609.88 615.017 609.142 616.396L608.95 616.685L396.048 993.723L862.053 512.543C863.975 510.586 865.164 508.244 865.675 505.549C866.192 502.822 865.903 500.223 864.843 497.689C863.753 495.154 862.084 493.133 859.774 491.625C857.494 490.117 854.993 489.347 852.234 489.347H669.137C666.122 489.347 663.17 488.994 660.25 488.256C657.331 487.519 654.572 486.428 651.909 485.016C649.278 483.572 646.84 481.84 644.626 479.819C642.413 477.766 640.488 475.488 638.852 472.985C637.215 470.451 635.9 467.788 634.937 464.933C633.943 462.109 633.333 459.19 633.077 456.174C632.852 453.19 632.948 450.206 633.462 447.255C633.943 444.271 634.809 441.416 635.996 438.656L636.253 438.111L804.593 86.1611L371.793 563.042Z" fill="#74B8FF"/>
</g>
<mask id="mask3_8_1409" style="mask-type:luminance" maskUnits="userSpaceOnUse" x="698" y="219" width="208" height="282">
<path d="M698.394 219.926H905.711V500.748H698.394V219.926Z" fill="white"/>
</mask>
<g mask="url(#mask3_8_1409)">
<path d="M390.974 1037.01C382.761 1036.98 375.414 1034.45 368.933 1029.41C365.468 1026.84 362.548 1023.73 360.206 1020.1C357.864 1016.45 356.26 1012.53 355.33 1008.3C354.431 1004.06 354.303 999.833 354.945 995.564C355.586 991.295 356.966 987.254 359.051 983.466L359.244 983.182L575.451 600.334H369.286C365.757 600.334 362.259 599.821 358.859 598.794C355.49 597.768 352.282 596.26 349.33 594.303C346.379 592.346 343.78 589.971 341.502 587.244C339.256 584.517 337.428 581.501 336.048 578.229C334.669 574.956 333.77 571.556 333.385 568.026C333.032 564.497 333.161 561 333.802 557.503C334.476 554.006 335.599 550.702 337.235 547.557C338.871 544.381 340.925 541.526 343.395 538.992L782.61 54.9561L783.22 54.2824C786.204 51.2987 789.605 48.9245 793.421 47.1279C797.24 45.3633 801.25 44.2725 805.451 43.8875C809.659 43.4705 813.798 43.8234 817.87 44.8821C821.941 45.9408 825.73 47.6412 829.198 50.0474C832.69 52.4216 835.641 55.309 838.111 58.7419C840.581 62.1427 842.38 65.8643 843.569 69.9389C844.721 73.9813 845.14 78.12 844.881 82.3229C844.598 86.5258 843.6 90.5361 841.9 94.4182L841.641 94.9636L670.866 452.111H852.261C857.269 452.143 862.141 452.849 866.958 454.293C871.738 455.736 876.198 457.854 880.368 460.613C884.539 463.372 888.228 466.676 891.401 470.526C894.61 474.344 897.179 478.579 899.138 483.199C901.059 487.787 902.31 492.567 902.858 497.54C903.4 502.513 903.209 507.454 902.31 512.363C901.38 517.272 899.778 521.956 897.499 526.383C895.22 530.843 892.337 534.853 888.838 538.446L416.352 1026.2L415.806 1026.75C408.909 1033.52 400.631 1036.95 390.974 1037.01ZM371.788 563.053H577.312C578.884 563.053 580.424 563.15 581.964 563.342C583.536 563.567 585.044 563.856 586.552 564.273C588.06 564.658 589.535 565.139 590.979 565.748C592.423 566.326 593.834 567 595.182 567.77C596.529 568.54 597.845 569.406 599.064 570.336C600.315 571.267 601.502 572.294 602.625 573.384C603.716 574.475 604.774 575.63 605.737 576.849C606.699 578.069 607.566 579.352 608.368 580.699C609.17 582.047 609.876 583.426 610.485 584.838C611.127 586.282 611.64 587.758 612.057 589.234C612.506 590.741 612.827 592.249 613.052 593.789C613.309 595.329 613.437 596.901 613.469 598.441C613.501 600.014 613.437 601.554 613.277 603.126C613.084 604.666 612.827 606.206 612.474 607.713C612.089 609.221 611.64 610.697 611.095 612.173C610.517 613.617 609.876 615.028 609.138 616.408L608.945 616.696L396.043 993.734L862.049 512.555C863.971 510.598 865.159 508.256 865.671 505.561C866.188 502.834 865.899 500.235 864.839 497.701C863.749 495.166 862.079 493.145 859.769 491.637C857.49 490.129 854.989 489.359 852.23 489.359H669.133C666.117 489.359 663.166 489.006 660.246 488.268C657.327 487.53 654.568 486.439 651.905 485.028C649.274 483.584 646.836 481.852 644.622 479.83C642.408 477.777 640.483 475.499 638.847 472.997C637.211 470.462 635.895 467.799 634.933 464.944C633.938 462.121 633.329 459.201 633.072 456.185C632.847 453.202 632.944 450.218 633.457 447.267C633.938 444.283 634.804 441.428 635.992 438.668L636.248 438.123L804.589 86.1729L371.788 563.053Z" fill="#74B8FF"/>
</g>
<mask id="mask4_8_1409" style="mask-type:luminance" maskUnits="userSpaceOnUse" x="463" y="886" width="363" height="102">
<path d="M463.805 886.316H825.862V987.826H463.805V886.316Z" fill="white"/>
</mask>
<g mask="url(#mask4_8_1409)">
<path d="M395.437 1032.17C387.224 1032.14 379.876 1029.6 373.396 1024.56C369.931 1022 367.011 1018.88 364.669 1015.26C362.327 1011.6 360.691 1007.69 359.792 1003.45C358.894 999.22 358.766 994.982 359.407 990.719C360.049 986.419 361.429 982.409 363.514 978.621L363.707 978.331L579.914 595.487H373.749C370.219 595.487 366.722 594.973 363.322 593.947C359.921 592.92 356.745 591.412 353.793 589.455C350.842 587.498 348.243 585.124 345.965 582.397C343.687 579.67 341.891 576.654 340.511 573.382C339.131 570.109 338.233 566.708 337.848 563.179C337.463 559.65 337.624 556.153 338.265 552.656C338.939 549.159 340.062 545.854 341.698 542.678C343.334 539.534 345.388 536.678 347.858 534.144L787.073 50.1085L787.683 49.4348C790.664 46.451 794.065 44.0769 797.884 42.2803C801.703 40.5157 805.713 39.4249 809.914 39.0399C814.085 38.6228 818.224 38.9757 822.333 40.0344C826.404 41.0932 830.193 42.7936 833.661 45.1677C837.123 47.5739 840.104 50.4614 842.574 53.8622C845.044 57.2951 846.843 61.0167 848.001 65.0912C849.184 69.1337 849.603 73.2724 849.344 77.4752C849.061 81.6781 848.063 85.6884 846.363 89.5705L846.104 90.1159L675.328 447.263H856.724C861.732 447.263 866.604 448.001 871.421 449.445C876.201 450.888 880.661 453.006 884.831 455.765C889.002 458.524 892.691 461.829 895.864 465.679C899.073 469.497 901.642 473.732 903.564 478.32C905.522 482.94 906.773 487.72 907.321 492.693C907.863 497.666 907.672 502.607 906.773 507.515C905.843 512.424 904.241 517.108 901.962 521.535C899.652 525.995 896.8 530.005 893.301 533.598L420.815 1021.36L420.269 1021.87C413.371 1028.64 405.094 1032.07 395.437 1032.17ZM376.251 558.206H581.775C583.347 558.206 584.887 558.302 586.427 558.495C587.967 558.719 589.507 559.008 591.015 559.393C592.522 559.81 593.998 560.291 595.442 560.901C596.886 561.479 598.265 562.152 599.645 562.922C600.992 563.692 602.275 564.559 603.527 565.489C604.778 566.419 605.965 567.446 607.056 568.537C608.179 569.628 609.237 570.783 610.2 572.002C611.162 573.221 612.029 574.504 612.831 575.852C613.633 577.199 614.338 578.579 614.948 579.991C615.558 581.434 616.103 582.91 616.52 584.386C616.969 585.894 617.29 587.402 617.515 588.942C617.771 590.482 617.9 592.054 617.932 593.594C617.964 595.166 617.9 596.706 617.707 598.246C617.547 599.818 617.29 601.358 616.937 602.865C616.552 604.373 616.103 605.849 615.526 607.325C614.98 608.768 614.338 610.18 613.601 611.56L613.408 611.848L400.506 988.89L866.512 507.708C868.433 505.719 869.622 503.409 870.134 500.714C870.651 497.987 870.362 495.388 869.271 492.853C868.212 490.319 866.542 488.297 864.232 486.79C861.953 485.282 859.422 484.512 856.693 484.512H673.596C670.58 484.512 667.629 484.159 664.709 483.421C661.79 482.683 659.031 481.592 656.368 480.18C653.737 478.737 651.298 477.004 649.085 474.951C646.871 472.93 644.946 470.652 643.31 468.149C641.673 465.615 640.358 462.952 639.363 460.096C638.401 457.273 637.791 454.353 637.535 451.337C637.278 448.354 637.406 445.37 637.92 442.419C638.401 439.435 639.267 436.579 640.454 433.82L640.711 433.275L809.052 81.3252L376.251 558.206Z" fill="#74B8FF"/>
</g>
<mask id="mask5_8_1409" style="mask-type:luminance" maskUnits="userSpaceOnUse" x="603" y="645" width="303" height="394">
<path d="M603.432 645.559H905.714V1038.09H603.432V645.559Z" fill="white"/>
</mask>
<g mask="url(#mask5_8_1409)">
<path d="M390.979 1037C382.765 1036.97 375.418 1034.43 368.937 1029.4C365.472 1026.83 362.553 1023.72 360.211 1020.09C357.869 1016.44 356.264 1012.52 355.334 1008.29C354.436 1004.05 354.307 999.819 354.949 995.55C355.591 991.281 356.97 987.24 359.056 983.452L359.248 983.169L575.455 600.32H369.29C365.761 600.32 362.264 599.807 358.863 598.78C355.495 597.754 352.286 596.246 349.335 594.289C346.383 592.332 343.784 589.957 341.506 587.23C339.261 584.503 337.432 581.487 336.052 578.215C334.673 574.943 333.775 571.542 333.39 568.013C333.037 564.484 333.165 560.987 333.807 557.49C334.48 553.993 335.603 550.688 337.239 547.544C338.876 544.368 340.929 541.513 343.399 538.978L782.615 54.9425L783.225 54.2687C786.208 51.285 789.609 48.9109 793.425 47.1143C797.244 45.3497 801.254 44.2589 805.455 43.8739C809.663 43.4568 813.802 43.8097 817.874 44.8684C821.952 45.9272 825.734 47.6276 829.202 50.0338C832.695 52.4079 835.645 55.2954 838.121 58.7282C840.592 62.1291 842.384 65.8507 843.573 69.9252C844.725 73.9676 845.144 78.1064 844.885 82.3092C844.602 86.5121 843.604 90.5224 841.904 94.4045L841.645 94.9499L670.87 452.097H852.265C857.273 452.129 862.182 452.835 866.962 454.279C871.742 455.723 876.202 457.84 880.372 460.599C884.543 463.359 888.232 466.663 891.411 470.513C894.614 474.331 897.183 478.566 899.142 483.186C901.064 487.773 902.314 492.554 902.862 497.526C903.404 502.499 903.213 507.44 902.314 512.349C901.384 517.258 899.782 521.942 897.503 526.369C895.224 530.829 892.341 534.839 888.842 538.433L416.356 1026.19L415.811 1026.73C408.913 1033.5 400.636 1036.94 390.979 1037ZM371.793 563.04H577.316C578.888 563.04 580.428 563.136 581.968 563.329C583.54 563.553 585.048 563.842 586.556 564.259C588.064 564.644 589.539 565.125 590.983 565.735C592.427 566.312 593.839 566.986 595.186 567.756C596.534 568.526 597.849 569.392 599.068 570.323C600.319 571.253 601.507 572.28 602.629 573.371C603.72 574.461 604.779 575.616 605.742 576.836C606.704 578.055 607.57 579.338 608.372 580.685C609.174 582.033 609.88 583.412 610.49 584.824C611.132 586.268 611.645 587.744 612.062 589.22C612.511 590.727 612.832 592.235 613.057 593.775C613.313 595.315 613.442 596.887 613.474 598.427C613.506 600 613.442 601.54 613.281 603.112C613.089 604.652 612.832 606.192 612.479 607.7C612.094 609.207 611.645 610.683 611.099 612.159C610.522 613.603 609.88 615.015 609.142 616.394L608.95 616.683L396.048 993.721L862.053 512.541C863.975 510.584 865.164 508.242 865.675 505.547C866.192 502.82 865.903 500.221 864.843 497.687C863.753 495.152 862.084 493.131 859.774 491.623C857.494 490.115 854.993 489.345 852.234 489.345H669.137C666.122 489.345 663.17 488.992 660.25 488.255C657.331 487.517 654.572 486.426 651.909 485.014C649.278 483.571 646.84 481.838 644.626 479.817C642.413 477.764 640.488 475.486 638.852 472.983C637.215 470.449 635.9 467.786 634.937 464.931C633.943 462.107 633.333 459.188 633.077 456.172C632.852 453.188 632.948 450.204 633.462 447.253C633.943 444.269 634.809 441.414 635.996 438.654L636.253 438.109L804.593 86.1592L371.793 563.04Z" fill="#74B8FF"/>
</g>
<mask id="mask6_8_1409" style="mask-type:luminance" maskUnits="userSpaceOnUse" x="492" y="858" width="414" height="180">
<path d="M492.102 858.404H905.713V1037.75H492.102V858.404Z" fill="white"/>
</mask>
<g mask="url(#mask6_8_1409)">
<path d="M390.977 1037.01C382.764 1036.98 375.417 1034.45 368.936 1029.41C365.471 1026.84 362.551 1023.73 360.209 1020.1C357.867 1016.45 356.263 1012.53 355.332 1008.3C354.434 1004.06 354.306 999.833 354.947 995.564C355.589 991.295 356.969 987.254 359.054 983.466L359.247 983.182L575.454 600.334H369.289C365.76 600.334 362.262 599.821 358.862 598.794C355.493 597.768 352.285 596.26 349.333 594.303C346.381 592.346 343.783 589.971 341.505 587.244C339.259 584.517 337.43 581.501 336.051 578.229C334.671 574.956 333.773 571.556 333.388 568.026C333.035 564.497 333.164 561 333.805 557.503C334.479 554.006 335.602 550.702 337.238 547.557C338.874 544.381 340.927 541.526 343.398 538.992L782.613 54.9561L783.223 54.2824C786.207 51.2987 789.608 48.9245 793.424 47.1279C797.243 45.3633 801.253 44.2725 805.454 43.8875C809.661 43.4705 813.801 43.8234 817.873 44.8821C821.944 45.9408 825.733 47.6412 829.201 50.0474C832.693 52.4216 835.644 55.309 838.114 58.7419C840.584 62.1427 842.383 65.8643 843.572 69.9389C844.724 73.9813 845.143 78.12 844.884 82.3229C844.601 86.5258 843.603 90.5361 841.902 94.4182L841.644 94.9636L670.868 452.111H852.263C857.271 452.143 862.144 452.849 866.961 454.293C871.741 455.736 876.201 457.854 880.371 460.613C884.541 463.372 888.231 466.676 891.404 470.526C894.613 474.344 897.182 478.579 899.141 483.199C901.062 487.787 902.313 492.567 902.861 497.54C903.403 502.513 903.212 507.454 902.313 512.363C901.383 517.272 899.781 521.956 897.502 526.383C895.223 530.843 892.34 534.853 888.841 538.446L416.355 1026.2L415.809 1026.75C408.911 1033.52 400.634 1036.95 390.977 1037.01ZM371.791 563.053H577.315C578.887 563.053 580.427 563.15 581.967 563.342C583.539 563.567 585.047 563.856 586.555 564.273C588.062 564.658 589.538 565.139 590.982 565.748C592.426 566.326 593.837 567 595.185 567.77C596.532 568.54 597.848 569.406 599.067 570.336C600.318 571.267 601.505 572.294 602.628 573.384C603.719 574.475 604.777 575.63 605.74 576.849C606.702 578.069 607.569 579.352 608.371 580.699C609.173 582.047 609.879 583.426 610.488 584.838C611.13 586.282 611.643 587.758 612.06 589.234C612.509 590.741 612.83 592.249 613.055 593.789C613.312 595.329 613.44 596.901 613.472 598.441C613.504 600.014 613.44 601.554 613.28 603.126C613.087 604.666 612.83 606.206 612.477 607.713C612.092 609.221 611.643 610.697 611.098 612.173C610.52 613.617 609.879 615.028 609.141 616.408L608.948 616.696L396.046 993.734L862.052 512.555C863.973 510.598 865.162 508.256 865.674 505.561C866.191 502.834 865.902 500.235 864.842 497.701C863.752 495.166 862.082 493.145 859.772 491.637C857.493 490.129 854.992 489.359 852.233 489.359H669.136C666.12 489.359 663.169 489.006 660.249 488.268C657.33 487.53 654.571 486.439 651.908 485.028C649.277 483.584 646.839 481.852 644.625 479.83C642.411 477.777 640.486 475.499 638.85 472.997C637.214 470.462 635.898 467.799 634.936 464.944C633.941 462.121 633.332 459.201 633.075 456.185C632.85 453.202 632.947 450.218 633.46 447.267C633.941 444.283 634.807 441.428 635.995 438.668L636.251 438.123L804.592 86.1729L371.791 563.053Z" fill="#74B8FF"/>
</g>
<mask id="mask7_8_1409" style="mask-type:luminance" maskUnits="userSpaceOnUse" x="557" y="775" width="347" height="265">
<path d="M557.1 775.281H903.69V1039.19H557.1V775.281Z" fill="white"/>
</mask>
<g mask="url(#mask7_8_1409)">
<path d="M388.953 1039C380.739 1038.97 373.392 1036.43 366.912 1031.4C363.447 1028.83 360.527 1025.72 358.185 1022.09C355.843 1018.44 354.239 1014.52 353.309 1010.29C352.41 1006.05 352.282 1001.82 352.924 997.551C353.565 993.251 354.945 989.241 357.062 985.453L357.223 985.169L573.43 602.321H367.265C363.736 602.321 360.239 601.807 356.87 600.781C353.469 599.754 350.293 598.246 347.309 596.289C344.358 594.332 341.759 591.958 339.481 589.231C337.235 586.504 335.407 583.488 334.027 580.215C332.648 576.943 331.749 573.542 331.364 570.013C331.011 566.484 331.14 562.986 331.781 559.489C332.455 555.992 333.578 552.688 335.214 549.512C336.85 546.368 338.904 543.512 341.374 540.978L780.589 56.9425L781.199 56.2687C784.182 53.285 787.583 50.9109 791.401 49.1142C795.22 47.3497 799.23 46.2588 803.431 45.8739C807.638 45.4568 811.771 45.8097 815.849 46.8684C819.921 47.9272 823.709 49.6276 827.171 52.0017C830.67 54.4079 833.621 57.2954 836.091 60.6962C838.561 64.129 840.36 67.8507 841.549 71.9252C842.7 75.9677 843.15 80.1063 842.861 84.3093C842.571 88.5121 841.579 92.5225 839.879 96.4045L839.62 96.9499L668.845 454.097H850.24C855.248 454.097 860.158 454.835 864.938 456.279C869.718 457.723 874.178 459.84 878.348 462.599C882.518 465.358 886.208 468.663 889.38 472.513C892.59 476.33 895.158 480.565 897.117 485.153C899.039 489.773 900.29 494.554 900.838 499.527C901.38 504.5 901.189 509.44 900.29 514.349C899.359 519.258 897.758 523.942 895.479 528.37C893.199 532.829 890.31 536.839 886.849 540.432L414.331 1028.19L413.785 1028.7C406.887 1035.47 398.61 1038.9 388.953 1039ZM369.767 565.04H575.291C576.863 565.04 578.403 565.136 579.975 565.329C581.515 565.553 583.023 565.842 584.531 566.227C586.039 566.644 587.514 567.125 588.958 567.735C590.402 568.312 591.813 568.986 593.161 569.756C594.508 570.526 595.824 571.392 597.043 572.323C598.294 573.253 599.481 574.28 600.604 575.371C601.695 576.462 602.754 577.617 603.716 578.836C604.678 580.055 605.545 581.338 606.347 582.686C607.149 584.033 607.855 585.413 608.464 586.824C609.106 588.268 609.619 589.744 610.036 591.22C610.485 592.728 610.806 594.236 611.031 595.776C611.287 597.316 611.416 598.888 611.448 600.428C611.48 602 611.416 603.54 611.255 605.08C611.063 606.652 610.806 608.192 610.453 609.7C610.068 611.208 609.619 612.683 609.074 614.159C608.496 615.603 607.855 617.015 607.117 618.394L606.956 618.683L394.022 995.721L860.028 514.542C861.95 512.552 863.139 510.242 863.65 507.547C864.168 504.82 863.878 502.222 862.819 499.687C861.728 497.152 860.059 495.131 857.78 493.623C855.47 492.115 852.969 491.345 850.209 491.345H667.112C664.097 491.345 661.145 490.992 658.225 490.255C655.306 489.517 652.547 488.426 649.884 487.014C647.253 485.57 644.814 483.838 642.601 481.785C640.419 479.763 638.462 477.485 636.826 474.983C635.189 472.448 633.874 469.786 632.912 466.93C631.917 464.107 631.307 461.188 631.051 458.172C630.826 455.188 630.922 452.204 631.436 449.253C631.917 446.269 632.783 443.414 633.97 440.655L634.227 440.109L802.569 88.1592L369.767 565.04Z" fill="#74B8FF"/>
</g>
<mask id="mask8_8_1409" style="mask-type:luminance" maskUnits="userSpaceOnUse" x="515" y="822" width="391" height="217">
<path d="M515.01 822.406H905.713V1038.19H515.01V822.406Z" fill="white"/>
</mask>
<g mask="url(#mask8_8_1409)">
<path d="M390.977 1037C382.764 1036.97 375.417 1034.43 368.936 1029.4C365.471 1026.83 362.551 1023.72 360.209 1020.09C357.867 1016.44 356.263 1012.52 355.332 1008.29C354.434 1004.05 354.306 999.819 354.947 995.55C355.589 991.281 356.969 987.24 359.054 983.489L359.247 983.169L575.454 600.32H369.289C365.76 600.32 362.262 599.807 358.862 598.78C355.493 597.754 352.285 596.246 349.333 594.289C346.381 592.332 343.783 589.957 341.505 587.23C339.259 584.503 337.43 581.487 336.051 578.215C334.671 574.942 333.773 571.542 333.388 568.012C333.035 564.483 333.164 560.986 333.805 557.489C334.479 553.992 335.602 550.688 337.238 547.544C338.874 544.367 340.927 541.512 343.398 538.978L782.613 54.9422L783.223 54.2685C786.207 51.2848 789.608 48.9107 793.424 47.114C797.243 45.3495 801.253 44.2586 805.454 43.8737C809.661 43.4887 813.801 43.8095 817.873 44.8682C821.944 45.927 825.733 47.6273 829.201 50.0336C832.693 52.4077 835.644 55.2952 838.114 58.7281C840.584 62.1288 842.383 65.8505 843.572 69.925C844.724 73.9675 845.143 78.1061 844.884 82.309C844.601 86.5118 843.603 90.5223 841.902 94.4043L841.644 94.9497L670.868 452.097H852.263C857.271 452.129 862.144 452.835 866.961 454.279C871.741 455.723 876.201 457.84 880.371 460.599C884.541 463.358 888.231 466.663 891.404 470.513C894.613 474.33 897.182 478.565 899.141 483.185C901.062 487.773 902.313 492.553 902.861 497.526C903.403 502.499 903.212 507.44 902.313 512.349C901.383 517.258 899.781 521.942 897.502 526.369C895.223 530.829 892.34 534.839 888.841 538.432L416.355 1026.19L415.809 1026.73C408.911 1033.5 400.634 1036.94 390.977 1037ZM371.791 563.04H577.315C578.887 563.04 580.427 563.136 581.967 563.328C583.539 563.553 585.047 563.842 586.555 564.259C588.062 564.644 589.538 565.125 590.982 565.735C592.426 566.312 593.837 566.986 595.185 567.756C596.532 568.526 597.848 569.392 599.067 570.322C600.318 571.253 601.505 572.28 602.628 573.37C603.719 574.461 604.777 575.616 605.74 576.835C606.702 578.055 607.569 579.338 608.371 580.685C609.173 582.033 609.879 583.412 610.488 584.824C611.13 586.268 611.643 587.744 612.06 589.22C612.509 590.727 612.83 592.235 613.055 593.775C613.312 595.315 613.44 596.887 613.472 598.427C613.504 600 613.44 601.54 613.28 603.112C613.087 604.652 612.83 606.192 612.477 607.7C612.092 609.207 611.643 610.683 611.098 612.159C610.52 613.603 609.879 615.014 609.141 616.394L608.948 616.683L396.046 993.72L862.052 512.541C863.973 510.584 865.162 508.242 865.674 505.547C866.191 502.82 865.902 500.221 864.842 497.687C863.752 495.152 862.082 493.131 859.772 491.623C857.493 490.115 854.992 489.345 852.233 489.345H669.136C666.12 489.345 663.169 488.992 660.249 488.254C657.33 487.516 654.571 486.425 651.908 485.014C649.277 483.57 646.839 481.838 644.625 479.816C642.411 477.763 640.486 475.485 638.85 472.983C637.214 470.448 635.898 467.785 634.936 464.93C633.941 462.107 633.332 459.187 633.075 456.172C632.85 453.188 632.947 450.204 633.46 447.253C633.941 444.269 634.807 441.414 635.995 438.654L636.251 438.109L804.592 86.1589L371.791 563.04Z" fill="#74B8FF"/>
</g>
<mask id="mask9_8_1409" style="mask-type:luminance" maskUnits="userSpaceOnUse" x="654" y="40" width="175" height="999">
<path d="M654.185 40H828.782V1038.2H654.185V40Z" fill="white"/>
</mask>
<g mask="url(#mask9_8_1409)">
<path d="M314.009 1037C305.828 1036.97 298.481 1034.43 292.001 1029.4C288.504 1026.83 285.616 1023.72 283.274 1020.09C280.932 1016.44 279.296 1012.52 278.398 1008.29C277.499 1004.05 277.371 999.821 278.013 995.552C278.654 991.283 280.034 987.242 282.119 983.454L282.312 983.171L498.518 600.322H292.354C288.792 600.322 285.328 599.809 281.927 598.782C278.526 597.756 275.35 596.248 272.398 594.291C269.446 592.334 266.816 589.959 264.57 587.232C262.292 584.505 260.463 581.489 259.084 578.217C257.704 574.945 256.838 571.544 256.453 568.015C256.068 564.486 256.228 560.989 256.87 557.492C257.511 553.995 258.666 550.69 260.303 547.546C261.939 544.37 263.992 541.515 266.463 538.98L705.678 54.9444L706.288 54.2707C709.271 51.287 712.672 48.9128 716.49 47.1162C720.308 45.3516 724.318 44.2608 728.521 43.8758C732.692 43.4587 736.83 43.8116 740.905 44.8704C745.012 45.9291 748.765 47.6295 752.263 50.0357C755.728 52.4099 758.711 55.2973 761.182 58.7302C763.652 62.131 765.449 65.8526 766.604 69.9272C767.791 73.9696 768.208 78.1083 767.919 82.3112C767.663 86.514 766.668 90.5244 764.968 94.4064L764.711 94.9518L593.933 452.099H775.33C780.335 452.131 785.212 452.837 789.992 454.281C794.803 455.725 799.263 457.842 803.433 460.601C807.604 463.361 811.263 466.665 814.472 470.515C817.65 474.333 820.244 478.568 822.172 483.187C824.131 487.775 825.381 492.556 825.923 497.528C826.471 502.501 826.28 507.442 825.35 512.351C824.451 517.26 822.843 521.944 820.564 526.371C818.254 530.831 815.371 534.841 811.903 538.435L339.419 1026.19L338.874 1026.73C331.976 1033.5 323.698 1036.94 314.009 1037ZM294.824 563.042H500.379C501.951 563.042 503.491 563.138 505.031 563.331C506.571 563.555 508.111 563.844 509.619 564.261C511.127 564.646 512.603 565.127 514.047 565.737C515.491 566.314 516.87 566.988 518.25 567.758C519.597 568.528 520.881 569.394 522.132 570.325C523.383 571.255 524.57 572.282 525.661 573.372C526.784 574.463 527.81 575.618 528.773 576.837C529.735 578.057 530.634 579.34 531.436 580.687C532.238 582.035 532.944 583.414 533.553 584.826C534.163 586.27 534.708 587.746 535.125 589.222C535.574 590.729 535.895 592.237 536.12 593.777C536.344 595.317 536.505 596.889 536.537 598.429C536.569 600.002 536.505 601.542 536.312 603.114C536.152 604.654 535.895 606.194 535.51 607.702C535.157 609.209 534.708 610.685 534.131 612.161C533.585 613.605 532.944 615.017 532.206 616.396L532.013 616.685L319.11 993.723L785.115 512.543C787.008 510.586 788.227 508.244 788.741 505.549C789.254 502.822 788.965 500.223 787.874 497.689C786.816 495.154 785.148 493.133 782.838 491.625C780.56 490.117 778.025 489.347 775.298 489.347H592.201C589.185 489.347 586.233 488.994 583.314 488.256C580.394 487.519 577.635 486.428 574.972 485.016C572.341 483.572 569.903 481.84 567.689 479.819C565.475 477.766 563.55 475.488 561.914 472.985C560.278 470.451 558.962 467.788 557.968 464.933C557.005 462.109 556.396 459.19 556.139 456.174C555.883 453.19 556.011 450.206 556.524 447.255C557.005 444.271 557.84 441.416 559.059 438.656L559.315 438.111L727.655 86.1611L294.824 563.042Z" fill="#594DE9"/>
</g>
<mask id="mask10_8_1409" style="mask-type:luminance" maskUnits="userSpaceOnUse" x="253" y="914" width="573" height="122">
<path d="M253.279 914.072H825.925V1035.89H253.279V914.072Z" fill="white"/>
</mask>
<g mask="url(#mask10_8_1409)">
<path d="M313.755 1037.01C305.541 1036.98 298.194 1034.45 291.713 1029.41C288.249 1026.84 285.329 1023.73 282.987 1020.1C280.645 1016.45 279.009 1012.53 278.111 1008.3C277.212 1004.06 277.084 999.833 277.726 995.564C278.367 991.264 279.747 987.254 281.832 983.466L282.025 983.182L498.232 600.334H292.066C288.537 600.334 285.04 599.821 281.64 598.794C278.239 597.768 275.063 596.26 272.111 594.303C269.16 592.346 266.561 589.971 264.283 587.244C262.005 584.517 260.208 581.501 258.797 578.229C257.417 574.956 256.551 571.556 256.166 568.026C255.781 564.497 255.941 561 256.583 557.503C257.225 554.006 258.38 550.702 260.016 547.557C261.652 544.381 263.706 541.526 266.176 538.992L705.391 54.9561L706 54.2824C708.984 51.2987 712.385 48.9245 716.203 47.1279C720.021 45.3633 724.031 44.2725 728.234 43.8875C732.405 43.4705 736.544 43.8234 740.65 44.8821C744.725 45.9408 748.479 47.6412 751.976 50.0474C755.441 52.4216 758.424 55.309 760.895 58.7419C763.365 62.1427 765.162 65.8643 766.317 69.9389C767.504 73.9813 767.921 78.12 767.632 82.3229C767.375 86.5258 766.381 90.5361 764.68 94.4182L764.424 94.9636L593.646 452.111H775.043C780.048 452.143 784.924 452.849 789.705 454.293C794.515 455.736 798.975 457.854 803.146 460.613C807.316 463.372 810.975 466.676 814.184 470.526C817.393 474.344 819.962 478.579 821.884 483.199C823.843 487.787 825.093 492.567 825.635 497.54C826.184 502.513 825.993 507.454 825.093 512.363C824.163 517.272 822.555 521.956 820.282 526.383C817.972 530.843 815.114 534.853 811.615 538.446L339.132 1026.2L338.587 1026.75C331.689 1033.52 323.412 1036.92 313.755 1037.01ZM294.569 563.053H500.093C501.665 563.053 503.205 563.15 504.745 563.342C506.285 563.567 507.825 563.856 509.333 564.241C510.84 564.658 512.316 565.139 513.76 565.748C515.204 566.326 516.583 567 517.963 567.77C519.31 568.54 520.593 569.406 521.845 570.336C523.096 571.267 524.283 572.294 525.374 573.384C526.497 574.475 527.523 575.63 528.518 576.849C529.48 578.069 530.346 579.352 531.148 580.699C531.951 582.047 532.656 583.426 533.266 584.838C533.876 586.282 534.421 587.758 534.838 589.234C535.287 590.741 535.608 592.249 535.833 593.789C536.057 595.329 536.218 596.901 536.25 598.441C536.282 600.014 536.218 601.554 536.025 603.126C535.865 604.666 535.608 606.206 535.255 607.713C534.87 609.221 534.421 610.697 533.843 612.173C533.298 613.617 532.656 615.028 531.918 616.408L531.726 616.696L318.824 993.734L784.828 512.555C786.721 510.598 787.94 508.256 788.454 505.561C788.967 502.834 788.678 500.235 787.587 497.701C786.529 495.166 784.86 493.145 782.55 491.637C780.272 490.129 777.738 489.359 775.011 489.359H591.914C588.898 489.359 585.947 489.006 583.027 488.268C580.107 487.53 577.348 486.439 574.685 485.028C572.054 483.584 569.616 481.852 567.402 479.83C565.189 477.777 563.264 475.499 561.627 472.997C559.991 470.462 558.676 467.799 557.681 464.944C556.719 462.121 556.109 459.201 555.852 456.185C555.596 453.202 555.724 450.218 556.237 447.267C556.719 444.283 557.585 441.428 558.772 438.668L559.029 438.123L727.368 86.1729L294.569 563.053Z" fill="#594DE9"/>
</g>
<mask id="mask11_8_1409" style="mask-type:luminance" maskUnits="userSpaceOnUse" x="537" y="308" width="292" height="194">
<path d="M537.851 308.305H828.78V501.187H537.851V308.305Z" fill="white"/>
</mask>
<g mask="url(#mask11_8_1409)">
<path d="M314.008 1037C305.827 1036.97 298.48 1034.43 291.999 1029.4C288.502 1026.83 285.614 1023.72 283.272 1020.09C280.93 1016.44 279.294 1012.52 278.396 1008.29C277.497 1004.05 277.369 999.821 278.011 995.552C278.652 991.283 280.032 987.242 282.117 983.454L282.31 983.171L498.517 600.322H292.352C288.791 600.322 285.326 599.809 281.925 598.782C278.524 597.756 275.348 596.248 272.396 594.291C269.445 592.334 266.814 589.959 264.568 587.232C262.29 584.505 260.462 581.489 259.082 578.217C257.703 574.945 256.836 571.544 256.451 568.015C256.066 564.486 256.227 560.989 256.868 557.492C257.51 553.995 258.665 550.69 260.301 547.546C261.937 544.37 263.991 541.515 266.461 538.98L705.677 54.9444L706.286 54.2707C709.27 51.287 712.671 48.9128 716.489 47.1162C720.307 45.3516 724.317 44.2608 728.52 43.8758C732.691 43.4587 736.829 43.8116 740.904 44.8704C745.01 45.9291 748.764 47.6295 752.261 50.0357C755.726 52.4099 758.709 55.2973 761.18 58.7302C763.65 62.131 765.447 65.8526 766.602 69.9272C767.789 73.9696 768.206 78.1083 767.917 82.3112C767.661 86.514 766.666 90.5244 764.966 94.4064L764.709 94.9518L593.931 452.099H775.328C780.333 452.131 785.21 452.837 789.991 454.281C794.802 455.725 799.261 457.842 803.432 460.601C807.602 463.361 811.261 466.665 814.47 470.515C817.649 474.333 820.242 478.568 822.17 483.187C824.129 487.775 825.38 492.556 825.922 497.528C826.47 502.501 826.279 507.442 825.349 512.351C824.449 517.26 822.842 521.944 820.562 526.371C818.253 530.831 815.37 534.841 811.902 538.435L339.418 1026.19L338.872 1026.73C331.975 1033.5 323.697 1036.94 314.008 1037ZM294.822 563.042H500.378C501.95 563.042 503.49 563.138 505.03 563.331C506.57 563.555 508.11 563.844 509.618 564.261C511.125 564.646 512.601 565.127 514.045 565.737C515.489 566.314 516.868 566.988 518.248 567.758C519.595 568.528 520.879 569.394 522.13 570.325C523.381 571.255 524.568 572.282 525.659 573.372C526.782 574.463 527.809 575.618 528.771 576.837C529.734 578.057 530.632 579.34 531.434 580.687C532.236 582.035 532.942 583.414 533.551 584.826C534.161 586.27 534.706 587.746 535.124 589.222C535.573 590.729 535.894 592.237 536.118 593.777C536.343 595.317 536.503 596.889 536.535 598.429C536.567 600.002 536.503 601.542 536.311 603.114C536.15 604.654 535.894 606.194 535.509 607.702C535.156 609.209 534.706 610.685 534.129 612.161C533.584 613.605 532.942 615.017 532.204 616.396L532.011 616.685L319.109 993.723L785.114 512.543C787.007 510.586 788.226 508.244 788.739 505.549C789.253 502.822 788.964 500.223 787.873 497.689C786.814 495.154 785.146 493.133 782.836 491.625C780.558 490.117 778.023 489.347 775.296 489.347H592.199C589.183 489.347 586.232 488.994 583.312 488.256C580.393 487.519 577.634 486.428 574.971 485.016C572.34 483.572 569.902 481.84 567.688 479.819C565.474 477.766 563.549 475.488 561.913 472.985C560.277 470.451 558.961 467.788 557.967 464.933C557.004 462.109 556.395 459.19 556.138 456.174C555.881 453.19 556.01 450.206 556.523 447.255C557.004 444.271 557.839 441.416 559.058 438.656L559.314 438.111L727.654 86.1611L294.822 563.042Z" fill="#594DE9"/>
</g>
<mask id="mask12_8_1409" style="mask-type:luminance" maskUnits="userSpaceOnUse" x="621" y="219" width="208" height="282">
<path d="M621.431 219.926H828.784V500.748H621.431V219.926Z" fill="white"/>
</mask>
<g mask="url(#mask12_8_1409)">
<path d="M314.013 1037.01C305.832 1036.98 298.484 1034.45 292.004 1029.41C288.507 1026.84 285.619 1023.73 283.277 1020.1C280.935 1016.45 279.299 1012.53 278.4 1008.3C277.502 1004.06 277.374 999.833 278.015 995.564C278.657 991.295 280.037 987.254 282.122 983.466L282.314 983.182L498.522 600.334H292.357C288.795 600.334 285.33 599.821 281.929 598.794C278.529 597.768 275.352 596.26 272.401 594.303C269.449 592.346 266.819 589.971 264.573 587.244C262.295 584.517 260.466 581.501 259.087 578.229C257.707 574.956 256.841 571.556 256.456 568.026C256.071 564.497 256.231 561 256.873 557.503C257.515 554.006 258.67 550.702 260.306 547.557C261.942 544.381 263.995 541.526 266.466 538.992L705.681 54.9561L706.291 54.2824C709.274 51.2987 712.675 48.9245 716.493 47.1279C720.311 45.3633 724.322 44.2725 728.524 43.8875C732.695 43.4705 736.834 43.8234 740.909 44.8821C745.015 45.9408 748.769 47.6412 752.266 50.0474C755.731 52.4216 758.714 55.309 761.185 58.7419C763.655 62.1427 765.452 65.8643 766.607 69.9389C767.794 73.9813 768.211 78.12 767.922 82.3229C767.665 86.5258 766.671 90.5361 764.97 94.4182L764.714 94.9636L593.936 452.111H775.333C780.338 452.143 785.215 452.849 789.995 454.293C794.806 455.736 799.266 457.854 803.436 460.613C807.606 463.372 811.265 466.676 814.475 470.526C817.653 474.344 820.247 478.579 822.175 483.199C824.133 487.787 825.384 492.567 825.926 497.54C826.474 502.513 826.283 507.454 825.353 512.363C824.454 517.272 822.846 521.956 820.573 526.383C818.263 530.843 815.374 534.853 811.906 538.446L339.422 1026.2L338.877 1026.75C331.979 1033.52 323.702 1036.95 314.013 1037.01ZM294.827 563.053H500.383C501.955 563.053 503.495 563.15 505.035 563.342C506.575 563.567 508.114 563.856 509.622 564.273C511.13 564.658 512.606 565.139 514.05 565.748C515.493 566.326 516.873 567 518.252 567.77C519.6 568.54 520.883 569.406 522.134 570.336C523.386 571.267 524.573 572.294 525.664 573.384C526.786 574.475 527.813 575.63 528.776 576.849C529.738 578.069 530.636 579.352 531.439 580.699C532.241 582.047 532.946 583.426 533.556 584.838C534.166 586.282 534.711 587.758 535.128 589.234C535.577 590.741 535.898 592.249 536.123 593.789C536.347 595.329 536.508 596.901 536.54 598.441C536.572 600.014 536.508 601.554 536.315 603.126C536.155 604.666 535.898 606.206 535.513 607.713C535.16 609.221 534.711 610.697 534.134 612.173C533.588 613.617 532.946 615.028 532.209 616.408L532.016 616.696L319.114 993.734L785.118 512.555C787.011 510.598 788.231 508.256 788.744 505.561C789.257 502.834 788.968 500.235 787.878 497.701C786.819 495.166 785.151 493.145 782.841 491.637C780.563 490.129 778.028 489.359 775.301 489.359H592.204C589.188 489.359 586.236 489.006 583.317 488.268C580.397 487.53 577.638 486.439 574.976 485.028C572.345 483.584 569.906 481.852 567.693 479.83C565.479 477.777 563.554 475.499 561.918 472.997C560.281 470.462 558.966 467.799 557.971 464.944C557.009 462.121 556.399 459.201 556.143 456.185C555.886 453.202 556.014 450.218 556.528 447.267C557.009 444.283 557.843 441.428 559.062 438.668L559.319 438.123L727.658 86.1729L294.827 563.053Z" fill="#594DE9"/>
</g>
<mask id="mask13_8_1409" style="mask-type:luminance" maskUnits="userSpaceOnUse" x="386" y="886" width="363" height="102">
<path d="M386.872 886.316H748.928V987.826H386.872V886.316Z" fill="white"/>
</mask>
<g mask="url(#mask13_8_1409)">
<path d="M318.472 1032.17C310.291 1032.14 302.944 1029.6 296.463 1024.56C292.966 1022 290.078 1018.88 287.736 1015.26C285.394 1011.6 283.758 1007.69 282.86 1003.45C281.961 999.22 281.833 994.982 282.475 990.719C283.116 986.419 284.464 982.409 286.581 978.621L286.774 978.331L502.948 595.487H296.816C293.255 595.487 289.79 594.973 286.389 593.947C282.988 592.92 279.812 591.412 276.86 589.455C273.908 587.498 271.278 585.124 269.032 582.397C266.754 579.67 264.925 576.654 263.545 573.382C262.166 570.109 261.3 566.708 260.915 563.179C260.53 559.65 260.69 556.153 261.332 552.656C261.973 549.159 263.128 545.854 264.765 542.678C266.401 539.534 268.454 536.678 270.925 534.144L710.14 50.1085L710.75 49.4348C713.734 46.451 717.134 44.0769 720.952 42.2803C724.77 40.5157 728.78 39.4249 732.951 39.0399C737.154 38.6228 741.292 38.9757 745.367 40.0344C749.474 41.0932 753.227 42.7936 756.725 45.1677C760.19 47.5739 763.173 50.4614 765.644 53.8622C768.114 57.2951 769.911 61.0167 771.066 65.0912C772.221 69.1337 772.67 73.2724 772.381 77.4752C772.125 81.6781 771.13 85.6884 769.43 89.5705L769.173 90.1159L598.395 447.263H779.792C784.797 447.263 789.674 448.001 794.454 449.445C799.235 450.888 803.725 453.006 807.895 455.765C812.066 458.524 815.725 461.829 818.934 465.679C822.112 469.497 824.675 473.732 826.634 478.32C828.593 482.94 829.843 487.72 830.385 492.693C830.934 497.666 830.743 502.607 829.812 507.515C828.913 512.424 827.305 517.108 825.026 521.535C822.716 525.995 819.833 530.005 816.365 533.598L343.849 1021.36L343.336 1021.87C336.438 1028.64 328.16 1032.07 318.472 1032.17ZM299.286 558.206H504.841C506.413 558.206 507.953 558.302 509.493 558.495C511.033 558.719 512.573 559.008 514.081 559.393C515.589 559.81 517.065 560.291 518.509 560.901C519.953 561.479 521.332 562.152 522.68 562.922C524.059 563.692 525.342 564.559 526.594 565.489C527.845 566.419 529.032 567.446 530.123 568.537C531.246 569.628 532.273 570.783 533.235 572.002C534.198 573.221 535.096 574.504 535.898 575.852C536.7 577.199 537.406 578.579 538.015 579.991C538.625 581.434 539.17 582.91 539.587 584.386C540.005 585.894 540.358 587.402 540.582 588.942C540.807 590.482 540.935 592.054 540.999 593.594C541.031 595.166 540.935 596.706 540.775 598.246C540.614 599.818 540.357 601.358 539.972 602.865C539.62 604.373 539.17 605.849 538.593 607.325C538.047 608.768 537.406 610.18 536.668 611.56L536.475 611.848L323.541 988.89L789.578 507.708C791.473 505.719 792.687 503.409 793.204 500.714C793.685 497.987 793.426 495.388 792.335 492.853C791.276 490.319 789.578 488.297 787.3 486.79C785.022 485.282 782.487 484.512 779.76 484.512H596.663C593.647 484.512 590.695 484.159 587.776 483.421C584.856 482.683 582.065 481.592 579.434 480.18C576.803 478.737 574.365 477.004 572.151 474.951C569.938 472.93 568.013 470.652 566.376 468.149C564.74 465.615 563.425 462.952 562.43 460.096C561.468 457.273 560.858 454.353 560.602 451.337C560.345 448.354 560.473 445.37 560.954 442.419C561.468 439.435 562.302 436.579 563.521 433.82L563.778 433.275L732.117 81.3252L299.286 558.206Z" fill="#594DE9"/>
</g>
<mask id="mask14_8_1409" style="mask-type:luminance" maskUnits="userSpaceOnUse" x="526" y="645" width="303" height="394">
<path d="M526.493 645.559H828.78V1038.09H526.493V645.559Z" fill="white"/>
</mask>
<g mask="url(#mask14_8_1409)">
<path d="M314.008 1037C305.827 1036.97 298.48 1034.43 291.999 1029.4C288.502 1026.83 285.614 1023.72 283.272 1020.09C280.93 1016.44 279.294 1012.52 278.396 1008.29C277.497 1004.05 277.369 999.819 278.011 995.55C278.652 991.281 280.032 987.24 282.117 983.452L282.31 983.169L498.517 600.32H292.352C288.791 600.32 285.326 599.807 281.925 598.78C278.524 597.754 275.348 596.246 272.396 594.289C269.445 592.332 266.846 589.957 264.568 587.23C262.29 584.503 260.462 581.487 259.082 578.215C257.703 574.943 256.836 571.542 256.451 568.013C256.066 564.484 256.227 560.987 256.868 557.49C257.51 553.993 258.665 550.688 260.301 547.544C261.937 544.368 263.991 541.513 266.461 538.978L705.677 54.9425L706.286 54.2687C709.27 51.285 712.671 48.9109 716.489 47.1143C720.307 45.3497 724.317 44.2589 728.52 43.8739C732.691 43.4568 736.829 43.8097 740.904 44.8684C745.01 45.9272 748.764 47.6276 752.261 50.0338C755.726 52.4079 758.709 55.2954 761.18 58.7282C763.65 62.1291 765.447 65.8507 766.602 69.9252C767.789 73.9676 768.206 78.1064 767.917 82.3092C767.661 86.5121 766.666 90.5224 764.966 94.4045L764.709 94.9499L593.931 452.097H775.328C780.333 452.129 785.21 452.835 789.991 454.279C794.802 455.723 799.261 457.84 803.432 460.599C807.602 463.359 811.261 466.663 814.47 470.513C817.649 474.331 820.242 478.566 822.17 483.186C824.129 487.773 825.38 492.554 825.922 497.526C826.47 502.499 826.279 507.44 825.349 512.349C824.449 517.258 822.842 521.942 820.562 526.369C818.253 530.829 815.37 534.839 811.902 538.433L339.418 1026.19L338.872 1026.73C331.975 1033.5 323.697 1036.94 314.008 1037ZM294.822 563.04H500.378C501.95 563.04 503.49 563.136 505.03 563.329C506.57 563.553 508.11 563.842 509.618 564.259C511.125 564.644 512.601 565.125 514.045 565.735C515.489 566.312 516.868 566.986 518.248 567.756C519.595 568.526 520.879 569.392 522.13 570.323C523.381 571.253 524.568 572.28 525.659 573.371C526.782 574.461 527.809 575.616 528.771 576.836C529.734 578.055 530.632 579.338 531.434 580.685C532.236 582.033 532.942 583.412 533.551 584.824C534.161 586.268 534.706 587.744 535.124 589.22C535.573 590.727 535.894 592.235 536.118 593.775C536.343 595.315 536.503 596.887 536.535 598.427C536.567 600 536.503 601.54 536.311 603.112C536.15 604.652 535.894 606.192 535.509 607.7C535.156 609.207 534.706 610.683 534.129 612.159C533.584 613.603 532.942 615.015 532.204 616.394L532.011 616.683L319.109 993.721L785.114 512.541C787.007 510.584 788.226 508.242 788.739 505.547C789.253 502.82 788.964 500.221 787.873 497.687C786.814 495.152 785.146 493.131 782.836 491.623C780.558 490.115 778.023 489.345 775.296 489.345H592.199C589.183 489.345 586.232 488.992 583.312 488.255C580.393 487.517 577.634 486.426 574.971 485.014C572.34 483.571 569.902 481.838 567.688 479.817C565.474 477.764 563.549 475.486 561.913 472.983C560.277 470.449 558.961 467.786 557.967 464.931C557.004 462.107 556.395 459.188 556.138 456.172C555.881 453.188 556.01 450.204 556.523 447.253C557.004 444.269 557.839 441.414 559.058 438.654L559.314 438.109L727.654 86.1592L294.822 563.04Z" fill="#594DE9"/>
</g>
<mask id="mask15_8_1409" style="mask-type:luminance" maskUnits="userSpaceOnUse" x="415" y="858" width="414" height="180">
<path d="M415.169 858.404H828.784V1037.75H415.169V858.404Z" fill="white"/>
</mask>
<g mask="url(#mask15_8_1409)">
<path d="M314.012 1037.01C305.831 1036.98 298.484 1034.45 292.004 1029.41C288.507 1026.84 285.619 1023.73 283.277 1020.1C280.935 1016.45 279.299 1012.53 278.401 1008.3C277.502 1004.06 277.374 999.833 278.016 995.564C278.657 991.295 280.037 987.254 282.122 983.466L282.315 983.182L498.521 600.334H292.356C288.795 600.334 285.33 599.821 281.93 598.794C278.529 597.768 275.353 596.26 272.401 594.303C269.449 592.346 266.819 589.971 264.573 587.244C262.295 584.517 260.466 581.501 259.087 578.229C257.707 574.956 256.841 571.556 256.456 568.026C256.071 564.497 256.231 561 256.873 557.503C257.514 554.006 258.669 550.702 260.306 547.557C261.942 544.381 263.995 541.526 266.466 538.992L705.681 54.9561L706.29 54.2824C709.274 51.2987 712.675 48.9245 716.493 47.1279C720.311 45.3633 724.321 44.2725 728.524 43.8875C732.695 43.4705 736.833 43.8234 740.908 44.8821C745.015 45.9408 748.768 47.6412 752.266 50.0474C755.731 52.4216 758.714 55.309 761.185 58.7419C763.655 62.1427 765.452 65.8643 766.607 69.9389C767.794 73.9813 768.211 78.12 767.922 82.3229C767.665 86.5258 766.671 90.5361 764.971 94.4182L764.714 94.9636L593.936 452.111H775.333C780.338 452.143 785.214 452.849 789.995 454.293C794.806 455.736 799.266 457.854 803.436 460.613C807.606 463.372 811.265 466.676 814.475 470.526C817.653 474.344 820.247 478.579 822.175 483.199C824.133 487.787 825.384 492.567 825.926 497.54C826.474 502.513 826.283 507.454 825.353 512.363C824.454 517.272 822.846 521.956 820.567 526.383C818.257 530.843 815.374 534.853 811.906 538.446L339.422 1026.2L338.877 1026.75C331.979 1033.52 323.701 1036.95 314.012 1037.01ZM294.827 563.053H500.382C501.954 563.053 503.494 563.15 505.034 563.342C506.574 563.567 508.114 563.856 509.622 564.273C511.13 564.658 512.606 565.139 514.05 565.748C515.494 566.326 516.873 567 518.253 567.77C519.6 568.54 520.884 569.406 522.135 570.336C523.386 571.267 524.573 572.294 525.664 573.384C526.787 574.475 527.813 575.63 528.776 576.849C529.738 578.069 530.637 579.352 531.439 580.699C532.241 582.047 532.947 583.426 533.556 584.838C534.166 586.282 534.711 587.758 535.128 589.234C535.577 590.741 535.898 592.249 536.123 593.789C536.347 595.329 536.508 596.901 536.54 598.441C536.572 600.014 536.508 601.554 536.315 603.126C536.155 604.666 535.898 606.206 535.513 607.713C535.16 609.221 534.711 610.697 534.134 612.173C533.588 613.617 532.947 615.028 532.209 616.408L532.016 616.696L319.113 993.734L785.118 512.555C787.011 510.598 788.23 508.256 788.744 505.561C789.257 502.834 788.968 500.235 787.877 497.701C786.819 495.166 785.15 493.145 782.84 491.637C780.562 490.129 778.028 489.359 775.301 489.359H592.204C589.188 489.359 586.236 489.006 583.317 488.268C580.397 487.53 577.638 486.439 574.975 485.028C572.344 483.584 569.906 481.852 567.692 479.83C565.478 477.777 563.553 475.499 561.917 472.997C560.281 470.462 558.965 467.799 557.971 464.944C557.008 462.121 556.399 459.201 556.142 456.185C555.885 453.202 556.014 450.218 556.527 447.267C557.008 444.283 557.843 441.428 559.062 438.668L559.318 438.123L727.658 86.1729L294.827 563.053Z" fill="#594DE9"/>
</g>
<mask id="mask16_8_1409" style="mask-type:luminance" maskUnits="userSpaceOnUse" x="480" y="775" width="346" height="265">
<path d="M480.167 775.281H825.923V1039.19H480.167V775.281Z" fill="white"/>
</mask>
<g mask="url(#mask16_8_1409)">
<path d="M312.021 1039C303.808 1038.97 296.461 1036.43 289.98 1031.4C286.515 1028.83 283.595 1025.72 281.253 1022.09C278.911 1018.44 277.275 1014.52 276.376 1010.29C275.478 1006.05 275.35 1001.82 275.991 997.551C276.633 993.251 278.013 989.241 280.098 985.453L280.291 985.169L496.497 602.321H290.333C286.804 602.321 283.306 601.807 279.906 600.781C276.505 599.754 273.329 598.246 270.377 596.289C267.425 594.332 264.826 591.958 262.549 589.231C260.271 586.504 258.474 583.488 257.094 580.215C255.683 576.943 254.816 573.542 254.431 570.013C254.046 566.484 254.207 562.986 254.849 559.489C255.522 555.992 256.645 552.688 258.281 549.512C259.918 546.368 261.971 543.512 264.441 540.978L703.657 56.9425L704.267 56.2687C707.251 53.285 710.651 50.9109 714.469 49.1142C718.287 47.3497 722.297 46.2588 726.5 45.8739C730.671 45.4568 734.809 45.8097 738.916 46.8684C742.99 47.9272 746.776 49.6276 750.241 52.0017C753.706 54.4079 756.69 57.2954 759.16 60.6962C761.631 64.129 763.428 67.8507 764.583 71.9252C765.77 75.9677 766.187 80.1063 765.93 84.3093C765.641 88.5121 764.647 92.5225 762.946 96.4045L762.69 96.9499L591.912 454.097H773.309C778.314 454.097 783.191 454.835 787.971 456.279C792.783 457.723 797.243 459.84 801.413 462.599C805.583 465.358 809.242 468.663 812.452 472.513C815.661 476.33 818.224 480.565 820.152 485.153C822.104 489.773 823.361 494.554 823.903 499.527C824.451 504.5 824.254 509.44 823.361 514.349C822.431 519.258 820.823 523.942 818.544 528.37C816.234 532.829 813.382 536.839 809.883 540.432L337.398 1028.19L336.853 1028.7C329.955 1035.47 321.678 1038.9 312.021 1039ZM292.835 565.04H498.358C499.93 565.04 501.47 565.136 503.01 565.329C504.55 565.553 506.09 565.842 507.598 566.227C509.106 566.644 510.582 567.125 512.026 567.735C513.469 568.312 514.849 568.986 516.228 569.756C517.576 570.526 518.859 571.392 520.111 572.323C521.362 573.253 522.549 574.28 523.64 575.371C524.763 576.462 525.789 577.617 526.784 578.836C527.746 580.055 528.613 581.338 529.415 582.686C530.217 584.033 530.923 585.413 531.532 586.824C532.142 588.268 532.687 589.744 533.104 591.22C533.553 592.728 533.874 594.236 534.099 595.776C534.356 597.316 534.484 598.888 534.516 600.428C534.548 602 534.484 603.54 534.291 605.08C534.131 606.652 533.874 608.192 533.521 609.7C533.136 611.208 532.687 612.683 532.11 614.159C531.564 615.603 530.923 617.015 530.185 618.394L529.992 618.683L317.09 995.721L783.095 514.542C784.988 512.552 786.207 510.242 786.72 507.547C787.233 504.82 786.945 502.222 785.854 499.687C784.795 497.152 783.127 495.131 780.817 493.623C778.539 492.115 776.004 491.345 773.277 491.345H590.18C587.164 491.345 584.212 490.992 581.292 490.255C578.373 489.517 575.614 488.426 572.951 487.014C570.32 485.57 567.882 483.838 565.668 481.785C563.455 479.763 561.53 477.485 559.893 474.983C558.257 472.448 556.942 469.786 555.947 466.93C554.985 464.107 554.375 461.188 554.119 458.172C553.862 455.188 553.99 452.204 554.504 449.253C554.985 446.269 555.851 443.414 557.038 440.655L557.295 440.109L725.634 88.1592L292.835 565.04Z" fill="#594DE9"/>
</g>
<mask id="mask17_8_1409" style="mask-type:luminance" maskUnits="userSpaceOnUse" x="438" y="822" width="391" height="217">
<path d="M438.077 822.406H828.783V1038.19H438.077V822.406Z" fill="white"/>
</mask>
<g mask="url(#mask17_8_1409)">
<path d="M314.011 1037C305.83 1036.97 298.483 1034.43 292.002 1029.4C288.505 1026.83 285.617 1023.72 283.275 1020.09C280.933 1016.44 279.297 1012.52 278.399 1008.29C277.5 1004.05 277.372 999.819 278.014 995.55C278.655 991.281 280.035 987.24 282.12 983.489L282.313 983.169L498.52 600.32H292.355C288.794 600.32 285.329 599.807 281.928 598.78C278.527 597.754 275.351 596.246 272.399 594.289C269.447 592.332 266.849 589.957 264.571 587.23C262.293 584.503 260.464 581.487 259.085 578.215C257.705 574.942 256.839 571.542 256.454 568.012C256.069 564.483 256.23 560.986 256.871 557.489C257.513 553.992 258.668 550.688 260.304 547.544C261.94 544.367 263.993 541.512 266.464 538.978L705.68 54.9422L706.289 54.2685C709.273 51.2848 712.674 48.9107 716.492 47.114C720.31 45.3495 724.32 44.2586 728.523 43.8737C732.694 43.4887 736.832 43.8095 740.907 44.8682C745.013 45.927 748.767 47.6273 752.264 50.0336C755.729 52.4077 758.712 55.2952 761.183 58.7281C763.653 62.1288 765.45 65.8505 766.605 69.925C767.792 73.9675 768.209 78.1061 767.92 82.309C767.664 86.5118 766.669 90.5223 764.969 94.4043L764.712 94.9497L593.934 452.097H775.331C780.336 452.129 785.213 452.835 789.994 454.279C794.805 455.723 799.264 457.84 803.435 460.599C807.605 463.358 811.264 466.663 814.473 470.513C817.652 474.33 820.245 478.565 822.173 483.185C824.132 487.773 825.383 492.553 825.925 497.526C826.473 502.499 826.282 507.44 825.352 512.349C824.452 517.258 822.845 521.942 820.565 526.369C818.255 530.829 815.373 534.839 811.905 538.432L339.421 1026.19L338.875 1026.73C331.978 1033.5 323.7 1036.94 314.011 1037ZM294.825 563.04H500.381C501.953 563.04 503.493 563.136 505.033 563.328C506.573 563.553 508.113 563.842 509.62 564.259C511.128 564.644 512.604 565.125 514.048 565.735C515.492 566.312 516.871 566.986 518.251 567.756C519.598 568.526 520.882 569.392 522.133 570.322C523.384 571.253 524.571 572.28 525.662 573.37C526.785 574.461 527.812 575.616 528.774 576.835C529.737 578.055 530.635 579.338 531.437 580.685C532.239 582.033 532.945 583.412 533.554 584.824C534.164 586.268 534.709 587.744 535.127 589.22C535.576 590.727 535.897 592.235 536.121 593.775C536.346 595.315 536.506 596.887 536.538 598.427C536.57 600 536.506 601.54 536.314 603.112C536.153 604.652 535.897 606.192 535.512 607.7C535.159 609.207 534.709 610.683 534.132 612.159C533.587 613.603 532.945 615.014 532.207 616.394L532.014 616.683L319.112 993.72L785.117 512.541C787.01 510.584 788.229 508.242 788.742 505.547C789.256 502.82 788.967 500.221 787.876 497.687C786.817 495.152 785.149 493.131 782.839 491.623C780.561 490.115 778.026 489.345 775.299 489.345H592.202C589.186 489.345 586.235 488.992 583.315 488.254C580.396 487.516 577.636 486.425 574.974 485.014C572.343 483.57 569.905 481.838 567.691 479.816C565.477 477.763 563.552 475.485 561.916 472.983C560.28 470.448 558.964 467.785 557.97 464.93C557.007 462.107 556.398 459.187 556.141 456.172C555.884 453.188 556.013 450.204 556.526 447.253C557.007 444.269 557.842 441.414 559.061 438.654L559.317 438.109L727.657 86.1589L294.825 563.04Z" fill="#594DE9"/>
</g>
<mask id="mask18_8_1409" style="mask-type:luminance" maskUnits="userSpaceOnUse" x="174" y="41" width="576" height="999">
<path d="M174 41.9609H749.247V1040H174V41.9609Z" fill="white"/>
</mask>
<g mask="url(#mask18_8_1409)">
<path d="M234.476 1039C226.262 1038.97 218.916 1036.43 212.435 1031.4C208.97 1028.83 206.05 1025.72 203.708 1022.09C201.366 1018.44 199.762 1014.52 198.864 1010.29C197.933 1006.05 197.805 1001.82 198.447 997.551C199.088 993.251 200.468 989.241 202.585 985.453L202.746 985.169L418.953 602.321H212.82C209.259 602.321 205.794 601.807 202.393 600.781C198.992 599.754 195.816 598.246 192.864 596.289C189.88 594.332 187.282 591.958 185.004 589.231C182.758 586.504 180.929 583.488 179.55 580.215C178.17 576.943 177.272 573.542 176.919 570.013C176.534 566.484 176.662 562.986 177.304 559.489C177.978 555.992 179.133 552.688 180.737 549.512C182.373 546.368 184.426 543.512 186.897 540.978L626.112 56.9425L626.754 56.2687C629.738 53.285 633.138 50.9109 636.924 49.1142C640.742 47.3497 644.753 46.2588 648.955 45.8739C653.158 45.4568 657.297 45.8097 661.371 46.8684C665.446 47.9272 669.232 49.6276 672.697 52.0017C676.194 54.4079 679.145 57.2954 681.615 60.6962C684.086 64.129 685.915 67.8507 687.07 71.9252C688.225 75.9677 688.674 80.1063 688.385 84.3093C688.096 88.5121 687.102 92.5225 685.433 96.4045L685.177 96.9499L514.399 454.097H695.796C700.769 454.097 705.678 454.835 710.458 456.279C715.239 457.723 719.73 459.84 723.869 462.599C728.04 465.358 731.729 468.663 734.906 472.513C738.114 476.33 740.681 480.565 742.638 485.153C744.595 489.773 745.814 494.554 746.359 499.527C746.905 504.5 746.712 509.44 745.814 514.349C744.883 519.258 743.311 523.942 741.001 528.37C738.724 532.829 735.836 536.839 732.371 540.432L259.853 1028.19L259.308 1028.7C252.41 1035.47 244.133 1038.9 234.476 1039ZM215.29 565.04H420.846C422.386 565.04 423.958 565.136 425.498 565.329C427.038 565.553 428.545 565.842 430.053 566.227C431.561 566.644 433.037 567.125 434.481 567.735C435.924 568.312 437.336 568.986 438.683 569.756C440.031 570.526 441.346 571.392 442.598 572.323C443.817 573.253 445.004 574.28 446.127 575.371C447.25 576.462 448.276 577.617 449.239 578.836C450.201 580.055 451.067 581.338 451.87 582.686C452.672 584.033 453.377 585.413 454.019 586.824C454.629 588.268 455.142 589.744 455.591 591.22C456.008 592.728 456.329 594.236 456.586 595.776C456.81 597.316 456.939 598.888 456.971 600.428C457.003 602 456.939 603.54 456.778 605.08C456.618 606.652 456.329 608.192 455.976 609.7C455.623 611.208 455.142 612.683 454.597 614.159C454.019 615.603 453.377 617.015 452.64 618.394L452.479 618.683L239.545 995.721L705.549 514.542C707.474 512.552 708.694 510.242 709.175 507.547C709.688 504.82 709.399 502.222 708.341 499.687C707.25 497.152 705.582 495.131 703.304 493.623C700.994 492.115 698.491 491.345 695.732 491.345H512.635C509.619 491.345 506.667 490.992 503.748 490.255C500.861 489.517 498.069 488.426 495.439 487.014C492.776 485.57 490.37 483.838 488.156 481.785C485.942 479.763 484.017 477.485 482.349 474.983C480.712 472.448 479.397 469.786 478.435 466.93C477.44 464.107 476.83 461.188 476.606 458.172C476.349 455.188 476.477 452.204 476.959 449.253C477.44 446.269 478.306 443.414 479.525 440.655L479.782 440.109L648.121 88.1592L215.29 565.04Z" fill="#FFB902"/>
</g>
</svg>
