<svg width="1080" height="1080" viewBox="0 0 1080 1080" fill="none" xmlns="http://www.w3.org/2000/svg">
<path d="M915.241 424.424L785.542 551.092C792.66 574.252 796.357 598.551 796.357 623.407C796.357 690.16 769.75 752.939 721.402 800.147C673.081 847.356 608.802 873.351 540.463 873.351C472.124 873.351 407.845 847.356 359.524 800.147C311.203 752.939 284.569 690.188 284.569 623.407C284.569 598.551 288.266 574.252 295.384 551.092L165.685 424.424C132.739 483.56 114 551.37 114 623.434C114 853.5 304.948 1040 540.491 1040C776.034 1040 966.982 853.5 966.982 623.434C966.982 551.37 948.243 483.56 915.269 424.452L915.241 424.424Z" fill="#0657F9"/>
<path d="M455.191 706.76H625.788V441.635L916.185 157.883L795.522 40.0556L540.573 289.194L285.429 40L164.794 157.827L455.191 441.469V706.76Z" fill="#0657F9"/>
</svg>
