<svg width="1080" height="1080" viewBox="0 0 1080 1080" fill="none" xmlns="http://www.w3.org/2000/svg">
<path fill-rule="evenodd" clip-rule="evenodd" d="M780.53 278C637.23 278 521.06 395.302 521.06 540.001C521.06 684.7 637.23 802 780.53 802C923.83 802 1040 684.7 1040 540.001C1040 395.302 923.83 278 780.53 278ZM42.7656 329.845C34.8881 316.011 44.7772 298.751 60.5806 298.751L224.847 298.751H382.398L521.564 298.751C536.222 298.751 546.167 313.804 540.539 327.47L356.771 773.606C353.582 781.345 346.097 786.389 337.797 786.389H156.032C141.374 786.389 131.429 771.337 137.058 757.671L191.957 624.393C196.862 612.482 196.005 598.949 189.638 587.767L42.7656 329.845ZM553.649 294.43C553.649 294.258 553.823 294.141 553.98 294.207C554.104 294.258 554.16 294.4 554.11 294.523C554.009 294.767 553.649 294.694 553.649 294.43Z" fill="#FEFEFE"/>
</svg>
