<?xml version="1.0" encoding="UTF-8"?><svg id="Layer_1" xmlns="http://www.w3.org/2000/svg" viewBox="0 0 1120 140"><defs><style>.cls-1{fill:#fff;}</style></defs><path class="cls-1" d="M89.9,79.88h50.1v-19.73h-50.1c10.92-10.82,21.74-21.74,32.61-32.61l-13.94-13.97c-10.87,10.87-21.79,21.69-32.58,32.64V0h-20.14v56.04h27.92v27.92h-27.92v56.04h20.14v-46.1l32.61,32.54,13.94-13.97c-10.87-10.87-21.7-21.78-32.64-32.58Z"/><path class="cls-1" d="M0,56.04h27.92v27.92H0v-27.92Z"/><path class="cls-1" d="M1120,124.13h-72.45V15.85h70.74v16.55h-52.43v26.45h44.21v16.71h-44.21v32.02h54.14v16.55Z"/><path class="cls-1" d="M1017.19,15.85v16.55h-31.65v91.73h-18.3V32.4h-31.65V15.85h81.6Z"/><path class="cls-1" d="M929.78,124.13h-18.62l-7.6-25.06h-39.25l-7.76,25.06h-18.62l35.22-108.29h21.41l35.21,108.29ZM884.01,34.87l-14.58,47.49h29.01l-14.43-47.49Z"/><path class="cls-1" d="M773.95,126c-8.79,0-16.39-2.22-22.8-6.65-6.41-4.54-11.32-11.03-14.74-19.49-3.31-8.46-4.96-18.41-4.96-29.86s1.65-21.4,4.96-29.86c3.41-8.46,8.32-14.9,14.74-19.34,6.41-4.54,14.01-6.81,22.8-6.81,11.48,0,20.79,3.45,27.92,10.36,7.14,6.81,11.69,16.45,13.65,28.93h-18.93c-1.24-7.43-3.72-13.05-7.45-16.86-3.62-3.92-8.69-5.88-15.2-5.88-7.76,0-13.7,3.45-17.84,10.36-4.14,6.81-6.21,16.5-6.21,29.08s2.07,22.33,6.21,29.24c4.14,6.81,10.08,10.21,17.84,10.21,6.83,0,12.05-2.06,15.67-6.19,3.72-4.13,6.21-10.26,7.45-18.41h18.62c-1.55,12.99-5.95,23.1-13.19,30.32-7.24,7.22-16.75,10.83-28.54,10.83Z"/><path class="cls-1" d="M699.86,124.13h-70.12v-16.55h25.91V32.4h-25.91V15.85h70.12v16.55h-25.91v75.18h25.91v16.55Z"/><path class="cls-1" d="M520.2,124.13V15.85h31.18c9.83,0,18.31,2.11,25.44,6.34,7.14,4.23,12.62,10.42,16.44,18.56,3.93,8.04,5.9,17.79,5.9,29.24s-1.97,21.24-5.9,29.39c-3.83,8.04-9.31,14.18-16.44,18.41s-15.62,6.34-25.44,6.34h-31.18ZM551.38,107.58c9.41,0,16.65-3.15,21.72-9.44,5.07-6.29,7.6-15.68,7.6-28.15s-2.53-21.86-7.6-28.15c-5.07-6.29-12.31-9.44-21.72-9.44h-12.88v75.18h12.88Z"/><path class="cls-1" d="M485.81,124.13h-72.45V15.85h70.74v16.55h-52.43v26.45h44.21v16.71h-44.21v32.02h54.14v16.55Z"/><path class="cls-1" d="M381.93,124.13h-19.86l-23.42-45.17h-16.44v45.17h-18.15V15.85h37.23c12,0,20.99,2.78,26.99,8.35,6.1,5.57,9.15,13.41,9.15,23.51,0,7.43-1.71,13.61-5.12,18.56-3.31,4.95-8.38,8.46-15.2,10.52l24.82,47.34ZM322.21,32.4v30.48h18.93c5.89,0,10.39-1.24,13.5-3.71,3.1-2.58,4.65-6.39,4.65-11.45s-1.55-8.87-4.65-11.45c-3.1-2.58-7.6-3.87-13.5-3.87h-18.93Z"/><path class="cls-1" d="M196,124.13V15.85h38.94c12.31,0,21.51,2.89,27.61,8.66,6.21,5.78,9.31,13.92,9.31,24.44s-3.1,18.67-9.31,24.44c-6.1,5.67-15.31,8.51-27.61,8.51h-20.79v42.23h-18.15ZM234.78,65.35c6.21,0,10.91-1.39,14.12-4.18,3.21-2.78,4.81-6.86,4.81-12.22s-1.6-9.59-4.81-12.38c-3.21-2.78-7.91-4.18-14.12-4.18h-20.63v32.95h20.63Z"/></svg>