<?xml version="1.0" encoding="UTF-8"?>
<svg xmlns="http://www.w3.org/2000/svg" version="1.1" viewBox="0 0 616 616">
  <!-- Generator: Adobe Illustrator 28.7.2, SVG Export Plug-In . SVG Version: 1.2.0 Build 154)  -->
  <g>
    <g id="Layer_1">
      <g>
        <path d="M290.9,281.6l-33.4-6.1c-14.7-3-25.8-9.1-25.8-22.7s13.6-22.2,30.8-22.2,33.4,12.1,35.9,32.3l65.2-11.1c-7.6-47.5-44.5-75.8-97.5-75.8s-101.1,28.3-101.1,78.3,30.3,67.2,76.8,78.3l30.3,6.1c14.2,3,27.8,9.6,27.8,23.8s-12.6,22.7-33.9,22.7-36.9-11.1-39.9-32.8l-65.2,11.6c8.6,47,51.5,74.8,105.1,74.8s104.6-28.8,104.6-79.8-30.8-66.2-79.8-77.3Z"/>
        <path d="M413.7,397.1c-23.3,0-42.1,18.9-42.1,42.1h84.2c0-23.3-18.9-42.1-42.1-42.1Z"/>
      </g>
    </g>
  </g>
</svg>