<svg width="277" height="58" viewBox="0 0 277 58" fill="none" xmlns="http://www.w3.org/2000/svg">
<path fill-rule="evenodd" clip-rule="evenodd" d="M28.8477 51.8454L10.3857 46.5465C9.21788 46.2113 8.41325 45.1433 8.41325 43.9283V25.5654C8.41325 23.7544 10.1476 22.4477 11.8883 22.9471L30.3504 28.2438C31.5183 28.5789 32.3231 29.6471 32.3231 30.8621V49.2272C32.3231 51.0383 30.5885 52.3451 28.8477 51.8454ZM21.6819 44.6294C21.7602 44.742 21.8704 44.8262 21.9859 44.8615L23.9198 45.4527C24.2802 45.5629 24.4682 45.172 24.224 44.8201L19.8891 38.5751C20.6728 37.9497 21.1299 36.8602 21.1735 35.6898C21.2388 33.6156 19.5408 30.8201 17.3422 30.1479L10.0823 27.9283L12.0345 30.7426C12.323 31.1585 12.7285 31.469 13.1545 31.5992L16.5179 32.6275C17.5645 32.9475 18.3435 33.7775 18.3435 34.8246C18.3435 35.8717 17.5816 36.4128 16.5179 36.0875L15.5365 35.7875L21.6819 44.6294ZM23.0456 39.4946L27.7555 33.5247C27.8322 33.4275 27.9615 33.3946 28.1 33.4369L30.3266 34.1176C30.657 34.2187 30.854 34.6642 30.6705 34.8955L26.2456 40.4729L30.4855 46.7397C30.7233 47.0911 30.5341 47.4749 30.1768 47.3657L28.2551 46.7782C28.1398 46.7429 28.0296 46.6589 27.9514 46.5463L23.0456 39.4946ZM10.3233 34.1937C9.94414 34.0778 9.74619 34.4889 10.0029 34.8592L15.1262 42.2496C15.4147 42.6658 15.8214 42.9768 16.2477 43.1071L18.6265 43.8344L12.3571 34.8155L10.3233 34.1937Z" fill="#15B79E"/>
<path fill-rule="evenodd" clip-rule="evenodd" d="M50.3976 8.61799C52.2197 9.13566 53.4768 10.7997 53.4768 12.6939V39.5152L53.4758 40.3694C53.4734 42.2924 52.7086 44.136 51.349 45.496L43.7922 53.0551C42.267 54.5807 39.6586 53.5005 39.6586 51.3432V48.6857C39.6586 48.024 40.1904 47.4887 40.8503 47.4415C43.4419 47.2559 45.9494 46.5888 47.9391 45.4404C49.346 44.6282 50.3356 43.6661 50.9084 42.6435L50.9255 42.6476C51.0195 42.4824 51.1052 42.3157 51.1815 42.1481C51.253 41.9909 51.3156 41.8324 51.3688 41.6731C51.4634 41.3888 51.5267 41.1018 51.5503 40.8136V14.3415C51.5503 13.2629 50.2463 12.7228 49.4836 13.4854L39.3484 23.6209C38.3268 24.6425 37.7528 26.0282 37.7528 27.473V52.6856C37.7528 55.9001 34.6784 58.2224 31.5864 57.3436L9.15087 50.9667C6.02776 50.079 3.87305 47.2265 3.87305 43.9797V18.5997C3.87305 16.6732 4.63835 14.8256 6.0006 13.4634L16.5799 2.88422C18.4425 1.02167 21.1675 0.313417 23.7013 1.03329L50.3976 8.61799ZM45.8303 9.32719C47.6075 9.83234 48.1869 12.0618 46.8804 13.3683L39.2028 21.0459C37.961 22.2877 36.1442 22.7598 34.4549 22.2798L21.5229 18.6047V4.82225C21.5229 3.61681 22.6758 2.74592 23.8353 3.07549L45.8303 9.32719ZM19.597 6.9748V18.0574L11.5163 15.7608C9.73885 15.2556 9.15957 13.0258 10.4664 11.7194L16.4972 5.69053C17.6413 4.54684 19.597 5.35711 19.597 6.9748ZM34.1391 49.2272C34.1391 52.2457 31.2481 54.4236 28.3468 53.5909L9.88471 48.292C7.93837 47.7333 6.59731 45.9532 6.59731 43.9283V25.5654C6.59731 22.5471 9.48792 20.3692 12.3891 21.2016L30.8512 26.4983C32.7978 27.0568 34.1391 28.837 34.1391 30.8621V49.2272Z" fill="#15B79E"/>
<path d="M46.8651 44.8203C45.163 45.8029 43.0277 46.3828 40.8144 46.5597C40.1418 46.6135 39.5895 46.0647 39.5895 45.39V43.4201C39.5895 42.7568 40.1236 42.2208 40.7853 42.1756C43.3997 41.9967 45.9327 41.3281 47.9391 40.1699C48.5976 39.7898 49.1645 39.3766 49.6404 38.9398C50.5507 40.9747 49.625 43.2266 46.8651 44.8203Z" fill="#15B79E"/>
<path d="M46.8651 39.5498C45.1631 40.5324 43.0278 41.1123 40.8145 41.2894C40.1419 41.3432 39.5895 40.7945 39.5895 40.1197V38.7697C39.5895 38.1065 40.1236 37.5705 40.7853 37.5252C43.3997 37.3464 45.9327 36.678 47.9391 35.5195C48.6792 35.0924 49.304 34.6237 49.813 34.1265C50.4029 36.0356 49.4199 38.0747 46.8651 39.5498Z" fill="#15B79E"/>
<path d="M46.8651 34.8994C45.3201 35.7913 43.4182 36.3514 41.425 36.5797C40.4193 36.6949 39.5878 35.8684 39.5546 34.8567C39.5407 34.4303 39.524 34.0017 39.5073 33.5745C39.2706 27.5044 39.0444 21.704 46.8651 26.219C51.0171 28.6161 51.0171 32.5024 46.8651 34.8994Z" fill="#15B79E"/>
<path d="M269.587 40.8419C268.052 40.8419 266.684 40.4778 265.483 39.7494C264.282 39.0211 263.338 38.0271 262.649 36.7673C261.96 35.4879 261.615 34.0608 261.615 32.486C261.615 30.8916 261.95 29.4744 262.619 28.2343C263.308 26.9942 264.233 26.0198 265.395 25.3112C266.576 24.5829 267.894 24.2188 269.351 24.2188C270.532 24.2188 271.575 24.4353 272.481 24.8683C273.406 25.2817 274.183 25.8525 274.813 26.5808C275.463 27.2895 275.955 28.1063 276.29 29.0315C276.644 29.937 276.821 30.8818 276.821 31.866C276.821 32.0825 276.801 32.3286 276.762 32.6041C276.742 32.86 276.713 33.1061 276.674 33.3423H263.623V30.9802H275.079L273.78 32.0432C273.957 31.0196 273.859 30.1043 273.485 29.2972C273.111 28.4902 272.56 27.8505 271.831 27.378C271.103 26.9056 270.276 26.6694 269.351 26.6694C268.426 26.6694 267.579 26.9056 266.812 27.378C266.044 27.8505 265.444 28.5296 265.011 29.4153C264.597 30.2814 264.43 31.3148 264.509 32.5156C264.43 33.6769 264.607 34.7005 265.04 35.5863C265.493 36.4524 266.123 37.1315 266.93 37.6236C267.757 38.096 268.652 38.3322 269.617 38.3322C270.68 38.3322 271.575 38.0861 272.304 37.594C273.032 37.1019 273.622 36.4721 274.075 35.7044L276.378 36.8854C276.063 37.6137 275.571 38.283 274.902 38.8932C274.252 39.4837 273.475 39.9561 272.569 40.3104C271.684 40.6648 270.69 40.8419 269.587 40.8419Z" fill="#F7F7F7"/>
<path d="M251.855 40.8419C250.3 40.8419 248.913 40.4778 247.692 39.7494C246.491 39.0211 245.547 38.0271 244.858 36.7673C244.169 35.5075 243.824 34.0903 243.824 32.5156C243.824 30.9212 244.169 29.5039 244.858 28.2638C245.547 27.0237 246.491 26.0395 247.692 25.3112C248.913 24.5829 250.3 24.2188 251.855 24.2188C252.899 24.2188 253.873 24.4057 254.778 24.7797C255.684 25.1537 256.481 25.6557 257.17 26.2856C257.859 26.9155 258.361 27.6536 258.676 28.5L256.225 29.6811C255.851 28.8543 255.28 28.1851 254.513 27.6733C253.745 27.1418 252.859 26.8761 251.855 26.8761C250.891 26.8761 250.015 27.1221 249.227 27.6142C248.46 28.1063 247.85 28.7756 247.397 29.622C246.944 30.4684 246.718 31.4428 246.718 32.5451C246.718 33.608 246.944 34.5725 247.397 35.4386C247.85 36.2851 248.46 36.9543 249.227 37.4464C250.015 37.9385 250.891 38.1846 251.855 38.1846C252.859 38.1846 253.745 37.9287 254.513 37.4169C255.28 36.8854 255.851 36.1866 256.225 35.3205L258.676 36.5606C258.361 37.3874 257.859 38.1255 257.17 38.7751C256.481 39.405 255.684 39.9069 254.778 40.2809C253.873 40.6549 252.899 40.8419 251.855 40.8419Z" fill="#F7F7F7"/>
<path d="M227.346 40.4876V24.5731H230.033V27.6733L229.59 27.4076C229.983 26.4037 230.613 25.6262 231.479 25.075C232.365 24.5042 233.399 24.2188 234.58 24.2188C235.721 24.2188 236.735 24.4746 237.621 24.9864C238.526 25.4982 239.235 26.2068 239.747 27.1123C240.278 28.0178 240.544 29.0413 240.544 30.183V40.4876H237.768V31.0688C237.768 30.183 237.611 29.435 237.296 28.8248C236.981 28.2146 236.528 27.7422 235.938 27.4076C235.367 27.0532 234.708 26.8761 233.96 26.8761C233.212 26.8761 232.542 27.0532 231.952 27.4076C231.381 27.7422 230.928 28.2244 230.594 28.8543C230.259 29.4645 230.092 30.2027 230.092 31.0688V40.4876H227.346Z" fill="#F7F7F7"/>
<path d="M215.028 40.8419C213.984 40.8419 213.059 40.6549 212.252 40.2809C211.465 39.8872 210.845 39.3558 210.392 38.6865C209.939 37.9976 209.713 37.2102 209.713 36.3244C209.713 35.478 209.89 34.7202 210.244 34.0509C210.618 33.362 211.189 32.7813 211.957 32.3089C212.744 31.8365 213.728 31.5018 214.909 31.305L220.815 30.3306V32.6337L215.53 33.5195C214.506 33.6966 213.758 34.0214 213.286 34.4938C212.833 34.9662 212.606 35.5469 212.606 36.2358C212.606 36.8854 212.862 37.4267 213.374 37.8598C213.906 38.2928 214.565 38.5094 215.352 38.5094C216.356 38.5094 217.222 38.3027 217.951 37.8893C218.699 37.4563 219.279 36.8756 219.693 36.1473C220.126 35.419 220.342 34.6119 220.342 33.7261V29.6811C220.342 28.815 220.017 28.1162 219.368 27.5847C218.738 27.0336 217.901 26.758 216.858 26.758C215.953 26.758 215.146 26.9942 214.437 27.4666C213.748 27.9193 213.236 28.5296 212.902 29.2972L210.51 28.0571C210.805 27.3288 211.278 26.6793 211.927 26.1084C212.577 25.5179 213.335 25.0553 214.201 24.7207C215.067 24.3861 215.972 24.2188 216.917 24.2188C218.138 24.2188 219.21 24.455 220.136 24.9274C221.061 25.3801 221.779 26.0198 222.291 26.8466C222.822 27.6536 223.088 28.5984 223.088 29.6811V40.4876H220.401V37.4759L220.903 37.6531C220.569 38.283 220.116 38.8341 219.545 39.3066C218.974 39.779 218.305 40.153 217.537 40.4285C216.77 40.7041 215.933 40.8419 215.028 40.8419Z" fill="#F7F7F7"/>
<path d="M193.236 40.4876V24.5731H195.923V27.6733L195.48 27.4076C195.874 26.4037 196.504 25.6262 197.37 25.075C198.256 24.5042 199.289 24.2188 200.47 24.2188C201.612 24.2188 202.626 24.4746 203.511 24.9864C204.417 25.4982 205.125 26.2068 205.637 27.1123C206.169 28.0178 206.434 29.0413 206.434 30.183V40.4876H203.659V31.0688C203.659 30.183 203.502 29.435 203.187 28.8248C202.872 28.2146 202.419 27.7422 201.828 27.4076C201.258 27.0532 200.598 26.8761 199.85 26.8761C199.102 26.8761 198.433 27.0532 197.842 27.4076C197.272 27.7422 196.819 28.2244 196.484 28.8543C196.15 29.4645 195.982 30.2027 195.982 31.0688V40.4876H193.236Z" fill="#F7F7F7"/>
<path d="M186.229 40.4869V24.5724H188.974V40.4869H186.229ZM186.229 22.0331V18.49H188.974V22.0331H186.229Z" fill="#F7F7F7"/>
<path d="M169.34 40.4869V18.49H183.276V21.1473H172.233V28.2631H182.243V30.9205H172.233V40.4869H169.34Z" fill="#F7F7F7"/>
<path d="M153.097 40.8419C151.562 40.8419 150.194 40.4778 148.993 39.7494C147.792 39.0211 146.847 38.0271 146.158 36.7673C145.469 35.4879 145.125 34.0608 145.125 32.486C145.125 30.8916 145.46 29.4744 146.129 28.2343C146.818 26.9942 147.743 26.0198 148.904 25.3112C150.085 24.5829 151.404 24.2188 152.861 24.2188C154.042 24.2188 155.085 24.4353 155.991 24.8683C156.916 25.2817 157.693 25.8525 158.323 26.5808C158.973 27.2895 159.465 28.1063 159.799 29.0315C160.154 29.937 160.331 30.8818 160.331 31.866C160.331 32.0825 160.311 32.3286 160.272 32.6041C160.252 32.86 160.223 33.1061 160.183 33.3423H147.133V30.9802H158.589L157.29 32.0432C157.467 31.0196 157.368 30.1043 156.994 29.2972C156.62 28.4902 156.069 27.8505 155.341 27.378C154.613 26.9056 153.786 26.6694 152.861 26.6694C151.936 26.6694 151.089 26.9056 150.322 27.378C149.554 27.8505 148.954 28.5296 148.52 29.4153C148.107 30.2814 147.94 31.3148 148.019 32.5156C147.94 33.6769 148.117 34.7005 148.55 35.5863C149.003 36.4524 149.633 37.1315 150.44 37.6236C151.266 38.096 152.162 38.3322 153.127 38.3322C154.189 38.3322 155.085 38.0861 155.813 37.594C156.542 37.1019 157.132 36.4721 157.585 35.7044L159.888 36.8854C159.573 37.6137 159.081 38.283 158.412 38.8932C157.762 39.4837 156.985 39.9561 156.079 40.3104C155.193 40.6648 154.199 40.8419 153.097 40.8419Z" fill="#F7F7F7"/>
<path d="M129.6 40.4872V18.136H132.346V33.46L131.224 33.1943L139.668 24.5727H143.182L137.07 30.9798L143.595 40.4872H140.347L134.383 31.8656L136.095 31.777L131.46 36.6193L132.346 34.6115V40.4872H129.6Z" fill="#F7F7F7"/>
<path d="M119.277 40.487V24.5724H121.964V27.4955L121.669 27.0821C122.043 26.1767 122.614 25.5074 123.381 25.0744C124.149 24.6216 125.084 24.3953 126.186 24.3953H127.161V26.9936H125.773C124.651 26.9936 123.746 27.3479 123.057 28.0565C122.368 28.7454 122.023 29.7296 122.023 31.0091V40.487H119.277Z" fill="#F7F7F7"/>
<path d="M106.959 40.8419C105.916 40.8419 104.991 40.6549 104.184 40.2809C103.396 39.8872 102.776 39.3558 102.324 38.6865C101.871 37.9976 101.645 37.2102 101.645 36.3244C101.645 35.478 101.822 34.7202 102.176 34.0509C102.55 33.362 103.121 32.7813 103.889 32.3089C104.676 31.8365 105.66 31.5018 106.841 31.305L112.746 30.3306V32.6337L107.461 33.5195C106.438 33.6966 105.69 34.0214 105.217 34.4938C104.764 34.9662 104.538 35.5469 104.538 36.2358C104.538 36.8854 104.794 37.4267 105.306 37.8598C105.837 38.2928 106.497 38.5094 107.284 38.5094C108.288 38.5094 109.154 38.3027 109.882 37.8893C110.63 37.4563 111.211 36.8756 111.624 36.1473C112.057 35.419 112.274 34.6119 112.274 33.7261V29.6811C112.274 28.815 111.949 28.1162 111.3 27.5847C110.67 27.0336 109.833 26.758 108.79 26.758C107.884 26.758 107.077 26.9942 106.369 27.4666C105.68 27.9193 105.168 28.5296 104.833 29.2972L102.442 28.0571C102.737 27.3288 103.209 26.6793 103.859 26.1084C104.509 25.5179 105.266 25.0553 106.132 24.7207C106.999 24.3861 107.904 24.2188 108.849 24.2188C110.069 24.2188 111.142 24.455 112.067 24.9274C112.992 25.3801 113.711 26.0198 114.223 26.8466C114.754 27.6536 115.02 28.5984 115.02 29.6811V40.4876H112.333V37.4759L112.835 37.6531C112.5 38.283 112.048 38.8341 111.477 39.3066C110.906 39.779 110.237 40.153 109.469 40.4285C108.701 40.7041 107.865 40.8419 106.959 40.8419Z" fill="#F7F7F7"/>
<path d="M97.2554 40.6638C95.7003 40.6638 94.4996 40.2209 93.6532 39.3351C92.8264 38.4494 92.4131 37.1994 92.4131 35.5853V27.1999H89.5195V24.5721H90.1101C90.8187 24.5721 91.3797 24.3556 91.793 23.9225C92.2064 23.4895 92.4131 22.9187 92.4131 22.21V20.9109H95.159V24.5721H98.7317V27.1999H95.159V35.4968C95.159 36.0282 95.2377 36.4908 95.3952 36.8845C95.5724 37.2782 95.8578 37.5931 96.2515 37.8293C96.6451 38.0458 97.1668 38.1541 97.8163 38.1541C97.9541 38.1541 98.1215 38.1443 98.3183 38.1246C98.5348 38.1049 98.7317 38.0852 98.9088 38.0655V40.4867C98.6529 40.5457 98.3675 40.5851 98.0526 40.6048C97.7376 40.6441 97.4719 40.6638 97.2554 40.6638Z" fill="#F7F7F7"/>
<path d="M79.5838 40.8415C78.1862 40.8415 76.9068 40.5856 75.7454 40.0738C74.5841 39.5424 73.5999 38.8239 72.7928 37.9184C71.9858 37.013 71.4051 35.9992 71.0508 34.8773L73.5605 33.8438C74.092 35.2611 74.8793 36.3536 75.9226 37.1212C76.9855 37.8692 78.2256 38.2432 79.6429 38.2432C80.509 38.2432 81.2668 38.1054 81.9164 37.8299C82.5659 37.5543 83.0679 37.1704 83.4222 36.6783C83.7962 36.1666 83.9832 35.576 83.9832 34.9068C83.9832 33.9816 83.7175 33.2533 83.186 32.7219C82.6742 32.1707 81.9164 31.7573 80.9125 31.4818L76.8674 30.2417C75.273 29.7496 74.0526 28.972 73.2062 27.9091C72.3598 26.8462 71.9366 25.6258 71.9366 24.2479C71.9366 23.0472 72.222 21.9941 72.7928 21.0886C73.3833 20.1634 74.1904 19.445 75.214 18.9332C76.2572 18.4017 77.4382 18.136 78.7571 18.136C80.0759 18.136 81.2668 18.3722 82.3297 18.8446C83.4124 19.317 84.3277 19.9568 85.0757 20.7638C85.8236 21.5512 86.3748 22.4566 86.7291 23.4802L84.2489 24.5136C83.7765 23.2735 83.0679 22.3385 82.123 21.7086C81.1782 21.0591 80.0661 20.7343 78.7866 20.7343C77.9992 20.7343 77.3005 20.8721 76.6903 21.1476C76.0997 21.4035 75.6372 21.7874 75.3025 22.2992C74.9876 22.7913 74.8301 23.3818 74.8301 24.0707C74.8301 24.8778 75.086 25.5962 75.5978 26.2261C76.1096 26.856 76.8871 27.3383 77.9304 27.6729L81.6211 28.7654C83.3533 29.2968 84.6623 30.0547 85.5481 31.0389C86.4339 32.0231 86.8767 33.2435 86.8767 34.7001C86.8767 35.9008 86.5618 36.9638 85.9319 37.8889C85.3217 38.8141 84.4654 39.5424 83.3631 40.0738C82.2805 40.5856 81.0207 40.8415 79.5838 40.8415Z" fill="#F7F7F7"/>
</svg>
