<svg width="172" height="129" viewBox="0 0 172 129" fill="none" xmlns="http://www.w3.org/2000/svg">
<path fill-rule="evenodd" clip-rule="evenodd" d="M86.1343 88.3206L54.3679 79.2032C52.3586 78.6264 50.9741 76.7887 50.9741 74.6982V43.1025C50.9741 39.9865 53.9583 37.7381 56.9534 38.5974L88.7198 47.7111C90.7294 48.2876 92.1141 50.1255 92.1141 52.2162V83.8157C92.1141 86.9319 89.1295 89.1803 86.1343 88.3206ZM73.8046 75.9045C73.9393 76.0983 74.1289 76.2431 74.3275 76.3038L77.6551 77.3212C78.2752 77.5107 78.5986 76.8381 78.1785 76.2327L70.7198 65.4873C72.0682 64.4112 72.8548 62.5367 72.9297 60.5229C73.0421 56.9538 70.1205 52.1439 66.3375 50.9873L53.8459 47.1682L57.2049 52.0105C57.7014 52.7262 58.399 53.2603 59.132 53.4844L64.9191 55.2537C66.7201 55.8044 68.0604 57.2325 68.0604 59.0342C68.0604 60.8359 66.7495 61.7668 64.9191 61.2072L63.2306 60.6909L73.8046 75.9045ZM76.1509 67.0695L84.2549 56.7975C84.3869 56.6303 84.6093 56.5736 84.8476 56.6464L88.6787 57.8177C89.2474 57.9916 89.5864 58.7581 89.2706 59.1561L81.6569 68.7528L88.9522 79.5355C89.3614 80.1402 89.0358 80.8006 88.4212 80.6127L85.1146 79.6018C84.9161 79.5411 84.7266 79.3965 84.5919 79.2028L76.1509 67.0695ZM54.2606 57.9486C53.6082 57.7491 53.2676 58.4565 53.7093 59.0937L62.5245 71.8097C63.021 72.5259 63.7208 73.0611 64.4542 73.2853L68.5474 74.5367L57.7601 59.0184L54.2606 57.9486Z" fill="#15B79E"/>
<path fill-rule="evenodd" clip-rule="evenodd" d="M123.214 13.9423C126.349 14.833 128.512 17.6963 128.512 20.9554V67.105L128.51 68.5747C128.506 71.8835 127.19 75.0557 124.851 77.3957L111.848 90.402C109.224 93.0271 104.736 91.1684 104.736 87.4566V82.8839C104.736 81.7454 105.651 80.8243 106.786 80.743C111.245 80.4238 115.56 79.276 118.983 77.2999C121.404 75.9024 123.107 74.2471 124.092 72.4875L124.122 72.4946C124.284 72.2103 124.431 71.9235 124.562 71.6352C124.685 71.3646 124.793 71.092 124.885 70.8179C125.047 70.3287 125.156 69.8349 125.197 69.339V23.7903C125.197 21.9345 122.953 21.0051 121.641 22.3174L104.202 39.7567C102.444 41.5146 101.457 43.8988 101.457 46.3848V89.7662C101.457 95.2972 96.1667 99.2931 90.8464 97.7809L52.2433 86.8086C46.8696 85.2812 43.1621 80.3732 43.1621 74.7866V31.1171C43.1621 27.8023 44.4789 24.6233 46.8228 22.2794L65.0259 4.07663C68.2308 0.871869 72.9194 -0.346768 77.2791 0.891874L123.214 13.9423ZM115.355 15.1626C118.413 16.0318 119.41 19.8678 117.162 22.1158L103.951 35.3261C101.815 37.4628 98.6887 38.2752 95.7821 37.4491L73.5309 31.1258V7.41125C73.5309 5.33714 75.5147 3.83867 77.5097 4.40574L115.355 15.1626ZM70.2172 11.115V30.1839L56.3133 26.2324C53.255 25.3632 52.2583 21.5265 54.5068 19.2787L64.8836 8.90525C66.8521 6.93737 70.2172 8.33155 70.2172 11.115ZM95.2386 83.8157C95.2386 89.0093 90.2643 92.7568 85.2723 91.3239L53.5059 82.2065C50.157 81.2453 47.8495 78.1824 47.8495 74.6982V43.1025C47.8495 37.9092 52.8232 34.1618 57.8151 35.594L89.5814 44.7077C92.9308 45.6686 95.2386 48.7317 95.2386 52.2162V83.8157Z" fill="#15B79E"/>
<path d="M117.135 76.233C114.207 77.9237 110.533 78.9214 106.724 79.2259C105.567 79.3184 104.617 78.3742 104.617 77.2132V73.8237C104.617 72.6826 105.536 71.7603 106.674 71.6824C111.173 71.3747 115.531 70.2242 118.983 68.2314C120.116 67.5774 121.092 66.8665 121.911 66.1148C123.477 69.6162 121.884 73.4909 117.135 76.233Z" fill="#15B79E"/>
<path d="M117.135 67.1645C114.207 68.8551 110.533 69.8529 106.725 70.1577C105.567 70.2503 104.617 69.3061 104.617 68.145V65.8221C104.617 64.681 105.536 63.7587 106.674 63.6809C111.173 63.3732 115.531 62.2231 118.983 60.2298C120.257 59.495 121.332 58.6884 122.208 57.833C123.223 61.1178 121.531 64.6263 117.135 67.1645Z" fill="#15B79E"/>
<path d="M117.135 59.1629C114.477 60.6975 111.205 61.6612 107.775 62.054C106.045 62.2521 104.614 60.8301 104.557 59.0894C104.533 58.3557 104.504 57.6182 104.475 56.8831C104.068 46.4388 103.679 36.4585 117.135 44.2272C124.28 48.3515 124.28 55.0385 117.135 59.1629Z" fill="#15B79E"/>
<path d="M164.592 128.488C163.324 128.488 162.194 128.187 161.202 127.586C160.211 126.984 159.43 126.163 158.861 125.123C158.292 124.066 158.008 122.888 158.008 121.587C158.008 120.27 158.284 119.1 158.837 118.075C159.406 117.051 160.17 116.247 161.129 115.661C162.105 115.06 163.194 114.759 164.397 114.759C165.372 114.759 166.234 114.938 166.982 115.296C167.746 115.637 168.388 116.108 168.908 116.71C169.445 117.295 169.851 117.97 170.127 118.734C170.42 119.482 170.566 120.262 170.566 121.075C170.566 121.254 170.55 121.457 170.518 121.685C170.501 121.896 170.477 122.099 170.444 122.294H159.666V120.343H169.128L168.055 121.221C168.201 120.376 168.12 119.62 167.811 118.953C167.502 118.287 167.047 117.758 166.445 117.368C165.844 116.978 165.161 116.783 164.397 116.783C163.633 116.783 162.934 116.978 162.3 117.368C161.666 117.758 161.17 118.319 160.812 119.051C160.471 119.766 160.333 120.62 160.398 121.611C160.333 122.571 160.479 123.416 160.837 124.147C161.21 124.863 161.731 125.424 162.397 125.83C163.08 126.22 163.82 126.415 164.616 126.415C165.494 126.415 166.234 126.212 166.835 125.806C167.437 125.399 167.925 124.879 168.299 124.245L170.201 125.22C169.94 125.822 169.534 126.375 168.981 126.879C168.445 127.366 167.803 127.757 167.055 128.049C166.323 128.342 165.502 128.488 164.592 128.488Z" fill="#F7F7F7"/>
<path d="M149.947 128.488C148.663 128.488 147.517 128.187 146.509 127.586C145.517 126.984 144.737 126.163 144.168 125.123C143.599 124.082 143.314 122.912 143.314 121.611C143.314 120.295 143.599 119.124 144.168 118.1C144.737 117.076 145.517 116.263 146.509 115.661C147.517 115.06 148.663 114.759 149.947 114.759C150.809 114.759 151.614 114.913 152.362 115.222C153.109 115.531 153.768 115.946 154.337 116.466C154.906 116.986 155.32 117.596 155.58 118.295L153.556 119.27C153.248 118.588 152.776 118.035 152.142 117.612C151.508 117.173 150.776 116.954 149.947 116.954C149.151 116.954 148.427 117.157 147.777 117.563C147.143 117.97 146.639 118.523 146.265 119.222C145.891 119.921 145.704 120.725 145.704 121.636C145.704 122.514 145.891 123.31 146.265 124.026C146.639 124.725 147.143 125.277 147.777 125.684C148.427 126.09 149.151 126.293 149.947 126.293C150.776 126.293 151.508 126.082 152.142 125.659C152.776 125.22 153.248 124.643 153.556 123.928L155.58 124.952C155.32 125.635 154.906 126.245 154.337 126.781C153.768 127.301 153.109 127.716 152.362 128.025C151.614 128.334 150.809 128.488 149.947 128.488Z" fill="#F7F7F7"/>
<path d="M129.705 128.195V115.052H131.924V117.612L131.558 117.393C131.884 116.564 132.404 115.921 133.119 115.466C133.851 114.995 134.704 114.759 135.68 114.759C136.622 114.759 137.46 114.97 138.191 115.393C138.939 115.816 139.524 116.401 139.947 117.149C140.386 117.897 140.605 118.742 140.605 119.685V128.195H138.313V120.416C138.313 119.685 138.183 119.067 137.923 118.563C137.663 118.059 137.289 117.669 136.801 117.393C136.33 117.1 135.785 116.954 135.167 116.954C134.55 116.954 133.997 117.1 133.509 117.393C133.038 117.669 132.664 118.067 132.387 118.588C132.111 119.092 131.973 119.701 131.973 120.416V128.195H129.705Z" fill="#F7F7F7"/>
<path d="M119.532 128.488C118.67 128.488 117.906 128.334 117.24 128.025C116.589 127.7 116.077 127.261 115.703 126.708C115.33 126.139 115.143 125.489 115.143 124.757C115.143 124.058 115.289 123.432 115.582 122.879C115.89 122.31 116.362 121.831 116.996 121.441C117.646 121.051 118.459 120.774 119.434 120.612L124.312 119.807V121.709L119.947 122.44C119.101 122.587 118.483 122.855 118.093 123.245C117.719 123.635 117.532 124.115 117.532 124.684C117.532 125.22 117.744 125.668 118.166 126.025C118.605 126.383 119.15 126.562 119.8 126.562C120.629 126.562 121.345 126.391 121.946 126.05C122.564 125.692 123.044 125.212 123.385 124.611C123.743 124.009 123.921 123.343 123.921 122.611V119.27C123.921 118.555 123.653 117.978 123.117 117.539C122.596 117.084 121.906 116.856 121.044 116.856C120.296 116.856 119.63 117.051 119.044 117.441C118.475 117.815 118.053 118.319 117.776 118.953L115.801 117.929C116.045 117.328 116.435 116.791 116.971 116.32C117.508 115.832 118.134 115.45 118.849 115.174C119.565 114.897 120.312 114.759 121.093 114.759C122.101 114.759 122.987 114.954 123.751 115.344C124.515 115.718 125.108 116.247 125.531 116.929C125.97 117.596 126.189 118.376 126.189 119.27V128.195H123.97V125.708L124.385 125.854C124.108 126.375 123.734 126.83 123.263 127.22C122.792 127.61 122.239 127.919 121.605 128.147C120.971 128.374 120.28 128.488 119.532 128.488Z" fill="#F7F7F7"/>
<path d="M101.533 128.195V115.052H103.752V117.612L103.387 117.393C103.712 116.564 104.232 115.921 104.947 115.466C105.679 114.995 106.532 114.759 107.508 114.759C108.451 114.759 109.288 114.97 110.019 115.393C110.767 115.816 111.352 116.401 111.775 117.149C112.214 117.897 112.434 118.742 112.434 119.685V128.195H110.141V120.416C110.141 119.685 110.011 119.067 109.751 118.563C109.491 118.059 109.117 117.669 108.629 117.393C108.158 117.1 107.613 116.954 106.996 116.954C106.378 116.954 105.825 117.1 105.337 117.393C104.866 117.669 104.492 118.067 104.216 118.588C103.939 119.092 103.801 119.701 103.801 120.416V128.195H101.533Z" fill="#F7F7F7"/>
<path d="M95.7461 128.195V115.051H98.014V128.195H95.7461ZM95.7461 112.954V110.028H98.014V112.954H95.7461Z" fill="#F7F7F7"/>
<path d="M81.7988 128.195V110.028H93.3088V112.222H84.1886V118.099H92.4553V120.294H84.1886V128.195H81.7988Z" fill="#F7F7F7"/>
<path d="M68.3829 128.488C67.1149 128.488 65.985 128.187 64.9933 127.586C64.0017 126.984 63.2213 126.163 62.6523 125.123C62.0833 124.066 61.7988 122.888 61.7988 121.587C61.7988 120.27 62.0752 119.1 62.6279 118.075C63.1969 117.051 63.961 116.247 64.9202 115.661C65.8956 115.06 66.9848 114.759 68.1879 114.759C69.1633 114.759 70.0249 114.938 70.7727 115.296C71.5368 115.637 72.179 116.108 72.6992 116.71C73.2357 117.295 73.6421 117.97 73.9185 118.734C74.2111 119.482 74.3574 120.262 74.3574 121.075C74.3574 121.254 74.3411 121.457 74.3086 121.685C74.2924 121.896 74.268 122.099 74.2355 122.294H63.457V120.343H72.9187L71.8457 121.221C71.992 120.376 71.9107 119.62 71.6018 118.953C71.293 118.287 70.8378 117.758 70.2362 117.368C69.6347 116.978 68.9519 116.783 68.1879 116.783C67.4238 116.783 66.7247 116.978 66.0907 117.368C65.4567 117.758 64.9608 118.319 64.6032 119.051C64.2618 119.766 64.1236 120.62 64.1886 121.611C64.1236 122.571 64.2699 123.416 64.6276 124.147C65.0015 124.863 65.5217 125.424 66.1882 125.83C66.871 126.22 67.6107 126.415 68.4073 126.415C69.2852 126.415 70.0249 126.212 70.6264 125.806C71.2279 125.399 71.7156 124.879 72.0896 124.245L73.9916 125.22C73.7315 125.822 73.3251 126.375 72.7723 126.879C72.2359 127.366 71.5937 127.757 70.8459 128.049C70.1143 128.342 69.2933 128.488 68.3829 128.488Z" fill="#F7F7F7"/>
<path d="M48.9766 128.195V109.735H51.2444V122.391L50.3178 122.172L57.2921 115.051H60.1939L55.1461 120.343L60.5353 128.195H57.8529L52.927 121.074L54.3414 121.001L50.5129 125L51.2444 123.342V128.195H48.9766Z" fill="#F7F7F7"/>
<path d="M40.4512 128.195V115.051H42.6703V117.465L42.4264 117.124C42.7353 116.376 43.2067 115.823 43.8408 115.466C44.4748 115.092 45.247 114.905 46.1574 114.905H46.9621V117.051H45.816C44.8893 117.051 44.1415 117.343 43.5725 117.929C43.0035 118.498 42.719 119.31 42.719 120.367V128.195H40.4512Z" fill="#F7F7F7"/>
<path d="M30.2781 128.488C29.4165 128.488 28.6524 128.334 27.9858 128.025C27.3356 127.7 26.8235 127.261 26.4495 126.708C26.0756 126.139 25.8887 125.489 25.8887 124.757C25.8887 124.058 26.035 123.432 26.3276 122.879C26.6365 122.31 27.108 121.831 27.742 121.441C28.3923 121.051 29.2051 120.774 30.1805 120.612L35.0577 119.807V121.709L30.6926 122.44C29.8473 122.587 29.2295 122.855 28.8393 123.245C28.4654 123.635 28.2785 124.115 28.2785 124.684C28.2785 125.22 28.4898 125.668 28.9125 126.025C29.3514 126.383 29.896 126.562 30.5463 126.562C31.3754 126.562 32.0907 126.391 32.6923 126.05C33.31 125.692 33.7896 125.212 34.131 124.611C34.4887 124.009 34.6675 123.343 34.6675 122.611V119.27C34.6675 118.555 34.3992 117.978 33.8628 117.539C33.3425 117.084 32.6516 116.856 31.79 116.856C31.0422 116.856 30.3756 117.051 29.7904 117.441C29.2214 117.815 28.7987 118.319 28.5223 118.953L26.5471 117.929C26.7909 117.328 27.1811 116.791 27.7176 116.32C28.2541 115.832 28.88 115.45 29.5953 115.174C30.3106 114.897 31.0584 114.759 31.8388 114.759C32.8467 114.759 33.7327 114.954 34.4968 115.344C35.2609 115.718 35.8543 116.247 36.2769 116.929C36.7159 117.596 36.9353 118.376 36.9353 119.27V128.195H34.7163V125.708L35.1308 125.854C34.8544 126.375 34.4805 126.83 34.0091 127.22C33.5376 127.61 32.9849 127.919 32.3509 128.147C31.7168 128.374 31.0259 128.488 30.2781 128.488Z" fill="#F7F7F7"/>
<path d="M22.2621 128.341C20.9778 128.341 19.9861 127.975 19.287 127.243C18.6042 126.512 18.2628 125.48 18.2628 124.146V117.221H15.873V115.051H16.3608C16.946 115.051 17.4093 114.872 17.7507 114.514C18.0921 114.157 18.2628 113.685 18.2628 113.1V112.027H20.5307V115.051H23.4814V117.221H20.5307V124.073C20.5307 124.512 20.5957 124.894 20.7258 125.219C20.8721 125.545 21.1078 125.805 21.433 126C21.7581 126.179 22.1889 126.268 22.7254 126.268C22.8392 126.268 22.9774 126.26 23.14 126.244C23.3188 126.227 23.4814 126.211 23.6277 126.195V128.195C23.4163 128.243 23.1806 128.276 22.9205 128.292C22.6604 128.325 22.4409 128.341 22.2621 128.341Z" fill="#F7F7F7"/>
<path d="M7.66853 128.488C6.51428 128.488 5.45757 128.276 4.4984 127.854C3.53924 127.415 2.72638 126.821 2.05984 126.073C1.3933 125.326 0.913721 124.488 0.621094 123.562L2.69387 122.708C3.13281 123.879 3.78309 124.781 4.64472 125.415C5.5226 126.033 6.54679 126.342 7.7173 126.342C8.43261 126.342 9.05851 126.228 9.59499 126C10.1315 125.773 10.546 125.456 10.8387 125.049C11.1475 124.627 11.302 124.139 11.302 123.586C11.302 122.822 11.0825 122.221 10.6436 121.782C10.2209 121.326 9.59499 120.985 8.76588 120.757L5.42506 119.733C4.10823 119.327 3.1003 118.685 2.40124 117.807C1.70219 116.929 1.35266 115.921 1.35266 114.783C1.35266 113.791 1.58839 112.921 2.05984 112.174C2.54756 111.41 3.2141 110.816 4.05946 110.394C4.92109 109.955 5.89651 109.735 6.98573 109.735C8.07496 109.735 9.05851 109.93 9.93639 110.32C10.8305 110.711 11.5865 111.239 12.2043 111.905C12.822 112.556 13.2772 113.304 13.5698 114.149L11.5215 115.002C11.1313 113.978 10.546 113.206 9.76569 112.686C8.98535 112.149 8.06683 111.881 7.01012 111.881C6.35984 111.881 5.78271 111.995 5.27874 112.222C4.79103 112.434 4.40899 112.751 4.13262 113.173C3.87251 113.58 3.74245 114.068 3.74245 114.637C3.74245 115.303 3.95379 115.897 4.37648 116.417C4.79916 116.937 5.44131 117.335 6.30294 117.612L9.35114 118.514C10.7818 118.953 11.8629 119.579 12.5944 120.392C13.326 121.204 13.6918 122.212 13.6918 123.415C13.6918 124.407 13.4317 125.285 12.9114 126.049C12.4075 126.813 11.7003 127.415 10.7899 127.854C9.89575 128.276 8.8553 128.488 7.66853 128.488Z" fill="#F7F7F7"/>
</svg>
