<svg width="81" height="81" viewBox="0 0 81 81" fill="none" xmlns="http://www.w3.org/2000/svg">
<path fill-rule="evenodd" clip-rule="evenodd" d="M40.6306 72.5247L14.5773 65.0469C12.9293 64.5739 11.7938 63.0667 11.7938 61.3522V35.4387C11.7938 32.8831 14.2413 31.0391 16.6978 31.7438L42.7511 39.2185C44.3993 39.6914 45.535 41.1987 45.535 42.9134V68.8299C45.535 71.3857 43.0872 73.2298 40.6306 72.5247ZM30.5183 62.3415C30.6288 62.5005 30.7843 62.6192 30.9473 62.669L33.6764 63.5034C34.1849 63.6589 34.4502 63.1072 34.1056 62.6107L27.9883 53.7978C29.0942 52.9152 29.7394 51.3778 29.8008 49.7262C29.893 46.799 27.4968 42.8541 24.3941 41.9055L14.1491 38.7733L16.904 42.7447C17.3112 43.3317 17.8834 43.7698 18.4845 43.9536L23.2309 45.4047C24.7079 45.8563 25.8072 47.0275 25.8072 48.5052C25.8072 49.9829 24.732 50.7464 23.2309 50.2874L21.846 49.864L30.5183 62.3415ZM32.4427 55.0954L39.0893 46.6707C39.1975 46.5336 39.3799 46.4871 39.5754 46.5469L42.7175 47.5075C43.1838 47.6501 43.4619 48.2788 43.2029 48.6052L36.9585 56.476L42.9418 65.3195C43.2773 65.8155 43.0103 66.3571 42.5062 66.203L39.7943 65.3739C39.6315 65.3241 39.4761 65.2055 39.3656 65.0467L32.4427 55.0954ZM14.4892 47.6148C13.9541 47.4512 13.6748 48.0314 14.0371 48.554L21.2669 58.9832C21.6741 59.5706 22.2481 60.0094 22.8496 60.1933L26.2066 61.2197L17.3593 48.4923L14.4892 47.6148Z" fill="#15B79E"/>
<path fill-rule="evenodd" clip-rule="evenodd" d="M71.0414 11.5228C73.6126 12.2534 75.3867 14.6017 75.3867 17.2747V55.1245L75.3852 56.33C75.3819 59.0437 74.3026 61.6453 72.384 63.5645L61.72 74.2317C59.5677 76.3847 55.8868 74.8603 55.8868 71.816V68.0657C55.8868 67.132 56.6371 66.3766 57.5684 66.3099C61.2256 66.048 64.7642 65.1067 67.572 63.486C69.5574 62.3398 70.9538 60.9822 71.7622 59.539L71.7864 59.5449C71.919 59.3117 72.04 59.0765 72.1476 58.84C72.2485 58.6181 72.3369 58.3945 72.412 58.1697C72.5455 57.7685 72.6347 57.3635 72.6681 56.9568V19.5997C72.6681 18.0777 70.8279 17.3154 69.7516 18.3917L55.449 32.6946C54.0073 34.1364 53.1973 36.0918 53.1973 38.1307V73.7103C53.1973 78.2465 48.8587 81.5238 44.4953 80.2836L12.8347 71.2846C8.42741 70.0319 5.38672 66.0065 5.38672 61.4247V25.6088C5.38672 22.8902 6.4667 20.2829 8.38909 18.3606L23.3185 3.43143C25.9469 0.803027 29.7924 -0.196447 33.368 0.819434L71.0414 11.5228ZM64.5961 12.5236C67.1041 13.2365 67.9217 16.3827 66.078 18.2264L55.2435 29.0609C53.4911 30.8133 50.9272 31.4796 48.5433 30.8021L30.2939 25.616V6.16634C30.2939 4.46525 31.9209 3.23627 33.5571 3.70135L64.5961 12.5236ZM27.5761 9.20399V24.8435L16.1727 21.6026C13.6644 20.8898 12.847 17.7431 14.6911 15.8995L23.2017 7.39165C24.8162 5.77769 27.5761 6.92113 27.5761 9.20399ZM48.0976 68.8299C48.0976 73.0895 44.0179 76.163 39.9236 74.9879L13.8703 67.5101C11.1236 66.7218 9.23115 64.2097 9.23115 61.3522V35.4387C9.23115 31.1794 13.3103 28.106 17.4045 29.2806L43.4578 36.7553C46.2048 37.5434 48.0976 40.0556 48.0976 42.9134V68.8299Z" fill="#15B79E"/>
<path d="M66.0563 62.6109C63.6545 63.9976 60.6411 64.8159 57.5178 65.0656C56.5686 65.1415 55.7892 64.3671 55.7892 63.4149V60.6349C55.7892 59.699 56.5429 58.9426 57.4767 58.8788C61.1661 58.6264 64.7406 57.6828 67.572 56.0484C68.5013 55.512 69.3013 54.9289 69.9728 54.3124C71.2575 57.1841 69.9511 60.362 66.0563 62.6109Z" fill="#15B79E"/>
<path d="M66.0563 55.1733C63.6545 56.5599 60.6412 57.3782 57.5179 57.6282C56.5687 57.7042 55.7892 56.9298 55.7892 55.9775V54.0724C55.7892 53.1365 56.5429 52.3801 57.4767 52.3162C61.1661 52.0639 64.7406 51.1206 67.572 49.4858C68.6165 48.8831 69.4982 48.2216 70.2164 47.5201C71.0489 50.2141 69.6617 53.0916 66.0563 55.1733Z" fill="#15B79E"/>
<path d="M66.0563 48.6108C63.8762 49.8694 61.1922 50.6598 58.3794 50.9819C56.9603 51.1444 55.7867 49.9782 55.74 48.5505C55.7203 47.9487 55.6967 47.3439 55.6732 46.741C55.3391 38.1751 55.02 29.9896 66.0563 36.3611C71.9157 39.7438 71.9157 45.2281 66.0563 48.6108Z" fill="#15B79E"/>
</svg>
