<svg width="1603" height="481" viewBox="0 0 1603 481" fill="none" xmlns="http://www.w3.org/2000/svg">
<path d="M171.504 240.456C171.504 202.596 202.183 171.918 240.042 171.918C277.902 171.918 308.61 202.596 308.61 240.456C308.61 252.949 305.282 264.654 299.415 274.725H337.011C340.806 264.012 342.879 252.482 342.879 240.456C342.879 183.681 296.846 137.619 240.042 137.619C183.239 137.619 137.206 183.681 137.206 240.456C137.206 297.23 183.268 343.292 240.042 343.292H456.953C462.178 332.317 466.586 320.874 470.089 309.023H240.042C202.183 309.023 171.504 278.315 171.504 240.456Z" fill="black"/>
<path d="M102.936 240.455C102.936 164.737 164.323 103.35 240.042 103.35C315.76 103.35 377.176 164.737 377.176 240.455C377.176 252.277 375.687 263.778 372.856 274.724H408.059C410.307 263.661 411.474 252.19 411.474 240.455C411.474 145.792 334.734 69.0227 240.042 69.0227C145.349 69.0227 68.6381 145.792 68.6381 240.455C68.6381 335.118 145.379 411.888 240.042 411.888H408.001C418.713 401.409 428.434 389.908 437.016 377.59H240.042C164.323 377.59 102.936 316.203 102.936 240.455Z" fill="black"/>
<path d="M240.042 0.449219C107.49 0.449219 0.0419922 107.898 0.0419922 240.449C0.0419922 373.001 107.49 480.449 240.042 480.449C285.257 480.449 327.583 467.927 363.691 446.18H240.042C126.435 446.18 34.311 354.086 34.311 240.449C34.311 126.813 126.435 34.7183 240.042 34.7183C353.649 34.7183 445.773 126.842 445.773 240.449C445.773 252.125 444.81 263.568 442.912 274.718H477.59C477.999 271.858 478.378 268.997 478.699 266.107C478.816 264.94 478.933 263.772 479.02 262.575C479.341 259.335 479.575 256.066 479.721 252.797C479.838 250.753 479.925 248.71 479.954 246.637C480.013 244.594 480.042 242.522 480.042 240.449C480.042 107.898 372.594 0.449219 240.042 0.449219Z" fill="black"/>
<path d="M763.359 92.633C845.479 92.633 908.711 156.687 908.711 239.628C908.711 323.801 845.479 388.266 763.359 388.266C680.828 388.266 618.006 323.801 618.006 239.628C618.006 156.687 680.828 92.633 763.359 92.633ZM763.359 130.819C704.232 130.819 658.656 178.449 658.656 239.628C658.656 302.039 704.232 350.08 763.359 350.08C822.485 350.08 868.062 302.039 868.062 239.628C868.062 178.449 822.485 130.819 763.359 130.819Z" fill="black"/>
<path d="M1041.4 179.68C1093.14 179.68 1125.16 214.171 1125.16 269.602V384.16H1087.39V273.708C1087.39 238.807 1066.04 215.813 1032.78 215.813C999.109 215.813 977.348 238.807 977.348 273.708V384.16H939.162V183.786H977.348V218.687C990.076 194.051 1012.66 179.68 1041.4 179.68Z" fill="black"/>
<path d="M1327.03 96.739H1364.81V384.16H1327.03V343.099C1312.25 371.842 1285.97 388.266 1250.66 388.266C1196.46 388.266 1153.35 341.868 1153.35 283.973C1153.35 226.078 1196.46 179.68 1250.66 179.68C1285.97 179.68 1312.25 196.104 1327.03 224.846V96.739ZM1258.46 352.133C1297.88 352.133 1327.03 323.391 1327.03 283.973C1327.03 244.555 1297.88 215.813 1258.46 215.813C1220.28 215.813 1190.3 245.787 1190.3 283.973C1190.3 322.159 1220.28 352.133 1258.46 352.133Z" fill="black"/>
<path d="M1499.5 179.68C1557.4 179.68 1602.98 225.257 1602.98 284.384C1602.98 343.099 1557.4 388.266 1499.5 388.266C1441.2 388.266 1396.03 343.099 1396.03 284.384C1396.03 225.257 1441.2 179.68 1499.5 179.68ZM1499.5 215.813C1461.73 215.813 1432.99 245.376 1432.99 284.384C1432.99 322.569 1461.73 352.133 1499.5 352.133C1536.87 352.133 1566.02 322.569 1566.02 284.384C1566.02 245.376 1536.87 215.813 1499.5 215.813Z" fill="black"/>
</svg>
