<svg width="481" height="481" viewBox="0 0 481 481" fill="none" xmlns="http://www.w3.org/2000/svg">
<path d="M171.505 240.456C171.505 202.596 202.183 171.918 240.043 171.918C277.902 171.918 308.61 202.596 308.61 240.456C308.61 252.949 305.282 264.654 299.415 274.725H337.012C340.806 264.012 342.879 252.482 342.879 240.456C342.879 183.681 296.846 137.62 240.043 137.62C183.239 137.62 137.206 183.681 137.206 240.456C137.206 297.23 183.268 343.292 240.043 343.292H456.953C462.178 332.317 466.586 320.874 470.089 309.023H240.043C202.183 309.023 171.505 278.315 171.505 240.456Z" fill="black"/>
<path d="M102.936 240.455C102.936 164.737 164.322 103.35 240.041 103.35C315.76 103.35 377.176 164.737 377.176 240.455C377.176 252.277 375.687 263.778 372.855 274.724H408.059C410.306 263.661 411.474 252.19 411.474 240.455C411.474 145.792 334.733 69.0226 240.041 69.0226C145.349 69.0226 68.6375 145.792 68.6375 240.455C68.6375 335.118 145.378 411.888 240.041 411.888H408C418.713 401.409 428.433 389.908 437.015 377.59H240.041C164.322 377.59 102.936 316.203 102.936 240.455Z" fill="black"/>
<path d="M240.042 0.449219C107.49 0.449219 0.0419922 107.898 0.0419922 240.449C0.0419922 373.001 107.49 480.449 240.042 480.449C285.257 480.449 327.583 467.927 363.691 446.18H240.042C126.435 446.18 34.311 354.086 34.311 240.449C34.311 126.813 126.435 34.7183 240.042 34.7183C353.649 34.7183 445.773 126.842 445.773 240.449C445.773 252.125 444.81 263.568 442.912 274.718H477.59C477.999 271.858 478.378 268.997 478.699 266.107C478.816 264.94 478.933 263.772 479.02 262.575C479.341 259.335 479.575 256.066 479.721 252.797C479.838 250.753 479.925 248.71 479.954 246.637C480.013 244.594 480.042 242.522 480.042 240.449C480.042 107.898 372.594 0.449219 240.042 0.449219Z" fill="black"/>
</svg>
