<svg width="1539" height="481" viewBox="0 0 1539 481" fill="none" xmlns="http://www.w3.org/2000/svg">
<path d="M0.0419922 240.431C0.0419922 108.104 107.309 0.836914 239.636 0.836914C371.964 0.836914 479.23 108.104 479.23 240.431C479.23 242.5 479.201 244.569 479.143 246.609C479.114 248.678 479.026 250.718 478.91 252.758C478.764 256.021 478.531 259.285 478.211 262.52C478.123 263.715 478.007 264.88 477.89 266.046C477.569 268.931 477.191 271.786 476.783 274.642H442.164C444.058 263.511 445.019 252.087 445.019 240.431C445.019 127.016 353.052 35.048 239.636 35.048C126.221 35.048 34.2531 126.987 34.2531 240.431C34.2531 353.876 126.221 445.814 239.636 445.814H363.076C327.029 467.524 284.775 480.025 239.636 480.025C107.309 480.025 0.0419922 372.759 0.0419922 240.431Z" fill="black"/>
<path d="M102.762 240.437C102.762 164.847 164.045 103.564 239.636 103.564C315.227 103.564 376.539 164.847 376.539 240.437C376.539 252.239 375.052 263.721 372.226 274.648H407.369C409.613 263.604 410.779 252.152 410.779 240.437C410.779 145.934 334.168 69.2944 239.636 69.2944C145.104 69.2944 68.5221 145.934 68.5221 240.437C68.5221 334.94 145.133 411.58 239.636 411.58H407.311C418.006 401.119 427.709 389.637 436.277 377.34H239.636C164.045 377.34 102.762 316.057 102.762 240.437Z" fill="black"/>
<path d="M171.215 240.438C171.215 202.642 201.841 172.016 239.637 172.016C277.432 172.016 308.088 202.642 308.088 240.438C308.088 252.91 304.766 264.595 298.909 274.649H336.442C340.23 263.954 342.299 252.444 342.299 240.438C342.299 183.759 296.344 137.775 239.637 137.775C182.929 137.775 136.974 183.759 136.974 240.438C136.974 297.116 182.958 343.1 239.637 343.1H456.181C461.397 332.143 465.797 320.72 469.294 308.889H239.637C201.841 308.889 171.215 278.233 171.215 240.438Z" fill="black"/>
<path fill-rule="evenodd" clip-rule="evenodd" d="M693.32 1.01704C752.038 1.01704 797.251 46.8171 797.251 106.122C797.251 166.308 752.038 212.402 693.32 212.402C634.308 212.402 589.389 166.308 589.389 106.122C589.389 46.8171 634.308 1.01704 693.32 1.01704ZM693.32 28.3209C651.043 28.3209 618.454 62.3774 618.454 106.122C618.454 150.748 651.043 185.098 693.32 185.098C735.597 185.098 768.185 150.748 768.185 106.122C768.185 62.3774 735.597 28.3209 693.32 28.3209Z" fill="black"/>
<path d="M892.127 63.2582C929.12 63.2582 952.02 87.9198 952.02 127.554V209.466H925.009V130.49C925.009 105.535 909.743 89.0941 885.962 89.0941C861.887 89.0941 846.327 105.535 846.327 130.49V209.466H819.023V66.1941H846.327V91.1492C855.429 73.5338 871.576 63.2582 892.127 63.2582Z" fill="black"/>
<path fill-rule="evenodd" clip-rule="evenodd" d="M1123.37 3.95294H1096.36V95.5531C1085.79 75.0018 1067 63.2582 1041.75 63.2582C1003 63.2582 972.172 96.4339 972.172 137.83C972.172 179.226 1003 212.402 1041.75 212.402C1067 212.402 1085.79 200.658 1096.36 180.107V209.466H1123.37V3.95294ZM1096.36 137.83C1096.36 166.015 1075.52 186.566 1047.33 186.566C1020.03 186.566 998.595 165.134 998.595 137.83C998.595 110.526 1020.03 89.0941 1047.33 89.0941C1075.52 89.0941 1096.36 109.645 1096.36 137.83Z" fill="black"/>
<path fill-rule="evenodd" clip-rule="evenodd" d="M1219.68 63.2582C1261.08 63.2582 1293.67 95.8467 1293.67 138.124C1293.67 180.107 1261.08 212.402 1219.68 212.402C1177.99 212.402 1145.7 180.107 1145.7 138.124C1145.7 95.8467 1177.99 63.2582 1219.68 63.2582ZM1219.68 89.0941C1192.67 89.0941 1172.12 110.233 1172.12 138.124C1172.12 165.428 1192.67 186.566 1219.68 186.566C1246.4 186.566 1267.24 165.428 1267.24 138.124C1267.24 110.233 1246.4 89.0941 1219.68 89.0941Z" fill="black"/>
<path d="M751.81 270.235C761.502 270.235 770.021 278.753 770.021 288.446C770.021 298.433 761.502 306.657 751.81 306.657C741.823 306.657 733.599 298.433 733.599 288.446C733.599 278.753 741.823 270.235 751.81 270.235Z" fill="black"/>
<path d="M738.004 334.561H765.321V477.9H738.004V334.561Z" fill="black"/>
<path d="M604.363 272.291H722.441V299.314H632.855V358.94H712.748V385.963H632.855V477.9H604.363V272.291Z" fill="black"/>
<path d="M924.14 395.95C924.14 356.297 901.229 331.624 864.219 331.624C843.659 331.624 827.504 341.904 818.398 359.528V334.561H791.082V477.9H818.398V398.887C818.398 373.921 833.966 357.472 858.051 357.472C881.843 357.472 897.117 373.921 897.117 398.887V477.9H924.14V395.95Z" fill="black"/>
<path fill-rule="evenodd" clip-rule="evenodd" d="M1004.68 331.624C1043.16 331.624 1064.89 354.535 1064.89 388.607V477.9H1039.05V457.339C1029.06 472.319 1013.2 480.837 992.344 480.837C964.146 480.837 945.054 462.92 945.054 439.421C945.054 408.58 972.077 390.957 1016.43 390.957H1039.05V387.138C1039.05 366.871 1025.53 353.947 1004.68 353.947C986.763 353.947 972.077 365.696 970.902 381.851H946.816C948.872 353.653 974.133 331.624 1004.68 331.624ZM996.75 459.395C1022.01 459.395 1039.05 440.596 1039.05 420.329V411.224H1016.14C985.882 411.224 969.139 419.742 969.139 437.072C969.139 450.289 979.714 459.395 996.75 459.395Z" fill="black"/>
<path d="M1222.31 395.95C1222.31 356.297 1199.4 331.624 1162.39 331.624C1141.83 331.624 1125.67 341.904 1116.57 359.528V334.561H1089.25V477.9H1116.57V398.887C1116.57 373.921 1132.13 357.472 1156.22 357.472C1180.01 357.472 1195.29 373.921 1195.29 398.887V477.9H1222.31V395.95Z" fill="black"/>
<path d="M1314.84 480.837C1273.13 480.837 1240.82 448.527 1240.82 406.524C1240.82 364.228 1273.13 331.624 1314.84 331.624C1348.33 331.624 1377.41 353.947 1382.1 383.907H1354.49C1350.38 368.633 1333.64 357.472 1314.84 357.472C1287.82 357.472 1267.26 378.62 1267.26 406.524C1267.26 433.841 1287.82 454.989 1314.84 454.989C1333.64 454.989 1350.97 443.827 1354.79 427.379H1382.1C1377.99 458.807 1348.62 480.837 1314.84 480.837Z" fill="black"/>
<path fill-rule="evenodd" clip-rule="evenodd" d="M1537.45 413.574C1537.74 411.224 1538.04 405.349 1538.04 402.706C1538.04 361.29 1507.2 331.624 1468.72 331.624C1427.6 331.624 1395.58 364.228 1395.58 405.643C1395.58 448.233 1427.3 480.837 1469.01 480.837C1503.67 480.837 1531.28 461.451 1536.57 431.491H1509.54C1506.02 446.765 1489.87 456.458 1469.89 456.458C1443.16 456.458 1425.54 439.421 1422.31 413.574H1537.45ZM1508.66 390.663H1423.19C1428.18 369.221 1445.22 356.297 1467.54 356.297C1490.16 356.297 1506.31 370.69 1508.66 390.663Z" fill="black"/>
</svg>
