<svg width="858" height="288" viewBox="0 0 858 288" fill="none" xmlns="http://www.w3.org/2000/svg">
<path d="M181.761 173.636L166.028 161.287C160.901 167.81 152.94 172 144 172C135.06 172 127.099 167.81 121.972 161.287L106.239 173.636C115.027 184.818 128.675 192 144 192C159.325 192 172.973 184.818 181.761 173.636Z" fill="white"/>
<path d="M192 144H172C172 128.536 159.464 116 144 116C128.536 116 116 128.536 116 144H96C96 117.49 117.49 96 144 96C170.51 96 192 117.49 192 144Z" fill="white"/>
<path fill-rule="evenodd" clip-rule="evenodd" d="M517.86 154.502C517.86 165.957 521.238 175.373 527.997 182.748C534.753 190.124 543.214 193.813 553.375 193.813C563.533 193.813 571.473 189.186 577.188 179.93V192.713H596.24V96H577.188V128.387C571.745 119.774 563.853 115.465 553.511 115.465C543.169 115.465 534.642 119.108 527.929 126.393C521.214 133.678 517.86 143.048 517.86 154.502ZM577.188 154.639C577.188 161.603 575.193 167.078 571.201 171.064C567.209 175.051 562.561 177.043 557.253 177.043C551.946 177.043 547.297 175.03 543.305 170.996C539.313 166.964 537.319 161.466 537.319 154.502C537.319 147.539 539.292 142.085 543.237 138.145C547.184 134.206 551.832 132.234 557.185 132.234C562.536 132.234 567.209 134.228 571.201 138.213C575.193 142.199 577.188 147.678 577.188 154.639Z" fill="white"/>
<path d="M511.589 111.341H475.939V136.493H507.516V151.334H475.945V177.871H511.589V192.712H456.755V164.603H456.749V98.5527H456.755V96.5001H511.589V111.341Z" fill="white"/>
<path fill-rule="evenodd" clip-rule="evenodd" d="M221.885 128.387C227.235 119.775 235.083 115.466 245.425 115.466C255.767 115.466 264.292 119.108 271.007 126.393C277.721 133.679 281.078 143.072 281.078 154.571C281.078 166.072 277.721 175.488 271.007 182.817C264.292 190.15 255.834 193.813 245.63 193.813C235.424 193.813 227.508 189.187 221.885 179.931V229.001H202.696V116.565H221.885V128.387ZM255.699 170.997C259.645 166.965 261.619 161.467 261.619 154.503C261.619 147.54 259.645 142.086 255.699 138.145C251.753 134.206 247.103 132.235 241.751 132.235C236.396 132.235 231.749 134.229 227.803 138.214C223.858 142.2 221.885 147.679 221.885 154.64C221.885 161.604 223.858 167.079 227.803 171.065C231.749 175.052 236.396 177.044 241.751 177.044C247.103 177.044 251.753 175.03 255.699 170.997Z" fill="white"/>
<path fill-rule="evenodd" clip-rule="evenodd" d="M326.517 193.813C315.541 193.813 306.604 190.218 299.711 183.024C292.816 175.83 289.37 166.323 289.37 154.503C289.37 142.681 292.84 133.221 299.78 126.118C306.719 119.017 315.7 115.466 326.723 115.466C337.745 115.466 346.794 118.926 353.869 125.843C360.946 132.763 364.484 141.993 364.484 153.54C364.484 156.199 364.3 158.673 363.94 160.964H308.964C309.417 165.911 311.23 169.897 314.407 172.919C317.582 175.944 321.62 177.458 326.517 177.458C333.139 177.458 338.038 174.708 341.215 169.21H361.899C359.721 176.448 355.503 182.359 349.243 186.94C342.984 191.523 335.407 193.813 326.517 193.813ZM339.105 136.358C335.704 133.335 331.598 131.823 326.789 131.823C321.98 131.823 317.966 133.335 314.747 136.358C311.527 139.382 309.598 143.415 308.964 148.454H344.616C344.344 143.415 342.506 139.382 339.105 136.358Z" fill="white"/>
<path d="M394.013 127.975V116.565H374.826V192.714H394.013V150.655C394.013 144.699 395.531 140.139 398.571 136.977C401.609 133.817 405.716 132.235 410.885 132.235C416.057 132.235 420.139 133.817 423.132 136.977C426.126 140.139 427.623 144.699 427.623 150.655V192.714H446.673V147.905C446.673 137.733 443.953 129.785 438.508 124.057C433.066 118.331 426.035 115.466 417.417 115.466C406.62 115.466 398.82 119.638 394.013 127.975Z" fill="white"/>
<path fill-rule="evenodd" clip-rule="evenodd" d="M642.099 193.813C631.123 193.813 622.186 190.218 615.293 183.024C608.398 175.83 604.952 166.323 604.952 154.503C604.952 142.681 608.422 133.221 615.362 126.118C622.302 119.017 631.282 115.466 642.305 115.466C653.327 115.466 662.376 118.926 669.451 125.843C676.528 132.763 680.066 141.993 680.066 153.54C680.066 156.199 679.882 158.673 679.522 160.964H624.546C624.999 165.911 626.812 169.897 629.989 172.919C633.164 175.944 637.202 177.458 642.099 177.458C648.721 177.458 653.62 174.708 656.797 169.21H677.481C675.303 176.448 671.085 182.359 664.825 186.94C658.566 191.523 650.989 193.813 642.099 193.813ZM654.687 136.358C651.286 133.335 647.18 131.823 642.371 131.823C637.562 131.823 633.548 133.335 630.329 136.358C627.109 139.382 625.18 143.415 624.546 148.454H660.198C659.926 143.415 658.089 139.382 654.687 136.358Z" fill="white"/>
<path d="M709.594 127.975V116.565H690.407V192.714H709.594V150.655C709.594 144.699 711.112 140.139 714.152 136.977C717.19 133.817 721.297 132.235 726.466 132.235C731.638 132.235 735.721 133.817 738.713 136.977C741.708 140.139 743.205 144.699 743.205 150.655V192.714H762.255V147.905C762.255 137.733 759.534 129.785 754.09 124.057C748.647 118.331 741.616 115.466 732.999 115.466C722.201 115.466 714.401 119.638 709.594 127.975Z" fill="white"/>
</svg>
