<?xml version="1.0" encoding="utf-8"?>
<!-- Generator: Adobe Illustrator 28.3.0, SVG Export Plug-In . SVG Version: 6.00 Build 0)  -->
<svg version="1.1" id="Spark-Logomark-Monochrome-RGB"
	 xmlns="http://www.w3.org/2000/svg" xmlns:xlink="http://www.w3.org/1999/xlink" x="0px" y="0px" viewBox="0 0 496.999939 497"
	 style="enable-background:new 0 0 496.999939 497;" xml:space="preserve">
<style type="text/css">
	.st0{fill:#FFFFFF;}
</style>
<path id="Spark-Logomark-Monochrome-RGB_00000121983288640229681790000015064240640982110398_" class="st0" d="
	M313.0350037,279.1967773h177.9819946c6.8460083,0,8.2250061-9.3209534,2-12.1679382L313.04599,185.0601959V6.3826313
	c0-6.6693368-8.9199829-8.8577614-11.9979858-2.9411669l-73.9880066,142.4588928l-81.9869995-37.6558304
	c-7.8439941-3.167984-12.6609955,3.2189789-9.9989929,8.707962l48.8909912,100.850563H5.9827905
	c-6.8455181,0-8.2251301,9.3209534-1.9996803,12.1679382l179.9708862,81.9696198v178.6772461
	c0,6.6689758,8.9199982,8.8569641,11.9980011,2.9410095l73.9880066-142.4593811l81.9869995,37.6557922
	c7.8439941,3.1679993,12.6610107-3.2179565,9.9989929-8.7079163L313.0350037,279.1967773z"/>
</svg>
